<?xml version="1.0" encoding="utf-8"?>
<!-- Generator: Adobe Illustrator 25.2.1, SVG Export Plug-In . SVG Version: 6.00 Build 0)  -->
<svg version="1.1" id="Layer_1" xmlns="http://www.w3.org/2000/svg" xmlns:xlink="http://www.w3.org/1999/xlink" x="0px" y="0px"
	 viewBox="0 0 595.3 841.9" style="enable-background:new 0 0 595.3 841.9;" xml:space="preserve">
<style type="text/css">
	.st0{fill:#FF8000;}
	.st1{fill:#36363A;}
	.st2{fill:#404041;}
	.st3{fill:#DDDDDD;}
	.st4{fill:#3D3D3D;}
	.st5{fill:#FEA00C;}
	.st6{fill:#F1F1F2;}
	.st7{fill:none;stroke:#E6E7E8;stroke-width:4;stroke-miterlimit:10;}
	.st8{opacity:0.58;}
	.st9{clip-path:url(#SVGID_12_);fill:#FFFFFF;}
	.st10{clip-path:url(#SVGID_12_);}
	.st11{fill:url(#SVGID_13_);}
	.st12{fill:url(#SVGID_14_);}
	.st13{fill:url(#SVGID_15_);}
	.st14{fill:url(#SVGID_16_);}
	.st15{fill:url(#SVGID_17_);}
	.st16{fill:url(#SVGID_18_);}
	.st17{fill:url(#SVGID_19_);}
	.st18{fill:url(#SVGID_20_);}
	.st19{fill:url(#SVGID_21_);}
	.st20{fill:url(#SVGID_22_);}
	.st21{fill:url(#SVGID_23_);}
	.st22{fill:url(#SVGID_24_);}
	.st23{fill:url(#SVGID_25_);}
	.st24{fill:url(#SVGID_26_);}
	.st25{fill:url(#SVGID_27_);}
	.st26{fill:url(#SVGID_28_);}
	.st27{fill:url(#SVGID_29_);}
	.st28{fill:none;}
	.st29{fill:url(#SVGID_30_);}
	.st30{fill:#212124;}
	.st31{fill:url(#SVGID_31_);}
	.st32{fill:url(#SVGID_32_);}
	.st33{fill:url(#SVGID_33_);}
	.st34{fill:url(#SVGID_34_);}
	.st35{fill:url(#SVGID_35_);}
	.st36{fill:url(#SVGID_36_);}
	.st37{fill:#7FAA3C;}
	.st38{fill:#698C32;}
	.st39{fill:#8CC63F;}
	.st40{fill:#E8A315;}
	.st41{fill:#B37D10;}
	.st42{fill:#FCB217;}
	.st43{fill:#3993C4;}
	.st44{fill:#2E779E;}
	.st45{fill:#40A5DD;}
	.st46{fill:#3E2E69;}
	.st47{fill:#0E0A17;}
	.st48{fill:#5A439A;}
	.st49{fill:#D9391F;}
	.st50{fill:#A12B17;}
	.st51{fill:#EF3E23;}
	.st52{opacity:0.6;fill:url(#SVGID_37_);}
	.st53{fill:url(#SVGID_38_);}
	.st54{fill:#B62025;}
	.st55{fill:#688DAF;}
	.st56{fill:#6CCAF3;}
	.st57{fill:#F37767;}
	.st58{fill:url(#SVGID_39_);}
	.st59{fill:#ADBAC8;}
	.st60{fill:#B73326;}
	.st61{fill:url(#SVGID_40_);}
	.st62{fill:#3D76BB;}
	.st63{fill:url(#SVGID_41_);}
	.st64{fill:#7E6AAF;}
	.st65{fill:url(#SVGID_42_);}
	.st66{fill:#E38625;}
	.st67{fill:url(#SVGID_43_);}
	.st68{fill:#76A440;}
	.st69{fill:none;stroke:#FFFFFF;stroke-width:0.5;stroke-linecap:round;stroke-linejoin:round;stroke-miterlimit:10;}
	.st70{font-family:'Poppins-Bold';}
	.st71{font-size:42.5977px;}
	.st72{fill-rule:evenodd;clip-rule:evenodd;fill:none;}
	.st73{font-family:'Poppins-Regular';}
	.st74{font-size:12px;}
	.st75{letter-spacing:1;}
	.st76{opacity:0.5;}
	.st77{fill:none;stroke:#36363A;stroke-linecap:round;stroke-miterlimit:10;}
	.st78{fill:url(#SVGID_44_);}
	.st79{fill:url(#SVGID_45_);}
	.st80{fill:url(#SVGID_46_);}
	.st81{fill:url(#SVGID_47_);}
	.st82{fill:url(#SVGID_48_);}
	.st83{fill-rule:evenodd;clip-rule:evenodd;fill:#FF8000;}
	.st84{fill:#FFFFFF;}
	.st85{fill-rule:evenodd;clip-rule:evenodd;fill:#FFFFFF;}
	.st86{fill-rule:evenodd;clip-rule:evenodd;fill:#36363A;}
	.st87{clip-path:url(#SVGID_50_);}
	.st88{opacity:0.2;}
	.st89{opacity:0.9;}
</style>
<g>
	<text transform="matrix(1 0 0 1 44.0289 99.0648)"><tspan x="0" y="0" class="st2 st70 st71">Handbook</tspan><tspan x="0" y="46.5" class="st0 st70 st71">Summary</tspan></text>
</g>
<rect x="52.2" y="177.1" class="st72" width="478" height="498.9"/>
<text transform="matrix(1 0 0 1 52.1725 185.9938)"><tspan x="0" y="0" class="st1 st73 st74">Contrary</tspan><tspan x="52.8" y="0" class="st1 st73 st74"> </tspan><tspan x="56.6" y="0" class="st1 st73 st74">to</tspan><tspan x="68.6" y="0" class="st1 st73 st74"> </tspan><tspan x="72.4" y="0" class="st1 st73 st74">popular</tspan><tspan x="119.5" y="0" class="st1 st73 st74"> </tspan><tspan x="123.3" y="0" class="st1 st73 st74">belief,</tspan><tspan x="158.5" y="0" class="st1 st73 st74"> </tspan><tspan x="162.3" y="0" class="st1 st73 st74">Lorem</tspan><tspan x="199.5" y="0" class="st1 st73 st74"> </tspan><tspan x="203.2" y="0" class="st1 st73 st74">Ipsum</tspan><tspan x="240.6" y="0" class="st1 st73 st74"> </tspan><tspan x="244.4" y="0" class="st1 st73 st74">is</tspan><tspan x="253.6" y="0" class="st1 st73 st74"> </tspan><tspan x="257.4" y="0" class="st1 st73 st74">not</tspan><tspan x="277.1" y="0" class="st1 st73 st74"> </tspan><tspan x="280.9" y="0" class="st1 st73 st74">simply</tspan><tspan x="320.3" y="0" class="st1 st73 st74"> </tspan><tspan x="324" y="0" class="st1 st73 st74">rakm</tspan><tspan x="355.2" y="0" class="st1 st73 st74"> </tspan><tspan x="359" y="0" class="st1 st73 st74">text</tspan><tspan x="380.9" y="0" class="st1 st73 st74"> </tspan><tspan x="384.7" y="0" class="st1 st73 st74">has</tspan><tspan x="406.7" y="0" class="st1 st73 st74"> </tspan><tspan x="410.5" y="0" class="st1 st73 st74">roots</tspan><tspan x="441" y="0" class="st1 st73 st74"> </tspan><tspan x="444.7" y="0" class="st1 st73 st74">piece </tspan><tspan x="0" y="24" class="st1 st73 st74">class</tspan><tspan x="30.9" y="24" class="st1 st73 st74 st75"> </tspan><tspan x="36" y="24" class="st1 st73 st74">Latin</tspan><tspan x="64.3" y="24" class="st1 st73 st74 st75"> </tspan><tspan x="69.5" y="24" class="st1 st73 st74">literature.Lorem</tspan><tspan x="163.4" y="24" class="st1 st73 st74 st75"> </tspan><tspan x="168.5" y="24" class="st1 st73 st74">ipsum</tspan><tspan x="205.9" y="24" class="st1 st73 st74 st75"> </tspan><tspan x="211.1" y="24" class="st1 st73 st74">dolor</tspan><tspan x="242" y="24" class="st1 st73 st74 st75"> </tspan><tspan x="247.1" y="24" class="st1 st73 st74">sit</tspan><tspan x="260.7" y="24" class="st1 st73 st74 st75"> </tspan><tspan x="265.8" y="24" class="st1 st73 st74">amet,</tspan><tspan x="300.5" y="24" class="st1 st73 st74 st75"> </tspan><tspan x="305.6" y="24" class="st1 st73 st74">consectetuer</tspan><tspan x="385" y="24" class="st1 st73 st74 st75"> </tspan><tspan x="390.2" y="24" class="st1 st73 st74">adipiscing</tspan><tspan x="452.7" y="24" class="st1 st73 st74 st75"> </tspan><tspan x="457.9" y="24" class="st1 st73 st74">elit, </tspan><tspan x="0" y="48" class="st1 st73 st74">sed</tspan><tspan x="21.8" y="48" class="st1 st73 st74 st75"> </tspan><tspan x="26.1" y="48" class="st1 st73 st74">diam</tspan><tspan x="57.6" y="48" class="st1 st73 st74 st75"> </tspan><tspan x="61.9" y="48" class="st1 st73 st74">nonummy</tspan><tspan x="124.1" y="48" class="st1 st73 st74 st75"> </tspan><tspan x="128.4" y="48" class="st1 st73 st74">nibh</tspan><tspan x="154.8" y="48" class="st1 st73 st74 st75"> </tspan><tspan x="159.1" y="48" class="st1 st73 st74">euismod</tspan><tspan x="211.6" y="48" class="st1 st73 st74 st75"> </tspan><tspan x="215.9" y="48" class="st1 st73 st74">tincidunt</tspan><tspan x="269" y="48" class="st1 st73 st74 st75"> </tspan><tspan x="273.3" y="48" class="st1 st73 st74">ut</tspan><tspan x="285.3" y="48" class="st1 st73 st74 st75"> </tspan><tspan x="289.6" y="48" class="st1 st73 st74">laoreet</tspan><tspan x="332.1" y="48" class="st1 st73 st74 st75"> </tspan><tspan x="336.4" y="48" class="st1 st73 st74">dolore</tspan><tspan x="374.7" y="48" class="st1 st73 st74 st75"> </tspan><tspan x="379" y="48" class="st1 st73 st74">magna</tspan><tspan x="423.4" y="48" class="st1 st73 st74 st75"> </tspan><tspan x="427.7" y="48" class="st1 st73 st74">aliquam </tspan><tspan x="0" y="72" class="st1 st73 st74">erat</tspan><tspan x="24.4" y="72" class="st1 st73 st74"> </tspan><tspan x="27.1" y="72" class="st1 st73 st74">volutpat.</tspan><tspan x="79.6" y="72" class="st1 st73 st74">  </tspan><tspan x="84.9" y="72" class="st1 st73 st74">Lorem</tspan><tspan x="122.1" y="72" class="st1 st73 st74"> </tspan><tspan x="124.7" y="72" class="st1 st73 st74">ipsum</tspan><tspan x="162.1" y="72" class="st1 st73 st74"> </tspan><tspan x="164.8" y="72" class="st1 st73 st74">dolor</tspan><tspan x="195.7" y="72" class="st1 st73 st74"> </tspan><tspan x="198.3" y="72" class="st1 st73 st74">sit</tspan><tspan x="211.9" y="72" class="st1 st73 st74"> </tspan><tspan x="214.6" y="72" class="st1 st73 st74">amet,</tspan><tspan x="249.2" y="72" class="st1 st73 st74"> </tspan><tspan x="251.9" y="72" class="st1 st73 st74">consectetuer</tspan><tspan x="331.3" y="72" class="st1 st73 st74"> </tspan><tspan x="334" y="72" class="st1 st73 st74">adipiscing</tspan><tspan x="396.5" y="72" class="st1 st73 st74"> </tspan><tspan x="399.2" y="72" class="st1 st73 st74">elit,</tspan><tspan x="419.3" y="72" class="st1 st73 st74"> </tspan><tspan x="421.9" y="72" class="st1 st73 st74">sed</tspan><tspan x="443.8" y="72" class="st1 st73 st74"> </tspan><tspan x="446.4" y="72" class="st1 st73 st74">diam </tspan><tspan x="0" y="96" class="st1 st73 st74">nonummy</tspan><tspan x="62.2" y="96" class="st1 st73 st74"> </tspan><tspan x="65.8" y="96" class="st1 st73 st74">nibh</tspan><tspan x="92.2" y="96" class="st1 st73 st74"> </tspan><tspan x="95.8" y="96" class="st1 st73 st74">euismod</tspan><tspan x="148.3" y="96" class="st1 st73 st74"> </tspan><tspan x="151.9" y="96" class="st1 st73 st74">tincidunt</tspan><tspan x="204.9" y="96" class="st1 st73 st74"> </tspan><tspan x="208.5" y="96" class="st1 st73 st74">ut</tspan><tspan x="220.6" y="96" class="st1 st73 st74"> </tspan><tspan x="224.2" y="96" class="st1 st73 st74">laoreet</tspan><tspan x="266.6" y="96" class="st1 st73 st74"> </tspan><tspan x="270.2" y="96" class="st1 st73 st74">dolore</tspan><tspan x="308.5" y="96" class="st1 st73 st74"> </tspan><tspan x="312.1" y="96" class="st1 st73 st74">magna</tspan><tspan x="356.5" y="96" class="st1 st73 st74"> </tspan><tspan x="360.1" y="96" class="st1 st73 st74">aliquam</tspan><tspan x="410.4" y="96" class="st1 st73 st74"> </tspan><tspan x="414" y="96" class="st1 st73 st74">erat</tspan><tspan x="438.4" y="96" class="st1 st73 st74"> </tspan><tspan x="441.9" y="96" class="st1 st73 st74">volut</tspan><tspan x="471.4" y="96" class="st1 st73 st74">-</tspan><tspan x="0" y="120" class="st1 st73 st74">pat.</tspan><tspan x="23.1" y="120" class="st1 st73 st74"> </tspan><tspan x="26.9" y="120" class="st1 st73 st74">Ut</tspan><tspan x="39.4" y="120" class="st1 st73 st74"> </tspan><tspan x="43.2" y="120" class="st1 st73 st74">wisi</tspan><tspan x="65.2" y="120" class="st1 st73 st74"> </tspan><tspan x="69" y="120" class="st1 st73 st74">enim</tspan><tspan x="99.4" y="120" class="st1 st73 st74"> </tspan><tspan x="103.2" y="120" class="st1 st73 st74">ad</tspan><tspan x="119.5" y="120" class="st1 st73 st74"> </tspan><tspan x="123.3" y="120" class="st1 st73 st74">minim</tspan><tspan x="161.6" y="120" class="st1 st73 st74"> </tspan><tspan x="165.4" y="120" class="st1 st73 st74">veniam,</tspan><tspan x="213" y="120" class="st1 st73 st74"> </tspan><tspan x="216.8" y="120" class="st1 st73 st74">quis</tspan><tspan x="241.8" y="120" class="st1 st73 st74"> </tspan><tspan x="245.6" y="120" class="st1 st73 st74">nostrud</tspan><tspan x="291.9" y="120" class="st1 st73 st74"> </tspan><tspan x="295.7" y="120" class="st1 st73 st74">exerci</tspan><tspan x="331" y="120" class="st1 st73 st74"> </tspan><tspan x="334.8" y="120" class="st1 st73 st74">tation</tspan><tspan x="370" y="120" class="st1 st73 st74"> </tspan><tspan x="373.8" y="120" class="st1 st73 st74">ullamcorper</tspan><tspan x="447.3" y="120" class="st1 st73 st74"> </tspan><tspan x="451.1" y="120" class="st1 st73 st74">sus</tspan><tspan x="471.3" y="120" class="st1 st73 st74">-</tspan><tspan x="0" y="144" class="st1 st73 st74">cipit lobortis.</tspan><tspan x="0" y="168" class="st1 st73 st74">Contrary</tspan><tspan x="52.8" y="168" class="st1 st73 st74"> </tspan><tspan x="56.6" y="168" class="st1 st73 st74">to</tspan><tspan x="68.6" y="168" class="st1 st73 st74"> </tspan><tspan x="72.4" y="168" class="st1 st73 st74">popular</tspan><tspan x="119.5" y="168" class="st1 st73 st74"> </tspan><tspan x="123.3" y="168" class="st1 st73 st74">belief,</tspan><tspan x="158.5" y="168" class="st1 st73 st74"> </tspan><tspan x="162.3" y="168" class="st1 st73 st74">Lorem</tspan><tspan x="199.5" y="168" class="st1 st73 st74"> </tspan><tspan x="203.2" y="168" class="st1 st73 st74">Ipsum</tspan><tspan x="240.6" y="168" class="st1 st73 st74"> </tspan><tspan x="244.4" y="168" class="st1 st73 st74">is</tspan><tspan x="253.6" y="168" class="st1 st73 st74"> </tspan><tspan x="257.4" y="168" class="st1 st73 st74">not</tspan><tspan x="277.1" y="168" class="st1 st73 st74"> </tspan><tspan x="280.9" y="168" class="st1 st73 st74">simply</tspan><tspan x="320.3" y="168" class="st1 st73 st74"> </tspan><tspan x="324" y="168" class="st1 st73 st74">rakm</tspan><tspan x="355.2" y="168" class="st1 st73 st74"> </tspan><tspan x="359" y="168" class="st1 st73 st74">text</tspan><tspan x="380.9" y="168" class="st1 st73 st74"> </tspan><tspan x="384.7" y="168" class="st1 st73 st74">has</tspan><tspan x="406.7" y="168" class="st1 st73 st74"> </tspan><tspan x="410.5" y="168" class="st1 st73 st74">roots</tspan><tspan x="441" y="168" class="st1 st73 st74"> </tspan><tspan x="444.7" y="168" class="st1 st73 st74">piece </tspan><tspan x="0" y="192" class="st1 st73 st74">class</tspan><tspan x="30.9" y="192" class="st1 st73 st74 st75"> </tspan><tspan x="36" y="192" class="st1 st73 st74">Latin</tspan><tspan x="64.3" y="192" class="st1 st73 st74 st75"> </tspan><tspan x="69.5" y="192" class="st1 st73 st74">literature.Lorem</tspan><tspan x="163.4" y="192" class="st1 st73 st74 st75"> </tspan><tspan x="168.5" y="192" class="st1 st73 st74">ipsum</tspan><tspan x="205.9" y="192" class="st1 st73 st74 st75"> </tspan><tspan x="211.1" y="192" class="st1 st73 st74">dolor</tspan><tspan x="242" y="192" class="st1 st73 st74 st75"> </tspan><tspan x="247.1" y="192" class="st1 st73 st74">sit</tspan><tspan x="260.7" y="192" class="st1 st73 st74 st75"> </tspan><tspan x="265.8" y="192" class="st1 st73 st74">amet,</tspan><tspan x="300.5" y="192" class="st1 st73 st74 st75"> </tspan><tspan x="305.6" y="192" class="st1 st73 st74">consectetuer</tspan><tspan x="385" y="192" class="st1 st73 st74 st75"> </tspan><tspan x="390.2" y="192" class="st1 st73 st74">adipiscing</tspan><tspan x="452.7" y="192" class="st1 st73 st74 st75"> </tspan><tspan x="457.9" y="192" class="st1 st73 st74">elit, </tspan><tspan x="0" y="216" class="st1 st73 st74">sed</tspan><tspan x="21.8" y="216" class="st1 st73 st74 st75"> </tspan><tspan x="26.1" y="216" class="st1 st73 st74">diam</tspan><tspan x="57.6" y="216" class="st1 st73 st74 st75"> </tspan><tspan x="61.9" y="216" class="st1 st73 st74">nonummy</tspan><tspan x="124.1" y="216" class="st1 st73 st74 st75"> </tspan><tspan x="128.4" y="216" class="st1 st73 st74">nibh</tspan><tspan x="154.8" y="216" class="st1 st73 st74 st75"> </tspan><tspan x="159.1" y="216" class="st1 st73 st74">euismod</tspan><tspan x="211.6" y="216" class="st1 st73 st74 st75"> </tspan><tspan x="215.9" y="216" class="st1 st73 st74">tincidunt</tspan><tspan x="269" y="216" class="st1 st73 st74 st75"> </tspan><tspan x="273.3" y="216" class="st1 st73 st74">ut</tspan><tspan x="285.3" y="216" class="st1 st73 st74 st75"> </tspan><tspan x="289.6" y="216" class="st1 st73 st74">laoreet</tspan><tspan x="332.1" y="216" class="st1 st73 st74 st75"> </tspan><tspan x="336.4" y="216" class="st1 st73 st74">dolore</tspan><tspan x="374.7" y="216" class="st1 st73 st74 st75"> </tspan><tspan x="379" y="216" class="st1 st73 st74">magna</tspan><tspan x="423.4" y="216" class="st1 st73 st74 st75"> </tspan><tspan x="427.7" y="216" class="st1 st73 st74">aliquam </tspan><tspan x="0" y="240" class="st1 st73 st74">erat</tspan><tspan x="24.4" y="240" class="st1 st73 st74"> </tspan><tspan x="27.1" y="240" class="st1 st73 st74">volutpat.</tspan><tspan x="79.6" y="240" class="st1 st73 st74">  </tspan><tspan x="84.9" y="240" class="st1 st73 st74">Lorem</tspan><tspan x="122.1" y="240" class="st1 st73 st74"> </tspan><tspan x="124.7" y="240" class="st1 st73 st74">ipsum</tspan><tspan x="162.1" y="240" class="st1 st73 st74"> </tspan><tspan x="164.8" y="240" class="st1 st73 st74">dolor</tspan><tspan x="195.7" y="240" class="st1 st73 st74"> </tspan><tspan x="198.3" y="240" class="st1 st73 st74">sit</tspan><tspan x="211.9" y="240" class="st1 st73 st74"> </tspan><tspan x="214.6" y="240" class="st1 st73 st74">amet,</tspan><tspan x="249.2" y="240" class="st1 st73 st74"> </tspan><tspan x="251.9" y="240" class="st1 st73 st74">consectetuer</tspan><tspan x="331.3" y="240" class="st1 st73 st74"> </tspan><tspan x="334" y="240" class="st1 st73 st74">adipiscing</tspan><tspan x="396.5" y="240" class="st1 st73 st74"> </tspan><tspan x="399.2" y="240" class="st1 st73 st74">elit,</tspan><tspan x="419.3" y="240" class="st1 st73 st74"> </tspan><tspan x="421.9" y="240" class="st1 st73 st74">sed</tspan><tspan x="443.8" y="240" class="st1 st73 st74"> </tspan><tspan x="446.4" y="240" class="st1 st73 st74">diam </tspan><tspan x="0" y="264" class="st1 st73 st74">nonummy</tspan><tspan x="62.2" y="264" class="st1 st73 st74"> </tspan><tspan x="65.8" y="264" class="st1 st73 st74">nibh</tspan><tspan x="92.2" y="264" class="st1 st73 st74"> </tspan><tspan x="95.8" y="264" class="st1 st73 st74">euismod</tspan><tspan x="148.3" y="264" class="st1 st73 st74"> </tspan><tspan x="151.9" y="264" class="st1 st73 st74">tincidunt</tspan><tspan x="204.9" y="264" class="st1 st73 st74"> </tspan><tspan x="208.5" y="264" class="st1 st73 st74">ut</tspan><tspan x="220.6" y="264" class="st1 st73 st74"> </tspan><tspan x="224.2" y="264" class="st1 st73 st74">laoreet</tspan><tspan x="266.6" y="264" class="st1 st73 st74"> </tspan><tspan x="270.2" y="264" class="st1 st73 st74">dolore</tspan><tspan x="308.5" y="264" class="st1 st73 st74"> </tspan><tspan x="312.1" y="264" class="st1 st73 st74">magna</tspan><tspan x="356.5" y="264" class="st1 st73 st74"> </tspan><tspan x="360.1" y="264" class="st1 st73 st74">aliquam</tspan><tspan x="410.4" y="264" class="st1 st73 st74"> </tspan><tspan x="414" y="264" class="st1 st73 st74">erat</tspan><tspan x="438.4" y="264" class="st1 st73 st74"> </tspan><tspan x="441.9" y="264" class="st1 st73 st74">volut</tspan><tspan x="471.4" y="264" class="st1 st73 st74">-</tspan><tspan x="0" y="288" class="st1 st73 st74">pat.</tspan><tspan x="23.1" y="288" class="st1 st73 st74"> </tspan><tspan x="26.9" y="288" class="st1 st73 st74">Ut</tspan><tspan x="39.4" y="288" class="st1 st73 st74"> </tspan><tspan x="43.2" y="288" class="st1 st73 st74">wisi</tspan><tspan x="65.2" y="288" class="st1 st73 st74"> </tspan><tspan x="69" y="288" class="st1 st73 st74">enim</tspan><tspan x="99.4" y="288" class="st1 st73 st74"> </tspan><tspan x="103.2" y="288" class="st1 st73 st74">ad</tspan><tspan x="119.5" y="288" class="st1 st73 st74"> </tspan><tspan x="123.3" y="288" class="st1 st73 st74">minim</tspan><tspan x="161.6" y="288" class="st1 st73 st74"> </tspan><tspan x="165.4" y="288" class="st1 st73 st74">veniam,</tspan><tspan x="213" y="288" class="st1 st73 st74"> </tspan><tspan x="216.8" y="288" class="st1 st73 st74">quis</tspan><tspan x="241.8" y="288" class="st1 st73 st74"> </tspan><tspan x="245.6" y="288" class="st1 st73 st74">nostrud</tspan><tspan x="291.9" y="288" class="st1 st73 st74"> </tspan><tspan x="295.7" y="288" class="st1 st73 st74">exerci</tspan><tspan x="331" y="288" class="st1 st73 st74"> </tspan><tspan x="334.8" y="288" class="st1 st73 st74">tation</tspan><tspan x="370" y="288" class="st1 st73 st74"> </tspan><tspan x="373.8" y="288" class="st1 st73 st74">ullamcorper</tspan><tspan x="447.3" y="288" class="st1 st73 st74"> </tspan><tspan x="451.1" y="288" class="st1 st73 st74">sus</tspan><tspan x="471.3" y="288" class="st1 st73 st74">-</tspan><tspan x="0" y="312" class="st1 st73 st74">cipit lobortis.</tspan><tspan x="0" y="336" class="st1 st73 st74">Contrary</tspan><tspan x="52.8" y="336" class="st1 st73 st74"> </tspan><tspan x="56.6" y="336" class="st1 st73 st74">to</tspan><tspan x="68.6" y="336" class="st1 st73 st74"> </tspan><tspan x="72.4" y="336" class="st1 st73 st74">popular</tspan><tspan x="119.5" y="336" class="st1 st73 st74"> </tspan><tspan x="123.3" y="336" class="st1 st73 st74">belief,</tspan><tspan x="158.5" y="336" class="st1 st73 st74"> </tspan><tspan x="162.3" y="336" class="st1 st73 st74">Lorem</tspan><tspan x="199.5" y="336" class="st1 st73 st74"> </tspan><tspan x="203.2" y="336" class="st1 st73 st74">Ipsum</tspan><tspan x="240.6" y="336" class="st1 st73 st74"> </tspan><tspan x="244.4" y="336" class="st1 st73 st74">is</tspan><tspan x="253.6" y="336" class="st1 st73 st74"> </tspan><tspan x="257.4" y="336" class="st1 st73 st74">not</tspan><tspan x="277.1" y="336" class="st1 st73 st74"> </tspan><tspan x="280.9" y="336" class="st1 st73 st74">simply</tspan><tspan x="320.3" y="336" class="st1 st73 st74"> </tspan><tspan x="324" y="336" class="st1 st73 st74">rakm</tspan><tspan x="355.2" y="336" class="st1 st73 st74"> </tspan><tspan x="359" y="336" class="st1 st73 st74">text</tspan><tspan x="380.9" y="336" class="st1 st73 st74"> </tspan><tspan x="384.7" y="336" class="st1 st73 st74">has</tspan><tspan x="406.7" y="336" class="st1 st73 st74"> </tspan><tspan x="410.5" y="336" class="st1 st73 st74">roots</tspan><tspan x="441" y="336" class="st1 st73 st74"> </tspan><tspan x="444.7" y="336" class="st1 st73 st74">piece </tspan><tspan x="0" y="360" class="st1 st73 st74">class</tspan><tspan x="30.9" y="360" class="st1 st73 st74 st75"> </tspan><tspan x="36" y="360" class="st1 st73 st74">Latin</tspan><tspan x="64.3" y="360" class="st1 st73 st74 st75"> </tspan><tspan x="69.5" y="360" class="st1 st73 st74">literature.Lorem</tspan><tspan x="163.4" y="360" class="st1 st73 st74 st75"> </tspan><tspan x="168.5" y="360" class="st1 st73 st74">ipsum</tspan><tspan x="205.9" y="360" class="st1 st73 st74 st75"> </tspan><tspan x="211.1" y="360" class="st1 st73 st74">dolor</tspan><tspan x="242" y="360" class="st1 st73 st74 st75"> </tspan><tspan x="247.1" y="360" class="st1 st73 st74">sit</tspan><tspan x="260.7" y="360" class="st1 st73 st74 st75"> </tspan><tspan x="265.8" y="360" class="st1 st73 st74">amet,</tspan><tspan x="300.5" y="360" class="st1 st73 st74 st75"> </tspan><tspan x="305.6" y="360" class="st1 st73 st74">consectetuer</tspan><tspan x="385" y="360" class="st1 st73 st74 st75"> </tspan><tspan x="390.2" y="360" class="st1 st73 st74">adipiscing</tspan><tspan x="452.7" y="360" class="st1 st73 st74 st75"> </tspan><tspan x="457.9" y="360" class="st1 st73 st74">elit, </tspan><tspan x="0" y="384" class="st1 st73 st74">sed</tspan><tspan x="21.8" y="384" class="st1 st73 st74 st75"> </tspan><tspan x="26.1" y="384" class="st1 st73 st74">diam</tspan><tspan x="57.6" y="384" class="st1 st73 st74 st75"> </tspan><tspan x="61.9" y="384" class="st1 st73 st74">nonummy</tspan><tspan x="124.1" y="384" class="st1 st73 st74 st75"> </tspan><tspan x="128.4" y="384" class="st1 st73 st74">nibh</tspan><tspan x="154.8" y="384" class="st1 st73 st74 st75"> </tspan><tspan x="159.1" y="384" class="st1 st73 st74">euismod</tspan><tspan x="211.6" y="384" class="st1 st73 st74 st75"> </tspan><tspan x="215.9" y="384" class="st1 st73 st74">tincidunt</tspan><tspan x="269" y="384" class="st1 st73 st74 st75"> </tspan><tspan x="273.3" y="384" class="st1 st73 st74">ut</tspan><tspan x="285.3" y="384" class="st1 st73 st74 st75"> </tspan><tspan x="289.6" y="384" class="st1 st73 st74">laoreet</tspan><tspan x="332.1" y="384" class="st1 st73 st74 st75"> </tspan><tspan x="336.4" y="384" class="st1 st73 st74">dolore</tspan><tspan x="374.7" y="384" class="st1 st73 st74 st75"> </tspan><tspan x="379" y="384" class="st1 st73 st74">magna</tspan><tspan x="423.4" y="384" class="st1 st73 st74 st75"> </tspan><tspan x="427.7" y="384" class="st1 st73 st74">aliquam </tspan><tspan x="0" y="408" class="st1 st73 st74">erat</tspan><tspan x="24.4" y="408" class="st1 st73 st74"> </tspan><tspan x="27.1" y="408" class="st1 st73 st74">volutpat.</tspan><tspan x="79.6" y="408" class="st1 st73 st74">  </tspan><tspan x="84.9" y="408" class="st1 st73 st74">Lorem</tspan><tspan x="122.1" y="408" class="st1 st73 st74"> </tspan><tspan x="124.7" y="408" class="st1 st73 st74">ipsum</tspan><tspan x="162.1" y="408" class="st1 st73 st74"> </tspan><tspan x="164.8" y="408" class="st1 st73 st74">dolor</tspan><tspan x="195.7" y="408" class="st1 st73 st74"> </tspan><tspan x="198.3" y="408" class="st1 st73 st74">sit</tspan><tspan x="211.9" y="408" class="st1 st73 st74"> </tspan><tspan x="214.6" y="408" class="st1 st73 st74">amet,</tspan><tspan x="249.2" y="408" class="st1 st73 st74"> </tspan><tspan x="251.9" y="408" class="st1 st73 st74">consectetuer</tspan><tspan x="331.3" y="408" class="st1 st73 st74"> </tspan><tspan x="334" y="408" class="st1 st73 st74">adipiscing</tspan><tspan x="396.5" y="408" class="st1 st73 st74"> </tspan><tspan x="399.2" y="408" class="st1 st73 st74">elit,</tspan><tspan x="419.3" y="408" class="st1 st73 st74"> </tspan><tspan x="421.9" y="408" class="st1 st73 st74">sed</tspan><tspan x="443.8" y="408" class="st1 st73 st74"> </tspan><tspan x="446.4" y="408" class="st1 st73 st74">diam </tspan><tspan x="0" y="432" class="st1 st73 st74">nonummy</tspan><tspan x="62.2" y="432" class="st1 st73 st74"> </tspan><tspan x="65.8" y="432" class="st1 st73 st74">nibh</tspan><tspan x="92.2" y="432" class="st1 st73 st74"> </tspan><tspan x="95.8" y="432" class="st1 st73 st74">euismod</tspan><tspan x="148.3" y="432" class="st1 st73 st74"> </tspan><tspan x="151.9" y="432" class="st1 st73 st74">tincidunt</tspan><tspan x="204.9" y="432" class="st1 st73 st74"> </tspan><tspan x="208.5" y="432" class="st1 st73 st74">ut</tspan><tspan x="220.6" y="432" class="st1 st73 st74"> </tspan><tspan x="224.2" y="432" class="st1 st73 st74">laoreet</tspan><tspan x="266.6" y="432" class="st1 st73 st74"> </tspan><tspan x="270.2" y="432" class="st1 st73 st74">dolore</tspan><tspan x="308.5" y="432" class="st1 st73 st74"> </tspan><tspan x="312.1" y="432" class="st1 st73 st74">magna</tspan><tspan x="356.5" y="432" class="st1 st73 st74"> </tspan><tspan x="360.1" y="432" class="st1 st73 st74">aliquam</tspan><tspan x="410.4" y="432" class="st1 st73 st74"> </tspan><tspan x="414" y="432" class="st1 st73 st74">erat</tspan><tspan x="438.4" y="432" class="st1 st73 st74"> </tspan><tspan x="441.9" y="432" class="st1 st73 st74">volut</tspan><tspan x="471.4" y="432" class="st1 st73 st74">-</tspan><tspan x="0" y="456" class="st1 st73 st74">pat.</tspan><tspan x="23.1" y="456" class="st1 st73 st74"> </tspan><tspan x="26.9" y="456" class="st1 st73 st74">Ut</tspan><tspan x="39.4" y="456" class="st1 st73 st74"> </tspan><tspan x="43.2" y="456" class="st1 st73 st74">wisi</tspan><tspan x="65.2" y="456" class="st1 st73 st74"> </tspan><tspan x="69" y="456" class="st1 st73 st74">enim</tspan><tspan x="99.4" y="456" class="st1 st73 st74"> </tspan><tspan x="103.2" y="456" class="st1 st73 st74">ad</tspan><tspan x="119.5" y="456" class="st1 st73 st74"> </tspan><tspan x="123.3" y="456" class="st1 st73 st74">minim</tspan><tspan x="161.6" y="456" class="st1 st73 st74"> </tspan><tspan x="165.4" y="456" class="st1 st73 st74">veniam,</tspan><tspan x="213" y="456" class="st1 st73 st74"> </tspan><tspan x="216.8" y="456" class="st1 st73 st74">quis</tspan><tspan x="241.8" y="456" class="st1 st73 st74"> </tspan><tspan x="245.6" y="456" class="st1 st73 st74">nostrud</tspan><tspan x="291.9" y="456" class="st1 st73 st74"> </tspan><tspan x="295.7" y="456" class="st1 st73 st74">exerci</tspan><tspan x="331" y="456" class="st1 st73 st74"> </tspan><tspan x="334.8" y="456" class="st1 st73 st74">tation</tspan><tspan x="370" y="456" class="st1 st73 st74"> </tspan><tspan x="373.8" y="456" class="st1 st73 st74">ullamcorper</tspan><tspan x="447.3" y="456" class="st1 st73 st74"> </tspan><tspan x="451.1" y="456" class="st1 st73 st74">sus</tspan><tspan x="471.3" y="456" class="st1 st73 st74">-</tspan><tspan x="0" y="480" class="st1 st73 st74">cipit lobortis.</tspan></text>
</svg>
