<?xml version="1.0" encoding="utf-8"?>
<!-- Generator: Adobe Illustrator 25.2.1, SVG Export Plug-In . SVG Version: 6.00 Build 0)  -->
<svg version="1.1" id="_x30_1" xmlns="http://www.w3.org/2000/svg" xmlns:xlink="http://www.w3.org/1999/xlink" x="0px" y="0px"
	 viewBox="0 0 792 612" style="enable-background:new 0 0 792 612;" xml:space="preserve">
<style type="text/css">
	.st0{opacity:0.25;}
	.st1{clip-path:url(#SVGID_10_);fill:#FFFFFF;}
	.st2{opacity:0.57;clip-path:url(#SVGID_10_);fill:#D0D2D3;}
	.st3{clip-path:url(#SVGID_10_);fill:#00ADEE;}
	.st4{clip-path:url(#SVGID_12_);}
	.st5{display:none;}
	.st6{display:inline;}
	.st7{display:inline;clip-path:url(#SVGID_14_);fill:#36363A;}
	.st8{display:inline;clip-path:url(#SVGID_14_);}
	.st9{fill:#00ADEE;}
	.st10{display:inline;clip-path:url(#SVGID_14_);fill:#00ADEE;}
	.st11{fill:#36363A;}
	.st12{clip-path:url(#SVGID_18_);fill:#00ADEE;}
	.st13{clip-path:url(#SVGID_26_);fill:#00ADEE;}
	.st14{opacity:0.38;}
	.st15{opacity:0.87;fill:#FFFFFF;}
	.st16{fill:#1E1B1B;}
	.st17{font-family:'Georgia-Bold';}
	.st18{font-size:32.818px;}
	.st19{font-family:'Georgia';}
	.st20{font-size:31px;}
	.st21{font-size:18.5586px;}
	.st22{font-size:22.2246px;}
	.st23{font-size:25.4091px;}
	.st24{opacity:0.3;}
	.st25{opacity:3.000000e-02;fill:#FFFFFF;}
	.st26{fill:#FFFFFF;}
	.st27{opacity:0.74;clip-path:url(#SVGID_34_);fill:#FFFFFF;}
	.st28{clip-path:url(#SVGID_34_);}
	.st29{fill:none;stroke:#000000;stroke-width:3.1849;stroke-miterlimit:10;}
	.st30{opacity:0.74;clip-path:url(#SVGID_38_);fill:#FFFFFF;}
	.st31{clip-path:url(#SVGID_38_);}
	.st32{clip-path:url(#SVGID_40_);fill:#36363A;}
	.st33{fill-rule:evenodd;clip-rule:evenodd;fill:#FFFFFF;}
	.st34{fill:url(#SVGID_43_);}
	.st35{fill:url(#SVGID_44_);}
	.st36{fill:url(#SVGID_45_);}
	.st37{fill:url(#SVGID_46_);}
	.st38{fill:url(#SVGID_47_);}
	.st39{fill-rule:evenodd;clip-rule:evenodd;fill:#36363A;}
	.st40{fill:none;stroke:#36363A;stroke-linecap:round;stroke-miterlimit:10;}
	.st41{clip-path:url(#SVGID_49_);fill:#00ADEE;}
	.st42{clip-path:url(#SVGID_49_);fill:#D0D2D3;}
	.st43{font-size:21.5713px;}
</style>
<g id="_x34_">
	<g>
		<g>
			<g>
				<defs>
					<polygon id="SVGID_23_" points="792,0 792,135.2 766.4,135.2 766.4,23.4 24,23.4 24,135.2 0.9,135.2 0.9,0 					"/>
				</defs>
				<clipPath id="SVGID_2_">
					<use xlink:href="#SVGID_23_"  style="overflow:visible;"/>
				</clipPath>
			</g>
			<g>
				<defs>
					<polygon id="SVGID_25_" points="792,0 792,135.2 766.4,135.2 766.4,23.4 24,23.4 24,135.2 0.9,135.2 0.9,0 					"/>
				</defs>
				<use xlink:href="#SVGID_25_"  style="overflow:visible;fill:#00ADEE;"/>
				<clipPath id="SVGID_4_">
					<use xlink:href="#SVGID_25_"  style="overflow:visible;"/>
				</clipPath>
				<rect x="0.9" style="clip-path:url(#SVGID_4_);fill:#00ADEE;" width="2.6" height="135.2"/>
				<rect x="3.5" style="clip-path:url(#SVGID_4_);fill:#00ADEE;" width="2.6" height="135.2"/>
				<rect x="6.1" style="clip-path:url(#SVGID_4_);fill:#00ADEE;" width="2.6" height="135.2"/>
				<rect x="8.8" style="clip-path:url(#SVGID_4_);fill:#00ADEE;" width="2.6" height="135.2"/>
				<rect x="11.4" style="clip-path:url(#SVGID_4_);fill:#00ADEE;" width="2.6" height="135.2"/>
				<rect x="14" style="clip-path:url(#SVGID_4_);fill:#00ADEE;" width="2.6" height="135.2"/>
				<rect x="16.7" style="clip-path:url(#SVGID_4_);fill:#00ADEE;" width="2.6" height="135.2"/>
				<rect x="19.3" style="clip-path:url(#SVGID_4_);fill:#00ADEE;" width="2.6" height="135.2"/>
				<rect x="21.9" style="clip-path:url(#SVGID_4_);fill:#00ADEE;" width="2.6" height="135.2"/>
				<rect x="24.6" style="clip-path:url(#SVGID_4_);fill:#00ADEE;" width="2.6" height="135.2"/>
				<rect x="27.2" style="clip-path:url(#SVGID_4_);fill:#00ADEE;" width="2.6" height="135.2"/>
				<rect x="29.8" style="clip-path:url(#SVGID_4_);fill:#00ADEE;" width="2.6" height="135.2"/>
				<rect x="32.5" style="clip-path:url(#SVGID_4_);fill:#00ADEE;" width="2.6" height="135.2"/>
				<rect x="35.1" style="clip-path:url(#SVGID_4_);fill:#00ADEE;" width="2.6" height="135.2"/>
				<rect x="37.7" style="clip-path:url(#SVGID_4_);fill:#00ADEE;" width="2.6" height="135.2"/>
				<rect x="40.4" style="clip-path:url(#SVGID_4_);fill:#00ADEE;" width="2.6" height="135.2"/>
				<rect x="43" style="clip-path:url(#SVGID_4_);fill:#00ADEE;" width="2.6" height="135.2"/>
				<rect x="45.6" style="clip-path:url(#SVGID_4_);fill:#00ADEE;" width="2.6" height="135.2"/>
				<rect x="48.3" style="clip-path:url(#SVGID_4_);fill:#00ADEE;" width="2.6" height="135.2"/>
				<rect x="50.9" style="clip-path:url(#SVGID_4_);fill:#00ADEE;" width="2.6" height="135.2"/>
				<rect x="53.5" style="clip-path:url(#SVGID_4_);fill:#00ADEE;" width="2.6" height="135.2"/>
				<rect x="56.1" style="clip-path:url(#SVGID_4_);fill:#00ADEE;" width="2.6" height="135.2"/>
				<rect x="58.8" style="clip-path:url(#SVGID_4_);fill:#00ADEE;" width="2.6" height="135.2"/>
				<rect x="61.4" style="clip-path:url(#SVGID_4_);fill:#00ADEE;" width="2.6" height="135.2"/>
				<rect x="64" style="clip-path:url(#SVGID_4_);fill:#00ADEE;" width="2.6" height="135.2"/>
				<rect x="66.7" style="clip-path:url(#SVGID_4_);fill:#00ADEE;" width="2.6" height="135.2"/>
				<rect x="69.3" style="clip-path:url(#SVGID_4_);fill:#00ADEE;" width="2.6" height="135.2"/>
				<rect x="71.9" style="clip-path:url(#SVGID_4_);fill:#00ADEE;" width="2.6" height="135.2"/>
				<rect x="74.6" style="clip-path:url(#SVGID_4_);fill:#00ADEE;" width="2.6" height="135.2"/>
				<rect x="77.2" style="clip-path:url(#SVGID_4_);fill:#00ADEE;" width="2.6" height="135.2"/>
				<rect x="79.8" style="clip-path:url(#SVGID_4_);fill:#00ADEE;" width="2.6" height="135.2"/>
				<rect x="82.5" style="clip-path:url(#SVGID_4_);fill:#00ADEE;" width="2.6" height="135.2"/>
				<rect x="85.1" style="clip-path:url(#SVGID_4_);fill:#00ADEE;" width="2.6" height="135.2"/>
				<rect x="87.7" style="clip-path:url(#SVGID_4_);fill:#00ADEE;" width="2.6" height="135.2"/>
				<rect x="90.4" style="clip-path:url(#SVGID_4_);fill:#00ADEE;" width="2.6" height="135.2"/>
				<rect x="93" style="clip-path:url(#SVGID_4_);fill:#00ADEE;" width="2.6" height="135.2"/>
				<rect x="95.6" style="clip-path:url(#SVGID_4_);fill:#00ADEE;" width="2.6" height="135.2"/>
				<rect x="98.3" style="clip-path:url(#SVGID_4_);fill:#00ADEE;" width="2.6" height="135.2"/>
				<rect x="100.9" style="clip-path:url(#SVGID_4_);fill:#00ADEE;" width="2.6" height="135.2"/>
				<rect x="103.5" style="clip-path:url(#SVGID_4_);fill:#00ADEE;" width="2.6" height="135.2"/>
				<rect x="106.2" style="clip-path:url(#SVGID_4_);fill:#00ADEE;" width="2.6" height="135.2"/>
				<rect x="108.8" style="clip-path:url(#SVGID_4_);fill:#00ADEE;" width="2.6" height="135.2"/>
				<rect x="111.4" style="clip-path:url(#SVGID_4_);fill:#00ADEE;" width="2.6" height="135.2"/>
				<rect x="114.1" style="clip-path:url(#SVGID_4_);fill:#00ADEE;" width="2.6" height="135.2"/>
				<rect x="116.7" style="clip-path:url(#SVGID_4_);fill:#00ADEE;" width="2.6" height="135.2"/>
				<rect x="119.3" style="clip-path:url(#SVGID_4_);fill:#00ADEE;" width="2.6" height="135.2"/>
				<rect x="122" style="clip-path:url(#SVGID_4_);fill:#00ADEE;" width="2.6" height="135.2"/>
				<rect x="124.6" style="clip-path:url(#SVGID_4_);fill:#00ADEE;" width="2.6" height="135.2"/>
				<rect x="127.2" style="clip-path:url(#SVGID_4_);fill:#00ADEE;" width="2.6" height="135.2"/>
				<rect x="129.9" style="clip-path:url(#SVGID_4_);fill:#00ADEE;" width="2.6" height="135.2"/>
				<rect x="132.5" style="clip-path:url(#SVGID_4_);fill:#00ADEE;" width="2.6" height="135.2"/>
				<rect x="135.1" style="clip-path:url(#SVGID_4_);fill:#00ADEE;" width="2.6" height="135.2"/>
				<rect x="137.7" style="clip-path:url(#SVGID_4_);fill:#00ADEE;" width="2.6" height="135.2"/>
				<rect x="140.4" style="clip-path:url(#SVGID_4_);fill:#00ADEE;" width="2.6" height="135.2"/>
				<rect x="143" style="clip-path:url(#SVGID_4_);fill:#00ADEE;" width="2.6" height="135.2"/>
				<rect x="145.6" style="clip-path:url(#SVGID_4_);fill:#00ADEE;" width="2.6" height="135.2"/>
				<rect x="148.3" style="clip-path:url(#SVGID_4_);fill:#00ADEE;" width="2.6" height="135.2"/>
				<rect x="150.9" style="clip-path:url(#SVGID_4_);fill:#00ADEE;" width="2.6" height="135.2"/>
				<rect x="153.5" style="clip-path:url(#SVGID_4_);fill:#00ADEE;" width="2.6" height="135.2"/>
				<rect x="156.2" style="clip-path:url(#SVGID_4_);fill:#00ADEE;" width="2.6" height="135.2"/>
				<rect x="158.8" style="clip-path:url(#SVGID_4_);fill:#00ADEE;" width="2.6" height="135.2"/>
				<rect x="161.4" style="clip-path:url(#SVGID_4_);fill:#00ADEE;" width="2.6" height="135.2"/>
				<rect x="164.1" style="clip-path:url(#SVGID_4_);fill:#00ADEE;" width="2.6" height="135.2"/>
				<rect x="166.7" style="clip-path:url(#SVGID_4_);fill:#00ADEE;" width="2.6" height="135.2"/>
				<rect x="169.3" style="clip-path:url(#SVGID_4_);fill:#00ADEE;" width="2.6" height="135.2"/>
				<rect x="172" style="clip-path:url(#SVGID_4_);fill:#00ADEE;" width="2.6" height="135.2"/>
				<rect x="174.6" style="clip-path:url(#SVGID_4_);fill:#00ADEE;" width="2.6" height="135.2"/>
				<rect x="177.2" style="clip-path:url(#SVGID_4_);fill:#00ADEE;" width="2.6" height="135.2"/>
				<rect x="179.9" style="clip-path:url(#SVGID_4_);fill:#00ADEE;" width="2.1" height="135.2"/>
				<rect x="182" style="clip-path:url(#SVGID_4_);fill:#00ADEE;" width="2.1" height="135.2"/>
				<rect x="184.1" style="clip-path:url(#SVGID_4_);fill:#00ADEE;" width="2.1" height="135.2"/>
				<rect x="186.3" style="clip-path:url(#SVGID_4_);fill:#00ADEE;" width="2.1" height="135.2"/>
				<rect x="188.4" style="clip-path:url(#SVGID_4_);fill:#00ADEE;" width="2.1" height="135.2"/>
				<rect x="190.6" style="clip-path:url(#SVGID_4_);fill:#00ADEE;" width="2.1" height="135.2"/>
				<rect x="192.7" style="clip-path:url(#SVGID_4_);fill:#00ADEE;" width="2.1" height="135.2"/>
				<rect x="194.8" style="clip-path:url(#SVGID_4_);fill:#00ADEE;" width="2.1" height="135.2"/>
				<rect x="197" style="clip-path:url(#SVGID_4_);fill:#00ADEE;" width="2.1" height="135.2"/>
				<rect x="199.1" style="clip-path:url(#SVGID_4_);fill:#00ADEE;" width="2.1" height="135.2"/>
				<rect x="201.3" style="clip-path:url(#SVGID_4_);fill:#00ADEE;" width="2.1" height="135.2"/>
				<rect x="203.4" style="clip-path:url(#SVGID_4_);fill:#00ADEE;" width="2.1" height="135.2"/>
				<rect x="205.5" style="clip-path:url(#SVGID_4_);fill:#00ADEE;" width="2.1" height="135.2"/>
				<rect x="207.7" style="clip-path:url(#SVGID_4_);fill:#00ADEE;" width="2.1" height="135.2"/>
				<rect x="209.8" style="clip-path:url(#SVGID_4_);fill:#00ADEE;" width="2.1" height="135.2"/>
				<rect x="211.9" style="clip-path:url(#SVGID_4_);fill:#00ADEE;" width="2.1" height="135.2"/>
				<rect x="214.1" style="clip-path:url(#SVGID_4_);fill:#00ADEE;" width="2.1" height="135.2"/>
				<rect x="216.2" style="clip-path:url(#SVGID_4_);fill:#00ADEE;" width="2.1" height="135.2"/>
				<rect x="218.4" style="clip-path:url(#SVGID_4_);fill:#00ADEE;" width="2.1" height="135.2"/>
				<rect x="220.5" style="clip-path:url(#SVGID_4_);fill:#00ADEE;" width="2.1" height="135.2"/>
				<rect x="222.6" style="clip-path:url(#SVGID_4_);fill:#00ADEE;" width="2.1" height="135.2"/>
				<rect x="224.8" style="clip-path:url(#SVGID_4_);fill:#00ADEE;" width="2.1" height="135.2"/>
				<rect x="226.9" style="clip-path:url(#SVGID_4_);fill:#00ADEE;" width="2.1" height="135.2"/>
				<rect x="229.1" style="clip-path:url(#SVGID_4_);fill:#00ADEE;" width="2.1" height="135.2"/>
				<rect x="231.2" style="clip-path:url(#SVGID_4_);fill:#00ADEE;" width="2.1" height="135.2"/>
				<rect x="233.3" style="clip-path:url(#SVGID_4_);fill:#00ADEE;" width="2.1" height="135.2"/>
				<rect x="235.5" style="clip-path:url(#SVGID_4_);fill:#00ADEE;" width="2.1" height="135.2"/>
				<rect x="237.6" style="clip-path:url(#SVGID_4_);fill:#00ADEE;" width="2.1" height="135.2"/>
				<rect x="239.7" style="clip-path:url(#SVGID_4_);fill:#00ADEE;" width="2.1" height="135.2"/>
				<rect x="241.9" style="clip-path:url(#SVGID_4_);fill:#00ADEE;" width="2.1" height="135.2"/>
				<rect x="244" style="clip-path:url(#SVGID_4_);fill:#00ADEE;" width="2.1" height="135.2"/>
				<rect x="246.2" style="clip-path:url(#SVGID_4_);fill:#00ADEE;" width="2.1" height="135.2"/>
				<rect x="248.3" style="clip-path:url(#SVGID_4_);fill:#00ADEE;" width="2.1" height="135.2"/>
				<rect x="250.4" style="clip-path:url(#SVGID_4_);fill:#00ADEE;" width="2.1" height="135.2"/>
				<rect x="252.6" style="clip-path:url(#SVGID_4_);fill:#00ADEE;" width="2.1" height="135.2"/>
				<rect x="254.7" style="clip-path:url(#SVGID_4_);fill:#00ADEE;" width="2.1" height="135.2"/>
				<rect x="256.9" style="clip-path:url(#SVGID_4_);fill:#00ADEE;" width="2.1" height="135.2"/>
				<rect x="259" style="clip-path:url(#SVGID_4_);fill:#00ADEE;" width="2.1" height="135.2"/>
				<rect x="261.1" style="clip-path:url(#SVGID_4_);fill:#00ADEE;" width="2.1" height="135.2"/>
				<rect x="263.3" style="clip-path:url(#SVGID_4_);fill:#00ADEE;" width="2.1" height="135.2"/>
				<rect x="265.4" style="clip-path:url(#SVGID_4_);fill:#00ADEE;" width="2.1" height="135.2"/>
				<rect x="267.5" style="clip-path:url(#SVGID_4_);fill:#00ADEE;" width="2.1" height="135.2"/>
				<rect x="269.7" style="clip-path:url(#SVGID_4_);fill:#00ADEE;" width="2.1" height="135.2"/>
				<rect x="271.8" style="clip-path:url(#SVGID_4_);fill:#00ADEE;" width="2.1" height="135.2"/>
				<rect x="274" style="clip-path:url(#SVGID_4_);fill:#00ADEE;" width="2.1" height="135.2"/>
				<rect x="276.1" style="clip-path:url(#SVGID_4_);fill:#00ADEE;" width="2.1" height="135.2"/>
				<rect x="278.2" style="clip-path:url(#SVGID_4_);fill:#00ADEE;" width="2.1" height="135.2"/>
				<rect x="280.4" style="clip-path:url(#SVGID_4_);fill:#00ADEE;" width="2.1" height="135.2"/>
				<rect x="282.5" style="clip-path:url(#SVGID_4_);fill:#00ADEE;" width="2.1" height="135.2"/>
				<rect x="284.7" style="clip-path:url(#SVGID_4_);fill:#00ADEE;" width="2.1" height="135.2"/>
				<rect x="286.8" style="clip-path:url(#SVGID_4_);fill:#00ADEE;" width="2.1" height="135.2"/>
				<rect x="288.9" style="clip-path:url(#SVGID_4_);fill:#00ADEE;" width="2.1" height="135.2"/>
				<rect x="291.1" style="clip-path:url(#SVGID_4_);fill:#00ADEE;" width="2.1" height="135.2"/>
				<rect x="293.2" style="clip-path:url(#SVGID_4_);fill:#00ADEE;" width="2.1" height="135.2"/>
				<rect x="295.4" style="clip-path:url(#SVGID_4_);fill:#00ADEE;" width="2.1" height="135.2"/>
				<rect x="297.5" style="clip-path:url(#SVGID_4_);fill:#00ADEE;" width="2.1" height="135.2"/>
				<rect x="299.6" style="clip-path:url(#SVGID_4_);fill:#00ADEE;" width="2.1" height="135.2"/>
				<rect x="301.8" style="clip-path:url(#SVGID_4_);fill:#00ADEE;" width="2.1" height="135.2"/>
				<rect x="303.9" style="clip-path:url(#SVGID_4_);fill:#00ADEE;" width="2.1" height="135.2"/>
				<rect x="306" style="clip-path:url(#SVGID_4_);fill:#00ADEE;" width="2.1" height="135.2"/>
				<rect x="308.2" style="clip-path:url(#SVGID_4_);fill:#00ADEE;" width="2.1" height="135.2"/>
				<rect x="310.3" style="clip-path:url(#SVGID_4_);fill:#00ADEE;" width="2.1" height="135.2"/>
				<rect x="312.5" style="clip-path:url(#SVGID_4_);fill:#00ADEE;" width="9.8" height="135.2"/>
				<rect x="322.2" style="clip-path:url(#SVGID_4_);fill:#00ADEE;" width="9.8" height="135.2"/>
				<rect x="332" style="clip-path:url(#SVGID_4_);fill:#00ADEE;" width="9.8" height="135.2"/>
				<rect x="341.7" style="clip-path:url(#SVGID_4_);fill:#00ADEE;" width="9.8" height="135.2"/>
				<rect x="351.5" style="clip-path:url(#SVGID_4_);fill:#00ADEE;" width="9.8" height="135.2"/>
				<rect x="361.3" style="clip-path:url(#SVGID_4_);fill:#00ADEE;" width="9.8" height="135.2"/>
				<rect x="371" style="clip-path:url(#SVGID_4_);fill:#00ADEE;" width="9.8" height="135.2"/>
				<rect x="380.8" style="clip-path:url(#SVGID_4_);fill:#00ADEE;" width="9.8" height="135.2"/>
				<rect x="390.6" style="clip-path:url(#SVGID_4_);fill:#00ADEE;" width="9.8" height="135.2"/>
				<rect x="400.3" style="clip-path:url(#SVGID_4_);fill:#00ADEE;" width="9.8" height="135.2"/>
				<rect x="410.1" style="clip-path:url(#SVGID_4_);fill:#00ADEE;" width="9.8" height="135.2"/>
				<rect x="419.9" style="clip-path:url(#SVGID_4_);fill:#00ADEE;" width="9.8" height="135.2"/>
				<rect x="429.6" style="clip-path:url(#SVGID_4_);fill:#00ADEE;" width="9.8" height="135.2"/>
				<rect x="439.4" style="clip-path:url(#SVGID_4_);fill:#00ADEE;" width="9.8" height="135.2"/>
				<rect x="449.1" style="clip-path:url(#SVGID_4_);fill:#00ADEE;" width="9.8" height="135.2"/>
				<rect x="458.9" style="clip-path:url(#SVGID_4_);fill:#00ADEE;" width="9.8" height="135.2"/>
				<rect x="468.7" style="clip-path:url(#SVGID_4_);fill:#00ADEE;" width="1.6" height="135.2"/>
				<rect x="470.2" style="clip-path:url(#SVGID_4_);fill:#00ADEE;" width="1.6" height="135.2"/>
				<rect x="471.8" style="clip-path:url(#SVGID_4_);fill:#00ADEE;" width="1.6" height="135.2"/>
				<rect x="473.4" style="clip-path:url(#SVGID_4_);fill:#00ADEE;" width="1.6" height="135.2"/>
				<rect x="474.9" style="clip-path:url(#SVGID_4_);fill:#00ADEE;" width="1.6" height="135.2"/>
				<rect x="476.5" style="clip-path:url(#SVGID_4_);fill:#00ADEE;" width="1.6" height="135.2"/>
				<rect x="478.1" style="clip-path:url(#SVGID_4_);fill:#00ADEE;" width="1.6" height="135.2"/>
				<rect x="479.6" style="clip-path:url(#SVGID_4_);fill:#00ADEE;" width="1.6" height="135.2"/>
				<rect x="481.2" style="clip-path:url(#SVGID_4_);fill:#00ADEE;" width="1.6" height="135.2"/>
				<rect x="482.7" style="clip-path:url(#SVGID_4_);fill:#00ADEE;" width="1.6" height="135.2"/>
				<rect x="484.3" style="clip-path:url(#SVGID_4_);fill:#00ADEE;" width="1.6" height="135.2"/>
				<rect x="485.9" style="clip-path:url(#SVGID_4_);fill:#00ADEE;" width="1.6" height="135.2"/>
				<rect x="487.4" style="clip-path:url(#SVGID_4_);fill:#00ADEE;" width="1.6" height="135.2"/>
				<rect x="489" style="clip-path:url(#SVGID_4_);fill:#00ADEE;" width="1.6" height="135.2"/>
				<rect x="490.6" style="clip-path:url(#SVGID_4_);fill:#00ADEE;" width="1.6" height="135.2"/>
				<rect x="492.1" style="clip-path:url(#SVGID_4_);fill:#00ADEE;" width="1.6" height="135.2"/>
				<rect x="493.7" style="clip-path:url(#SVGID_4_);fill:#00ADEE;" width="1.6" height="135.2"/>
				<rect x="495.2" style="clip-path:url(#SVGID_4_);fill:#00ADEE;" width="1.6" height="135.2"/>
				<rect x="496.8" style="clip-path:url(#SVGID_4_);fill:#00ADEE;" width="1.6" height="135.2"/>
				<rect x="498.4" style="clip-path:url(#SVGID_4_);fill:#00ADEE;" width="1.6" height="135.2"/>
				<rect x="499.9" style="clip-path:url(#SVGID_4_);fill:#00ADEE;" width="1.6" height="135.2"/>
				<rect x="501.5" style="clip-path:url(#SVGID_4_);fill:#00ADEE;" width="1.6" height="135.2"/>
				<rect x="503.1" style="clip-path:url(#SVGID_4_);fill:#00ADEE;" width="1.6" height="135.2"/>
				<rect x="504.6" style="clip-path:url(#SVGID_4_);fill:#00ADEE;" width="1.6" height="135.2"/>
				<rect x="506.2" style="clip-path:url(#SVGID_4_);fill:#00ADEE;" width="1.6" height="135.2"/>
				<rect x="507.7" style="clip-path:url(#SVGID_4_);fill:#00ADEE;" width="1.6" height="135.2"/>
				<rect x="509.3" style="clip-path:url(#SVGID_4_);fill:#00ADEE;" width="1.6" height="135.2"/>
				<rect x="510.9" style="clip-path:url(#SVGID_4_);fill:#00ADEE;" width="1.6" height="135.2"/>
				<rect x="512.4" style="clip-path:url(#SVGID_4_);fill:#00ADEE;" width="1.6" height="135.2"/>
				<rect x="514" style="clip-path:url(#SVGID_4_);fill:#00ADEE;" width="1.6" height="135.2"/>
				<rect x="515.6" style="clip-path:url(#SVGID_4_);fill:#00ADEE;" width="1.6" height="135.2"/>
				<rect x="517.1" style="clip-path:url(#SVGID_4_);fill:#00ADEE;" width="1.6" height="135.2"/>
				<rect x="518.7" style="clip-path:url(#SVGID_4_);fill:#00ADEE;" width="1.6" height="135.2"/>
				<rect x="520.3" style="clip-path:url(#SVGID_4_);fill:#00ADEE;" width="1.6" height="135.2"/>
				<rect x="521.8" style="clip-path:url(#SVGID_4_);fill:#00ADEE;" width="1.6" height="135.2"/>
				<rect x="523.4" style="clip-path:url(#SVGID_4_);fill:#00ADEE;" width="1.6" height="135.2"/>
				<rect x="524.9" style="clip-path:url(#SVGID_4_);fill:#00ADEE;" width="1.6" height="135.2"/>
				<rect x="526.5" style="clip-path:url(#SVGID_4_);fill:#00ADEE;" width="1.6" height="135.2"/>
				<rect x="528.1" style="clip-path:url(#SVGID_4_);fill:#00ADEE;" width="1.6" height="135.2"/>
				<rect x="529.6" style="clip-path:url(#SVGID_4_);fill:#00ADEE;" width="1.6" height="135.2"/>
				<rect x="531.2" style="clip-path:url(#SVGID_4_);fill:#00ADEE;" width="1.6" height="135.2"/>
				<rect x="532.8" style="clip-path:url(#SVGID_4_);fill:#00ADEE;" width="1.6" height="135.2"/>
				<rect x="534.3" style="clip-path:url(#SVGID_4_);fill:#00ADEE;" width="1.6" height="135.2"/>
				<rect x="535.9" style="clip-path:url(#SVGID_4_);fill:#00ADEE;" width="1.6" height="135.2"/>
				<rect x="537.4" style="clip-path:url(#SVGID_4_);fill:#00ADEE;" width="1.6" height="135.2"/>
				<rect x="539" style="clip-path:url(#SVGID_4_);fill:#00ADEE;" width="1.6" height="135.2"/>
				<rect x="540.6" style="clip-path:url(#SVGID_4_);fill:#00ADEE;" width="1.6" height="135.2"/>
				<rect x="542.1" style="clip-path:url(#SVGID_4_);fill:#00ADEE;" width="1.6" height="135.2"/>
				<rect x="543.7" style="clip-path:url(#SVGID_4_);fill:#00ADEE;" width="1.6" height="135.2"/>
				<rect x="545.3" style="clip-path:url(#SVGID_4_);fill:#00ADEE;" width="1.6" height="135.2"/>
				<rect x="546.8" style="clip-path:url(#SVGID_4_);fill:#00ADEE;" width="1.6" height="135.2"/>
				<rect x="548.4" style="clip-path:url(#SVGID_4_);fill:#00ADEE;" width="1.6" height="135.2"/>
				<rect x="549.9" style="clip-path:url(#SVGID_4_);fill:#00ADEE;" width="1.6" height="135.2"/>
				<rect x="551.5" style="clip-path:url(#SVGID_4_);fill:#00ADEE;" width="1.6" height="135.2"/>
				<rect x="553.1" style="clip-path:url(#SVGID_4_);fill:#00ADEE;" width="1.6" height="135.2"/>
				<rect x="554.6" style="clip-path:url(#SVGID_4_);fill:#00ADEE;" width="1.6" height="135.2"/>
				<rect x="556.2" style="clip-path:url(#SVGID_4_);fill:#00ADEE;" width="1.6" height="135.2"/>
				<rect x="557.8" style="clip-path:url(#SVGID_4_);fill:#00ADEE;" width="1.6" height="135.2"/>
				<rect x="559.3" style="clip-path:url(#SVGID_4_);fill:#00ADEE;" width="1.6" height="135.2"/>
				<rect x="560.9" style="clip-path:url(#SVGID_4_);fill:#00ADEE;" width="1.6" height="135.2"/>
				<rect x="562.4" style="clip-path:url(#SVGID_4_);fill:#00ADEE;" width="1.6" height="135.2"/>
				<rect x="564" style="clip-path:url(#SVGID_4_);fill:#00ADEE;" width="1.6" height="135.2"/>
				<rect x="565.6" style="clip-path:url(#SVGID_4_);fill:#00ADEE;" width="1.6" height="135.2"/>
				<rect x="567.1" style="clip-path:url(#SVGID_4_);fill:#00ADEE;" width="1.6" height="135.2"/>
				<rect x="568.7" style="clip-path:url(#SVGID_4_);fill:#00ADEE;" width="1.6" height="135.2"/>
				<rect x="570.3" style="clip-path:url(#SVGID_4_);fill:#00ADEE;" width="1.6" height="135.2"/>
				<rect x="571.8" style="clip-path:url(#SVGID_4_);fill:#00ADEE;" width="1.6" height="135.2"/>
				<rect x="573.4" style="clip-path:url(#SVGID_4_);fill:#00ADEE;" width="1.6" height="135.2"/>
				<rect x="575" style="clip-path:url(#SVGID_4_);fill:#00ADEE;" width="1.6" height="135.2"/>
				<rect x="576.5" style="clip-path:url(#SVGID_4_);fill:#00ADEE;" width="1.6" height="135.2"/>
				<rect x="578.1" style="clip-path:url(#SVGID_4_);fill:#00ADEE;" width="1.6" height="135.2"/>
				<rect x="579.6" style="clip-path:url(#SVGID_4_);fill:#00ADEE;" width="1.6" height="135.2"/>
				<rect x="581.2" style="clip-path:url(#SVGID_4_);fill:#00ADEE;" width="1.6" height="135.2"/>
				<rect x="582.8" style="clip-path:url(#SVGID_4_);fill:#00ADEE;" width="1.6" height="135.2"/>
				<rect x="584.3" style="clip-path:url(#SVGID_4_);fill:#00ADEE;" width="1.6" height="135.2"/>
				<rect x="585.9" style="clip-path:url(#SVGID_4_);fill:#00ADEE;" width="1.6" height="135.2"/>
				<rect x="587.5" style="clip-path:url(#SVGID_4_);fill:#00ADEE;" width="1.6" height="135.2"/>
				<rect x="589" style="clip-path:url(#SVGID_4_);fill:#00ADEE;" width="1.6" height="135.2"/>
				<rect x="590.6" style="clip-path:url(#SVGID_4_);fill:#00ADEE;" width="1.6" height="135.2"/>
				<rect x="592.1" style="clip-path:url(#SVGID_4_);fill:#00ADEE;" width="1.6" height="135.2"/>
				<rect x="593.7" style="clip-path:url(#SVGID_4_);fill:#00ADEE;" width="1.6" height="135.2"/>
				<rect x="595.3" style="clip-path:url(#SVGID_4_);fill:#00ADEE;" width="1.6" height="135.2"/>
				<rect x="596.8" style="clip-path:url(#SVGID_4_);fill:#00ADEE;" width="1.6" height="135.2"/>
				<rect x="598.4" style="clip-path:url(#SVGID_4_);fill:#00ADEE;" width="1.6" height="135.2"/>
				<rect x="600" style="clip-path:url(#SVGID_4_);fill:#00ADEE;" width="1.6" height="135.2"/>
				<rect x="601.5" style="clip-path:url(#SVGID_4_);fill:#00ADEE;" width="1.6" height="135.2"/>
				<rect x="603.1" style="clip-path:url(#SVGID_4_);fill:#00ADEE;" width="1.6" height="135.2"/>
				<rect x="604.6" style="clip-path:url(#SVGID_4_);fill:#00ADEE;" width="1.6" height="135.2"/>
				<rect x="606.2" style="clip-path:url(#SVGID_4_);fill:#00ADEE;" width="1.6" height="135.2"/>
				<rect x="607.8" style="clip-path:url(#SVGID_4_);fill:#00ADEE;" width="1.6" height="135.2"/>
				<rect x="609.3" style="clip-path:url(#SVGID_4_);fill:#00ADEE;" width="1.6" height="135.2"/>
				<rect x="610.9" style="clip-path:url(#SVGID_4_);fill:#00ADEE;" width="1.6" height="135.2"/>
				<rect x="612.5" style="clip-path:url(#SVGID_4_);fill:#00ADEE;" width="1.6" height="135.2"/>
				<rect x="614" style="clip-path:url(#SVGID_4_);fill:#00ADEE;" width="1.6" height="135.2"/>
				<rect x="615.6" style="clip-path:url(#SVGID_4_);fill:#00ADEE;" width="1.6" height="135.2"/>
				<rect x="617.2" style="clip-path:url(#SVGID_4_);fill:#00ADEE;" width="1.6" height="135.2"/>
				<rect x="618.7" style="clip-path:url(#SVGID_4_);fill:#00ADEE;" width="1.6" height="135.2"/>
				<rect x="620.3" style="clip-path:url(#SVGID_4_);fill:#00ADEE;" width="1.6" height="135.2"/>
				<rect x="621.8" style="clip-path:url(#SVGID_4_);fill:#00ADEE;" width="1.2" height="135.2"/>
				<rect x="623.1" style="clip-path:url(#SVGID_4_);fill:#00ADEE;" width="1.2" height="135.2"/>
				<rect x="624.3" style="clip-path:url(#SVGID_4_);fill:#00ADEE;" width="1.2" height="135.2"/>
				<rect x="625.6" style="clip-path:url(#SVGID_4_);fill:#00ADEE;" width="1.2" height="135.2"/>
				<rect x="626.8" style="clip-path:url(#SVGID_4_);fill:#00ADEE;" width="1.2" height="135.2"/>
				<rect x="628.1" style="clip-path:url(#SVGID_4_);fill:#00ADEE;" width="1.2" height="135.2"/>
				<rect x="629.3" style="clip-path:url(#SVGID_4_);fill:#00ADEE;" width="1.2" height="135.2"/>
				<rect x="630.6" style="clip-path:url(#SVGID_4_);fill:#00ADEE;" width="1.2" height="135.2"/>
				<rect x="631.8" style="clip-path:url(#SVGID_4_);fill:#00ADEE;" width="1.2" height="135.2"/>
				<rect x="633.1" style="clip-path:url(#SVGID_4_);fill:#00ADEE;" width="1.2" height="135.2"/>
				<rect x="634.3" style="clip-path:url(#SVGID_4_);fill:#00ADEE;" width="1.2" height="135.2"/>
				<rect x="635.5" style="clip-path:url(#SVGID_4_);fill:#00ADEE;" width="1.2" height="135.2"/>
				<rect x="636.8" style="clip-path:url(#SVGID_4_);fill:#00ADEE;" width="1.2" height="135.2"/>
				<rect x="638" style="clip-path:url(#SVGID_4_);fill:#00ADEE;" width="1.2" height="135.2"/>
				<rect x="639.3" style="clip-path:url(#SVGID_4_);fill:#00ADEE;" width="1.2" height="135.2"/>
				<rect x="640.5" style="clip-path:url(#SVGID_4_);fill:#00ADEE;" width="1.2" height="135.2"/>
				<rect x="641.8" style="clip-path:url(#SVGID_4_);fill:#00ADEE;" width="1.2" height="135.2"/>
				<rect x="643" style="clip-path:url(#SVGID_4_);fill:#00ADEE;" width="1.2" height="135.2"/>
				<rect x="644.3" style="clip-path:url(#SVGID_4_);fill:#00ADEE;" width="1.2" height="135.2"/>
				<rect x="645.5" style="clip-path:url(#SVGID_4_);fill:#00ADEE;" width="1.2" height="135.2"/>
				<rect x="646.8" style="clip-path:url(#SVGID_4_);fill:#00ADEE;" width="1.2" height="135.2"/>
				<rect x="648" style="clip-path:url(#SVGID_4_);fill:#00ADEE;" width="1.2" height="135.2"/>
				<rect x="649.3" style="clip-path:url(#SVGID_4_);fill:#00ADEE;" width="1.2" height="135.2"/>
				<rect x="650.5" style="clip-path:url(#SVGID_4_);fill:#00ADEE;" width="1.2" height="135.2"/>
				<rect x="651.7" style="clip-path:url(#SVGID_4_);fill:#00ADEE;" width="1.2" height="135.2"/>
				<rect x="653" style="clip-path:url(#SVGID_4_);fill:#00ADEE;" width="1.2" height="135.2"/>
				<rect x="654.2" style="clip-path:url(#SVGID_4_);fill:#00ADEE;" width="1.2" height="135.2"/>
				<rect x="655.5" style="clip-path:url(#SVGID_4_);fill:#00ADEE;" width="1.2" height="135.2"/>
				<rect x="656.7" style="clip-path:url(#SVGID_4_);fill:#00ADEE;" width="1.2" height="135.2"/>
				<rect x="658" style="clip-path:url(#SVGID_4_);fill:#00ADEE;" width="1.2" height="135.2"/>
				<rect x="659.2" style="clip-path:url(#SVGID_4_);fill:#00ADEE;" width="1.2" height="135.2"/>
				<rect x="660.5" style="clip-path:url(#SVGID_4_);fill:#00ADEE;" width="1.2" height="135.2"/>
				<rect x="661.7" style="clip-path:url(#SVGID_4_);fill:#00ADEE;" width="1.2" height="135.2"/>
				<rect x="663" style="clip-path:url(#SVGID_4_);fill:#00ADEE;" width="1.2" height="135.2"/>
				<rect x="664.2" style="clip-path:url(#SVGID_4_);fill:#00ADEE;" width="1.2" height="135.2"/>
				<rect x="665.5" style="clip-path:url(#SVGID_4_);fill:#00ADEE;" width="1.2" height="135.2"/>
				<rect x="666.7" style="clip-path:url(#SVGID_4_);fill:#00ADEE;" width="1.2" height="135.2"/>
				<rect x="667.9" style="clip-path:url(#SVGID_4_);fill:#00ADEE;" width="1.2" height="135.2"/>
				<rect x="669.2" style="clip-path:url(#SVGID_4_);fill:#00ADEE;" width="1.2" height="135.2"/>
				<rect x="670.4" style="clip-path:url(#SVGID_4_);fill:#00ADEE;" width="1.2" height="135.2"/>
				<rect x="671.7" style="clip-path:url(#SVGID_4_);fill:#00ADEE;" width="1.2" height="135.2"/>
				<rect x="672.9" style="clip-path:url(#SVGID_4_);fill:#00ADEE;" width="1.2" height="135.2"/>
				<rect x="674.2" style="clip-path:url(#SVGID_4_);fill:#00ADEE;" width="1.2" height="135.2"/>
				<rect x="675.4" style="clip-path:url(#SVGID_4_);fill:#00ADEE;" width="1.2" height="135.2"/>
				<rect x="676.7" style="clip-path:url(#SVGID_4_);fill:#00ADEE;" width="1.2" height="135.2"/>
				<rect x="677.9" style="clip-path:url(#SVGID_4_);fill:#00ADEE;" width="1.2" height="135.2"/>
				<rect x="679.2" style="clip-path:url(#SVGID_4_);fill:#00ADEE;" width="1.2" height="135.2"/>
				<rect x="680.4" style="clip-path:url(#SVGID_4_);fill:#00ADEE;" width="1.2" height="135.2"/>
				<rect x="681.7" style="clip-path:url(#SVGID_4_);fill:#00ADEE;" width="1.2" height="135.2"/>
				<rect x="682.9" style="clip-path:url(#SVGID_4_);fill:#00ADEE;" width="1.2" height="135.2"/>
				<rect x="684.1" style="clip-path:url(#SVGID_4_);fill:#00ADEE;" width="1.2" height="135.2"/>
				<rect x="685.4" style="clip-path:url(#SVGID_4_);fill:#00ADEE;" width="1.2" height="135.2"/>
				<rect x="686.6" style="clip-path:url(#SVGID_4_);fill:#00ADEE;" width="1.2" height="135.2"/>
				<rect x="687.9" style="clip-path:url(#SVGID_4_);fill:#00ADEE;" width="1.2" height="135.2"/>
				<rect x="689.1" style="clip-path:url(#SVGID_4_);fill:#00ADEE;" width="1.2" height="135.2"/>
				<rect x="690.4" style="clip-path:url(#SVGID_4_);fill:#00ADEE;" width="1.2" height="135.2"/>
				<rect x="691.6" style="clip-path:url(#SVGID_4_);fill:#00ADEE;" width="1.2" height="135.2"/>
				<rect x="692.9" style="clip-path:url(#SVGID_4_);fill:#00ADEE;" width="1.2" height="135.2"/>
				<rect x="694.1" style="clip-path:url(#SVGID_4_);fill:#00ADEE;" width="1.2" height="135.2"/>
				<rect x="695.4" style="clip-path:url(#SVGID_4_);fill:#00ADEE;" width="1.2" height="135.2"/>
				<rect x="696.6" style="clip-path:url(#SVGID_4_);fill:#00ADEE;" width="1.2" height="135.2"/>
				<rect x="697.9" style="clip-path:url(#SVGID_4_);fill:#00ADEE;" width="1.2" height="135.2"/>
				<rect x="699.1" style="clip-path:url(#SVGID_4_);fill:#00ADEE;" width="1.2" height="135.2"/>
				<rect x="700.3" style="clip-path:url(#SVGID_4_);fill:#00ADEE;" width="1.2" height="135.2"/>
				<rect x="701.6" style="clip-path:url(#SVGID_4_);fill:#00ADEE;" width="1.2" height="135.2"/>
				<rect x="702.8" style="clip-path:url(#SVGID_4_);fill:#00ADEE;" width="1.2" height="135.2"/>
				<rect x="704.1" style="clip-path:url(#SVGID_4_);fill:#00ADEE;" width="1.2" height="135.2"/>
				<rect x="705.3" style="clip-path:url(#SVGID_4_);fill:#00ADEE;" width="1.2" height="135.2"/>
				<rect x="706.6" style="clip-path:url(#SVGID_4_);fill:#00ADEE;" width="1.2" height="135.2"/>
				<rect x="707.8" style="clip-path:url(#SVGID_4_);fill:#00ADEE;" width="1.2" height="135.2"/>
				<rect x="709.1" style="clip-path:url(#SVGID_4_);fill:#00ADEE;" width="1.2" height="135.2"/>
				<rect x="710.3" style="clip-path:url(#SVGID_4_);fill:#00ADEE;" width="1.2" height="135.2"/>
				<rect x="711.6" style="clip-path:url(#SVGID_4_);fill:#00ADEE;" width="1.2" height="135.2"/>
				<rect x="712.8" style="clip-path:url(#SVGID_4_);fill:#00ADEE;" width="1.2" height="135.2"/>
				<rect x="714.1" style="clip-path:url(#SVGID_4_);fill:#00ADEE;" width="1.2" height="135.2"/>
				<rect x="715.3" style="clip-path:url(#SVGID_4_);fill:#00ADEE;" width="1.2" height="135.2"/>
				<rect x="716.5" style="clip-path:url(#SVGID_4_);fill:#00ADEE;" width="1.2" height="135.2"/>
				<rect x="717.8" style="clip-path:url(#SVGID_4_);fill:#00ADEE;" width="1.2" height="135.2"/>
				<rect x="719" style="clip-path:url(#SVGID_4_);fill:#00ADEE;" width="1.2" height="135.2"/>
				<rect x="720.3" style="clip-path:url(#SVGID_4_);fill:#00ADEE;" width="1.2" height="135.2"/>
				<rect x="721.5" style="clip-path:url(#SVGID_4_);fill:#00ADEE;" width="1.2" height="135.2"/>
				<rect x="722.8" style="clip-path:url(#SVGID_4_);fill:#00ADEE;" width="1.2" height="135.2"/>
				<rect x="724" style="clip-path:url(#SVGID_4_);fill:#00ADEE;" width="1.2" height="135.2"/>
				<rect x="725.3" style="clip-path:url(#SVGID_4_);fill:#00ADEE;" width="1.2" height="135.2"/>
				<rect x="726.5" style="clip-path:url(#SVGID_4_);fill:#00ADEE;" width="1.2" height="135.2"/>
				<rect x="727.8" style="clip-path:url(#SVGID_4_);fill:#00ADEE;" width="1.2" height="135.2"/>
				<rect x="729" style="clip-path:url(#SVGID_4_);fill:#00ADEE;" width="1.2" height="135.2"/>
				<rect x="730.3" style="clip-path:url(#SVGID_4_);fill:#00ADEE;" width="1.2" height="135.2"/>
				<rect x="731.5" style="clip-path:url(#SVGID_4_);fill:#00ADEE;" width="1.2" height="135.2"/>
				<rect x="732.7" style="clip-path:url(#SVGID_4_);fill:#00ADEE;" width="1.2" height="135.2"/>
				<rect x="734" style="clip-path:url(#SVGID_4_);fill:#00ADEE;" width="1.2" height="135.2"/>
				<rect x="735.2" style="clip-path:url(#SVGID_4_);fill:#00ADEE;" width="1.2" height="135.2"/>
				<rect x="736.5" style="clip-path:url(#SVGID_4_);fill:#00ADEE;" width="1.2" height="135.2"/>
				<rect x="737.7" style="clip-path:url(#SVGID_4_);fill:#00ADEE;" width="1.2" height="135.2"/>
				<rect x="739" style="clip-path:url(#SVGID_4_);fill:#00ADEE;" width="1.2" height="135.2"/>
				<rect x="740.2" style="clip-path:url(#SVGID_4_);fill:#00ADEE;" width="1.2" height="135.2"/>
				<rect x="741.5" style="clip-path:url(#SVGID_4_);fill:#00ADEE;" width="1.2" height="135.2"/>
				<rect x="742.7" style="clip-path:url(#SVGID_4_);fill:#00ADEE;" width="1.2" height="135.2"/>
				<rect x="744" style="clip-path:url(#SVGID_4_);fill:#00ADEE;" width="1.2" height="135.2"/>
				<rect x="745.2" style="clip-path:url(#SVGID_4_);fill:#00ADEE;" width="1.2" height="135.2"/>
				<rect x="746.5" style="clip-path:url(#SVGID_4_);fill:#00ADEE;" width="1.2" height="135.2"/>
				<rect x="747.7" style="clip-path:url(#SVGID_4_);fill:#00ADEE;" width="1.2" height="135.2"/>
				<rect x="748.9" style="clip-path:url(#SVGID_4_);fill:#00ADEE;" width="1.2" height="135.2"/>
				<rect x="750.2" style="clip-path:url(#SVGID_4_);fill:#00ADEE;" width="1.2" height="135.2"/>
				<rect x="751.4" style="clip-path:url(#SVGID_4_);fill:#00ADEE;" width="1.2" height="135.2"/>
				<rect x="752.7" style="clip-path:url(#SVGID_4_);fill:#00ADEE;" width="1.2" height="135.2"/>
				<rect x="753.9" style="clip-path:url(#SVGID_4_);fill:#00ADEE;" width="1.2" height="135.2"/>
				<rect x="755.2" style="clip-path:url(#SVGID_4_);fill:#00ADEE;" width="1.2" height="135.2"/>
				<rect x="756.4" style="clip-path:url(#SVGID_4_);fill:#00ADEE;" width="1.2" height="135.2"/>
				<rect x="757.7" style="clip-path:url(#SVGID_4_);fill:#00ADEE;" width="1.2" height="135.2"/>
				<rect x="758.9" style="clip-path:url(#SVGID_4_);fill:#00ADEE;" width="1.2" height="135.2"/>
				<rect x="760.2" style="clip-path:url(#SVGID_4_);fill:#00ADEE;" width="1.2" height="135.2"/>
				<rect x="761.4" style="clip-path:url(#SVGID_4_);fill:#00ADEE;" width="1.2" height="135.2"/>
				<rect x="762.7" style="clip-path:url(#SVGID_4_);fill:#00ADEE;" width="1.2" height="135.2"/>
				<rect x="763.9" style="clip-path:url(#SVGID_4_);fill:#00ADEE;" width="1.2" height="135.2"/>
				<rect x="765.1" style="clip-path:url(#SVGID_4_);fill:#00ADEE;" width="1.2" height="135.2"/>
				<rect x="766.4" style="clip-path:url(#SVGID_4_);fill:#00ADEE;" width="1.2" height="135.2"/>
				<rect x="767.6" style="clip-path:url(#SVGID_4_);fill:#00ADEE;" width="1.2" height="135.2"/>
				<rect x="768.9" style="clip-path:url(#SVGID_4_);fill:#00ADEE;" width="1.2" height="135.2"/>
				<rect x="770.1" style="clip-path:url(#SVGID_4_);fill:#00ADEE;" width="1.2" height="135.2"/>
				<rect x="771.4" style="clip-path:url(#SVGID_4_);fill:#00ADEE;" width="1.2" height="135.2"/>
				<rect x="772.6" style="clip-path:url(#SVGID_4_);fill:#00ADEE;" width="1.2" height="135.2"/>
				<rect x="773.9" style="clip-path:url(#SVGID_4_);fill:#00ADEE;" width="1.2" height="135.2"/>
				<rect x="775.1" style="clip-path:url(#SVGID_4_);fill:#00ADEE;" width="1.2" height="135.2"/>
				<rect x="776.4" style="clip-path:url(#SVGID_4_);fill:#00ADEE;" width="1.2" height="135.2"/>
				<rect x="777.6" style="clip-path:url(#SVGID_4_);fill:#00ADEE;" width="1.2" height="135.2"/>
				<rect x="778.9" style="clip-path:url(#SVGID_4_);fill:#00ADEE;" width="1.2" height="135.2"/>
				<rect x="780.1" style="clip-path:url(#SVGID_4_);fill:#00ADEE;" width="1.2" height="135.2"/>
				<rect x="781.3" style="clip-path:url(#SVGID_4_);fill:#00ADEE;" width="1.2" height="135.2"/>
				<rect x="782.6" style="clip-path:url(#SVGID_4_);fill:#00ADEE;" width="1.2" height="135.2"/>
				<rect x="783.8" style="clip-path:url(#SVGID_4_);fill:#00ADEE;" width="1.2" height="135.2"/>
				<rect x="785.1" style="clip-path:url(#SVGID_4_);fill:#00ADEE;" width="1.2" height="135.2"/>
				<rect x="786.3" style="clip-path:url(#SVGID_4_);fill:#00ADEE;" width="1.2" height="135.2"/>
				<rect x="787.6" style="clip-path:url(#SVGID_4_);fill:#00ADEE;" width="4.4" height="135.2"/>
			</g>
			<g>
				<defs>
					<polygon id="SVGID_27_" points="792,0 792,135.2 766.4,135.2 766.4,23.4 24,23.4 24,135.2 0.9,135.2 0.9,0 					"/>
				</defs>
				<clipPath id="SVGID_6_">
					<use xlink:href="#SVGID_27_"  style="overflow:visible;"/>
				</clipPath>
			</g>
		</g>
	</g>
	<polygon class="st9" points="792,476.8 792,612 0.9,612 0.9,476.8 24,500.4 24,588.6 766.4,588.6 766.4,503.3 	"/>
	<g class="st14">
		<defs>
			<rect id="SVGID_29_" y="0.1" class="st14" width="792" height="612"/>
		</defs>
		<clipPath id="SVGID_8_">
			<use xlink:href="#SVGID_29_"  style="overflow:visible;"/>
		</clipPath>
	</g>
	<rect x="27" y="27.1" class="st15" width="729" height="558"/>
	<polygon class="st9" points="792,132.9 792,135.2 791.9,135.2 791.9,218 767.9,191.5 766.4,190 616.9,25.3 615.5,23.8 615.2,23.4 
		594.2,0.3 593.9,0 671.3,0 692.6,23.4 692.9,23.8 694.3,25.3 766.4,104.8 767.9,106.3 791.9,132.7 	"/>
	<polygon class="st9" points="792,47.1 792,80.3 791.9,80.2 767.9,53.7 766.4,52.2 742.1,25.3 740.7,23.8 740.3,23.4 719,0 749.2,0 
		749.5,0.3 791.9,46.9 	"/>
	<polygon class="st9" points="198.5,0 177.2,23.4 176.9,23.8 24,192.2 22.6,193.8 1,217.6 1,135.2 0.9,135.2 0.9,132.4 1,132.3 
		22.6,108.6 24,107 99.5,23.8 99.9,23.4 120.9,0.3 121.2,0 	"/>
	<polygon class="st9" points="75.6,0 54.3,23.4 54,23.8 52.6,25.3 24,56.8 22.6,58.4 1,82.2 0.9,82.3 0.9,49 1,48.9 22.6,25.2 
		23.8,23.8 24,23.6 24.1,23.4 45.4,0 	"/>
	<polygon class="st9" points="792,526.9 792,560.2 791.9,560.3 767.9,586.7 766.4,588.3 766.2,588.6 765.8,589 744.9,612 714.7,612 
		716.5,610.1 735.6,589 736,588.6 737,587.5 767.9,553.5 791.9,527.1 	"/>
	<polygon class="st9" points="44.9,612 22.8,587.7 21.4,586.1 0.9,563.6 0.9,530.3 21.4,552.9 22.8,554.4 24,555.8 53.8,588.6 
		54,588.8 75.1,612 	"/>
	<g>
		<path class="st9" d="M685.2,31.1h-578l-1.4,1.5h580.7L685.2,31.1z M108.4,580.2l0.9,1h571.3l0.9-1H108.4z M685.2,31.1h-578
			l-1.4,1.5h580.7L685.2,31.1z M108.4,580.2l0.9,1h571.3l0.9-1H108.4z M685.2,31.1h-578l-1.4,1.5h580.7L685.2,31.1z M108.4,580.2
			l0.9,1h571.3l0.9-1H108.4z M686.6,32.7l-1.4-1.5h-578l-1.4,1.5H686.6z M108.4,580.2l0.9,1h571.3l0.9-1H108.4z M32.3,31.1v550.6
			h725.9V31.1H32.3z M756.8,580.2H33.6V32.7h723.2V580.2z M108.4,580.2l0.9,1h571.3l0.9-1H108.4z M685.2,31.1h-578l-1.4,1.5h580.7
			L685.2,31.1z M108.4,580.2l0.9,1h571.3l0.9-1H108.4z M685.2,31.1h-578l-1.4,1.5h580.7L685.2,31.1z M108.4,580.2l0.9,1h571.3l0.9-1
			H108.4z M685.2,31.1h-578l-1.4,1.5h580.7L685.2,31.1z M108.4,580.2l0.9,1h571.3l0.9-1H108.4z M685.2,31.1h-578l-1.4,1.5h580.7
			L685.2,31.1z"/>
	</g>
	<g>
		<polygon class="st16" points="791.9,173.2 791.9,175.3 632.6,0 634.5,0 		"/>
	</g>
	<g>
		<polygon class="st16" points="161.4,0 1,176.6 1,174.5 159.5,0 		"/>
	</g>
	<g>
		<path class="st9" d="M145.1,81.8c0,0.8-0.7,1.5-1.4,1.5c-0.8,0-1.4-0.7-1.4-1.6c0-0.8,0.7-1.5,1.4-1.5
			C144.5,80.3,145.1,81,145.1,81.8z"/>
		<path class="st9" d="M152.1,74.5c0,0.8-0.7,1.5-1.4,1.5c-0.8,0-1.4-0.7-1.4-1.6c0-0.8,0.7-1.5,1.4-1.5
			C151.5,73,152.1,73.7,152.1,74.5z"/>
		<path class="st9" d="M159,67.2c0,0.8-0.7,1.5-1.4,1.5c-0.8,0-1.4-0.7-1.4-1.6c0-0.8,0.7-1.5,1.4-1.5
			C158.5,65.7,159.1,66.4,159,67.2z"/>
		<ellipse class="st9" cx="164.6" cy="59.9" rx="1.4" ry="1.5"/>
		<ellipse class="st9" cx="171.6" cy="52.6" rx="1.4" ry="1.5"/>
		<path class="st9" d="M179.9,45.3c0,0.8-0.7,1.5-1.4,1.5s-1.4-0.7-1.4-1.6c0-0.8,0.7-1.5,1.4-1.5C179.3,43.8,179.9,44.5,179.9,45.3
			z"/>
		<path class="st9" d="M186.9,38c0,0.8-0.7,1.5-1.4,1.5c-0.8,0-1.4-0.7-1.4-1.6c0-0.8,0.7-1.5,1.4-1.5
			C186.3,36.5,186.9,37.2,186.9,38z"/>
		<path class="st9" d="M193.8,30.7c0,0.8-0.7,1.5-1.4,1.5c-0.8,0-1.4-0.7-1.4-1.6c0-0.8,0.7-1.5,1.4-1.5
			C193.2,29.2,193.8,29.9,193.8,30.7z"/>
		<path class="st9" d="M200.8,23.4c0,0.8-0.7,1.5-1.4,1.5c-0.8,0-1.4-0.7-1.4-1.6c0-0.8,0.7-1.5,1.4-1.5
			C200.2,21.9,200.8,22.6,200.8,23.4z"/>
		<path class="st9" d="M207.7,16.1c0,0.8-0.7,1.5-1.4,1.5c-0.8,0-1.4-0.7-1.4-1.6c0-0.8,0.7-1.5,1.4-1.5
			C207.2,14.6,207.8,15.3,207.7,16.1z"/>
	</g>
	<g>
		<path class="st9" d="M589.6,18.7c-0.8,0-1.4-0.7-1.4-1.5c0-0.8,0.6-1.5,1.4-1.5c0.8,0,1.4,0.7,1.4,1.5
			C591,18.1,590.3,18.7,589.6,18.7z"/>
		<path class="st9" d="M596.4,26.2c-0.8,0-1.4-0.7-1.4-1.5c0-0.8,0.6-1.5,1.4-1.5c0.8,0,1.4,0.7,1.4,1.5
			C597.8,25.5,597.1,26.2,596.4,26.2z"/>
		<path class="st9" d="M603.2,33.7c-0.8,0-1.4-0.7-1.4-1.5c0-0.8,0.6-1.5,1.4-1.5c0.8,0,1.4,0.7,1.4,1.5
			C604.5,33,603.9,33.7,603.2,33.7z"/>
		<path class="st9" d="M610,41.2c-0.8,0-1.4-0.7-1.4-1.5c0-0.8,0.6-1.5,1.4-1.5s1.4,0.7,1.4,1.5C611.3,40.5,610.7,41.2,610,41.2z"/>
		<path class="st9" d="M616.7,48.7c-0.8,0-1.4-0.7-1.4-1.5c0-0.8,0.6-1.5,1.4-1.5s1.4,0.7,1.4,1.5C618.1,48,617.5,48.7,616.7,48.7z"
			/>
		<path class="st9" d="M623.5,56.1c-0.8,0-1.4-0.7-1.4-1.5c0-0.8,0.6-1.5,1.4-1.5c0.8,0,1.4,0.7,1.4,1.5
			C624.9,55.5,624.3,56.1,623.5,56.1z"/>
		<path class="st9" d="M630.3,63.6c-0.8,0-1.4-0.7-1.4-1.5c0-0.8,0.6-1.5,1.4-1.5c0.8,0,1.4,0.7,1.4,1.5
			C631.7,62.9,631.1,63.6,630.3,63.6z"/>
		<path class="st9" d="M637.1,71.1c-0.8,0-1.4-0.7-1.4-1.5c0-0.8,0.6-1.5,1.4-1.5c0.8,0,1.4,0.7,1.4,1.5
			C638.5,70.4,637.9,71.1,637.1,71.1z"/>
		<path class="st9" d="M643.9,78.6c-0.8,0-1.4-0.7-1.4-1.5c0-0.8,0.6-1.5,1.4-1.5c0.8,0,1.4,0.7,1.4,1.5
			C645.3,77.9,644.7,78.6,643.9,78.6z"/>
		<path class="st9" d="M650.7,86.1c-0.8,0-1.4-0.7-1.4-1.5c0-0.8,0.6-1.5,1.4-1.5s1.4,0.7,1.4,1.5C652.1,85.4,651.5,86.1,650.7,86.1
			z"/>
	</g>
</g>
<g>
	<text transform="matrix(1 0 0 1 162.0146 116.7434)" class="st9 st17 st18">THE Langhofer FAMILY</text>
</g>
<text transform="matrix(1 0 0 1 189.8655 170.1619)" class="st16 st19 st20">CORE VALUES STATEMENT</text>
<text transform="matrix(1 0 0 1 311.1675 222.6389)"><tspan x="0" y="0" class="st9 st19 st21">MOM:</tspan><tspan x="54.5" y="0" class="st16 st19 st21"> Wynter Mills</tspan></text>
<text transform="matrix(1 0 0 1 272.6211 252.2708)"><tspan x="0" y="0" class="st9 st19 st21">DAUGHTER: </tspan><tspan x="117" y="0" class="st16 st19 st21">Kessie Atkins</tspan></text>
<text transform="matrix(1.0238 0 0 1 105.5903 478.0364)"><tspan x="0" y="0" class="st19 st22">As a family we will strive to purse these values in our lives</tspan><tspan x="37.9" y="26.7" class="st19 st22">as we interact will each other and our community.</tspan></text>
<g>
	<g>
		<g>
			<polygon class="st11" points="562.9,432.6 562.9,391.2 688,391.2 709.6,411.9 688,432.6 			"/>
			<path class="st9" d="M687.2,393.2l19.5,18.7l-19.5,18.7H564.9v-37.4H687.2 M688,391.2H562.9v41.4H688l21.6-20.7L688,391.2
				L688,391.2z"/>
		</g>
	</g>
	<g>
		<g>
			<polygon class="st11" points="188.8,366 188.8,324.7 313.9,324.7 335.5,345.4 313.9,366 			"/>
			<path class="st9" d="M313.1,326.7l19.5,18.7L313.1,364H190.8v-37.4H313.1 M313.9,324.7H188.8V366h125.1l21.6-20.7L313.9,324.7
				L313.9,324.7z"/>
		</g>
	</g>
	<g>
		<g>
			<polygon class="st11" points="439.2,366 439.2,324.7 564.3,324.7 585.9,345.4 564.3,366 			"/>
			<path class="st9" d="M563.5,326.7l19.5,18.7L563.5,364H441.2v-37.4H563.5 M564.3,324.7H439.2V366h125.1l21.6-20.7L564.3,324.7
				L564.3,324.7z"/>
		</g>
	</g>
	<g>
		<polygon class="st11" points="63.1,432.6 63.1,391.2 188.2,391.2 209.8,411.9 188.2,432.6 		"/>
		<path class="st9" d="M187.4,393.2l19.5,18.7l-19.5,18.7H65.1v-37.4H187.4 M188.2,391.2H63.1v41.4h125.1l21.6-20.7L188.2,391.2
			L188.2,391.2z"/>
	</g>
	<g>
		<g>
			<polygon class="st11" points="313,432.6 313,391.2 438.1,391.2 459.7,411.9 438.1,432.6 			"/>
			<path class="st9" d="M437.3,393.2l19.5,18.7l-19.5,18.7H315v-37.4H437.3 M438.1,391.2H313v41.4h125.1l21.6-20.7L438.1,391.2
				L438.1,391.2z"/>
		</g>
	</g>
</g>
<g>
	<text transform="matrix(1 0 0 1 175.5491 287.6858)" class="st16 st19 st23">THE Langhofer  FAMILY VALUES</text>
</g>
<g class="st24">
	<defs>
		<rect id="SVGID_35_" x="834" class="st24" width="792" height="612"/>
	</defs>
	<clipPath id="SVGID_10_">
		<use xlink:href="#SVGID_35_"  style="overflow:visible;"/>
	</clipPath>
	<g transform="matrix(1 0 0 1 0 -1.525879e-05)" style="clip-path:url(#SVGID_10_);">
		
			<image style="overflow:visible;" width="3901" height="2600" xlink:href="A65922D5.jpg"  transform="matrix(0.4396 0 0 0.4396 278.2067 -242.8571)">
		</image>
	</g>
</g>
<g>
	<text transform="matrix(1 0 0 1 572.4059 417.2786)" class="st26 st19 st43">Achievement</text>
</g>
<g>
	<text transform="matrix(1 0 0 1 202.3791 351.7034)" class="st26 st19 st23">Beauty</text>
</g>
<g>
	<text transform="matrix(1 0 0 1 452.7961 350.7425)" class="st26 st19 st43">Compassion</text>
</g>
<g>
	<text transform="matrix(1 0 0 1 79.5197 418.2386)" class="st26 st19 st23">Curiosity</text>
</g>
<g>
	<text transform="matrix(1 0 0 1 325.1457 418.2386)" class="st26 st19 st23">Faimess</text>
</g>
</svg>
