<?xml version="1.0" encoding="utf-8"?>
<!-- Generator: Adobe Illustrator 25.2.1, SVG Export Plug-In . SVG Version: 6.00 Build 0)  -->
<svg version="1.1" id="_x30_1" xmlns="http://www.w3.org/2000/svg" xmlns:xlink="http://www.w3.org/1999/xlink" x="0px" y="0px"
	 viewBox="0 0 612 792" style="enable-background:new 0 0 612 792;" xml:space="preserve">
<style type="text/css">
	.st0{opacity:0.25;}
	.st1{clip-path:url(#SVGID_10_);fill:#FFFFFF;}
	.st2{opacity:0.57;clip-path:url(#SVGID_10_);fill:#D0D2D3;}
	.st3{clip-path:url(#SVGID_10_);fill:#00ADEE;}
	.st4{display:none;}
	.st5{display:inline;}
	.st6{display:inline;clip-path:url(#SVGID_14_);fill:#36363A;}
	.st7{display:inline;clip-path:url(#SVGID_14_);}
	.st8{fill:#00ADEE;}
	.st9{display:inline;clip-path:url(#SVGID_14_);fill:#00ADEE;}
	.st10{fill:#36363A;}
	.st11{clip-path:url(#SVGID_18_);fill:#00ADEE;}
	.st12{clip-path:url(#SVGID_26_);fill:#00ADEE;}
	.st13{opacity:0.38;}
	.st14{opacity:0.87;fill:#FFFFFF;}
	.st15{fill:#1E1B1B;}
	.st16{opacity:0.15;fill:#FFFFFF;}
	.st17{fill:#FFFFFF;}
	.st18{opacity:0.3;}
	.st19{opacity:3.000000e-02;fill:#FFFFFF;}
	.st20{opacity:0.74;clip-path:url(#SVGID_34_);fill:#FFFFFF;}
	.st21{clip-path:url(#SVGID_34_);}
	.st22{fill:none;stroke:#000000;stroke-width:3.1849;stroke-miterlimit:10;}
	.st23{opacity:0.74;clip-path:url(#SVGID_38_);fill:#FFFFFF;}
	.st24{clip-path:url(#SVGID_38_);}
	.st25{clip-path:url(#SVGID_40_);fill:#36363A;}
	.st26{fill-rule:evenodd;clip-rule:evenodd;fill:#FFFFFF;}
	.st27{fill:url(#SVGID_43_);}
	.st28{fill:url(#SVGID_44_);}
	.st29{fill:url(#SVGID_45_);}
	.st30{fill:url(#SVGID_46_);}
	.st31{fill:url(#SVGID_47_);}
	.st32{fill-rule:evenodd;clip-rule:evenodd;fill:#36363A;}
	.st33{font-family:'Poppins-SemiBoldItalic';}
	.st34{font-size:17.099px;}
	.st35{font-family:'Poppins-Regular';}
	.st36{font-size:13px;}
	.st37{font-family:'Georgia-Bold';}
	.st38{font-size:40px;}
	.st39{fill:none;stroke:#36363A;stroke-linecap:round;stroke-miterlimit:10;}
	.st40{clip-path:url(#SVGID_49_);fill:#00ADEE;}
	.st41{clip-path:url(#SVGID_49_);fill:#D0D2D3;}
</style>
<g class="st0">
	<defs>
		<rect id="SVGID_5_" x="0" y="-0.4" class="st0" width="612" height="792"/>
	</defs>
	<clipPath id="SVGID_2_">
		<use xlink:href="#SVGID_5_"  style="overflow:visible;"/>
	</clipPath>
	<g style="clip-path:url(#SVGID_2_);">
		
			<image style="overflow:visible;" width="1380" height="920" xlink:href="1303F743.jpg"  transform="matrix(0 -0.663 0.663 0 0 872.5714)">
		</image>
	</g>
</g>
<g id="_x37_">
	<g>
		
			<linearGradient id="SVGID_4_" gradientUnits="userSpaceOnUse" x1="793.653" y1="240.863" x2="864.5706" y2="240.863" gradientTransform="matrix(1 0 0 1 -252.5837 0)">
			<stop  offset="0" style="stop-color:#FFFFFF"/>
			<stop  offset="1" style="stop-color:#00ADEE"/>
		</linearGradient>
		<rect x="541.1" y="213" style="fill:url(#SVGID_4_);" width="70.9" height="55.7"/>
		
			<linearGradient id="SVGID_6_" gradientUnits="userSpaceOnUse" x1="-45.9902" y1="334.9942" x2="-140.347" y2="334.9942" gradientTransform="matrix(-1 0 0 1 471.6398 0)">
			<stop  offset="0" style="stop-color:#FFFFFF"/>
			<stop  offset="1" style="stop-color:#00ADEE"/>
		</linearGradient>
		<polygon style="fill:url(#SVGID_6_);" points="612,362.8 517.6,362.8 517.6,307.2 612,307.2 		"/>
		
			<linearGradient id="SVGID_8_" gradientUnits="userSpaceOnUse" x1="-64.2985" y1="428.7166" x2="-140.347" y2="428.7166" gradientTransform="matrix(-1 0 0 1 471.6398 0)">
			<stop  offset="0" style="stop-color:#FFFFFF"/>
			<stop  offset="1" style="stop-color:#00ADEE"/>
		</linearGradient>
		<polygon style="fill:url(#SVGID_8_);" points="612,456.6 535.9,456.6 535.9,400.9 612,400.9 		"/>
		
			<linearGradient id="SVGID_10_" gradientUnits="userSpaceOnUse" x1="-29.6419" y1="522.9541" x2="-140.347" y2="522.9541" gradientTransform="matrix(-1 0 0 1 471.6398 0)">
			<stop  offset="0" style="stop-color:#FFFFFF"/>
			<stop  offset="1" style="stop-color:#00ADEE"/>
		</linearGradient>
		<polygon style="fill:url(#SVGID_10_);" points="612,550.8 501.3,550.8 501.3,495.1 612,495.1 		"/>
		
			<linearGradient id="SVGID_12_" gradientUnits="userSpaceOnUse" x1="-64.2985" y1="616.1844" x2="-140.347" y2="616.1844" gradientTransform="matrix(-1 0 0 1 471.6398 0)">
			<stop  offset="0" style="stop-color:#FFFFFF"/>
			<stop  offset="1" style="stop-color:#00ADEE"/>
		</linearGradient>
		<polygon style="fill:url(#SVGID_12_);" points="612,644 535.9,644 535.9,588.3 612,588.3 		"/>
		<g>
			<path class="st32" d="M531.1,589.1h25.5c2.1,0,4,1.1,5.1,2.9l12.7,22c1,1.8,1,4,0,5.8l-12.7,22c-1,1.8-3,2.9-5.1,2.9h-25.5
				c-2.1,0-4-1.1-5.1-2.9l-12.7-22c-1-1.8-1-4,0-5.8l12.7-22C527.1,590.2,529,589.1,531.1,589.1z"/>
			<g>
				<path class="st17" d="M524.5,621.9l1.9,4.2c0.3,0.7,0.9,1.3,1.7,1.6c0.8,0.3,1.6,0.2,2.3-0.1l0.8-0.3c0.5,0.4,1.2,0.5,1.7,0.2
					l1.4-0.7c0.3,0.5,0.8,1.3,1.5,2.3c1.1,1.5,3,3.6,5.5,5c0.2,0.1,0.5,0.2,0.8,0.2c0.5,0,1-0.2,1.3-0.7l1.7-2.4
					c0.3-0.4,0.4-0.8,0.3-1.2c-0.1-0.4-0.3-0.8-0.7-1.1c-1.1-0.7-3.7-2.6-5-4.7l2.2-1c3-1.1,6.4-1.5,10.1-1.3c3,0.2,5.5,0.8,6.7,1.1
					c0.4,0.1,0.9,0,1.2-0.4c0.3-0.4,0.4-0.8,0.2-1.2h0l-3.9-8.5l1.8-1.2c0.3-0.2,0.4-0.6,0.2-0.9l-1.5-3.3c-0.1-0.3-0.5-0.5-0.8-0.4
					l-2.1,0.6l-4.1-8.9c-0.2-0.4-0.6-0.7-1.1-0.7c0,0,0,0,0,0c-0.5,0-0.9,0.3-1.1,0.7c-0.5,1.2-1.6,3.5-3.4,6.1
					c-2.1,3-4.6,5.4-7.4,7l-9.1,4.2c-0.4,0.2-0.7,0.5-0.8,0.9c-0.1,0.2-0.1,0.4-0.1,0.5l-0.8,0.3c-0.7,0.3-1.3,0.9-1.6,1.7
					C524.1,620.4,524.1,621.2,524.5,621.9z M538.5,624.8c1.4,2.3,4,4.3,5.5,5.3c0,0,0.1,0.1,0.1,0.1s0,0.1,0,0.2l-1.7,2.4
					c-0.1,0.1-0.2,0.1-0.3,0.1c-2.3-1.3-4-3.3-5.1-4.6c-0.6-0.8-1.1-1.6-1.3-2.1L538.5,624.8z M548.6,599.9l10,21.6
					c-1.8-0.5-4.8-1.1-8.3-1.1c-2.5,0-5.4,0.3-8.2,1.2l-4.1-8.8C544,609,547.3,602.9,548.6,599.9z M555.6,611.6l-1.2-2.6l1.3-0.4
					l1,2.2L555.6,611.6z M527.2,620.6c-0.2-0.1-0.4-0.1-0.5,0l-1,0.5c-0.2-0.7,0.1-1.5,0.9-1.9l0.6-0.3l3.3,7l-0.6,0.3
					c-0.4,0.2-0.8,0.2-1.2,0.1c-0.3-0.1-0.6-0.3-0.8-0.6l1-0.5c0.4-0.2,0.5-0.6,0.3-0.9c-0.2-0.4-0.6-0.5-0.9-0.3l-1,0.5L527,624
					l1-0.5c0.2-0.1,0.3-0.2,0.4-0.4c0.1-0.2,0.1-0.4,0-0.5c-0.2-0.4-0.6-0.5-0.9-0.3l-1,0.5l-0.2-0.4l1-0.5c0.2-0.1,0.3-0.2,0.4-0.4
					s0.1-0.4,0-0.5S527.4,620.7,527.2,620.6z M528.2,617.4l8.5-3.9l4,8.7l-8.5,3.9c-0.1,0-0.2,0-0.3-0.1l-3.9-8.3c0-0.1,0-0.1,0-0.2
					C528.1,617.5,528.2,617.4,528.2,617.4z"/>
				<path class="st17" d="M562.1,607.7l-2.5,1.2c-0.1,0-0.2,0.1-0.3,0.1c-0.3,0-0.5-0.2-0.6-0.4c-0.1-0.2-0.1-0.4,0-0.5
					s0.2-0.3,0.4-0.4l2.5-1.2c0.2-0.1,0.4-0.1,0.5,0c0.2,0.1,0.3,0.2,0.4,0.4C562.6,607.2,562.4,607.6,562.1,607.7z"/>
				<path class="st17" d="M556.9,605.7c-0.1,0.3-0.4,0.5-0.7,0.5c-0.1,0-0.2,0-0.2,0c-0.4-0.1-0.6-0.5-0.4-0.9l0.9-2.6
					c0.1-0.2,0.2-0.3,0.4-0.4c0.2-0.1,0.4-0.1,0.5,0c0.2,0.1,0.3,0.2,0.4,0.4c0.1,0.2,0.1,0.4,0,0.5L556.9,605.7z"/>
				<path class="st17" d="M558.8,612.8c-0.1-0.2-0.1-0.4,0-0.5s0.2-0.3,0.4-0.4c0.2-0.1,0.4-0.1,0.5,0l2.6,0.9
					c0.2,0.1,0.3,0.2,0.4,0.4c0.1,0.2,0.1,0.4,0,0.5c-0.1,0.3-0.4,0.5-0.7,0.5c-0.1,0-0.2,0-0.2,0l-2.6-0.9
					C559.1,613.1,558.9,612.9,558.8,612.8z"/>
			</g>
		</g>
		<g>
			<path class="st32" d="M523,213h25.5c2.1,0,4,1.1,5.1,2.9l12.7,22c1,1.8,1,4,0,5.8l-12.7,22c-1,1.8-3,2.9-5.1,2.9H523
				c-2.1,0-4-1.1-5.1-2.9l-12.7-22c-1-1.8-1-4,0-5.8l12.7-22C519,214.1,520.9,213,523,213z"/>
			<g>
				<g>
					<path class="st17" d="M544.5,249.5c0,1.3,1,2.3,2.3,2.3c1.3,0,2.3-1,2.3-2.3c0-1.3-1-2.3-2.3-2.3
						C545.5,247.2,544.5,248.2,544.5,249.5z M545.4,249.5c0-0.8,0.6-1.4,1.4-1.4c0.8,0,1.4,0.6,1.4,1.4s-0.6,1.4-1.4,1.4
						C546,250.9,545.4,250.2,545.4,249.5z"/>
					<path class="st17" d="M550.9,255.9c-0.3,0-0.5-0.2-0.5-0.5v-0.9c0-0.5-0.4-0.9-0.9-0.9H544c-0.5,0-0.9,0.4-0.9,0.9v0.9
						c0,0.3-0.2,0.5-0.5,0.5s-0.5-0.2-0.5-0.5v-0.9c0-1,0.8-1.8,1.8-1.8h5.5c1,0,1.8,0.8,1.8,1.8v0.9
						C551.3,255.7,551.1,255.9,550.9,255.9z"/>
					<path class="st17" d="M535.8,251.8c1.3,0,2.3-1,2.3-2.3c0-1.3-1-2.3-2.3-2.3s-2.3,1-2.3,2.3
						C533.5,250.7,534.5,251.8,535.8,251.8z M535.8,250.9c-0.8,0-1.4-0.6-1.4-1.4s0.6-1.4,1.4-1.4s1.4,0.6,1.4,1.4
						S536.5,250.9,535.8,250.9z"/>
					<path class="st17" d="M540.3,254.5v0.9c0,0.3-0.2,0.5-0.5,0.5s-0.5-0.2-0.5-0.5v-0.9c0-0.5-0.4-0.9-0.9-0.9H533
						c-0.5,0-0.9,0.4-0.9,0.9v0.9c0,0.3-0.2,0.5-0.5,0.5c-0.3,0-0.5-0.2-0.5-0.5v-0.9c0-1,0.8-1.8,1.8-1.8h5.5
						C539.5,252.7,540.3,253.5,540.3,254.5z"/>
					<path class="st17" d="M524.8,251.8c1.3,0,2.3-1,2.3-2.3c0-1.3-1-2.3-2.3-2.3c-1.3,0-2.3,1-2.3,2.3
						C522.5,250.7,523.5,251.8,524.8,251.8z M524.8,250.9c-0.8,0-1.4-0.6-1.4-1.4s0.6-1.4,1.4-1.4c0.8,0,1.4,0.6,1.4,1.4
						S525.5,250.9,524.8,250.9z"/>
					<path class="st17" d="M527.5,252.7c1,0,1.8,0.8,1.8,1.8v0.9c0,0.3-0.2,0.5-0.5,0.5s-0.5-0.2-0.5-0.5v-0.9
						c0-0.5-0.4-0.9-0.9-0.9H522c-0.5,0-0.9,0.4-0.9,0.9v0.9c0,0.3-0.2,0.5-0.5,0.5s-0.5-0.2-0.5-0.5v-0.9c0-1,0.8-1.8,1.8-1.8
						H527.5z"/>
				</g>
				<g>
					<path class="st17" d="M534.2,231.6c0,0-0.1,0-0.1,0c-0.2,0-0.4-0.1-0.4-0.3l-0.6-2.2c-0.1-0.2,0.1-0.5,0.3-0.6
						c0.2-0.1,0.5,0.1,0.6,0.3l0.6,2.2C534.6,231.3,534.5,231.5,534.2,231.6z"/>
					<g>
						<path class="st17" d="M537.9,231.3c-0.1,0.2-0.2,0.3-0.4,0.3c0,0-0.1,0-0.1,0c-0.2-0.1-0.4-0.3-0.3-0.6l0.6-2.2
							c0.1-0.2,0.3-0.4,0.6-0.3c0.2,0.1,0.4,0.3,0.3,0.6L537.9,231.3z"/>
						<path class="st17" d="M531.2,233.3c-0.1,0-0.2,0-0.3-0.1l-1.6-1.6c-0.2-0.2-0.2-0.5,0-0.6c0.2-0.2,0.5-0.2,0.6,0l1.6,1.6
							c0.2,0.2,0.2,0.5,0,0.6C531.5,233.2,531.3,233.3,531.2,233.3z"/>
						<path class="st17" d="M540.6,233.1c-0.1,0.1-0.2,0.1-0.3,0.1s-0.2,0-0.3-0.1c-0.2-0.2-0.2-0.5,0-0.6l1.6-1.6
							c0.2-0.2,0.5-0.2,0.6,0c0.2,0.2,0.2,0.5,0,0.6L540.6,233.1z"/>
					</g>
				</g>
				<path class="st17" d="M526,227.5c0,4.1,0,7,0,11.1c0,1,0.6,1.6,1.6,1.6c1.6,0,3.3,0,4.9,0c0.1,0,0.2,0,0.4,0
					c-0.1,0.3-0.1,0.6-0.2,0.9c-0.2,0-0.4,0-0.6,0c-0.7,0-1.3,0.6-1.4,1.3c0,0.7-0.1,1,0.9,1c2.8,0,5.6,0,8.4,0
					c0.8,0,0.9-0.1,0.9-0.9c0-0.8-0.6-1.4-1.4-1.4c-0.2,0-0.3,0-0.5,0c-0.1-0.3-0.1-0.6-0.2-0.9c0.2,0,0.5,0,0.7,0
					c1.5,0,2.9,0,4.4,0c0.9,0,1.5-0.3,1.8-1.1c0-4.4,0-7.6,0-12c-0.2-0.5-0.5-1-1.1-1.1c-0.1,0-0.3,0-0.4,0c-5.5,0-10.9,0-16.4,0
					C526.6,225.9,526,226.5,526,227.5z M544.6,237.3c-5.9,0-11.8,0-17.6,0c0-0.1,0-0.2,0-0.3c0-3.5,0-5.9,0-9.5
					c0-0.5,0.1-0.7,0.7-0.7c5.4,0,10.8,0,16.3,0c0.5,0,0.7,0.1,0.7,0.7c0,3.5,0,5.9,0,9.4C544.6,237.1,544.6,237.2,544.6,237.3z
					 M536.3,239.2c-0.1,0-0.2,0-0.3,0c0.3-0.4,0.3-0.5,0-0.9c2.9,0,5.7,0,8.6,0c0.1,0.6,0,0.9-0.8,0.9
					C541.3,239.2,538.8,239.2,536.3,239.2z M537.7,240.1c0.1,0.3,0.1,0.6,0.2,0.9c-1.5,0-2.9,0-4.4,0c0.1-0.3,0.1-0.6,0.2-0.9
					C535.1,240.1,536.4,240.1,537.7,240.1z M535.8,242c1.2,0,2.4,0,3.6,0c0.4,0,0.5,0.1,0.5,0.4c-2.8,0-5.5,0-8.3,0
					c0.1-0.3,0.2-0.4,0.5-0.4C533.4,242,534.6,242,535.8,242z M527,238.3c2.9,0,5.7,0,8.6,0c-0.3,0.4-0.3,0.5,0,0.9
					c-0.1,0-0.2,0-0.3,0c-1.8,0-3.6,0-5.4,0c-0.8,0-1.6,0-2.3,0c-0.4,0-0.5-0.2-0.5-0.5C526.9,238.5,527,238.4,527,238.3z"/>
			</g>
		</g>
		<g>
			<path class="st32" d="M498.1,307.2h25.4c2.1,0,4,1.1,5.1,2.9l12.7,22c1,1.8,1,4,0,5.8l-12.7,22c-1,1.8-3,2.9-5.1,2.9h-25.4
				c-2.1,0-4-1.1-5.1-2.9l-12.7-22c-1-1.8-1-4,0-5.8l12.7-22C494.1,308.3,496,307.2,498.1,307.2z"/>
			<g>
				<path class="st17" d="M494.3,350c0,0.2,0,0.3,0,0.5c0.2,0.3,0.4,0.3,0.7,0.3c10.5,0,21,0,31.6,0c0.1,0,0.1,0,0.2,0
					c0.4,0,0.6-0.3,0.5-0.6c0-0.2-0.1-0.5-0.1-0.7c-0.5-3.3-1.1-6.6-1.6-9.9c-0.2-1.4-0.4-2.8-0.4-4.3c0-5.1,0-10.1,0-15.2
					c0-0.7-0.1-0.8-0.8-0.8c-9,0-18.1,0-27.1,0c-0.1,0-0.2,0-0.3,0c-0.3,0-0.5,0.2-0.5,0.5c0,0.1,0,0.2,0,0.4c0,5.6,0,11.1,0,16.7
					c0,0.2,0,0.5-0.1,0.7c-0.6,3.5-1.1,6.9-1.7,10.4C494.6,348.6,494.4,349.3,494.3,350z M524.1,334c-8.9,0-17.7,0-26.6,0
					c0-4.6,0-9.1,0-13.7c8.9,0,17.7,0,26.6,0C524.1,324.9,524.1,329.4,524.1,334z M524.1,335.1c0,0.5,0,1,0,1.6
					c-8.9,0-17.7,0-26.6,0c0-0.5,0-1.1,0-1.6C506.4,335.1,515.3,335.1,524.1,335.1z M511.4,349.1c1.4,0,2.9,0,4.3,0
					c0.5,0,0.5,0,0.6,0.5c0,0,0,0,0,0.1c-1.6,0-3.3,0-4.9,0C511.4,349.5,511.4,349.3,511.4,349.1z M505.6,348
					c0.1-0.6,0.2-1.1,0.3-1.7c0.2,0,0.3,0,0.4,0c2.9,0,5.8,0,8.8,0c0.1,0,0.2,0,0.4,0c0.1,0,0.2,0.1,0.2,0.1c0.1,0.5,0.2,1,0.3,1.5
					C512.5,348,509.1,348,505.6,348z M505.3,349.7c0-0.6,0-0.6,0.6-0.6c1.3,0,2.7,0,4,0c0.1,0,0.2,0,0.4,0c0,0.2,0,0.4,0,0.6
					C508.7,349.7,507,349.7,505.3,349.7z M495.4,349.7c0.7-4,1.3-8,2-12c8.9,0,17.9,0,26.8,0c0.7,4,1.3,8,2,12c-0.1,0-0.2,0-0.2,0
					c-2.8,0-5.6,0-8.4,0c-0.2,0-0.3-0.1-0.3-0.3c-0.2-1.2-0.5-2.4-0.7-3.5c-0.1-0.5-0.2-0.6-0.7-0.6c-3.4,0-6.8,0-10.2,0
					c-0.5,0-0.6,0.1-0.7,0.6c-0.2,1.2-0.5,2.3-0.7,3.5c0,0.3-0.1,0.3-0.4,0.3c-2.7,0-5.4,0-8.2,0
					C495.7,349.7,495.6,349.7,495.4,349.7z"/>
				<path class="st17" d="M505.1,343.7c0.1,0,0.3,0,0.4,0c3.6,0,7.2,0,10.8,0c0.1,0,0.2,0,0.4,0c0.3,0.1,0.4,0.3,0.4,0.5
					c0,0.3-0.2,0.4-0.4,0.5c-0.1,0-0.2,0-0.3,0c-1.8,0-3.6,0-5.4,0c-1.8,0-3.6,0-5.4,0c-0.1,0-0.2,0-0.4,0c-0.3,0-0.4-0.2-0.4-0.5
					C504.7,344,504.9,343.8,505.1,343.7z"/>
				<path class="st17" d="M498,343.7c1.8,0,3.5,0,5.3,0c0.4,0,0.6,0.2,0.6,0.5c0,0.3-0.2,0.5-0.6,0.5c-0.9,0-1.8,0-2.6,0
					c-0.9,0-1.8,0-2.7,0c-0.4,0-0.6-0.2-0.6-0.5C497.4,343.9,497.6,343.7,498,343.7z"/>
				<path class="st17" d="M523.5,342.9c-0.5,0-1,0-1.4,0c-0.5,0-1,0-1.4,0c-0.4,0-0.6-0.2-0.6-0.5c0-0.3,0.2-0.5,0.6-0.5
					c1,0,1.9,0,2.9,0c0.4,0,0.6,0.2,0.6,0.5C524.1,342.7,523.9,342.9,523.5,342.9z"/>
				<path class="st17" d="M499.8,341.9c0.5,0,0.9,0,1.4,0c0.4,0,0.6,0.2,0.6,0.5c0,0.3-0.2,0.5-0.6,0.5c-0.9,0-1.9,0-2.8,0
					c-0.4,0-0.6-0.2-0.6-0.5c0-0.3,0.2-0.5,0.6-0.5C498.8,341.9,499.3,341.9,499.8,341.9z"/>
				<path class="st17" d="M500.7,341.2c-0.3,0-0.6,0-1,0c-0.3,0-0.7,0-1,0c-0.3,0-0.5-0.2-0.5-0.5c0-0.3,0.2-0.5,0.5-0.5
					c0.7,0,1.3,0,2,0c0.3,0,0.5,0.2,0.5,0.5C501.3,341,501.1,341.2,500.7,341.2z"/>
				<path class="st17" d="M523.5,341.2c-0.2,0-0.4,0-0.6,0c0,0,0,0,0,0c-0.2,0-0.4,0-0.5,0c0,0,0,0-0.1,0c-0.3,0-0.5-0.2-0.5-0.5
					c0-0.3,0.2-0.5,0.4-0.5c0.4,0,0.9,0,1.3,0c0.3,0,0.5,0.3,0.4,0.5C524,341,523.8,341.2,523.5,341.2z"/>
				<path class="st17" d="M519.6,343.7c0.1,0,0.2,0,0.3,0c0.5,0,0.8,0.2,0.8,0.5c0,0.4-0.2,0.5-0.8,0.5c-0.1,0-0.2,0-0.3,0
					c-0.3,0-0.5-0.2-0.5-0.5C519.1,343.9,519.3,343.7,519.6,343.7z"/>
				<path class="st17" d="M517.8,343.7c0.2,0,0.5,0,0.7,0c0.3,0.1,0.4,0.3,0.4,0.5c0,0.2-0.2,0.4-0.4,0.5c-0.1,0-0.2,0-0.3,0
					c0,0,0,0,0,0c-0.1,0-0.2,0-0.3,0c-0.3,0-0.5-0.2-0.5-0.5C517.3,343.9,517.5,343.7,517.8,343.7z"/>
				<path class="st17" d="M521.4,343.7c0.2,0,0.5,0,0.7,0c0.2,0,0.4,0.2,0.4,0.5c0,0.2-0.1,0.4-0.3,0.5c-0.1,0-0.3,0-0.4,0
					c0,0,0,0,0,0c-0.1,0-0.2,0-0.3,0c-0.3,0-0.5-0.2-0.5-0.5C520.9,343.9,521.1,343.7,521.4,343.7z"/>
				<path class="st17" d="M523.2,343.7c0.2,0,0.5,0,0.7,0c0.3,0.1,0.4,0.3,0.4,0.5c0,0.3-0.2,0.4-0.4,0.5c-0.1,0-0.2,0-0.3,0
					c0,0,0,0,0,0c-0.1,0-0.2,0-0.3,0c-0.3,0-0.5-0.2-0.5-0.5C522.7,343.9,522.9,343.7,523.2,343.7z"/>
				<path class="st17" d="M520.1,340.7c0,0.3-0.2,0.6-0.5,0.6c-0.3,0-0.5-0.2-0.5-0.5c0-0.3,0.2-0.5,0.5-0.5
					C519.9,340.2,520.1,340.4,520.1,340.7z"/>
				<path class="st17" d="M504.6,339.4c-0.3,0-0.5-0.2-0.5-0.5c0-0.3,0.3-0.5,0.6-0.5c0.3,0,0.5,0.2,0.5,0.5
					C505.2,339.2,505,339.4,504.6,339.4z"/>
				<path class="st17" d="M519.3,342.4c0,0.3-0.2,0.5-0.5,0.5c-0.3,0-0.6-0.2-0.6-0.5c0-0.3,0.2-0.5,0.5-0.5
					C519,341.9,519.3,342.2,519.3,342.4z"/>
				<path class="st17" d="M499.1,339.4c-0.3,0-0.5-0.2-0.5-0.5c0-0.3,0.3-0.5,0.5-0.5c0.3,0,0.5,0.2,0.5,0.5
					C499.6,339.2,499.4,339.5,499.1,339.4z"/>
				<path class="st17" d="M507.5,339.4c-0.3,0-0.6-0.2-0.6-0.5c0-0.3,0.2-0.5,0.5-0.5c0.3,0,0.5,0.2,0.5,0.5
					C508,339.2,507.8,339.4,507.5,339.4z"/>
				<path class="st17" d="M506.1,339.4c-0.3,0-0.5-0.2-0.5-0.5c0-0.3,0.3-0.5,0.5-0.5c0.3,0,0.5,0.2,0.5,0.5
					C506.6,339.2,506.4,339.4,506.1,339.4z"/>
				<path class="st17" d="M503.2,339.4c-0.3,0-0.5-0.2-0.6-0.5c0-0.3,0.2-0.5,0.5-0.5c0.3,0,0.5,0.2,0.5,0.5
					C503.8,339.2,503.5,339.4,503.2,339.4z"/>
				<path class="st17" d="M500.4,339.4c-0.3,0-0.5-0.2-0.5-0.5c0-0.3,0.3-0.5,0.6-0.5c0.3,0,0.5,0.3,0.5,0.5
					C501,339.3,500.8,339.5,500.4,339.4z"/>
				<path class="st17" d="M517.3,340.7c0,0.3-0.2,0.5-0.5,0.5c-0.3,0-0.6-0.2-0.6-0.5c0-0.3,0.2-0.5,0.5-0.5
					C517,340.2,517.3,340.4,517.3,340.7z"/>
				<path class="st17" d="M515.8,340.7c0,0.3-0.2,0.5-0.5,0.5c-0.3,0-0.6-0.2-0.6-0.5c0-0.3,0.2-0.5,0.5-0.5
					C515.6,340.2,515.8,340.4,515.8,340.7z"/>
				<path class="st17" d="M514.4,340.7c0,0.3-0.2,0.5-0.5,0.5c-0.3,0-0.5-0.2-0.5-0.5c0-0.3,0.2-0.5,0.5-0.5
					C514.2,340.2,514.4,340.4,514.4,340.7z"/>
				<path class="st17" d="M513,340.7c0,0.3-0.2,0.5-0.5,0.5c-0.3,0-0.5-0.2-0.6-0.5c0-0.3,0.2-0.5,0.5-0.5
					C512.7,340.2,513,340.4,513,340.7z"/>
				<path class="st17" d="M518.9,339.4c-0.3,0-0.5-0.2-0.5-0.5c0-0.3,0.2-0.5,0.5-0.5c0.3,0,0.5,0.2,0.5,0.5
					C519.5,339.2,519.2,339.4,518.9,339.4z"/>
				<path class="st17" d="M507.3,340.7c0,0.3-0.2,0.5-0.6,0.5c-0.3,0-0.5-0.2-0.5-0.5c0-0.3,0.3-0.5,0.5-0.5
					C507,340.2,507.3,340.4,507.3,340.7z"/>
				<path class="st17" d="M505.8,340.7c0,0.3-0.2,0.5-0.5,0.5c-0.3,0-0.5-0.2-0.5-0.5c0-0.3,0.3-0.5,0.6-0.5
					C505.6,340.2,505.8,340.4,505.8,340.7z"/>
				<path class="st17" d="M503,340.7c0,0.3-0.2,0.5-0.5,0.5c-0.3,0-0.6-0.2-0.6-0.5c0-0.3,0.2-0.5,0.5-0.5
					C502.7,340.2,503,340.4,503,340.7z"/>
				<path class="st17" d="M518.7,340.7c0,0.3-0.2,0.5-0.5,0.5c-0.3,0-0.5-0.2-0.5-0.5c0-0.3,0.3-0.5,0.6-0.5
					C518.5,340.2,518.7,340.4,518.7,340.7z"/>
				<path class="st17" d="M523,339.4c-0.3,0-0.5-0.2-0.5-0.5c0-0.3,0.2-0.5,0.6-0.5c0.3,0,0.5,0.2,0.5,0.5
					C523.6,339.2,523.3,339.4,523,339.4z"/>
				<path class="st17" d="M517.5,339.4c-0.3,0-0.6-0.2-0.6-0.5c0-0.3,0.2-0.5,0.5-0.5c0.3,0,0.5,0.2,0.5,0.5
					C518.1,339.2,517.8,339.4,517.5,339.4z"/>
				<path class="st17" d="M516.1,339.4c-0.3,0-0.5-0.2-0.5-0.5c0-0.3,0.2-0.5,0.5-0.5c0.3,0,0.5,0.2,0.5,0.5
					C516.6,339.2,516.4,339.4,516.1,339.4z"/>
				<path class="st17" d="M514.7,339.4c-0.3,0-0.5-0.2-0.5-0.5c0-0.3,0.2-0.5,0.5-0.5c0.3,0,0.5,0.2,0.5,0.5
					C515.2,339.2,515,339.4,514.7,339.4z"/>
				<path class="st17" d="M509,339.4c-0.3,0-0.6-0.2-0.6-0.5c0-0.3,0.2-0.5,0.5-0.5c0.3,0,0.5,0.2,0.6,0.5
					C509.5,339.2,509.3,339.4,509,339.4z"/>
				<path class="st17" d="M506.4,342.4c0,0.3-0.2,0.5-0.6,0.5c-0.3,0-0.5-0.2-0.5-0.5c0-0.3,0.2-0.5,0.5-0.5
					C506.2,341.9,506.4,342.2,506.4,342.4z"/>
				<path class="st17" d="M512.1,342.5c0,0.3-0.2,0.5-0.5,0.5c-0.3,0-0.5-0.2-0.5-0.5c0-0.3,0.3-0.5,0.6-0.5
					C511.9,341.9,512.1,342.2,512.1,342.5z"/>
				<path class="st17" d="M509.3,342.5c0,0.3-0.2,0.5-0.5,0.5c-0.3,0-0.5-0.2-0.5-0.5c0-0.3,0.3-0.5,0.6-0.5
					C509.1,341.9,509.3,342.2,509.3,342.5z"/>
				<path class="st17" d="M507.8,342.4c0,0.3-0.2,0.5-0.5,0.5c-0.3,0-0.5-0.2-0.5-0.5c0-0.3,0.2-0.5,0.5-0.5
					C507.6,341.9,507.8,342.1,507.8,342.4z"/>
				<path class="st17" d="M504.4,341.9c0.3,0,0.5,0.2,0.5,0.5c0,0.3-0.2,0.5-0.5,0.5c-0.3,0-0.5-0.2-0.5-0.5
					C503.9,342.1,504.1,341.9,504.4,341.9z"/>
				<path class="st17" d="M504.4,340.7c0,0.3-0.2,0.5-0.5,0.5c-0.3,0-0.5-0.2-0.5-0.5c0-0.3,0.3-0.5,0.6-0.5
					C504.2,340.2,504.4,340.4,504.4,340.7z"/>
				<path class="st17" d="M521.8,339.4c-0.3,0-0.5-0.2-0.6-0.5c0-0.3,0.2-0.5,0.5-0.5c0.3,0,0.5,0.2,0.5,0.5
					C522.3,339.2,522.1,339.4,521.8,339.4z"/>
				<path class="st17" d="M516.4,342.4c0,0.3-0.2,0.5-0.6,0.5c-0.3,0-0.5-0.2-0.5-0.5c0-0.3,0.2-0.5,0.5-0.5
					C516.2,341.9,516.4,342.1,516.4,342.4z"/>
				<path class="st17" d="M510.7,342.4c0,0.3-0.2,0.5-0.6,0.5c-0.3,0-0.5-0.2-0.5-0.5c0-0.3,0.2-0.5,0.5-0.5
					C510.5,341.9,510.7,342.1,510.7,342.4z"/>
				<path class="st17" d="M510.4,339.4c-0.3,0-0.6-0.2-0.6-0.5c0-0.3,0.2-0.5,0.5-0.5c0.3,0,0.5,0.2,0.5,0.5
					C510.9,339.2,510.7,339.4,510.4,339.4z"/>
				<path class="st17" d="M520.4,339.4c-0.3,0-0.6-0.2-0.6-0.5c0-0.3,0.2-0.5,0.5-0.5c0.3,0,0.5,0.2,0.5,0.5
					C520.9,339.2,520.7,339.4,520.4,339.4z"/>
				<path class="st17" d="M521.5,340.7c0,0.3-0.2,0.5-0.5,0.5c-0.3,0-0.5-0.2-0.5-0.5c0-0.3,0.2-0.5,0.6-0.5
					C521.3,340.2,521.5,340.4,521.5,340.7z"/>
				<path class="st17" d="M508.7,340.7c0,0.3-0.2,0.5-0.5,0.5c-0.3,0-0.5-0.2-0.5-0.5c0-0.3,0.3-0.5,0.6-0.5
					C508.5,340.2,508.7,340.4,508.7,340.7z"/>
				<path class="st17" d="M517.8,342.4c0,0.3-0.2,0.5-0.5,0.5c-0.3,0-0.5-0.2-0.5-0.5c0-0.3,0.2-0.5,0.5-0.5
					C517.6,341.9,517.8,342.1,517.8,342.4z"/>
				<path class="st17" d="M501.8,339.4c-0.3,0-0.5-0.2-0.5-0.5c0-0.3,0.2-0.5,0.5-0.5c0.3,0,0.5,0.2,0.5,0.5
					C502.4,339.2,502.2,339.4,501.8,339.4z"/>
				<path class="st17" d="M503.5,342.4c0,0.3-0.2,0.5-0.5,0.5c-0.3,0-0.5-0.2-0.6-0.5c0-0.3,0.2-0.5,0.5-0.5
					C503.3,341.9,503.5,342.1,503.5,342.4z"/>
				<path class="st17" d="M511.8,339.4c-0.3,0-0.5-0.2-0.5-0.5c0-0.3,0.2-0.5,0.5-0.5c0.3,0,0.5,0.2,0.5,0.5
					C512.3,339.2,512.1,339.4,511.8,339.4z"/>
				<path class="st17" d="M513.2,339.4c-0.3,0-0.5-0.2-0.5-0.5c0-0.3,0.2-0.5,0.5-0.5c0.3,0,0.5,0.2,0.5,0.5
					C513.8,339.2,513.5,339.4,513.2,339.4z"/>
				<path class="st17" d="M510.1,340.7c0,0.3-0.2,0.5-0.6,0.5c-0.3,0-0.5-0.2-0.5-0.5c0-0.3,0.2-0.5,0.5-0.5
					C509.9,340.2,510.1,340.4,510.1,340.7z"/>
				<path class="st17" d="M511.6,340.7c0,0.3-0.2,0.5-0.5,0.5c-0.3,0-0.5-0.2-0.6-0.5c0-0.3,0.2-0.5,0.5-0.5
					C511.3,340.2,511.6,340.4,511.6,340.7z"/>
				<path class="st17" d="M515,342.4c0,0.3-0.2,0.5-0.5,0.5c-0.3,0-0.5-0.2-0.5-0.5c0-0.3,0.2-0.5,0.5-0.5
					C514.7,341.9,515,342.1,515,342.4z"/>
				<path class="st17" d="M513.5,342.4c0,0.3-0.2,0.5-0.5,0.5c-0.3,0-0.5-0.2-0.5-0.5c0-0.3,0.2-0.5,0.5-0.5
					C513.3,341.9,513.5,342.1,513.5,342.4z"/>
			</g>
		</g>
		<g>
			<path class="st32" d="M529.3,401h25.5c2.1,0,4,1.1,5.1,2.9l12.7,22c1,1.8,1,4,0,5.8l-12.7,22c-1,1.8-3,2.9-5.1,2.9h-25.5
				c-2.1,0-4-1.1-5.1-2.9l-12.7-22c-1-1.8-1-4,0-5.8l12.7-22C525.3,402.2,527.2,401,529.3,401z"/>
			<g>
				<g>
					<path class="st17" d="M536.3,432.6h1.1c0.3,0,0.5-0.2,0.5-0.5v-0.2c0-0.3-0.2-0.5-0.5-0.5h-1.1c-0.3,0-0.5,0.2-0.5,0.5v0.2
						C535.8,432.3,536,432.6,536.3,432.6z"/>
					<path class="st17" d="M533.8,430.5h1.1c0.3,0,0.5-0.2,0.5-0.5v-0.2c0-0.3-0.2-0.5-0.5-0.5h-1.1c-0.3,0-0.5,0.2-0.5,0.5v0.2
						C533.3,430.3,533.5,430.5,533.8,430.5z"/>
					<path class="st17" d="M531.1,432.6h1.1c0.3,0,0.5-0.2,0.5-0.5v-0.2c0-0.3-0.2-0.5-0.5-0.5h-1.1c-0.3,0-0.5,0.2-0.5,0.5v0.2
						C530.6,432.3,530.8,432.6,531.1,432.6z"/>
					<path class="st17" d="M533.7,434.7h1.1c0.3,0,0.5-0.2,0.5-0.5V434c0-0.3-0.2-0.5-0.5-0.5h-1.1c-0.3,0-0.5,0.2-0.5,0.5v0.2
						C533.2,434.5,533.4,434.7,533.7,434.7z"/>
					<path class="st17" d="M539.7,435.5h1.1c0.3,0,0.5-0.2,0.5-0.5v-0.2c0-0.3-0.2-0.5-0.5-0.5h-1.1c-0.3,0-0.5,0.2-0.5,0.5v0.2
						C539.2,435.2,539.4,435.5,539.7,435.5z"/>
					<path class="st17" d="M543.3,435.5h1.1c0.3,0,0.5-0.2,0.5-0.5v-0.2c0-0.3-0.2-0.5-0.5-0.5h-1.1c-0.3,0-0.5,0.2-0.5,0.5v0.2
						C542.8,435.2,543,435.5,543.3,435.5z"/>
				</g>
				<path class="st17" d="M530.4,446.3c1.6-0.1,2.9-0.7,3.9-2c1.3-1.5,2.5-3,3.8-4.6c0.3-0.3,0.5-0.4,0.9-0.4c2,0,3.9,0,5.9,0
					c0.5,0,0.8,0.2,1,0.5c1.3,1.6,2.6,3.2,4,4.8c1.5,1.7,3.8,2.2,5.9,1.3c2-0.8,3.3-2.9,3.3-5c0-0.6-0.2-1.3-0.4-1.9
					c-1.3-3.8-2.6-7.6-3.9-11.3c-0.6-1.8-1.8-2.7-3.8-2.7c-1.9,0-3.9,0-5.8,0c-0.2,0-0.4,0-0.7,0c0-0.4,0-0.8,0-1.2
					c0-0.5-0.3-0.8-0.8-0.8c-0.2,0-0.5,0-0.7,0c-0.2,0-0.4-0.2-0.4-0.3c-0.3-0.9-0.9-1.4-1.6-1.9c-0.3-0.2-0.7-0.4-1-0.7
					c-1.7-1.1-1.8-3.2-0.2-4.4c0.5-0.4,1.1-0.7,1.6-1.1c0.8-0.6,1.3-1.3,1.4-2.3c0-0.4-0.1-0.8-0.6-0.9c-0.5,0-0.7,0.3-0.7,0.7
					c0,0.7-0.4,1.1-0.9,1.5c-0.6,0.4-1.2,0.8-1.8,1.3c-1.9,1.7-1.8,4.6,0.2,6.1c0.5,0.4,1.1,0.7,1.5,1c0.3,0.2,0.6,0.6,0.8,0.8
					c-0.6,0.2-1.3,0.1-1.5,0.5c-0.3,0.3-0.2,1-0.3,1.6c-0.2,0-0.4,0-0.6,0c-2,0-4,0-6,0c-1.8,0-3,0.9-3.6,2.5
					c-1.4,3.9-2.8,7.9-4.1,11.8C524.1,442.9,526.7,446.5,530.4,446.3z M543.2,425c-0.8,0-1.5,0-2.3,0c0-0.2,0-0.4,0-0.6
					c0.8,0,1.5,0,2.3,0C543.2,424.5,543.2,424.7,543.2,425z M526.5,439.6c1.3-3.8,2.6-7.6,3.9-11.4c0.5-1.4,1.2-1.9,2.7-1.9
					c3,0,5.9,0,8.9,0c0,0,0,0,0,0c3,0,6,0,9,0c1.4,0,2.1,0.5,2.6,1.8c1.3,3.8,2.7,7.7,4,11.5c0.2,0.6,0.3,1.4,0.2,2
					c-0.2,1.7-1.2,2.8-2.8,3.3c-1.7,0.5-3.1,0-4.2-1.3c-1.4-1.6-2.8-3.3-4.1-4.9c-0.3-0.4-0.6-0.6-1.2-0.6c-2.3,0-4.6,0-6.9,0
					c-0.5,0-0.8,0.2-1.1,0.5c-1.4,1.7-2.7,3.3-4.1,5c-1,1.1-2.2,1.7-3.7,1.5C527,444.7,525.6,442.2,526.5,439.6z"/>
				<path class="st17" d="M547.5,431.3c0.4,0,0.8,0,1.3,0c0-0.5,0-1,0-1.4c0-0.4,0.2-0.7,0.6-0.7c0.4,0,0.6,0.3,0.6,0.7
					c0,0.4,0,0.9,0,1.4c0.5,0,0.9,0,1.4,0c0.4,0,0.7,0.1,0.7,0.6c0,0.5-0.3,0.6-0.8,0.6c-0.4,0-0.9,0-1.3,0c0,0.5,0,0.9,0,1.4
					c0,0.4-0.2,0.7-0.6,0.7c-0.5,0-0.7-0.3-0.7-0.7c0-0.4,0-0.9,0-1.4c-0.5,0-0.9,0-1.3,0c-0.4,0-0.8-0.1-0.8-0.6
					C546.7,431.5,547,431.3,547.5,431.3z"/>
			</g>
		</g>
		<g>
			<path class="st32" d="M484.7,495.1h25.5c2.1,0,4,1.1,5.1,2.9l12.7,22c1,1.8,1,4,0,5.8l-12.7,22c-1,1.8-3,2.9-5.1,2.9h-25.5
				c-2.1,0-4-1.1-5.1-2.9l-12.7-22c-1-1.8-1-4,0-5.8l12.7-22C480.6,496.2,482.6,495.1,484.7,495.1z"/>
			<g>
				<g>
					<path class="st17" d="M515,517.1c0-2-0.5-3.7-2.7-3.7c-0.6,0-0.6-0.5-0.6-1.1c0-2.7-1.8-4.6-4.6-4.6c-7.6,0-15.2,0-22.7,0
						c-2.7,0-4.6,1.9-4.6,4.6c0,4.9,0,9.8,0,14.7c0,2.8,1.8,4.6,4.6,4.6c3.1,0,6.2,0,9.3,0c0.2,0,0.4,0,0.5,0c0,1.3,0,2.5,0,3.7
						c-0.7,0-1.4,0-2.1,0c-0.3,0-0.7,0.2-1,0.4c-0.5,0.3-0.6,1-0.4,1.5c0.2,0.6,0.7,1,1.4,1c2.2,0,4.5,0,6.7,0
						c0.9,0,1.5-0.2,1.9-1.1c0.2,0.1,0.3,0.2,0.4,0.3c0.7,0.5,1.5,0.8,2.4,0.8c2.2,0,4.5,0,6.7,0c3.4,0,4.6-1.9,4.7-4.3
						C515,528.3,515,522.7,515,517.1z M497.2,535.2c0-1.2,0-2.4,0-3.6c0.7,0,2.1,0,2.1,0v3.6C499.4,535.2,498,535.2,497.2,535.2z
						 M499.4,517.3c0,3.6,0,12.3,0,12.3s-10.1,0-15,0c-1.2,0-2.6-1.4-2.6-2.6c0-4.9,0-10.6,0-15.5c0-1.2,1.4-1.7,2.6-1.7
						c7.5,0,15.8,0,23.3,0c1.7,0,1.9,1.5,1.9,3.1c-0.1,0-4.3,0-5.8,0C501.2,512.8,499.4,514.7,499.4,517.3z M512.9,533.6
						c0,1.1-0.3,2.5-2.5,2.5c-2.1,0-4.5,0-6.5,0c-1.8,0-2.5-1.3-2.5-2.5c0-2.7,0-5.5,0-8.2c0-2.7,0-5.4,0-8.1c0-1.1,1-2.5,2.7-2.5
						c2,0,4.1,0,6.1,0c1.9,0,2.6,1.4,2.6,2.5C512.9,522.8,512.9,528.2,512.9,533.6z"/>
					<path class="st17" d="M508.1,530.2c-0.8,0-1.5,0-2.3,0c-0.8,0-1.4,0.7-1.4,1.4c0,0.8,0.6,1.4,1.4,1.4c0.4,0,0.8,0,1.1,0
						c0.4,0,0.8,0,1.2,0c0.8,0,1.4-0.7,1.4-1.4C509.5,530.9,508.9,530.2,508.1,530.2z"/>
					<path class="st17" d="M508.1,525.5c-0.8,0-1.5,0-2.3,0c-0.8,0-1.4,0.7-1.4,1.4c0,0.8,0.6,1.4,1.4,1.4c0.4,0,0.8,0,1.1,0
						c0.4,0,0.8,0,1.2,0c0.8,0,1.4-0.7,1.4-1.4C509.5,526.2,508.9,525.5,508.1,525.5z"/>
					<path class="st17" d="M508.1,520.6c-0.8,0-1.5,0-2.3,0c-0.8,0-1.4,0.7-1.4,1.4c0,0.8,0.6,1.4,1.4,1.4c0.4,0,0.8,0,1.1,0
						c0.4,0,0.8,0,1.2,0c0.8,0,1.4-0.7,1.4-1.4C509.5,521.3,508.9,520.6,508.1,520.6z"/>
				</g>
				<g>
					<path class="st17" d="M494.8,519.8c0,0,0.1,0,0.1,0c0.2,0,0.4-0.1,0.4-0.3l0.6-2.2c0.1-0.2-0.1-0.5-0.3-0.6s-0.5,0.1-0.6,0.3
						l-0.6,2.2C494.5,519.4,494.6,519.7,494.8,519.8z"/>
					<g>
						<path class="st17" d="M491.2,519.4c0.1,0.2,0.2,0.3,0.4,0.3c0,0,0.1,0,0.1,0c0.2-0.1,0.4-0.3,0.3-0.6l-0.6-2.2
							c-0.1-0.2-0.3-0.4-0.6-0.3c-0.2,0.1-0.4,0.3-0.3,0.6L491.2,519.4z"/>
						<path class="st17" d="M497.8,521.4c0.1,0,0.2,0,0.3-0.1l1.6-1.6c0.2-0.2,0.2-0.5,0-0.6c-0.2-0.2-0.5-0.2-0.6,0l-1.6,1.6
							c-0.2,0.2-0.2,0.5,0,0.6C497.6,521.4,497.7,521.4,497.8,521.4z"/>
						<path class="st17" d="M488.4,521.3c0.1,0.1,0.2,0.1,0.3,0.1c0.1,0,0.2,0,0.3-0.1c0.2-0.2,0.2-0.5,0-0.6l-1.6-1.6
							c-0.2-0.2-0.5-0.2-0.6,0c-0.2,0.2-0.2,0.5,0,0.6L488.4,521.3z"/>
					</g>
				</g>
			</g>
		</g>
	</g>
	<path class="st8" d="M297.2,331.8H58.4V216.9l238.8,0c31.7,0,57.4,25.7,57.4,57.4v0C354.6,306,328.9,331.8,297.2,331.8z"/>
	<g>
		<text transform="matrix(1 0 0 1 71.2815 251.943)"><tspan x="0" y="0" class="st17 st33 st34">As An Important Member Of</tspan><tspan x="0" y="24.6" class="st17 st33 st34">The Langhofer Family, </tspan><tspan x="0" y="49.2" class="st17 st33 st34">I Agree To The Following:</tspan></text>
	</g>
	<g>
		<g>
			<text transform="matrix(1 0 0 1 110.3635 392.9059)" class="st10 st35 st36">Use devices only during the times agreed to.</text>
		</g>
		
			<rect x="60.2" y="386.9" transform="matrix(0.7071 0.7071 -0.7071 0.7071 295.3951 69.0642)" class="st10" width="8.4" height="8.4"/>
	</g>
	<g>
		<g id="XMLID_72_">
			<text transform="matrix(1 0 0 1 110.3635 431.7989)" class="st10 st35 st36">I agree to respect other people&apos;s privacy.</text>
		</g>
		
			<rect x="60.2" y="425.8" transform="matrix(0.7071 0.7071 -0.7071 0.7071 322.8967 80.4557)" class="st10" width="8.4" height="8.4"/>
	</g>
	<g>
		<g id="XMLID_58_">
			<text transform="matrix(1 0 0 1 110.3635 462.8927)"><tspan x="0" y="0" class="st10 st35 st36">I will not take or post pictures or videos of others</tspan><tspan x="0" y="15.6" class="st10 st35 st36">without their permission.</tspan></text>
		</g>
		
			<rect x="60.2" y="464.7" transform="matrix(0.7071 0.7071 -0.7071 0.7071 350.3987 91.8474)" class="st10" width="8.4" height="8.4"/>
	</g>
	<g>
		<g id="XMLID_56_">
			<text transform="matrix(1 0 0 1 110.3635 501.7855)"><tspan x="0" y="0" class="st10 st35 st36">I agree to listen calmly and openly when discussing</tspan><tspan x="0" y="15.6" class="st10 st35 st36">media rules</tspan></text>
		</g>
		
			<rect x="60.2" y="503.6" transform="matrix(0.7071 0.7071 -0.7071 0.7071 377.9001 103.2389)" class="st10" width="8.4" height="8.4"/>
	</g>
	<g>
		<g id="XMLID_54_">
			<text transform="matrix(1 0 0 1 110.3635 540.6788)"><tspan x="0" y="0" class="st10 st35 st36">I will not give out personal information to any people</tspan><tspan x="0" y="15.6" class="st10 st35 st36">or sites I don&apos;t know.</tspan></text>
		</g>
		
			<rect x="60.2" y="542.5" transform="matrix(0.7071 0.7071 -0.7071 0.7071 405.4016 114.6304)" class="st10" width="8.4" height="8.4"/>
	</g>
	<g>
		<g id="XMLID_52_">
			<text transform="matrix(1 0 0 1 110.3635 587.3724)" class="st10 st35 st36">I will keep passwords between my parents and I.</text>
		</g>
		
			<rect x="60.2" y="581.4" transform="matrix(0.7071 0.7071 -0.7071 0.7071 432.9036 126.022)" class="st10" width="8.4" height="8.4"/>
	</g>
	<g>
		<g id="XMLID_50_">
			<text transform="matrix(1 0 0 1 110.3635 618.4659)"><tspan x="0" y="0" class="st10 st35 st36">I am responsible to manage my device use and will</tspan><tspan x="0" y="15.6" class="st10 st35 st36">not rely on others to remind me.</tspan></text>
		</g>
		
			<rect x="60.2" y="620.3" transform="matrix(0.7071 0.7071 -0.7071 0.7071 460.4054 137.4137)" class="st10" width="8.4" height="8.4"/>
	</g>
	<g>
		<g id="XMLID_48_">
			<text transform="matrix(1 0 0 1 110.3635 657.359)"><tspan x="0" y="0" class="st10 st35 st36">I agree to hand over my devices without arguing if I</tspan><tspan x="0" y="15.6" class="st10 st35 st36">happen to violate this agreement.</tspan></text>
		</g>
		
			<rect x="60.2" y="659.2" transform="matrix(0.7071 0.7071 -0.7071 0.7071 487.9073 148.8053)" class="st10" width="8.4" height="8.4"/>
	</g>
	<g>
		<g id="XMLID_46_">
			<text transform="matrix(1 0 0 1 110.3635 704.0521)" class="st10 st35 st36">akshd kas dkas kas dkas skah askhask hkas ksad</text>
		</g>
		
			<rect x="60.2" y="698.1" transform="matrix(0.7071 0.7071 -0.7071 0.7071 515.4088 160.1968)" class="st10" width="8.4" height="8.4"/>
	</g>
	<g>
		<text transform="matrix(1 0 0 1 30.8571 88.4051)"><tspan x="0" y="0" class="st8 st37 st38">THE Langhofer</tspan><tspan x="0" y="41.2" class="st8 st37 st38">FAMILY MEDIA</tspan><tspan x="0" y="82.3" class="st8 st37 st38">AGREEMENT </tspan></text>
	</g>
</g>
</svg>
