<?xml version="1.0" encoding="utf-8"?>
<!-- Generator: Adobe Illustrator 25.2.1, SVG Export Plug-In . SVG Version: 6.00 Build 0)  -->
<svg version="1.1" id="_x30_1" xmlns="http://www.w3.org/2000/svg" xmlns:xlink="http://www.w3.org/1999/xlink" x="0px" y="0px"
	 viewBox="0 0 612 792" style="enable-background:new 0 0 612 792;" xml:space="preserve">
<style type="text/css">
	.st0{opacity:0.25;}
	.st1{clip-path:url(#SVGID_10_);fill:#FFFFFF;}
	.st2{opacity:0.57;clip-path:url(#SVGID_10_);fill:#D0D2D3;}
	.st3{clip-path:url(#SVGID_10_);fill:#00ADEE;}
	.st4{clip-path:url(#SVGID_12_);}
	.st5{display:none;}
	.st6{display:inline;}
	.st7{display:inline;clip-path:url(#SVGID_14_);fill:#36363A;}
	.st8{display:inline;clip-path:url(#SVGID_14_);}
	.st9{fill:#00ADEE;}
	.st10{display:inline;clip-path:url(#SVGID_14_);fill:#00ADEE;}
	.st11{fill:#36363A;}
	.st12{clip-path:url(#SVGID_18_);fill:#00ADEE;}
	.st13{clip-path:url(#SVGID_26_);fill:#00ADEE;}
	.st14{opacity:0.38;}
	.st15{opacity:0.87;fill:#FFFFFF;}
	.st16{fill:#1E1B1B;}
	.st17{opacity:0.3;}
	.st18{opacity:3.000000e-02;fill:#FFFFFF;}
	.st19{fill:#FFFFFF;}
	.st20{opacity:0.74;clip-path:url(#SVGID_34_);fill:#FFFFFF;}
	.st21{clip-path:url(#SVGID_34_);}
	.st22{fill:none;stroke:#000000;stroke-width:3.1849;stroke-miterlimit:10;}
	.st23{opacity:0.74;clip-path:url(#SVGID_38_);fill:#FFFFFF;}
	.st24{clip-path:url(#SVGID_38_);}
	.st25{clip-path:url(#SVGID_40_);fill:#36363A;}
	.st26{fill-rule:evenodd;clip-rule:evenodd;fill:#FFFFFF;}
	.st27{fill:url(#SVGID_43_);}
	.st28{fill:url(#SVGID_44_);}
	.st29{fill:url(#SVGID_45_);}
	.st30{fill:url(#SVGID_46_);}
	.st31{fill:url(#SVGID_47_);}
	.st32{fill-rule:evenodd;clip-rule:evenodd;fill:#36363A;}
	.st33{font-family:'Georgia';}
	.st34{font-size:28px;}
	.st35{font-family:'AbhayaLibre-Bold';}
	.st36{font-size:25.359px;}
	.st37{letter-spacing:5;}
	.st38{fill:#404041;}
	.st39{font-family:'Georgia-Bold';}
	.st40{font-size:42.5977px;}
	.st41{fill:none;stroke:#36363A;stroke-linecap:round;stroke-miterlimit:10;}
	.st42{font-family:'Poppins-Italic';}
	.st43{font-size:11.1132px;}
	.st44{fill:#E3E3E3;}
	.st45{font-family:'Poppins-SemiBold';}
	.st46{font-size:14px;}
	.st47{font-family:'Poppins-Regular';}
	.st48{font-size:15.6257px;}
	.st49{clip-path:url(#SVGID_49_);fill:#00ADEE;}
	.st50{clip-path:url(#SVGID_49_);fill:#D0D2D3;}
</style>
<g class="st0">
	<defs>
		<rect id="SVGID_3_" y="-0.4" class="st0" width="612" height="792"/>
	</defs>
	<clipPath id="SVGID_2_">
		<use xlink:href="#SVGID_3_"  style="overflow:visible;"/>
	</clipPath>
	<g style="clip-path:url(#SVGID_2_);">
		
			<image style="overflow:visible;" width="1380" height="920" xlink:href="8E9273FA.jpg"  transform="matrix(0 -0.663 0.663 0 0 872.5714)">
		</image>
	</g>
</g>
<g id="_x38_">
	<g>
		<path class="st11" d="M456.3,133.1c-0.3-3.8-3.4-6.8-7.3-7c-0.7,0-1-0.3-1-0.8c0-0.5,0.3-0.8,1-0.8c0.1,0,0.2,0,0.3,0
			c8.8,0,17.7,0,26.5,0c0.2,0,0.5,0,0.7,0c-0.7-2.6-1.4-5.1-1.9-7.6c-0.5-2.5-0.9-5.1-1.3-7.6c-1.1,0.7-2.1,1.4-3.2,2.1
			c-0.5,0.3-1,0.2-1.2-0.2c-0.2-0.4-0.1-0.8,0.4-1.1c2.1-1.2,3.9-2.7,5.7-4.3c0.2-0.1,0.4-0.2,0.5-0.3c-0.8-0.4-1.5-0.6-2.2-0.8
			c-0.4-0.1-0.8-0.3-0.9-0.7c-0.1-0.5,0.2-0.7,0.5-0.9c2.4-1.8,4.5-3.8,6.3-6.2c0.9-1.3,1.8-2.6,2.7-4c-1.3-0.4-2.4-0.7-3.5-1.1
			c-0.3-0.1-0.6-0.4-0.7-0.7c-0.1-0.2,0.2-0.6,0.4-0.8c3.9-3.1,7.2-6.8,10.2-10.7c0.1-0.1,0.1-0.2,0.2-0.3c-0.3,0-0.5,0-0.6,0
			c-0.8,0-1.6,0.1-2.4,0.1c-0.3,0-0.7-0.2-0.9-0.5c-0.3-0.3,0-0.7,0.2-1c0.2-0.2,0.3-0.3,0.5-0.5c2.7-3,4-6.6,4.2-10.7
			c0.1-1.1,0-2.2,0-3.4c-2.3,0.9-4.4,1.9-6.3,3.1c-3.7,2.3-7,5-9,9c-0.1,0.2-0.5,0.5-0.8,0.4c-0.3,0-0.6-0.4-0.7-0.6
			c-0.2-0.5-0.2-1-0.3-1.6c-0.1,0.1-0.2,0.2-0.3,0.3c-1.6,2.1-2.9,4.4-3.7,6.9c-0.7,2-1.2,4.1-1,6.3c0,0.4,0,0.8-0.4,1.1
			c-0.5,0.2-0.8,0-1.1-0.3c-0.4-0.4-0.8-0.8-1.4-1.3c-0.2,1.4-0.4,2.6-0.5,3.8c-0.2,2.8,0,5.6,1.4,8.2c0.3,0.7,0,1.2-0.7,1.2
			c-0.6,0-1.3,0-1.9,0c0.1,0.2,0.1,0.4,0.2,0.6c0.7,2,1.4,4.1,2,6.1c0.2,0.6,0,1-0.5,1.2c-0.5,0.1-0.8-0.1-1-0.7c0,0,0-0.1,0-0.1
			c-0.1-0.6-0.4-0.7-0.9-0.7c-9.4,0-18.8,0-28.2,0c-0.2,0-0.4,0-0.6,0c-0.5,0-0.9-0.3-0.9-0.8c0-0.5,0.4-0.8,0.9-0.8
			c0.2,0,0.4,0,0.6,0c9.2,0,18.4,0,27.6,0c0.2,0,0.4,0,0.7,0c-0.1-0.2-0.1-0.4-0.2-0.6c-0.4-1.1-0.8-2.2-1.1-3.3
			c-0.2-0.5-0.4-0.7-0.9-0.7c-8.8,0-17.5,0-26.3,0c-0.2,0-0.4,0-0.6,0c-0.4-0.1-0.6-0.4-0.6-0.8c0-0.4,0.3-0.7,0.7-0.8
			c0.1,0,0.3,0,0.5,0c9.8-0.1,19.5,0.3,29.3-0.3c0,0,0.1,0,0.1,0c-0.3-1.4-0.6-2.8-1-4.3c-0.1,0-0.3,0-0.5,0c-9.3,0-18.5,0-27.8,0
			c-0.2,0-0.4,0.1-0.6,0c-0.3-0.2-0.6-0.4-0.6-0.7c0-0.2,0.3-0.6,0.5-0.8c0.2-0.1,0.5-0.1,0.8-0.1c9.1,0,18.3,0,27.4,0
			c0.3,0,0.5,0,0.8,0c0.1-1.6,0.3-3.1,0.4-4.6c-0.2,0-0.4,0-0.6,0c-9.6,0-19.2,0-28.8,0c-0.2,0-0.3,0-0.5,0c-0.4,0-0.7-0.3-0.7-0.7
			c0-0.5,0.2-0.8,0.7-0.8c0.2,0,0.4,0,0.6,0c9.7,0,19.3,0,29,0c0.2,0,0.5,0,0.7,0c0.1-0.3,0.2-0.7,0.3-1c0.2-0.8,0.8-1,1.5-0.4
			c0.3,0.3,0.6,0.6,0.9,0.8c0.3-1.4,0.5-2.7,0.7-4.1c-0.2,0-0.4,0-0.7,0c-10.7,0-21.4,0-32.2,0c-0.3,0-0.7,0-1,0
			c-0.4-0.1-0.6-0.4-0.6-0.8c0-0.4,0.3-0.7,0.7-0.8c0.2,0,0.4,0,0.6,0c7.2,0,14.4,0,21.6,0c3.9,0,7.8,0,11.7,0c0.3,0,0.5,0,0.7-0.4
			c1.1-2.9,2.8-5.5,4.8-8c0.2-0.2,0.3-0.6,0.2-0.9c-0.2-1.2-0.4-2.4-0.6-3.5c-0.8-3.9-2-7.8-4.1-11.3c-1.3-2.3-2.9-4.3-5.2-5.7
			c-1.2-0.7-2.4-1.2-3.8-1.2c-13.9,0-27.8,0-41.6,0c-0.2,0-0.3,0-0.6,0c1.9,1.3,3.3,2.9,4.5,4.7c2.3,3.4,3.7,7.2,4.8,11.2
			c1.9,7.2,2.6,14.5,2.7,21.8c0.1,4.4-0.1,8.9-0.1,13.4c0,6.9,0.4,13.8,2,20.6c1,4.3,2.5,8.5,5,12.2c2.4,3.6,5.4,6.4,9.5,7.8
			c1.8,0.6,3.6,1.1,5.5,0.7C454.1,140.7,456.6,137.3,456.3,133.1z M428,57.7c-0.2,0-0.5,0-0.7,0c-0.5,0-0.7-0.3-0.7-0.8
			c0-0.4,0.2-0.7,0.7-0.8c0.1,0,0.2,0,0.3,0c11.4,0,22.8,0,34.2,0c0.2,0,0.5,0,0.7,0.1c0.2,0.2,0.4,0.5,0.3,0.8
			c0,0.2-0.3,0.5-0.6,0.6c-0.2,0.1-0.4,0-0.7,0c-5.6,0-11.2,0-16.9,0C439.2,57.7,433.6,57.7,428,57.7z M430,63.1c-0.7,0-1-0.3-1-0.8
			c0-0.5,0.3-0.8,1-0.8c5.7,0,11.4,0,17.1,0c5.5,0,11.1,0,16.6,0c0.2,0,0.3,0,0.5,0c0.6,0,1,0.3,1,0.8c0,0.5-0.4,0.8-1,0.8
			C452.8,63.1,441.4,63.1,430,63.1z M430.5,68.6c0-0.2,0.3-0.6,0.5-0.8c0.1-0.1,0.4-0.1,0.6-0.1c11.3,0,22.6,0,33.9,0
			c0.2,0,0.4,0,0.6,0.1c0.4,0.1,0.7,0.4,0.5,0.8c-0.1,0.3-0.4,0.5-0.7,0.7c-0.1,0.1-0.3,0-0.5,0c-5.6,0-11.3,0-16.9,0
			c-5.6,0-11.3,0-16.9,0c-0.2,0-0.4,0.1-0.6,0C430.9,69.1,430.6,68.8,430.5,68.6z M431.3,74.7c0-0.4,0.3-0.7,0.7-0.8
			c0.2,0,0.3,0,0.5,0c5.6,0,11.2,0,16.8,0c5.6,0,11.3,0,16.9,0c0.2,0,0.3,0,0.5,0c0.4,0.1,0.7,0.3,0.7,0.8c0,0.5-0.3,0.7-0.7,0.8
			c-0.2,0-0.3,0-0.5,0c-11.3,0-22.5,0-33.8,0c-0.2,0-0.3,0-0.5,0C431.5,75.4,431.3,75.1,431.3,74.7z M436.3,118.6
			c-0.1,0-0.2,0-0.3,0c-0.5,0-0.8-0.3-0.8-0.8c0-0.4,0.3-0.8,0.9-0.8c1.3,0,2.6,0,3.8,0c8.3,0,16.6,0,24.9,0c0.2,0,0.3,0,0.5,0
			c0.1-1.5,0.2-3,0.3-4.6c-0.3,0-0.5,0-0.7,0c-10,0-19.9,0-29.9,0c-0.2,0-0.3,0-0.5,0c-0.5,0-0.8-0.3-0.8-0.7c0-0.4,0.3-0.8,0.8-0.8
			c0.2,0,0.3,0,0.5,0c10.1,0,20.2,0,30.3,0c0.2,0,0.4,0,0.5,0c0.5-2.3,0.8-4.5,1.4-6.7c2.4-10,6.5-19.1,12.5-27.5
			c1.3-1.8,2.6-3.4,3.9-5.1c0.4-0.6,1.1-0.5,1.4,0c0.2,0.4,0,0.7-0.2,1.1c-1.5,1.9-3,3.7-4.3,5.7c-5.9,8.5-10,17.9-12.1,28.1
			c-0.7,3.3-1.1,6.6-1.3,9.9c0,0.2,0,0.4,0,0.7c1,0,1.9,0,2.8,0c0.3,0,0.6,0,0.9,0c0.5,0,0.8,0.3,0.7,0.8c0,0.5-0.3,0.7-0.7,0.8
			c-0.1,0-0.3,0-0.4,0C458.9,118.6,447.6,118.6,436.3,118.6z"/>
		<path class="st11" d="M496.7,133.4c-0.4-4.2-3.5-7.2-7.7-7.2c-11.5,0-23,0-34.6,0c-0.1,0-0.3,0-0.5,0c5.1,3.7,5.3,11.3-0.1,15.4
			c0.3,0,0.5,0,0.7,0c11.5,0,23,0,34.4,0c0.5,0,1,0,1.5-0.1C494.3,140.7,497.1,137.1,496.7,133.4z"/>
		<path class="st11" d="M416.9,51.7c-0.9-0.8-2-1.5-3.1-2.1c-0.6-0.3-1.4-0.6-2.1-0.6c-3.7,0.1-7.1,3.5-7.3,7.2c5.4,0,10.7,0,16.1,0
			C419.5,54.5,418.4,52.9,416.9,51.7z"/>
	</g>
	<g>
		<text transform="matrix(1.0671 0 0 1 52.0818 166.1161)"><tspan x="0" y="0" class="st33 st34">We the Members Of The</tspan><tspan x="0" y="33.6" class="st33 st34">Langhofer Handbook Family,</tspan></text>
	</g>
	<g>
		<text transform="matrix(1 0 0 1 165.2992 776.202)" class="st11 st35 st36 st37">Family Members:</text>
	</g>
	<g>
		<text transform="matrix(1 0 0 1 47.1637 69.4872)"><tspan x="0" y="0" class="st38 st39 st40">Family</tspan><tspan x="0" y="46.5" class="st9 st39 st40">Consitution</tspan></text>
	</g>
	<g>
		<line class="st41" x1="67" y1="742.3" x2="245.7" y2="742.3"/>
		<line class="st41" x1="366.3" y1="742.3" x2="545" y2="742.3"/>
	</g>
	<path class="st11" d="M216.6,678.3h395.7V216.4H216.6c-98.7,0-178.7,103.4-178.7,230.9v0C37.9,574.9,117.9,678.3,216.6,678.3z"/>
	<g>
		<g>
			<g>
				<text transform="matrix(1 0 0 1 183.2116 357.8075)"><tspan x="0" y="0" class="st19 st42 st43">Conduct ourselves both individually and as a family in a way that is in </tspan><tspan x="0" y="13.3" class="st19 st42 st43">line with our stated Core Values:</tspan></text>
			</g>
		</g>
		<path class="st9" d="M159.9,366.5c-0.1-0.2-0.2-0.4-0.3-0.6c-0.4-0.7-0.8-1.4-1.3-2.1c-0.5-0.6-1-1.2-1.6-1.7
			c-0.1-0.1-0.1-0.1-0.1-0.2c0-0.1,0.1-0.2,0.2-0.2c0.1,0,0.3,0,0.4,0c0.4,0.1,0.7,0.2,1.1,0.4c0.5,0.2,0.9,0.4,1.4,0.7
			c0.1,0,0.1,0,0.2,0c0.5-0.6,1-1.2,1.5-1.8c0.8-0.8,1.5-1.6,2.4-2.4c0.5-0.4,0.9-0.8,1.4-1.2c0.2-0.2,0.5-0.3,0.7-0.4
			c0.1,0,0.2,0,0.3,0c0.2,0,0.2,0.1,0.1,0.2c-0.1,0.1-0.1,0.1-0.2,0.2c-0.4,0.4-0.9,0.9-1.3,1.3c-1.2,1.3-2.3,2.7-3.1,4.2
			C161,364,160.4,365.2,159.9,366.5C159.9,366.4,159.9,366.4,159.9,366.5z"/>
		<g>
			<g>
				<text transform="matrix(1 0 0 1 183.2116 400.4657)"><tspan x="0" y="0" class="st19 st42 st43">[[core value 1]], [[core value 2]], [[core value 3]], [[core value 4]] and</tspan><tspan x="0" y="16.8" class="st19 st42 st43">[[core value5]]</tspan></text>
			</g>
		</g>
		<path class="st9" d="M159.9,409.1c-0.1-0.2-0.2-0.4-0.3-0.6c-0.4-0.7-0.8-1.4-1.3-2.1c-0.5-0.6-1-1.2-1.6-1.7
			c-0.1-0.1-0.1-0.1-0.1-0.2c0-0.1,0.1-0.2,0.2-0.2c0.1,0,0.3,0,0.4,0c0.4,0.1,0.7,0.2,1.1,0.4c0.5,0.2,0.9,0.4,1.4,0.7
			c0.1,0,0.1,0,0.2,0c0.5-0.6,1-1.2,1.5-1.8c0.8-0.8,1.5-1.6,2.4-2.4c0.5-0.4,0.9-0.8,1.4-1.2c0.2-0.2,0.5-0.3,0.7-0.4
			c0.1,0,0.2,0,0.3,0c0.2,0,0.2,0.1,0.1,0.2c-0.1,0.1-0.1,0.1-0.2,0.2c-0.4,0.4-0.9,0.9-1.3,1.3c-1.2,1.3-2.3,2.7-3.1,4.2
			C161,406.7,160.4,407.8,159.9,409.1C159.9,409,159.9,409.1,159.9,409.1z"/>
		<g>
			<g>
				<text transform="matrix(1 0 0 1 183.5691 441.2118)" class="st19 st42 st43">Accept responsibility for our written Mission Statement</text>
			</g>
		</g>
		<path class="st9" d="M159.9,442.2c-0.1-0.2-0.2-0.4-0.3-0.6c-0.4-0.7-0.8-1.4-1.3-2.1c-0.5-0.6-1-1.2-1.6-1.7
			c-0.1-0.1-0.1-0.1-0.1-0.2c0-0.1,0.1-0.2,0.2-0.2c0.1,0,0.3,0,0.4,0c0.4,0.1,0.7,0.2,1.1,0.4c0.5,0.2,0.9,0.4,1.4,0.7
			c0.1,0,0.1,0,0.2,0c0.5-0.6,1-1.2,1.5-1.8c0.8-0.8,1.5-1.6,2.4-2.4c0.5-0.4,0.9-0.8,1.4-1.2c0.2-0.2,0.5-0.3,0.7-0.4
			c0.1,0,0.2,0,0.3,0c0.2,0,0.2,0.1,0.1,0.2c-0.1,0.1-0.1,0.1-0.2,0.2c-0.4,0.4-0.9,0.9-1.3,1.3c-1.2,1.3-2.3,2.7-3.1,4.2
			C161,439.7,160.4,440.9,159.9,442.2C159.9,442.1,159.9,442.1,159.9,442.2z"/>
		<g>
			<g>
				<text transform="matrix(1 0 0 1 183.2116 469.5223)"><tspan x="0" y="0" class="st19 st42 st43">Commit to be an encouragement to each other as me move forward</tspan><tspan x="0" y="14.7" class="st19 st42 st43">in life together.</tspan></text>
			</g>
		</g>
		<path class="st9" d="M159.9,478.2c-0.1-0.2-0.2-0.4-0.3-0.6c-0.4-0.7-0.8-1.4-1.3-2.1c-0.5-0.6-1-1.2-1.6-1.7
			c-0.1-0.1-0.1-0.1-0.1-0.2c0-0.1,0.1-0.2,0.2-0.2c0.1,0,0.3,0,0.4,0c0.4,0.1,0.7,0.2,1.1,0.4c0.5,0.2,0.9,0.4,1.4,0.7
			c0.1,0,0.1,0,0.2,0c0.5-0.6,1-1.2,1.5-1.8c0.8-0.8,1.5-1.6,2.4-2.4c0.5-0.4,0.9-0.8,1.4-1.2c0.2-0.2,0.5-0.3,0.7-0.4
			c0.1,0,0.2,0,0.3,0c0.2,0,0.2,0.1,0.1,0.2c-0.1,0.1-0.1,0.1-0.2,0.2c-0.4,0.4-0.9,0.9-1.3,1.3c-1.2,1.3-2.3,2.7-3.1,4.2
			C161,475.7,160.4,476.9,159.9,478.2C159.9,478.1,159.9,478.1,159.9,478.2z"/>
		<g>
			<g>
				<text transform="matrix(1 0 0 1 183.2116 512.1786)" class="st19 st42 st43">Daily seek communion with Christ</text>
			</g>
		</g>
		<path class="st9" d="M159.9,513.1c-0.1-0.2-0.2-0.4-0.3-0.6c-0.4-0.7-0.8-1.4-1.3-2.1c-0.5-0.6-1-1.2-1.6-1.7
			c-0.1-0.1-0.1-0.1-0.1-0.2c0-0.1,0.1-0.2,0.2-0.2c0.1,0,0.3,0,0.4,0c0.4,0.1,0.7,0.2,1.1,0.4c0.5,0.2,0.9,0.4,1.4,0.7
			c0.1,0,0.1,0,0.2,0c0.5-0.6,1-1.2,1.5-1.8c0.8-0.8,1.5-1.6,2.4-2.4c0.5-0.4,0.9-0.8,1.4-1.2c0.2-0.2,0.5-0.3,0.7-0.4
			c0.1,0,0.2,0,0.3,0c0.2,0,0.2,0.1,0.1,0.2c-0.1,0.1-0.1,0.1-0.2,0.2c-0.4,0.4-0.9,0.9-1.3,1.3c-1.2,1.3-2.3,2.7-3.1,4.2
			C161,510.7,160.4,511.9,159.9,513.1C159.9,513.1,159.9,513.1,159.9,513.1z"/>
		<g>
			<g>
				<text transform="matrix(1 0 0 1 183.2116 537.62)" class="st19 st42 st43">Obey God and those in authority</text>
			</g>
		</g>
		<path class="st9" d="M159.9,538.6c-0.1-0.2-0.2-0.4-0.3-0.6c-0.4-0.7-0.8-1.4-1.3-2.1c-0.5-0.6-1-1.2-1.6-1.7
			c-0.1-0.1-0.1-0.1-0.1-0.2c0-0.1,0.1-0.2,0.2-0.2c0.1,0,0.3,0,0.4,0c0.4,0.1,0.7,0.2,1.1,0.4c0.5,0.2,0.9,0.4,1.4,0.7
			c0.1,0,0.1,0,0.2,0c0.5-0.6,1-1.2,1.5-1.8c0.8-0.8,1.5-1.6,2.4-2.4c0.5-0.4,0.9-0.8,1.4-1.2c0.2-0.2,0.5-0.3,0.7-0.4
			c0.1,0,0.2,0,0.3,0c0.2,0,0.2,0.1,0.1,0.2c-0.1,0.1-0.1,0.1-0.2,0.2c-0.4,0.4-0.9,0.9-1.3,1.3c-1.2,1.3-2.3,2.7-3.1,4.2
			C161,536.1,160.4,537.3,159.9,538.6C159.9,538.5,159.9,538.5,159.9,538.6z"/>
		<g>
			<g>
				<text transform="matrix(1 0 0 1 183.2116 563.6024)" class="st19 st42 st43">Love Unconditionally</text>
			</g>
		</g>
		<path class="st9" d="M159.9,564.6c-0.1-0.2-0.2-0.4-0.3-0.6c-0.4-0.7-0.8-1.4-1.3-2.1c-0.5-0.6-1-1.2-1.6-1.7
			c-0.1-0.1-0.1-0.1-0.1-0.2c0-0.1,0.1-0.2,0.2-0.2c0.1,0,0.3,0,0.4,0c0.4,0.1,0.7,0.2,1.1,0.4c0.5,0.2,0.9,0.4,1.4,0.7
			c0.1,0,0.1,0,0.2,0c0.5-0.6,1-1.2,1.5-1.8c0.8-0.8,1.5-1.6,2.4-2.4c0.5-0.4,0.9-0.8,1.4-1.2c0.2-0.2,0.5-0.3,0.7-0.4
			c0.1,0,0.2,0,0.3,0c0.2,0,0.2,0.1,0.1,0.2c-0.1,0.1-0.1,0.1-0.2,0.2c-0.4,0.4-0.9,0.9-1.3,1.3c-1.2,1.3-2.3,2.7-3.1,4.2
			C161,562.1,160.4,563.3,159.9,564.6C159.9,564.5,159.9,564.5,159.9,564.6z"/>
		<g>
			<g>
				<text transform="matrix(1 0 0 1 183.2116 587.0243)" class="st19 st42 st43">Respect the individuality and property of others</text>
			</g>
		</g>
		<path class="st9" d="M159.9,588c-0.1-0.2-0.2-0.4-0.3-0.6c-0.4-0.7-0.8-1.4-1.3-2.1c-0.5-0.6-1-1.2-1.6-1.7
			c-0.1-0.1-0.1-0.1-0.1-0.2c0-0.1,0.1-0.2,0.2-0.2c0.1,0,0.3,0,0.4,0c0.4,0.1,0.7,0.2,1.1,0.4c0.5,0.2,0.9,0.4,1.4,0.7
			c0.1,0,0.1,0,0.2,0c0.5-0.6,1-1.2,1.5-1.8c0.8-0.8,1.5-1.6,2.4-2.4c0.5-0.4,0.9-0.8,1.4-1.2c0.2-0.2,0.5-0.3,0.7-0.4
			c0.1,0,0.2,0,0.3,0c0.2,0,0.2,0.1,0.1,0.2c-0.1,0.1-0.1,0.1-0.2,0.2c-0.4,0.4-0.9,0.9-1.3,1.3c-1.2,1.3-2.3,2.7-3.1,4.2
			C161,585.5,160.4,586.7,159.9,588C159.9,587.9,159.9,587.9,159.9,588z"/>
		<g>
			<g>
				<text transform="matrix(1 0 0 1 183.2507 613.37)" class="st19 st42 st43">Wisely steward my personal property</text>
			</g>
		</g>
		<path class="st9" d="M159.9,614.3c-0.1-0.2-0.2-0.4-0.3-0.6c-0.4-0.7-0.8-1.4-1.3-2.1c-0.5-0.6-1-1.2-1.6-1.7
			c-0.1-0.1-0.1-0.1-0.1-0.2c0-0.1,0.1-0.2,0.2-0.2c0.1,0,0.3,0,0.4,0c0.4,0.1,0.7,0.2,1.1,0.4c0.5,0.2,0.9,0.4,1.4,0.7
			c0.1,0,0.1,0,0.2,0c0.5-0.6,1-1.2,1.5-1.8c0.8-0.8,1.5-1.6,2.4-2.4c0.5-0.4,0.9-0.8,1.4-1.2c0.2-0.2,0.5-0.3,0.7-0.4
			c0.1,0,0.2,0,0.3,0c0.2,0,0.2,0.1,0.1,0.2c-0.1,0.1-0.1,0.1-0.2,0.2c-0.4,0.4-0.9,0.9-1.3,1.3c-1.2,1.3-2.3,2.7-3.1,4.2
			C161,611.9,160.4,613,159.9,614.3C159.9,614.3,159.9,614.3,159.9,614.3z"/>
		<g>
			<g>
				<text transform="matrix(1 0 0 1 183.2116 637.8524)"><tspan x="0" y="0" class="st19 st42 st43">Honor our parents both in how we communicate and how we engage</tspan><tspan x="0" y="13.3" class="st19 st42 st43">in family activities together.</tspan></text>
			</g>
		</g>
		<path class="st9" d="M159.9,646.5c-0.1-0.2-0.2-0.4-0.3-0.6c-0.4-0.7-0.8-1.4-1.3-2.1c-0.5-0.6-1-1.2-1.6-1.7
			c-0.1-0.1-0.1-0.1-0.1-0.2c0-0.1,0.1-0.2,0.2-0.2c0.1,0,0.3,0,0.4,0c0.4,0.1,0.7,0.2,1.1,0.4c0.5,0.2,0.9,0.4,1.4,0.7
			c0.1,0,0.1,0,0.2,0c0.5-0.6,1-1.2,1.5-1.8c0.8-0.8,1.5-1.6,2.4-2.4c0.5-0.4,0.9-0.8,1.4-1.2c0.2-0.2,0.5-0.3,0.7-0.4
			c0.1,0,0.2,0,0.3,0c0.2,0,0.2,0.1,0.1,0.2c-0.1,0.1-0.1,0.1-0.2,0.2c-0.4,0.4-0.9,0.9-1.3,1.3c-1.2,1.3-2.3,2.7-3.1,4.2
			C161,644.1,160.4,645.2,159.9,646.5C159.9,646.4,159.9,646.5,159.9,646.5z"/>
	</g>
	<text transform="matrix(1 0 0 1 178.824 262.745)"><tspan x="0" y="0" class="st44 st45 st46">So that we may continue to grow together to become</tspan><tspan x="0" y="21.3" class="st44 st45 st46">all that God has created us to be</tspan></text>
	<text transform="matrix(1 0 0 1 178.8238 323.2489)" class="st44 st47 st48">We hereby pledge to do the following:</text>
</g>
<g id="_x39_">
	<g>
		<defs>
			<rect id="SVGID_48_" x="631.9" y="0.4" width="612" height="792"/>
		</defs>
		<clipPath id="SVGID_4_">
			<use xlink:href="#SVGID_48_"  style="overflow:visible;"/>
		</clipPath>
		<circle style="clip-path:url(#SVGID_4_);fill:#00ADEE;" cx="632.6" cy="790.1" r="142.9"/>
	</g>
</g>
</svg>
