<?xml version="1.0" encoding="utf-8"?>
<!-- Generator: Adobe Illustrator 25.2.1, SVG Export Plug-In . SVG Version: 6.00 Build 0)  -->
<svg version="1.1" id="Layer_1" xmlns="http://www.w3.org/2000/svg" xmlns:xlink="http://www.w3.org/1999/xlink" x="0px" y="0px"
	 viewBox="0 0 595.3 841.9" style="enable-background:new 0 0 595.3 841.9;" xml:space="preserve">
<style type="text/css">
	.st0{fill:#36363A;}
	.st1{fill:#FF8000;}
	.st2{fill:#404041;}
	.st3{fill:#DDDDDD;}
	.st4{fill:#3D3D3D;}
	.st5{fill:#FEA00C;}
	.st6{fill:#F1F1F2;}
	.st7{fill:none;stroke:#E6E7E8;stroke-width:4;stroke-miterlimit:10;}
	.st8{opacity:0.58;}
	.st9{clip-path:url(#SVGID_12_);fill:#FFFFFF;}
	.st10{clip-path:url(#SVGID_12_);}
	.st11{fill:url(#SVGID_13_);}
	.st12{fill:url(#SVGID_14_);}
	.st13{fill:url(#SVGID_15_);}
	.st14{fill:url(#SVGID_16_);}
	.st15{fill:url(#SVGID_17_);}
	.st16{fill:url(#SVGID_18_);}
	.st17{fill:url(#SVGID_19_);}
	.st18{fill:url(#SVGID_20_);}
	.st19{fill:url(#SVGID_21_);}
	.st20{fill:url(#SVGID_22_);}
	.st21{fill:url(#SVGID_23_);}
	.st22{fill:url(#SVGID_24_);}
	.st23{fill:url(#SVGID_25_);}
	.st24{fill:url(#SVGID_26_);}
	.st25{fill:url(#SVGID_27_);}
	.st26{fill:url(#SVGID_28_);}
	.st27{fill:url(#SVGID_29_);}
	.st28{fill:none;}
	.st29{fill:url(#SVGID_30_);}
	.st30{fill:#212124;}
	.st31{fill:url(#SVGID_31_);}
	.st32{fill:url(#SVGID_32_);}
	.st33{fill:url(#SVGID_33_);}
	.st34{fill:url(#SVGID_34_);}
	.st35{fill:url(#SVGID_35_);}
	.st36{fill:url(#SVGID_36_);}
	.st37{fill:#7FAA3C;}
	.st38{fill:#698C32;}
	.st39{fill:#8CC63F;}
	.st40{fill:#E8A315;}
	.st41{fill:#B37D10;}
	.st42{fill:#FCB217;}
	.st43{fill:#3993C4;}
	.st44{fill:#2E779E;}
	.st45{fill:#40A5DD;}
	.st46{fill:#3E2E69;}
	.st47{fill:#0E0A17;}
	.st48{fill:#5A439A;}
	.st49{fill:#D9391F;}
	.st50{fill:#A12B17;}
	.st51{fill:#EF3E23;}
	.st52{opacity:0.6;fill:url(#SVGID_37_);}
	.st53{fill:url(#SVGID_38_);}
	.st54{fill:#B62025;}
	.st55{fill:#688DAF;}
	.st56{fill:#6CCAF3;}
	.st57{fill:#F37767;}
	.st58{fill:url(#SVGID_39_);}
	.st59{fill:#ADBAC8;}
	.st60{fill:#B73326;}
	.st61{fill:url(#SVGID_40_);}
	.st62{fill:#3D76BB;}
	.st63{fill:url(#SVGID_41_);}
	.st64{fill:#7E6AAF;}
	.st65{fill:url(#SVGID_42_);}
	.st66{fill:#E38625;}
	.st67{fill:url(#SVGID_43_);}
	.st68{fill:#76A440;}
	.st69{fill:none;stroke:#FFFFFF;stroke-width:0.5;stroke-linecap:round;stroke-linejoin:round;stroke-miterlimit:10;}
	.st70{fill:#FFFFFF;}
	.st71{font-family:'Poppins-SemiBold';}
	.st72{font-size:14px;}
	.st73{font-family:'AbhayaLibre-Bold';}
	.st74{font-size:32.3436px;}
	.st75{font-family:'Poppins-Regular';}
	.st76{font-size:15.6257px;}
	.st77{font-size:25.359px;}
	.st78{letter-spacing:5;}
	.st79{opacity:0.5;}
	.st80{font-family:'AbhayaLibre-ExtraBold';}
	.st81{font-size:42.5977px;}
	.st82{font-family:'Poppins-Italic';}
	.st83{font-size:10.5562px;}
	.st84{fill:none;stroke:#36363A;stroke-linecap:round;stroke-miterlimit:10;}
	.st85{fill:url(#SVGID_44_);}
	.st86{fill:url(#SVGID_45_);}
	.st87{fill:url(#SVGID_46_);}
	.st88{fill:url(#SVGID_47_);}
	.st89{fill:url(#SVGID_48_);}
	.st90{fill-rule:evenodd;clip-rule:evenodd;fill:#FF8000;}
	.st91{fill-rule:evenodd;clip-rule:evenodd;fill:#FFFFFF;}
	.st92{fill-rule:evenodd;clip-rule:evenodd;fill:#36363A;}
	.st93{clip-path:url(#SVGID_50_);}
	.st94{opacity:0.2;}
	.st95{opacity:0.9;}
</style>
<path class="st0" d="M0,698.9h414.4c23.4,0,45-17.9,56.7-47L524,520.2c11.7-29.1,11.7-64.9,0-94l-52.9-131.7
	c-11.7-29.1-33.3-47-56.7-47H0V698.9z"/>
<g>
	<text transform="matrix(1 0 0 1 43.6893 280.076)"><tspan x="0" y="0" class="st70 st71 st72">So that we may continue to grow together to become</tspan><tspan x="0" y="21.3" class="st70 st71 st72">all that God has created us to be</tspan></text>
</g>
<text transform="matrix(1 0 0 1 43.942 170.7571)"><tspan x="0" y="0" class="st0 st73 st74">We the Members Of The</tspan><tspan x="0" y="38.8" class="st0 st73 st74">Langhofer Handbook Family,</tspan></text>
<g>
	<text transform="matrix(1 0 0 1 43.8112 341.5799)" class="st70 st75 st76">We hereby pledge to do the following:</text>
</g>
<g>
	<text transform="matrix(1 0 0 1 159.4723 802.2049)" class="st0 st73 st77 st78">Family Members:</text>
</g>
<g class="st79">
	<path class="st0" d="M489.4,148.5c-0.3-4.9-4.4-8.7-9.4-8.9c-0.8,0-1.3-0.4-1.2-1c0-0.6,0.4-1,1.3-1c0.1,0,0.3,0,0.4,0
		c11.3,0,22.7,0,34,0c0.3,0,0.6,0,0.9,0c-0.9-3.3-1.8-6.5-2.5-9.8c-0.7-3.2-1.1-6.5-1.7-9.7c-1.4,0.9-2.8,1.8-4.2,2.7
		c-0.6,0.4-1.2,0.2-1.5-0.3c-0.3-0.5-0.1-1.1,0.5-1.4c2.7-1.5,5-3.4,7.3-5.5c0.2-0.2,0.5-0.3,0.7-0.4c-1-0.5-1.9-0.7-2.8-1
		c-0.5-0.1-1-0.3-1.1-0.9c-0.1-0.6,0.3-0.9,0.7-1.2c3.1-2.3,5.8-4.9,8.1-8c1.2-1.6,2.3-3.4,3.5-5.2c-1.6-0.5-3.1-0.9-4.5-1.4
		c-0.4-0.1-0.8-0.5-0.8-0.9c-0.1-0.3,0.2-0.8,0.5-1c5.1-3.9,9.2-8.7,13.1-13.8c0.1-0.1,0.1-0.2,0.3-0.4c-0.3,0-0.6,0-0.8,0
		c-1,0-2.1,0.1-3.1,0.1c-0.4,0-0.9-0.3-1.1-0.6c-0.3-0.4,0-0.9,0.3-1.2c0.2-0.2,0.4-0.4,0.6-0.6c3.5-3.9,5.1-8.5,5.4-13.7
		c0.1-1.4,0-2.8,0-4.3c-3,1.1-5.6,2.4-8.1,3.9c-4.7,2.9-8.9,6.5-11.6,11.5c-0.2,0.3-0.7,0.6-1,0.5c-0.3-0.1-0.7-0.5-0.9-0.8
		c-0.2-0.6-0.3-1.3-0.4-2c-0.2,0.2-0.3,0.3-0.3,0.4c-2,2.7-3.7,5.7-4.8,8.9c-0.9,2.6-1.5,5.3-1.3,8.1c0,0.6,0,1.1-0.5,1.4
		c-0.6,0.3-1-0.1-1.4-0.4c-0.5-0.5-1.1-1-1.8-1.7c-0.3,1.8-0.6,3.3-0.7,4.9c-0.3,3.6,0.1,7.2,1.7,10.5c0.4,0.8,0,1.5-1,1.6
		c-0.8,0-1.6,0-2.5,0c0.1,0.2,0.2,0.5,0.2,0.7c0.9,2.6,1.8,5.2,2.6,7.8c0.3,0.8,0,1.3-0.6,1.5c-0.6,0.2-1-0.1-1.3-0.9
		c0,0,0-0.1,0-0.1c-0.1-0.7-0.5-0.9-1.2-0.9c-12.1,0-24.2,0-36.2,0c-0.2,0-0.5,0-0.7,0c-0.7,0-1.1-0.4-1.1-1c0-0.6,0.5-1,1.2-1
		c0.3,0,0.5,0,0.8,0c11.8,0,23.6,0,35.4,0c0.3,0,0.5,0,0.9,0c-0.1-0.3-0.1-0.5-0.2-0.8c-0.5-1.4-1-2.8-1.4-4.3
		c-0.2-0.7-0.5-0.9-1.2-0.9c-11.3,0-22.5,0-33.8,0c-0.3,0-0.5,0-0.8,0c-0.5-0.1-0.8-0.5-0.8-1c0-0.6,0.3-0.9,0.9-1
		c0.2,0,0.4,0,0.6,0c12.5-0.2,25.1,0.4,37.6-0.3c0.1,0,0.1,0,0.1,0c-0.4-1.8-0.8-3.6-1.3-5.5c-0.2,0-0.4,0-0.7,0
		c-11.9,0-23.8,0-35.7,0c-0.2,0-0.6,0.1-0.7,0c-0.3-0.2-0.8-0.6-0.8-0.9c0-0.3,0.3-0.8,0.6-1c0.2-0.2,0.7-0.1,1-0.1
		c11.7,0,23.5,0,35.2,0c0.3,0,0.7,0,1,0c0.2-2,0.4-3.9,0.5-5.9c-0.3,0-0.6,0-0.8,0c-12.3,0-24.6,0-37,0c-0.2,0-0.4,0-0.7,0
		c-0.6,0-0.9-0.4-0.9-0.9c0-0.6,0.3-1,0.9-1c0.3,0,0.5,0,0.8,0c12.4,0,24.8,0,37.3,0c0.3,0,0.6,0,0.9,0c0.1-0.4,0.2-0.8,0.4-1.2
		c0.3-1,1.1-1.2,1.9-0.5c0.4,0.4,0.8,0.7,1.2,1.1c0.3-1.8,0.6-3.5,0.9-5.2c-0.3,0-0.6,0-0.9,0c-13.8,0-27.5,0-41.3,0
		c-0.4,0-0.9,0-1.3-0.1c-0.5-0.1-0.8-0.5-0.8-1c0-0.6,0.3-0.9,0.9-1c0.2,0,0.5,0,0.7,0c9.3,0,18.5,0,27.8,0c5,0,10,0,15,0
		c0.4,0,0.7,0,0.8-0.5c1.5-3.8,3.6-7.1,6.1-10.3c0.2-0.3,0.4-0.8,0.3-1.1c-0.2-1.5-0.5-3-0.8-4.6c-1.1-5.1-2.6-10-5.2-14.5
		c-1.7-2.9-3.8-5.5-6.7-7.3c-1.5-0.9-3.1-1.6-4.9-1.6c-17.8,0-35.6,0-53.5,0c-0.2,0-0.4,0-0.8,0.1c2.4,1.7,4.2,3.7,5.7,6
		c3,4.4,4.8,9.3,6.1,14.3c2.4,9.2,3.3,18.6,3.5,28c0.1,5.7-0.1,11.4-0.1,17.2c-0.1,8.9,0.5,17.8,2.5,26.5c1.3,5.5,3.2,10.9,6.4,15.7
		c3,4.6,6.9,8.2,12.2,10c2.3,0.8,4.6,1.4,7.1,0.9C486.5,158.2,489.7,153.8,489.4,148.5z M453.1,51.7c-0.3,0-0.6,0-0.9,0
		c-0.6-0.1-0.9-0.4-0.9-1c0-0.6,0.3-0.9,0.9-1c0.1,0,0.2,0,0.4,0c14.6,0,29.3,0,43.9,0c0.3,0,0.7,0,0.8,0.2c0.2,0.2,0.5,0.7,0.4,1
		c0,0.3-0.4,0.6-0.7,0.8c-0.2,0.1-0.6,0.1-0.9,0.1c-7.2,0-14.4,0-21.6,0C467.4,51.7,460.2,51.7,453.1,51.7z M455.6,58.6
		c-0.8,0-1.3-0.3-1.3-1c0-0.7,0.4-1,1.3-1c7.3,0,14.7,0,22,0c7.1,0,14.2,0,21.3,0c0.2,0,0.4,0,0.6,0c0.8,0,1.3,0.4,1.3,1
		c0,0.6-0.5,1-1.3,1C484.8,58.6,470.2,58.6,455.6,58.6z M456.3,65.6c0-0.3,0.4-0.7,0.7-1c0.2-0.1,0.5-0.1,0.8-0.1
		c14.5,0,29,0,43.6,0c0.2,0,0.5,0,0.7,0.1c0.5,0.1,0.8,0.6,0.7,1c-0.1,0.3-0.5,0.6-0.8,0.9c-0.1,0.1-0.4,0-0.6,0
		c-7.2,0-14.5,0-21.7,0c-7.2,0-14.5,0-21.7,0c-0.2,0-0.6,0.1-0.7,0C456.7,66.2,456.3,65.9,456.3,65.6z M457.2,73.4
		c0-0.6,0.4-0.9,0.9-1c0.2,0,0.4,0,0.7,0c7.2,0,14.4,0,21.6,0c7.2,0,14.5,0,21.7,0c0.2,0,0.4,0,0.7,0c0.6,0.1,0.9,0.4,0.9,1
		c0,0.6-0.3,1-0.9,1c-0.2,0-0.4,0-0.7,0c-14.4,0-28.9,0-43.3,0c-0.2,0-0.4,0-0.7,0C457.6,74.3,457.2,74,457.2,73.4z M463.7,129.8
		c-0.1,0-0.3,0-0.4,0c-0.6,0-1-0.4-1.1-1c0-0.6,0.4-1,1.1-1c1.6,0,3.3,0,4.9,0c10.7,0,21.3,0,32,0c0.2,0,0.4,0,0.6,0
		c0.1-1.9,0.3-3.9,0.4-5.9c-0.3,0-0.6,0-0.9,0c-12.8,0-25.6,0-38.4,0c-0.2,0-0.4,0-0.7,0c-0.6,0-1-0.3-1-0.9c-0.1-0.6,0.4-1,1-1.1
		c0.2,0,0.4,0,0.7,0c13,0,26,0,38.9,0c0.2,0,0.5,0,0.7,0c0.6-2.9,1.1-5.8,1.8-8.7c3-12.8,8.4-24.6,16-35.3c1.6-2.3,3.4-4.4,5.1-6.6
		c0.6-0.7,1.4-0.7,1.8,0c0.3,0.5,0,1-0.3,1.4c-1.9,2.4-3.8,4.8-5.6,7.3c-7.6,11-12.8,23-15.6,36.1c-0.9,4.2-1.5,8.5-1.7,12.8
		c0,0.3,0,0.5,0,0.9c1.2,0,2.4,0,3.6,0c0.4,0,0.8,0,1.2,0c0.6,0.1,1,0.4,1,1c0,0.6-0.4,0.9-1,1c-0.2,0-0.3,0-0.5,0
		C492.7,129.8,478.2,129.8,463.7,129.8z"/>
	<path class="st0" d="M541.3,148.8c-0.5-5.4-4.6-9.2-9.9-9.2c-14.8,0-29.6,0-44.4,0c-0.2,0-0.4,0-0.6,0.1c6.5,4.8,6.8,14.5-0.1,19.7
		c0.4,0,0.7,0,0.9,0c14.7,0,29.5,0,44.2,0c0.6,0,1.3,0,1.9-0.2C538.2,158.2,541.7,153.6,541.3,148.8z"/>
	<path class="st0" d="M438.8,43.9c-1.2-1-2.6-1.9-3.9-2.7c-0.8-0.4-1.8-0.7-2.7-0.7c-4.7,0.1-9.1,4.5-9.4,9.3c6.9,0,13.7,0,20.6,0
		C442.1,47.6,440.7,45.5,438.8,43.9z"/>
</g>
<g>
	<text transform="matrix(1 0 0 1 44.0289 71.4904)"><tspan x="0" y="0" class="st2 st80 st81">Family</tspan><tspan x="0" y="46.5" class="st1 st80 st81">Consitution</tspan></text>
</g>
<g>
	<g>
		<g>
			<g>
				<text transform="matrix(1 0 0 1 67.7399 383.4854)"><tspan x="0" y="0" class="st70 st82 st83">Conduct ourselves both individually and as a family in a way that is in </tspan><tspan x="0" y="12.7" class="st70 st82 st83">line with our stated Core Values:</tspan></text>
			</g>
		</g>
		<path class="st1" d="M45.6,391.7c-0.1-0.2-0.2-0.4-0.3-0.6c-0.4-0.7-0.8-1.3-1.3-2c-0.4-0.6-1-1.1-1.5-1.7c-0.1,0-0.1-0.1-0.1-0.2
			c0-0.1,0.1-0.2,0.2-0.2c0.1,0,0.3,0,0.4,0c0.4,0.1,0.7,0.2,1,0.4c0.4,0.2,0.9,0.4,1.3,0.6c0.1,0,0.1,0,0.2,0
			c0.5-0.6,1-1.1,1.5-1.7c0.7-0.8,1.5-1.6,2.2-2.3c0.4-0.4,0.9-0.8,1.4-1.1c0.2-0.2,0.4-0.3,0.7-0.4c0.1,0,0.2,0,0.3,0
			c0.1,0,0.2,0.1,0.1,0.2c-0.1,0.1-0.1,0.1-0.2,0.2c-0.4,0.4-0.9,0.8-1.3,1.3c-1.2,1.2-2.1,2.6-3,4
			C46.6,389.4,46.1,390.5,45.6,391.7C45.6,391.6,45.6,391.7,45.6,391.7z"/>
	</g>
	<g>
		<g>
			<g>
				<text transform="matrix(1 0 0 1 67.7399 424.005)"><tspan x="0" y="0" class="st70 st82 st83">[[core value 1]], [[core value 2]], [[core value 3]], [[core value 4]] and</tspan><tspan x="0" y="16" class="st70 st82 st83">[[core value5]]</tspan></text>
			</g>
		</g>
		<path class="st1" d="M45.6,432.2c-0.1-0.2-0.2-0.4-0.3-0.6c-0.4-0.7-0.8-1.3-1.3-2c-0.4-0.6-1-1.1-1.5-1.7c-0.1,0-0.1-0.1-0.1-0.2
			c0-0.1,0.1-0.2,0.2-0.2c0.1,0,0.3,0,0.4,0c0.4,0.1,0.7,0.2,1,0.4c0.4,0.2,0.9,0.4,1.3,0.6c0.1,0,0.1,0,0.2,0
			c0.5-0.6,1-1.1,1.5-1.7c0.7-0.8,1.5-1.6,2.2-2.3c0.4-0.4,0.9-0.8,1.4-1.1c0.2-0.2,0.4-0.3,0.7-0.4c0.1,0,0.2,0,0.3,0
			c0.1,0,0.2,0.1,0.1,0.2c-0.1,0.1-0.1,0.1-0.2,0.2c-0.4,0.4-0.9,0.8-1.3,1.3c-1.2,1.2-2.1,2.6-3,4C46.6,429.9,46.1,431,45.6,432.2
			C45.6,432.2,45.6,432.2,45.6,432.2z"/>
	</g>
	<g>
		<g>
			<g>
				<text transform="matrix(1 0 0 1 68.0797 462.7091)" class="st70 st82 st83">Accept responsibility for our written Mission Statement</text>
			</g>
		</g>
		<path class="st1" d="M45.6,463.6c-0.1-0.2-0.2-0.4-0.3-0.6c-0.4-0.7-0.8-1.3-1.3-2c-0.4-0.6-1-1.1-1.5-1.7c-0.1,0-0.1-0.1-0.1-0.2
			c0-0.1,0.1-0.2,0.2-0.2c0.1,0,0.3,0,0.4,0c0.4,0.1,0.7,0.2,1,0.4c0.4,0.2,0.9,0.4,1.3,0.6c0.1,0,0.1,0,0.2,0
			c0.5-0.6,1-1.1,1.5-1.7c0.7-0.8,1.5-1.6,2.2-2.3c0.4-0.4,0.9-0.8,1.4-1.1c0.2-0.2,0.4-0.3,0.7-0.4c0.1,0,0.2,0,0.3,0
			c0.1,0,0.2,0.1,0.1,0.2c-0.1,0.1-0.1,0.1-0.2,0.2c-0.4,0.4-0.9,0.8-1.3,1.3c-1.2,1.2-2.1,2.6-3,4
			C46.6,461.3,46.1,462.4,45.6,463.6C45.6,463.5,45.6,463.6,45.6,463.6z"/>
	</g>
	<g>
		<g>
			<g>
				<text transform="matrix(1 0 0 1 67.7399 489.5997)"><tspan x="0" y="0" class="st70 st82 st83">Commit to be an encouragement to each other as me move forward</tspan><tspan x="0" y="14" class="st70 st82 st83">in life together.</tspan></text>
			</g>
		</g>
		<path class="st1" d="M45.6,497.8c-0.1-0.2-0.2-0.4-0.3-0.6c-0.4-0.7-0.8-1.3-1.3-2c-0.4-0.6-1-1.1-1.5-1.7c-0.1,0-0.1-0.1-0.1-0.2
			c0-0.1,0.1-0.2,0.2-0.2c0.1,0,0.3,0,0.4,0c0.4,0.1,0.7,0.2,1,0.4c0.4,0.2,0.9,0.4,1.3,0.6c0.1,0,0.1,0,0.2,0
			c0.5-0.6,1-1.1,1.5-1.7c0.7-0.8,1.5-1.6,2.2-2.3c0.4-0.4,0.9-0.8,1.4-1.1c0.2-0.2,0.4-0.3,0.7-0.4c0.1,0,0.2,0,0.3,0
			c0.1,0,0.2,0.1,0.1,0.2c-0.1,0.1-0.1,0.1-0.2,0.2c-0.4,0.4-0.9,0.8-1.3,1.3c-1.2,1.2-2.1,2.6-3,4
			C46.6,495.5,46.1,496.6,45.6,497.8C45.6,497.8,45.6,497.8,45.6,497.8z"/>
	</g>
	<g>
		<g>
			<g>
				<text transform="matrix(1 0 0 1 67.7399 530.1192)" class="st70 st82 st83">Daily seek communion with Christ</text>
			</g>
		</g>
		<path class="st1" d="M45.6,531c-0.1-0.2-0.2-0.4-0.3-0.6c-0.4-0.7-0.8-1.3-1.3-2c-0.4-0.6-1-1.1-1.5-1.7c-0.1,0-0.1-0.1-0.1-0.2
			c0-0.1,0.1-0.2,0.2-0.2c0.1,0,0.3,0,0.4,0c0.4,0.1,0.7,0.2,1,0.4c0.4,0.2,0.9,0.4,1.3,0.6c0.1,0,0.1,0,0.2,0
			c0.5-0.6,1-1.1,1.5-1.7c0.7-0.8,1.5-1.6,2.2-2.3c0.4-0.4,0.9-0.8,1.4-1.1c0.2-0.2,0.4-0.3,0.7-0.4c0.1,0,0.2,0,0.3,0
			c0.1,0,0.2,0.1,0.1,0.2c-0.1,0.1-0.1,0.1-0.2,0.2c-0.4,0.4-0.9,0.8-1.3,1.3c-1.2,1.2-2.1,2.6-3,4C46.6,528.7,46.1,529.8,45.6,531
			C45.6,531,45.6,531,45.6,531z"/>
	</g>
	<g>
		<g>
			<g>
				<text transform="matrix(1 0 0 1 67.7399 554.2842)" class="st70 st82 st83">Obey God and those in authority</text>
			</g>
		</g>
		<path class="st1" d="M45.6,555.2c-0.1-0.2-0.2-0.4-0.3-0.6c-0.4-0.7-0.8-1.3-1.3-2c-0.4-0.6-1-1.1-1.5-1.7c-0.1,0-0.1-0.1-0.1-0.2
			c0-0.1,0.1-0.2,0.2-0.2c0.1,0,0.3,0,0.4,0c0.4,0.1,0.7,0.2,1,0.4c0.4,0.2,0.9,0.4,1.3,0.6c0.1,0,0.1,0,0.2,0
			c0.5-0.6,1-1.1,1.5-1.7c0.7-0.8,1.5-1.6,2.2-2.3c0.4-0.4,0.9-0.8,1.4-1.1c0.2-0.2,0.4-0.3,0.7-0.4c0.1,0,0.2,0,0.3,0
			c0.1,0,0.2,0.1,0.1,0.2c-0.1,0.1-0.1,0.1-0.2,0.2c-0.4,0.4-0.9,0.8-1.3,1.3c-1.2,1.2-2.1,2.6-3,4C46.6,552.9,46.1,554,45.6,555.2
			C45.6,555.1,45.6,555.1,45.6,555.2z"/>
	</g>
	<g>
		<g>
			<g>
				<text transform="matrix(1 0 0 1 67.7399 578.9659)" class="st70 st82 st83">Love Unconditionally</text>
			</g>
		</g>
		<path class="st1" d="M45.6,579.9c-0.1-0.2-0.2-0.4-0.3-0.6c-0.4-0.7-0.8-1.3-1.3-2c-0.4-0.6-1-1.1-1.5-1.7c-0.1,0-0.1-0.1-0.1-0.2
			c0-0.1,0.1-0.2,0.2-0.2c0.1,0,0.3,0,0.4,0c0.4,0.1,0.7,0.2,1,0.4c0.4,0.2,0.9,0.4,1.3,0.6c0.1,0,0.1,0,0.2,0
			c0.5-0.6,1-1.1,1.5-1.7c0.7-0.8,1.5-1.6,2.2-2.3c0.4-0.4,0.9-0.8,1.4-1.1c0.2-0.2,0.4-0.3,0.7-0.4c0.1,0,0.2,0,0.3,0
			c0.1,0,0.2,0.1,0.1,0.2c-0.1,0.1-0.1,0.1-0.2,0.2c-0.4,0.4-0.9,0.8-1.3,1.3c-1.2,1.2-2.1,2.6-3,4
			C46.6,577.6,46.1,578.7,45.6,579.9C45.6,579.8,45.6,579.8,45.6,579.9z"/>
	</g>
	<g>
		<g>
			<g>
				<text transform="matrix(1 0 0 1 67.7399 601.213)" class="st70 st82 st83">Respect the individuality and property of others</text>
			</g>
		</g>
		<path class="st1" d="M45.6,602.1c-0.1-0.2-0.2-0.4-0.3-0.6c-0.4-0.7-0.8-1.3-1.3-2c-0.4-0.6-1-1.1-1.5-1.7c-0.1,0-0.1-0.1-0.1-0.2
			c0-0.1,0.1-0.2,0.2-0.2c0.1,0,0.3,0,0.4,0c0.4,0.1,0.7,0.2,1,0.4c0.4,0.2,0.9,0.4,1.3,0.6c0.1,0,0.1,0,0.2,0
			c0.5-0.6,1-1.1,1.5-1.7c0.7-0.8,1.5-1.6,2.2-2.3c0.4-0.4,0.9-0.8,1.4-1.1c0.2-0.2,0.4-0.3,0.7-0.4c0.1,0,0.2,0,0.3,0
			c0.1,0,0.2,0.1,0.1,0.2c-0.1,0.1-0.1,0.1-0.2,0.2c-0.4,0.4-0.9,0.8-1.3,1.3c-1.2,1.2-2.1,2.6-3,4
			C46.6,599.8,46.1,600.9,45.6,602.1C45.6,602.1,45.6,602.1,45.6,602.1z"/>
	</g>
	<g>
		<g>
			<g>
				<text transform="matrix(1 0 0 1 67.777 626.2383)" class="st70 st82 st83">Wisely steward my personal property</text>
			</g>
		</g>
		<path class="st1" d="M45.6,627.1c-0.1-0.2-0.2-0.4-0.3-0.6c-0.4-0.7-0.8-1.3-1.3-2c-0.4-0.6-1-1.1-1.5-1.7c-0.1,0-0.1-0.1-0.1-0.2
			c0-0.1,0.1-0.2,0.2-0.2c0.1,0,0.3,0,0.4,0c0.4,0.1,0.7,0.2,1,0.4c0.4,0.2,0.9,0.4,1.3,0.6c0.1,0,0.1,0,0.2,0
			c0.5-0.6,1-1.1,1.5-1.7c0.7-0.8,1.5-1.6,2.2-2.3c0.4-0.4,0.9-0.8,1.4-1.1c0.2-0.2,0.4-0.3,0.7-0.4c0.1,0,0.2,0,0.3,0
			c0.1,0,0.2,0.1,0.1,0.2c-0.1,0.1-0.1,0.1-0.2,0.2c-0.4,0.4-0.9,0.8-1.3,1.3c-1.2,1.2-2.1,2.6-3,4
			C46.6,624.8,46.1,625.9,45.6,627.1C45.6,627.1,45.6,627.1,45.6,627.1z"/>
	</g>
	<g>
		<g>
			<g>
				<text transform="matrix(1 0 0 1 67.7399 649.4932)"><tspan x="0" y="0" class="st70 st82 st83">Honor our parents both in how we communicate and how we engage</tspan><tspan x="0" y="12.7" class="st70 st82 st83">in family activities together.</tspan></text>
			</g>
		</g>
		<path class="st1" d="M45.6,657.7c-0.1-0.2-0.2-0.4-0.3-0.6c-0.4-0.7-0.8-1.3-1.3-2c-0.4-0.6-1-1.1-1.5-1.7c-0.1,0-0.1-0.1-0.1-0.2
			c0-0.1,0.1-0.2,0.2-0.2c0.1,0,0.3,0,0.4,0c0.4,0.1,0.7,0.2,1,0.4c0.4,0.2,0.9,0.4,1.3,0.6c0.1,0,0.1,0,0.2,0
			c0.5-0.6,1-1.1,1.5-1.7c0.7-0.8,1.5-1.6,2.2-2.3c0.4-0.4,0.9-0.8,1.4-1.1c0.2-0.2,0.4-0.3,0.7-0.4c0.1,0,0.2,0,0.3,0
			c0.1,0,0.2,0.1,0.1,0.2c-0.1,0.1-0.1,0.1-0.2,0.2c-0.4,0.4-0.9,0.8-1.3,1.3c-1.2,1.2-2.1,2.6-3,4
			C46.6,655.4,46.1,656.5,45.6,657.7C45.6,657.6,45.6,657.7,45.6,657.7z"/>
	</g>
</g>
<g>
	<line class="st84" x1="58.7" y1="764.3" x2="237.4" y2="764.3"/>
	<line class="st84" x1="357.9" y1="764.3" x2="536.6" y2="764.3"/>
</g>
</svg>
