<?xml version="1.0" encoding="utf-8"?>
<!-- Generator: Adobe Illustrator 25.2.1, SVG Export Plug-In . SVG Version: 6.00 Build 0)  -->
<svg version="1.1" id="_x30_1" xmlns="http://www.w3.org/2000/svg" xmlns:xlink="http://www.w3.org/1999/xlink" x="0px" y="0px"
	 viewBox="0 0 612 792" style="enable-background:new 0 0 612 792;" xml:space="preserve">
<style type="text/css">
	.st0{opacity:0.25;}
	.st1{clip-path:url(#SVGID_10_);fill:#FFFFFF;}
	.st2{opacity:0.57;clip-path:url(#SVGID_10_);fill:#D0D2D3;}
	.st3{clip-path:url(#SVGID_10_);fill:#00ADEE;}
	.st4{clip-path:url(#SVGID_12_);}
	.st5{display:none;}
	.st6{display:inline;}
	.st7{display:inline;clip-path:url(#SVGID_14_);fill:#36363A;}
	.st8{display:inline;clip-path:url(#SVGID_14_);}
	.st9{fill:#00ADEE;}
	.st10{display:inline;clip-path:url(#SVGID_14_);fill:#00ADEE;}
	.st11{fill:#36363A;}
	.st12{clip-path:url(#SVGID_18_);fill:#00ADEE;}
	.st13{font-family:'Georgia';}
	.st14{font-size:31px;}
	.st15{fill:none;}
	.st16{font-size:14px;}
	.st17{font-size:12px;}
	.st18{font-size:26.8725px;}
	.st19{clip-path:url(#SVGID_26_);fill:#00ADEE;}
	.st20{opacity:0.38;}
	.st21{opacity:0.87;fill:#FFFFFF;}
	.st22{fill:#1E1B1B;}
	.st23{opacity:0.3;}
	.st24{opacity:3.000000e-02;fill:#FFFFFF;}
	.st25{fill:#FFFFFF;}
	.st26{opacity:0.74;clip-path:url(#SVGID_34_);fill:#FFFFFF;}
	.st27{clip-path:url(#SVGID_34_);}
	.st28{fill:none;stroke:#000000;stroke-width:3.1849;stroke-miterlimit:10;}
	.st29{opacity:0.74;clip-path:url(#SVGID_38_);fill:#FFFFFF;}
	.st30{clip-path:url(#SVGID_38_);}
	.st31{clip-path:url(#SVGID_40_);fill:#36363A;}
	.st32{fill-rule:evenodd;clip-rule:evenodd;fill:#FFFFFF;}
	.st33{fill:url(#SVGID_43_);}
	.st34{fill:url(#SVGID_44_);}
	.st35{fill:url(#SVGID_45_);}
	.st36{fill:url(#SVGID_46_);}
	.st37{fill:url(#SVGID_47_);}
	.st38{fill-rule:evenodd;clip-rule:evenodd;fill:#36363A;}
	.st39{fill:none;stroke:#36363A;stroke-linecap:round;stroke-miterlimit:10;}
	.st40{clip-path:url(#SVGID_49_);fill:#00ADEE;}
	.st41{clip-path:url(#SVGID_49_);fill:#D0D2D3;}
	.st42{fill:#404041;}
	.st43{font-family:'Poppins-Light';}
	.st44{font-size:8.5971px;}
	.st45{letter-spacing:1;}
	.st46{font-family:'Georgia-Bold';}
	.st47{font-size:35.3347px;}
</style>
<g id="_x32_">
	<defs>
		<rect id="SVGID_9_" x="-631.3" y="-0.3" width="611.3" height="792.3"/>
	</defs>
	<clipPath id="SVGID_2_">
		<use xlink:href="#SVGID_9_"  style="overflow:visible;"/>
	</clipPath>
	<ellipse style="clip-path:url(#SVGID_2_);fill:#00ADEE;" cx="9.1" cy="820.7" rx="177.1" ry="174.6"/>
</g>
<g>
	<defs>
		<rect id="SVGID_17_" y="-27.4" width="612" height="819.4"/>
	</defs>
	<clipPath id="SVGID_4_">
		<use xlink:href="#SVGID_17_"  style="overflow:visible;"/>
	</clipPath>
	<path style="clip-path:url(#SVGID_4_);fill:#00ADEE;" d="M-167.6,859.3c0-219.9,211.4-398.1,472.1-398.1s472.1,178.3,472.1,398.1"
		/>
</g>
<g>
	<defs>
		<path id="SVGID_19_" d="M157.7,372.8H77.5c-17.1,0-31-13.9-31-31V206.3c0-17.1,13.9-31,31-31h80.2c17.1,0,31,13.9,31,31v135.6
			C188.6,359,174.8,372.8,157.7,372.8z"/>
	</defs>
	<clipPath id="SVGID_6_">
		<use xlink:href="#SVGID_19_"  style="overflow:visible;"/>
	</clipPath>
	<g style="clip-path:url(#SVGID_6_);">
		
			<image style="overflow:visible;" width="3648" height="5472" xlink:href="EC4ACE8A.jpg"  transform="matrix(4.580462e-02 0 0 4.580462e-02 34.0236 122.9239)">
		</image>
	</g>
	<use xlink:href="#SVGID_19_"  style="overflow:visible;fill:none;stroke:#00ADEE;stroke-width:4;stroke-miterlimit:10;"/>
</g>
<g>
	<defs>
		<path id="SVGID_21_" d="M157.7,716.2H77.5c-17.1,0-31-13.9-31-31V549.6c0-17.1,13.9-31,31-31h80.2c17.1,0,31,13.9,31,31v135.6
			C188.6,702.3,174.8,716.2,157.7,716.2z"/>
	</defs>
	<clipPath id="SVGID_8_">
		<use xlink:href="#SVGID_21_"  style="overflow:visible;"/>
	</clipPath>
	<g style="clip-path:url(#SVGID_8_);">
		
			<image style="overflow:visible;" width="612" height="402" xlink:href="EC4ACE8E.jpg"  transform="matrix(-0.4969 0 0 0.4969 300.0598 517.6177)">
		</image>
	</g>
	<use xlink:href="#SVGID_21_"  style="overflow:visible;fill:none;stroke:#FFFFFF;stroke-width:4;stroke-miterlimit:10;"/>
</g>
<g>
	<text transform="matrix(1 0 0 1 202.4109 120.0265)" class="st13 st14" style="text-decoration: underline;">Family Members</text>
</g>
<rect x="214.5" y="216.2" class="st15" width="162.9" height="179.7"/>
<text transform="matrix(1 0 0 1 214.4797 226.7758)"><tspan x="0" y="0" class="st9 st13 st16">Family Role:</tspan><tspan x="0" y="13" class="st13 st17">Mom</tspan><tspan x="0" y="39" class="st9 st13 st16">Lives In:</tspan><tspan x="0" y="52" class="st13 st17">Commodi asperores q</tspan><tspan x="0" y="78" class="st9 st13 st16">Favorite Food:</tspan><tspan x="0" y="91" class="st13 st17">Providentaspernatu</tspan><tspan x="0" y="117" class="st9 st13 st16">Favorite Holiday:</tspan><tspan x="0" y="130" class="st13 st17">Valentine&apos;s Day</tspan><tspan x="0" y="156" class="st13 st17">Quo dolore explicabo </tspan></text>
<rect x="394.2" y="220.4" class="st15" width="153.9" height="145.2"/>
<text transform="matrix(1 0 0 1 394.1631 230.9568)"><tspan x="0" y="0" class="st9 st13 st16">Birthday:</tspan><tspan x="0" y="13" class="st13 st17">Aug 13, 2002</tspan><tspan x="0" y="39" class="st9 st13 st16">Birth Place :</tspan><tspan x="0" y="52" class="st13 st17">Est omnis soluta in</tspan><tspan x="0" y="78" class="st9 st13 st16">My Profession:</tspan><tspan x="0" y="91" class="st13 st17">Omnis mollit modi do</tspan><tspan x="0" y="104" class="st13 st17">Greatest Fear: Est sed ea </tspan><tspan x="0" y="117" class="st13 st17">cillum ad</tspan></text>
<g>
	<text transform="matrix(1.1612 0 0 1 211.7275 192.7638)" class="st13 st18">Wynter Mills</text>
</g>
<g id="_x35_">
	<g class="st23">
		<defs>
			<rect id="SVGID_31_" x="18" y="947.4" class="st23" width="792" height="612"/>
		</defs>
		<clipPath id="SVGID_10_">
			<use xlink:href="#SVGID_31_"  style="overflow:visible;"/>
		</clipPath>
		<g style="clip-path:url(#SVGID_10_);">
			
				<image style="overflow:visible;" width="3901" height="2600" xlink:href="EC4ACE89.jpg"  transform="matrix(0.4396 0 0 0.4396 -537.7933 704.5714)">
			</image>
		</g>
	</g>
</g>
<g class="st23">
	<defs>
		<rect id="SVGID_35_" x="-828" y="947.4" class="st23" width="792" height="612"/>
	</defs>
	<clipPath id="SVGID_12_">
		<use xlink:href="#SVGID_35_"  style="overflow:visible;"/>
	</clipPath>
	<g class="st4">
		
			<image style="overflow:visible;" width="3901" height="2600" xlink:href="EC4ACE8B.jpg"  transform="matrix(0.4396 0 0 0.4396 -1383.7932 704.5714)">
		</image>
	</g>
</g>
<rect x="215.7" y="404.8" class="st15" width="332.3" height="40.4"/>
<text transform="matrix(1 0 0 1 215.7215 412.1513)"><tspan x="0" y="0" class="st42 st43 st44">Ben</tspan><tspan x="15.9" y="0" class="st42 st43 st44"> </tspan><tspan x="18.3" y="0" class="st42 st43 st44">otherwise</tspan><tspan x="59.4" y="0" class="st42 st43 st44"> </tspan><tspan x="61.8" y="0" class="st42 st43 st44">known</tspan><tspan x="89.3" y="0" class="st42 st43 st44"> </tspan><tspan x="91.7" y="0" class="st42 st43 st44">as</tspan><tspan x="101.8" y="0" class="st42 st43 st44"> </tspan><tspan x="104.2" y="0" class="st42 st43 st44">“Dad”</tspan><tspan x="127.7" y="0" class="st42 st43 st44"> </tspan><tspan x="130.1" y="0" class="st42 st43 st44">is</tspan><tspan x="136.4" y="0" class="st42 st43 st44"> </tspan><tspan x="138.7" y="0" class="st42 st43 st44">the</tspan><tspan x="152.6" y="0" class="st42 st43 st44"> </tspan><tspan x="154.9" y="0" class="st42 st43 st44">current</tspan><tspan x="185.7" y="0" class="st42 st43 st44"> </tspan><tspan x="188" y="0" class="st42 st43 st44">Executive</tspan><tspan x="227.5" y="0" class="st42 st43 st44"> </tspan><tspan x="229.8" y="0" class="st42 st43 st44">Leader</tspan><tspan x="258.8" y="0" class="st42 st43 st44"> </tspan><tspan x="261.2" y="0" class="st42 st43 st44">of</tspan><tspan x="269.5" y="0" class="st42 st43 st44"> </tspan><tspan x="271.8" y="0" class="st42 st43 st44">The</tspan><tspan x="287.1" y="0" class="st42 st43 st44"> </tspan><tspan x="289.4" y="0" class="st42 st43 st44">Langhofer </tspan><tspan x="0" y="13" class="st42 st43 st44">Family.</tspan><tspan x="29" y="13" class="st42 st43 st44 st45"> </tspan><tspan x="33.1" y="13" class="st42 st43 st44">Ben’s</tspan><tspan x="55.1" y="13" class="st42 st43 st44 st45"> </tspan><tspan x="59.2" y="13" class="st42 st43 st44">roles</tspan><tspan x="79.6" y="13" class="st42 st43 st44 st45"> </tspan><tspan x="83.7" y="13" class="st42 st43 st44">are</tspan><tspan x="97.9" y="13" class="st42 st43 st44 st45"> </tspan><tspan x="102" y="13" class="st42 st43 st44">great</tspan><tspan x="125.1" y="13" class="st42 st43 st44 st45"> </tspan><tspan x="129.2" y="13" class="st42 st43 st44">and</tspan><tspan x="146.3" y="13" class="st42 st43 st44 st45"> </tspan><tspan x="150.4" y="13" class="st42 st43 st44">many</tspan><tspan x="175.1" y="13" class="st42 st43 st44 st45"> </tspan><tspan x="179.2" y="13" class="st42 st43 st44">but</tspan><tspan x="193.5" y="13" class="st42 st43 st44 st45"> </tspan><tspan x="197.6" y="13" class="st42 st43 st44">the</tspan><tspan x="211.5" y="13" class="st42 st43 st44 st45"> </tspan><tspan x="215.6" y="13" class="st42 st43 st44">most</tspan><tspan x="237.3" y="13" class="st42 st43 st44 st45"> </tspan><tspan x="241.4" y="13" class="st42 st43 st44">important</tspan><tspan x="284" y="13" class="st42 st43 st44 st45"> </tspan><tspan x="288.1" y="13" class="st42 st43 st44">is</tspan><tspan x="294.4" y="13" class="st42 st43 st44 st45"> </tspan><tspan x="298.5" y="13" class="st42 st43 st44">to</tspan><tspan x="307.1" y="13" class="st42 st43 st44 st45"> </tspan><tspan x="311.2" y="13" class="st42 st43 st44">be</tspan><tspan x="322.4" y="13" class="st42 st43 st44 st45"> </tspan><tspan x="326.5" y="13" class="st42 st43 st44">a </tspan><tspan x="0" y="26" class="st42 st43 st44">responsible.</tspan></text>
<rect x="214.5" y="553.2" class="st15" width="162.9" height="179.7"/>
<text transform="matrix(1 0 0 1 214.4797 563.7758)"><tspan x="0" y="0" class="st13 st16">Family Role:</tspan><tspan x="0" y="14" class="st25 st13 st17">Mom</tspan><tspan x="0" y="42" class="st13 st16">Lives In:</tspan><tspan x="0" y="56" class="st25 st13 st17">Commodi asperores q</tspan><tspan x="0" y="84" class="st13 st16">Favorite Food:</tspan><tspan x="0" y="98" class="st25 st13 st17">Providentaspernatu</tspan><tspan x="0" y="126" class="st13 st16">Favorite Holiday:</tspan><tspan x="0" y="140" class="st25 st13 st17">Valentine&apos;s Day</tspan><tspan x="0" y="168" class="st25 st13 st17">Quo dolore explicabo </tspan></text>
<rect x="394.2" y="557.4" class="st15" width="153.9" height="145.2"/>
<text transform="matrix(1 0 0 1 394.1631 567.9568)"><tspan x="0" y="0" class="st13 st16">Birthday:</tspan><tspan x="0" y="14" class="st25 st13 st17">Aug 13, 2002</tspan><tspan x="0" y="42" class="st13 st16">Birth Place :</tspan><tspan x="0" y="56" class="st25 st13 st17">Est omnis soluta in</tspan><tspan x="0" y="84" class="st13 st16">My Profession:</tspan><tspan x="0" y="98" class="st25 st13 st17">Omnis mollit modi do</tspan><tspan x="0" y="112" class="st25 st13 st17">Greatest Fear: Est sed ea </tspan><tspan x="0" y="126" class="st25 st13 st17">cillum ad</tspan></text>
<g>
	<text transform="matrix(1.1612 0 0 1 211.7275 534.7638)" class="st13 st18">Wynter Mills</text>
</g>
<rect x="215.7" y="744.8" class="st15" width="332.3" height="40.4"/>
<text transform="matrix(1 0 0 1 215.7215 752.1205)"><tspan x="0" y="0" class="st25 st13 st44">Ben</tspan><tspan x="14.9" y="0" class="st25 st13 st44"> </tspan><tspan x="16.8" y="0" class="st25 st13 st44">otherwise</tspan><tspan x="53.8" y="0" class="st25 st13 st44"> </tspan><tspan x="55.7" y="0" class="st25 st13 st44">known</tspan><tspan x="81.4" y="0" class="st25 st13 st44"> </tspan><tspan x="83.3" y="0" class="st25 st13 st44">as</tspan><tspan x="91.3" y="0" class="st25 st13 st44"> </tspan><tspan x="93.2" y="0" class="st25 st13 st44">“Dad”</tspan><tspan x="116" y="0" class="st25 st13 st44"> </tspan><tspan x="117.9" y="0" class="st25 st13 st44">is</tspan><tspan x="124.1" y="0" class="st25 st13 st44"> </tspan><tspan x="126" y="0" class="st25 st13 st44">the</tspan><tspan x="138.2" y="0" class="st25 st13 st44"> </tspan><tspan x="140.1" y="0" class="st25 st13 st44">current</tspan><tspan x="168.1" y="0" class="st25 st13 st44"> </tspan><tspan x="170" y="0" class="st25 st13 st44">Executive</tspan><tspan x="206.9" y="0" class="st25 st13 st44"> </tspan><tspan x="208.8" y="0" class="st25 st13 st44">Leader</tspan><tspan x="235.1" y="0" class="st25 st13 st44"> </tspan><tspan x="237" y="0" class="st25 st13 st44">of</tspan><tspan x="244.4" y="0" class="st25 st13 st44"> </tspan><tspan x="246.3" y="0" class="st25 st13 st44">The</tspan><tspan x="260.8" y="0" class="st25 st13 st44"> </tspan><tspan x="262.7" y="0" class="st25 st13 st44">Langhofer</tspan><tspan x="301.8" y="0" class="st25 st13 st44"> </tspan><tspan x="303.7" y="0" class="st25 st13 st44">Family. </tspan><tspan x="0" y="13.8" class="st25 st13 st44">Ben’s roles are great and many but the most important is to be a responsible.</tspan></text>
<g>
	<text transform="matrix(0.9615 0 0 1 61.3301 72.3458)" class="st46 st47">THE Langhofer FAMILY</text>
</g>
</svg>
