<?xml version="1.0" encoding="utf-8"?>
<!-- Generator: Adobe Illustrator 25.2.1, SVG Export Plug-In . SVG Version: 6.00 Build 0)  -->
<svg version="1.1" id="_x30_1" xmlns="http://www.w3.org/2000/svg" xmlns:xlink="http://www.w3.org/1999/xlink" x="0px" y="0px"
	 viewBox="0 0 792 612" enable-background="new 0 0 792 612" xml:space="preserve">
<g id="_x32_">
	<defs>
		<rect id="SVGID_9_" x="196.7" y="-947.7" width="611.3" height="792.3"/>
	</defs>
	<clipPath id="SVGID_2_">
		<use xlink:href="#SVGID_9_"  overflow="visible"/>
	</clipPath>
	<ellipse clip-path="url(#SVGID_2_)" fill="#00ADEE" cx="837.1" cy="-126.7" rx="177.1" ry="174.6"/>
</g>
<g id="_x34_">
	<g opacity="0.38">
		<defs>
			<rect id="SVGID_29_" x="-834" y="0.1" opacity="0.38" width="792" height="612"/>
		</defs>
		<clipPath id="SVGID_4_">
			<use xlink:href="#SVGID_29_"  overflow="visible"/>
		</clipPath>
		<g transform="matrix(1 0 0 1 -6.103516e-05 0)" clip-path="url(#SVGID_4_)">
			
				<image overflow="visible" width="5090" height="3393" xlink:href="E2C10EC8.jpg"  transform="matrix(0.1804 0 0 0.1804 -897.0451 0.1429)">
			</image>
		</g>
	</g>
</g>
<g id="_x35_">
	<g opacity="0.3">
		<defs>
			<rect id="SVGID_31_" x="846" opacity="0.3" width="792" height="612"/>
		</defs>
		<clipPath id="SVGID_6_">
			<use xlink:href="#SVGID_31_"  overflow="visible"/>
		</clipPath>
		<g transform="matrix(1 0 0 1 0 -1.525879e-05)" clip-path="url(#SVGID_6_)">
			
				<image overflow="visible" width="3901" height="2600" xlink:href="E2C10EC9.jpg"  transform="matrix(0.4396 0 0 0.4396 290.2067 -242.8571)">
			</image>
		</g>
	</g>
</g>
<g opacity="0.3">
	<defs>
		<rect id="SVGID_35_" opacity="0.3" width="792" height="612"/>
	</defs>
	<clipPath id="SVGID_8_">
		<use xlink:href="#SVGID_35_"  overflow="visible"/>
	</clipPath>
	<g transform="matrix(1 0 0 1 0 -1.525879e-05)" clip-path="url(#SVGID_8_)">
		
			<image overflow="visible" width="3901" height="2600" xlink:href="E2C10ECF.jpg"  transform="matrix(0.4396 0 0 0.4396 -555.7933 -242.8571)">
		</image>
	</g>
</g>
<g>
	<g>
		<polygon opacity="3.000000e-02" fill="#FFFFFF" points="461.2,361 536.4,0 534.4,0 453.5,366 		"/>
		<polygon opacity="3.000000e-02" fill="#FFFFFF" points="491.8,341.3 544.6,0 542.6,0 484.8,345.8 		"/>
		<polygon opacity="3.000000e-02" fill="#FFFFFF" points="520.2,322.9 552.7,0 550.8,0 513.6,327.1 		"/>
		<polygon opacity="3.000000e-02" fill="#FFFFFF" points="546.4,306 560.9,0 558.9,0 540.4,309.9 		"/>
		<polygon opacity="3.000000e-02" fill="#FFFFFF" points="567.1,22.9 567,47.1 567,54.3 566.7,78.2 566.6,85.8 566.6,109.8 
			566.3,117.2 566.3,141.4 566.2,148.5 565.4,293.8 570.9,290.2 570,147.7 570,140.3 569.7,116.3 569.7,109.2 569.6,85.4 569.6,78 
			569.3,54 569.3,46.9 569.2,22.9 569.2,15.5 569,0 567.3,0 567.1,15.5 		"/>
		<polygon opacity="3.000000e-02" fill="#FFFFFF" points="576.2,15.7 576.6,22.7 577.5,46.5 577.9,53.6 579.2,76.6 579.3,84 
			580.5,107.1 580.9,114.1 581.9,137.1 582.3,144.1 588.6,278.7 593.8,275.4 585.8,143.2 585.5,136.3 584.1,113.4 583.7,106.4 
			582.3,83.6 581.9,76.4 580.5,53.3 580.1,46.2 578.5,22.7 578.1,15.7 577.2,0 575.4,0 576.2,15.5 		"/>
		<polygon opacity="3.000000e-02" fill="#FFFFFF" points="585.8,22.7 588.3,45.7 588.9,52.7 591.3,75.1 591.9,82.2 594.2,104.4 
			594.9,111.2 597.1,133.1 597.9,139.9 610.5,264.6 615.2,261.6 601.2,138.9 600.5,132.3 598,110.5 597.2,103.8 594.6,81.8 
			594.1,74.8 591.5,52.5 590.7,45.5 588.1,22.7 587.2,15.7 585.5,0 583.6,0 585.3,15.7 		"/>
		<polygon opacity="3.000000e-02" fill="#FFFFFF" points="595.3,22.7 598.8,45.1 599.8,51.8 603.2,73.5 604.1,80.4 607.6,101.7 
			608.5,108.2 611.8,129.3 612.7,135.5 630.7,251.5 635.3,248.6 616.2,134.7 615.1,128.4 611.5,107.6 610.6,101 607,80 605.9,73.3 
			602.3,51.5 601.2,44.9 597.5,22.7 596.2,15.7 593.6,0 591.7,0 594.2,15.7 		"/>
		<polygon opacity="3.000000e-02" fill="#FFFFFF" points="619.1,18.7 616.3,19 620.5,33.2 623.5,32.7 		"/>
		<polygon opacity="3.000000e-02" fill="#FFFFFF" points="617.5,14.3 612.9,0 610.6,0 614.9,14.6 		"/>
		<polygon opacity="3.000000e-02" fill="#FFFFFF" points="683.1,217.7 681,211.1 681,211.1 676.8,212.6 675.4,207.9 679.4,206.5 
			679.5,206.5 674.6,191.3 670.6,192.3 669.2,187.7 673.1,186.7 668.2,171.3 664.5,172.2 663.1,167.4 666.6,166.6 661.7,151.1 
			658.3,151.7 656.9,146.8 660.1,146.2 655.1,130.6 652.1,131 650.6,126.2 653.5,125.8 648.4,109.9 645.8,110.1 644.4,105.3 
			646.9,105.2 641.7,89 639.4,89.1 638,84.2 640.2,84.2 635,68.1 633,68.1 631.4,63.2 633.4,63.2 630.6,54.7 627.3,55.3 
			677.6,221.1 677.8,221.1 683.1,217.8 		"/>
		<polygon opacity="3.000000e-02" fill="#FFFFFF" points="624.9,36.8 621.9,37.3 626.1,51.1 629.3,50.6 		"/>
		<polygon opacity="3.000000e-02" fill="#FFFFFF" points="614.9,14.6 616.3,19 619.1,18.7 792,1.6 792,0 779.7,0 617.5,14.3 		"/>
		<polygon opacity="3.000000e-02" fill="#FFFFFF" points="620.5,33.2 621.9,37.3 624.9,36.8 645.2,33.9 644.6,32.9 651.1,32.1 
			651.5,33 672.6,29.9 672.4,29.3 678.8,28.6 679,29 700.3,25.9 700.1,25.6 706.6,24.9 706.6,25 792,12.6 792,10.1 623.5,32.7 		"/>
		<polygon opacity="3.000000e-02" fill="#FFFFFF" points="659.8,48.4 659.9,48.4 660.3,49 660.3,49 680,45.2 678.4,41.7 684.3,40.6 
			685.9,44.1 685.9,44.1 705.9,40.2 704.4,36.8 684.4,40.6 678.4,41.6 678.2,41.6 658.3,45.3 659.9,48.4 		"/>
		<polygon opacity="3.000000e-02" fill="#FFFFFF" points="731.9,35.2 730.9,32.1 710.6,35.8 711.8,39 		"/>
		<polygon opacity="3.000000e-02" fill="#FFFFFF" points="785.1,25 784.8,22.4 763.9,26.1 764.6,29 		"/>
		<polygon opacity="3.000000e-02" fill="#FFFFFF" points="791.2,23.8 792,23.6 792,21.2 791,21.3 		"/>
		<polygon opacity="3.000000e-02" fill="#FFFFFF" points="758.4,30.1 757.8,27.3 737.3,31 738.3,33.9 		"/>
		<polygon opacity="3.000000e-02" fill="#FFFFFF" points="654.3,50.1 653.1,48.1 652.1,46.4 652.2,46.4 652.1,46.4 629.3,50.6 
			626.1,51.1 627.3,55.3 630.6,54.7 		"/>
		<polygon opacity="3.000000e-02" fill="#FFFFFF" points="716.1,160 716.2,160.1 723.3,173 723.4,173 726.9,172 720,159.1 
			720,159.1 716.2,160 		"/>
		<polygon opacity="3.000000e-02" fill="#FFFFFF" points="725.5,176.8 725.5,176.8 731.1,186.8 733.9,185 728.9,175.9 728.9,175.9 
			725.5,176.8 		"/>
		<polygon opacity="3.000000e-02" fill="#FFFFFF" points="753.4,221.3 750.8,216.5 747.2,209.8 744.9,211 748.6,217.7 751.2,222.5 
			753,225.9 755.4,224.8 		"/>
		<polygon opacity="3.000000e-02" fill="#FFFFFF" points="785.6,280.8 783.2,276.2 779.3,268.8 777.5,269.4 781.6,276.8 
			784.2,281.4 785.8,284.2 787.2,283.7 		"/>
		<polygon opacity="3.000000e-02" fill="#FFFFFF" points="744.7,205 744.6,205 744.6,204.8 742.4,201 740.1,196.4 737.7,192.1 
			734.7,193.1 737.5,198.1 740.1,202.7 742.1,206.4 742.1,206.4 742.1,206.4 		"/>
		<polygon opacity="3.000000e-02" fill="#FFFFFF" points="696.5,125 696.5,125 704,138.7 704.1,138.7 708.4,137.9 701,124.4 
			701,124.4 696.5,125 		"/>
		<polygon opacity="3.000000e-02" fill="#FFFFFF" points="764.3,241.2 764.3,241.1 761.7,236.5 757.8,229.4 755.6,230.5 
			759.6,237.6 762.2,242.2 763.9,245.4 766.1,244.5 		"/>
		<polygon opacity="3.000000e-02" fill="#FFFFFF" points="775.1,261.1 772.5,256.3 768.7,249.3 766.7,250 770.7,257.1 773.3,261.9 
			774.9,264.8 776.7,264.2 		"/>
		<polygon opacity="3.000000e-02" fill="#FFFFFF" points="686.1,106.7 686.1,106.7 694.1,120.8 694.1,120.8 698.8,120.2 
			691.3,106.2 691.3,106.2 686.1,106.7 		"/>
		<polygon opacity="3.000000e-02" fill="#FFFFFF" points="706.4,142.8 706.4,142.8 714,156.2 714,156.2 717.8,155.3 710.6,142.1 
			710.6,142 706.4,142.8 		"/>
		<polygon opacity="3.000000e-02" fill="#FFFFFF" points="664.4,68.2 664.5,68.2 673,83.3 673,83.3 678.8,83.2 670.6,68.2 
			670.6,68.2 664.5,68.2 		"/>
		<polygon opacity="3.000000e-02" fill="#FFFFFF" points="788.2,288.6 792,295.3 792,292.6 789.6,288.2 		"/>
		<polygon opacity="3.000000e-02" fill="#FFFFFF" points="675.4,87.6 675.4,87.6 683.7,102.4 683.8,102.4 688.9,101.9 681,87.5 
			680.9,87.4 675.4,87.6 		"/>
		<polygon opacity="3.000000e-02" fill="#FFFFFF" points="659.8,48.4 653.2,48.1 652.2,46.4 652.1,46.4 653.1,48.1 654.3,50.1 
			654.3,50.1 661.9,63.6 661.9,63.6 668.2,63.6 660.3,49 660.3,49 659.9,48.4 		"/>
		<polygon opacity="3.000000e-02" fill="#FFFFFF" points="651.1,32.1 644.6,32.9 645.2,33.9 651.5,33 		"/>
		<polygon opacity="3.000000e-02" fill="#FFFFFF" points="783,257.7 751.2,187.6 749.6,183.9 744,171.6 742.3,167.9 736.7,155.3 
			734.9,151.6 729.1,138.7 727.2,134.7 721.3,121.6 719.4,117.8 713.4,104.3 711.4,100.2 705.3,86.4 703.5,82.4 697.1,68.4 
			695.1,64.1 688.5,50 686.6,45.5 685.9,44.1 685.9,44.1 684.3,40.6 678.4,41.7 680,45.2 680,45.2 681.9,49.5 688.9,64.1 
			690.9,68.4 697.7,82.6 699.7,86.7 706.2,100.5 708.2,104.7 714.8,118.2 716.6,122.4 722.9,135.3 724.7,139.5 730.9,152.4 
			732.7,156.2 738.7,168.8 740.5,172.5 746.4,185 748.2,188.7 779.1,253.4 781.4,258.5 788.8,274 791,278.8 792,280.9 792,277 
			790.4,273.4 		"/>
		<polygon opacity="3.000000e-02" fill="#FFFFFF" points="678.8,28.6 672.4,29.3 672.6,29.9 679,29 		"/>
		<polygon opacity="3.000000e-02" fill="#FFFFFF" points="710.6,35.8 704.4,36.8 705.9,40.2 792,260.7 792,255 711.8,39 		"/>
		<polygon opacity="3.000000e-02" fill="#FFFFFF" points="706.6,24.9 700.1,25.6 700.3,25.9 706.6,25 		"/>
		<polygon opacity="3.000000e-02" fill="#FFFFFF" points="737.3,31 730.9,32.1 731.9,35.2 792,230.7 792,220.5 738.3,33.9 		"/>
		<polygon opacity="3.000000e-02" fill="#FFFFFF" points="763.9,26.1 757.8,27.3 758.4,30.1 790,170.2 791.2,175.1 792,178.7 
			792,175.2 791.3,175.1 790.1,170.3 792,170.3 792,161.6 764.6,29 		"/>
		<polygon opacity="3.000000e-02" fill="#FFFFFF" points="791,21.3 784.8,22.4 785.1,25 792,72.3 792,29.8 791.2,23.8 		"/>
		<polygon opacity="3.000000e-02" fill="#FFFFFF" points="791.3,175.1 792,175.2 792,170.3 790.1,170.3 		"/>
		<polygon opacity="3.000000e-02" fill="#FFFFFF" points="679.5,206.5 679.4,206.5 675.4,207.9 676.8,212.6 681,211.1 681,211.1 
			681.6,211 706.4,202.6 706.6,202.5 721.2,193 680.2,206.4 		"/>
		<polygon opacity="3.000000e-02" fill="#FFFFFF" points="736.3,189.6 735.8,188.6 736.2,189.6 733.7,191.3 726.5,195.8 
			734.7,193.1 737.7,192.1 		"/>
		<polygon opacity="3.000000e-02" fill="#FFFFFF" points="723.3,173 673.8,186.5 673.1,186.7 669.2,187.7 670.6,192.3 674.6,191.3 
			675.2,191.1 725.5,176.8 725.5,176.8 728.9,175.9 729,175.9 726.9,172 726.9,172 723.4,173 		"/>
		<polygon opacity="3.000000e-02" fill="#FFFFFF" points="714,156.2 667.3,166.5 666.6,166.6 663.1,167.4 664.5,172.2 668.2,171.3 
			668.9,171.1 716.1,160 716.2,160 720,159.1 720,159.1 717.8,155.3 717.8,155.3 714,156.2 		"/>
		<polygon opacity="3.000000e-02" fill="#FFFFFF" points="704,138.7 660.7,146.1 660.1,146.2 656.9,146.8 658.3,151.7 661.7,151.1 
			662.3,151 706.4,142.8 706.4,142.8 710.6,142 710.6,142 708.4,137.9 708.4,137.9 704.1,138.7 		"/>
		<polygon opacity="3.000000e-02" fill="#FFFFFF" points="694.1,120.8 654.3,125.8 653.5,125.8 650.6,126.2 652.1,131 655.1,130.6 
			655.7,130.5 696.5,125 696.5,125 701,124.4 701.1,124.4 698.9,120.2 698.8,120.2 694.1,120.8 		"/>
		<polygon opacity="3.000000e-02" fill="#FFFFFF" points="683.7,102.4 647.6,105.1 646.9,105.2 644.4,105.3 645.8,110.1 
			648.4,109.9 649.1,109.9 686.1,106.7 686.1,106.7 691.3,106.2 691.3,106.2 689,101.9 688.9,101.9 683.8,102.4 		"/>
		<polygon opacity="3.000000e-02" fill="#FFFFFF" points="673,83.3 640.8,84.2 640.2,84.2 638,84.2 639.4,89.1 641.7,89 642.4,89 
			675.4,87.6 675.4,87.6 680.9,87.4 681,87.4 678.8,83.2 678.8,83.2 673,83.3 		"/>
		<polygon opacity="3.000000e-02" fill="#FFFFFF" points="661.9,63.6 634,63.2 633.4,63.2 631.4,63.2 633,68.1 635,68.1 635.6,68.1 
			664.4,68.2 664.5,68.2 670.6,68.2 670.6,68.2 668.3,63.6 668.2,63.6 661.9,63.6 		"/>
		<polygon opacity="3.000000e-02" fill="#FFFFFF" points="653.2,48.1 659.8,48.4 659.9,48.4 658.3,45.3 652.1,46.4 652.2,46.4 		"/>
		<polygon opacity="3.000000e-02" fill="#FFFFFF" points="736.2,189.6 735.8,188.6 735.7,188.3 733.9,184.9 733.9,185 731.1,186.8 
			731.1,186.8 721.3,193 721.2,193 706.6,202.5 706.4,202.6 683.1,217.7 683.1,217.8 677.8,221.1 677.8,221.1 677.7,221.1 
			635.3,248.6 630.7,251.5 615.2,261.6 610.5,264.6 593.8,275.4 588.6,278.7 570.9,290.2 565.4,293.8 546.4,306 540.4,309.9 
			520.2,322.9 513.6,327.1 491.8,341.3 484.8,345.8 461.2,361 453.5,366 399.4,400.9 399.6,401.2 453.2,367.5 460.9,362.7 
			484.5,347.9 491.4,343.6 513.3,329.8 519.9,325.7 540.1,312.9 546.2,309.1 565.2,297.1 570.9,293.5 588.9,282.3 594.1,279.1 
			610.7,268.5 615.6,265.5 631.3,255.7 636,252.7 726.4,195.9 726.5,195.8 733.7,191.3 		"/>
		<polygon opacity="3.000000e-02" fill="#FFFFFF" points="747.3,209.7 747.3,209.6 744.7,205 744.7,205 742.1,206.4 742.1,206.4 
			638.2,266 633.2,268.7 617.1,278 611.9,281 594.7,290.9 589.4,294 571,304.5 565.2,307.8 545.9,319 539.6,322.6 519.1,334.3 
			512.4,338.1 490.3,350.9 483.3,354.8 459.7,368.4 452,372.7 400.4,402.4 400.7,402.7 454.1,372.9 459.3,370.1 483,356.9 490,353 
			512.1,340.6 518.8,336.9 539.4,325.4 545.7,321.9 565.2,311.1 571,307.8 589.5,297.5 594.9,294.5 612.4,284.8 617.5,281.9 
			633.9,272.8 638.9,270 744.8,211 744.9,211 747.2,209.8 		"/>
		<polygon opacity="3.000000e-02" fill="#FFFFFF" points="755.4,224.8 753,225.9 407,401 401.6,403.7 401.4,403.8 401.6,404.3 
			402.2,404.1 407.6,401.3 755.6,230.5 757.8,229.4 		"/>
		<polygon opacity="3.000000e-02" fill="#FFFFFF" points="451.5,383.7 432.8,391.8 427.3,394.3 408.8,402.6 403.2,405.1 
			402.4,405.3 402.6,405.8 403.4,405.5 409.2,402.9 427.7,394.9 427.9,394.9 433.4,392.6 452.3,384.6 452.6,384.5 452.2,384.6 		"/>
		<polygon opacity="3.000000e-02" fill="#FFFFFF" points="768.7,249.1 766.1,244.5 763.9,245.4 451.5,383.7 451.5,383.7 
			457.4,381.5 457.9,382 457.9,382 766.7,250 768.7,249.3 		"/>
		<polygon opacity="3.000000e-02" fill="#FFFFFF" points="776.7,264.2 774.9,264.8 610.3,327.7 604.8,330 585.5,337.2 579.5,339.7 
			560.4,346.8 554.4,349.2 535.3,356.6 529.5,358.7 510.4,366.1 504.5,368.3 485.4,375.7 479.4,377.8 460.5,385.2 454.8,387.3 
			435.4,394.7 429.7,396.9 410.6,404.3 404.8,406.4 403.4,407 403.6,407.3 404.9,406.8 404.8,406.5 410.5,404.4 410.8,404.6 
			430.1,397.5 430.1,397.5 429.8,397 435.5,394.9 435.9,395.2 436,395.2 455.3,388.3 456.5,387.8 455.3,388.3 454.7,387.4 
			460.4,385.3 461.1,386 461.1,386 480.2,379.1 479.5,378 485.4,375.7 486.3,376.8 486.4,376.8 505.3,369.7 504.5,368.4 
			510.3,366.2 511.2,367.5 511.2,367.5 530.5,360.5 529.6,358.8 535.3,356.6 536.2,358.3 536.3,358.3 555.4,351.2 554.4,349.3 
			560.4,346.9 561.3,349.1 561.4,349.1 580.4,342 579.5,339.7 585.4,337.3 586.1,339.8 605.4,332.9 606.4,332.5 605.4,332.9 
			604.7,330.1 610.3,327.8 611.3,330.7 611.3,330.6 777.5,269.4 779.3,268.8 		"/>
		<polygon opacity="3.000000e-02" fill="#FFFFFF" points="564,356.5 558.6,358.3 539.7,364.4 539.6,364.5 540.5,366.3 559.6,360.3 
			558.5,358.3 		"/>
		<polygon opacity="3.000000e-02" fill="#FFFFFF" points="539,364.7 533.7,366.3 514.2,372.8 512.7,373.3 514.3,372.8 515.2,374.2 
			515.2,374.1 534.6,368.1 533.7,366.3 		"/>
		<polygon opacity="3.000000e-02" fill="#FFFFFF" points="508.5,374.6 489.4,380.9 483,382.9 463.7,389 457.7,391 438,397.5 
			432,399.5 412.2,406 406.4,408 404.4,408.6 404.4,408.9 406.6,408.3 407.5,408 406.5,408.3 406.4,408 412.2,406 412.5,406.3 
			412.6,406.3 432.5,400 432,399.6 438.1,397.6 438.5,398 438.6,398 458.4,392 457.7,391.1 463.8,389.2 464.3,390.1 464.5,390 
			484,384 484.5,383.8 484,384 483.1,382.9 489.3,380.9 490,382 509.4,375.8 508.6,374.6 		"/>
		<polygon opacity="3.000000e-02" fill="#FFFFFF" points="787.2,283.7 785.8,284.2 613.7,340.3 608.1,342.1 589.2,348.3 
			583.5,350.1 564.5,356.3 564.5,356.3 565.5,358.5 565.6,358.4 584.3,352.6 584.3,352.6 583.5,350.2 589.2,348.4 590,350.8 
			608.9,344.9 611.9,344 608.9,344.9 608.1,342.2 613.8,340.3 614.6,343.1 614.7,343.1 788.2,288.6 789.6,288.2 		"/>
		<polygon opacity="3.000000e-02" fill="#FFFFFF" points="518.4,379.2 512.6,380.9 493.1,386.1 486.8,387.8 467.1,393.2 
			461.1,394.9 440.8,400.3 434.6,402.1 414.1,407.6 414.1,407.6 414.3,408 414.4,408 435,402.6 434.6,402.2 440.7,400.4 
			441.2,400.9 441.4,400.9 461.7,395.7 461,395 467,393.3 467.8,394.1 467.9,394.1 487.5,388.9 486.8,387.9 493.1,386.2 
			493.8,387.4 493.9,387.3 513.4,382.3 513.4,382.3 512.6,380.9 518.4,379.3 519.3,380.8 519.4,380.7 538.7,375.7 537.9,374 		"/>
		<polygon opacity="3.000000e-02" fill="#FFFFFF" points="611.5,353.8 593,358.9 587.3,360.4 568.5,365.5 562.6,367.2 543.7,372.3 
			538.1,373.9 543.7,372.3 544.6,374.2 544.7,374.1 563.6,369.2 563.6,369.2 562.6,367.3 568.6,365.5 569.4,367.5 588.1,362.8 
			588.1,362.7 587.4,360.5 593,358.9 593.8,361.2 593.8,361.2 612.1,356.4 612.2,356.4 611.4,353.9 617.2,352.4 617.9,354.9 
			792,309.7 792,304.5 617.1,352.3 		"/>
		<polygon opacity="3.000000e-02" fill="#FFFFFF" points="413.1,407.9 408,409.3 405.2,410.1 405.4,410.3 408.1,409.7 408,409.5 		
			"/>
		<polygon opacity="3.000000e-02" fill="#FFFFFF" points="464.2,398.7 443.4,403.2 437,404.7 415.9,409.5 409.6,410.9 406.2,411.6 
			406.4,411.8 409.8,411.2 410.9,411 409.7,411.2 409.5,410.9 416,409.5 416.3,409.8 437.5,405.2 437.5,405.2 437.1,404.8 
			443.5,403.3 444,403.8 444,403.8 465.1,399.7 468.1,399 465.1,399.6 		"/>
		<polygon opacity="3.000000e-02" fill="#FFFFFF" points="614.9,365.2 596.6,369.4 591,370.6 572.5,374.6 566.6,376 547.7,380.1 
			541.9,381.5 522.4,385.7 516.4,387 496.9,391.4 490.5,392.9 470.4,397.4 465,398.6 470.5,397.4 471.2,398.3 491.4,394 490.5,393 
			496.8,391.4 497.6,392.6 497.7,392.6 517.3,388.5 516.5,387.2 522.5,385.8 523.3,387.2 523.4,387.2 542.8,383.2 541.9,381.5 
			547.7,380.2 548.5,381.8 548.6,381.8 567.5,378 567.6,378 566.6,376 572.5,374.7 573.3,376.6 591.8,372.9 592.9,372.6 
			591.8,372.9 591,370.6 596.7,369.3 597.4,371.5 597.4,371.5 615.6,367.8 614.9,365.3 620.3,364.1 621,366.6 621.1,366.6 
			792,330.7 792,325.7 620.3,364 		"/>
		<polygon opacity="3.000000e-02" fill="#FFFFFF" points="473.7,401.5 474.5,402.4 474.6,402.4 474.6,402.4 495.1,399 495.2,399 
			494.3,398 473.8,401.5 		"/>
		<polygon opacity="3.000000e-02" fill="#FFFFFF" points="500.7,396.9 501.5,398.1 501.5,398.1 521.4,394.7 521.5,394.7 
			521.4,394.7 520.4,393.4 523.8,392.7 520.4,393.3 		"/>
		<polygon opacity="3.000000e-02" fill="#FFFFFF" points="623.5,375.4 624.2,378 624.3,378 635.2,376.1 634.3,374.8 640.8,373.8 
			641.6,375.1 641.8,375.1 662.7,371.7 661.8,370.2 668.1,369 668.9,370.6 690,367.2 689.1,365.4 695.2,364.3 696.2,366.1 
			696.3,366.1 716.9,362.8 716.9,362.8 716.1,360.6 722.3,359.6 723.2,361.8 743.4,358.4 743.5,358.4 742.9,356 749.2,354.8 
			749.9,357.3 770.1,354.1 770.2,354.1 769.5,351.3 775.7,350.1 776.3,353.1 776.3,353.1 792,350.5 792,345.9 623.5,375.4 		"/>
		<polygon opacity="3.000000e-02" fill="#FFFFFF" points="576.5,383.7 576.4,383.7 577.3,385.7 577.3,385.7 595.4,382.6 
			595.5,382.6 594.7,380.3 598.2,379.8 594.8,380.3 		"/>
		<polygon opacity="3.000000e-02" fill="#FFFFFF" points="526.6,392.3 526.5,392.3 527.3,393.8 527.4,393.8 546.9,390.6 547,390.6 
			545.9,388.9 550,388.2 545.9,388.9 		"/>
		<polygon opacity="3.000000e-02" fill="#FFFFFF" points="551.7,388 552.8,389.6 552.8,389.7 552.8,389.7 571.3,386.6 571.4,386.6 
			571.4,386.5 570.6,384.6 571.6,384.4 570.6,384.6 		"/>
		<polygon opacity="3.000000e-02" fill="#FFFFFF" points="618.1,376.3 622.1,375.6 618.1,376.3 600.2,379.5 600.2,379.5 
			600.9,381.8 600.9,381.8 601,381.8 618.7,378.9 618.8,378.9 618.8,378.8 		"/>
		<polygon opacity="3.000000e-02" fill="#FFFFFF" points="407.2,413.2 407.4,413.5 411.3,412.7 411.3,412.6 411.2,412.6 		"/>
		<polygon opacity="3.000000e-02" fill="#FFFFFF" points="417.9,411.3 417,411.5 418,411.3 418.2,411.6 418.2,411.6 440.2,408.1 
			440.3,408.1 440.3,408.1 439.7,407.5 439.6,407.5 		"/>
		<polygon opacity="3.000000e-02" fill="#FFFFFF" points="446.2,406.3 440.6,407.3 446.3,406.3 446.9,407 446.9,407 468.1,403.5 
			468.1,403.5 468.1,403.5 467.6,402.6 471.5,401.9 467.5,402.6 		"/>
		<polygon opacity="3.000000e-02" fill="#FFFFFF" points="418.2,411.6 418,411.3 417,411.5 411.2,412.5 411.3,412.6 411.3,412.7 
			411.4,412.8 627.1,612.1 629.4,612.1 418.2,411.6 		"/>
		<polygon opacity="3.000000e-02" fill="#FFFFFF" points="409.5,410.9 409.7,411.2 410.9,411 416.4,409.9 416.3,409.8 416,409.5 		
			"/>
		<polygon opacity="3.000000e-02" fill="#FFFFFF" points="414.1,407.6 413.1,407.9 408,409.5 408.1,409.7 408.1,409.7 414.4,408.1 
			414.3,408 414.1,407.6 		"/>
		<polygon opacity="3.000000e-02" fill="#FFFFFF" points="406.4,408 406.5,408.3 407.5,408 412.6,406.3 412.5,406.3 412.2,406 		"/>
		<polygon opacity="3.000000e-02" fill="#FFFFFF" points="404.8,406.5 404.9,406.8 405,406.8 410.9,404.6 410.8,404.6 410.5,404.4 
					"/>
		<polygon opacity="3.000000e-02" fill="#FFFFFF" points="446.9,407 446.3,406.3 440.6,407.3 439.7,407.5 439.7,407.5 440.3,408.1 
			440.3,408.1 636.3,612.1 638.4,612.1 446.9,407 		"/>
		<polygon opacity="3.000000e-02" fill="#FFFFFF" points="437.1,404.8 437.5,405.2 437.6,405.3 444.1,403.9 444,403.8 443.5,403.3 
					"/>
		<polygon opacity="3.000000e-02" fill="#FFFFFF" points="434.6,402.2 435,402.6 435.1,402.7 441.4,401 441.2,400.9 440.7,400.4 		
			"/>
		<polygon opacity="3.000000e-02" fill="#FFFFFF" points="432,399.6 432.5,400 432.6,400 438.6,398.1 438.5,398 438.1,397.6 		"/>
		<polygon opacity="3.000000e-02" fill="#FFFFFF" points="429.8,397 430.1,397.5 430.1,397.6 436,395.3 435.9,395.2 435.5,394.9 		
			"/>
		<polygon opacity="3.000000e-02" fill="#FFFFFF" points="474.5,402.4 473.7,401.5 473.7,401.5 471.5,401.9 467.6,402.6 
			468.1,403.5 468.1,403.5 644.9,612.1 646.8,612.1 474.6,402.4 		"/>
		<polygon opacity="3.000000e-02" fill="#FFFFFF" points="465,398.6 464.2,398.7 464.2,398.7 465.1,399.6 468.1,399 471.3,398.3 
			471.2,398.3 470.5,397.4 		"/>
		<polygon opacity="3.000000e-02" fill="#FFFFFF" points="461,395 461.7,395.7 461.7,395.8 467.8,394.2 467.8,394.1 467,393.3 		"/>
		<polygon opacity="3.000000e-02" fill="#FFFFFF" points="457.7,391.1 458.4,392 458.5,392 464.4,390.1 464.3,390.1 463.8,389.2 		
			"/>
		<polygon opacity="3.000000e-02" fill="#FFFFFF" points="454.7,387.4 455.3,388.3 456.5,387.8 461.2,386.1 461.1,386 460.4,385.3 
					"/>
		<polygon opacity="3.000000e-02" fill="#FFFFFF" points="451.5,383.7 451.5,383.7 451.5,383.7 452.2,384.6 452.6,384.5 458,382.1 
			457.9,382 457.4,381.5 		"/>
		<polygon opacity="3.000000e-02" fill="#FFFFFF" points="501.5,398.1 500.7,396.9 500.7,396.9 494.3,397.9 494.3,398 495.2,399 
			495.2,399.1 652.9,612.1 654.8,612.1 501.5,398.1 		"/>
		<polygon opacity="3.000000e-02" fill="#FFFFFF" points="490.5,393 491.4,394 491.4,394 497.6,392.7 497.6,392.6 496.8,391.4 		"/>
		<polygon opacity="3.000000e-02" fill="#FFFFFF" points="486.8,387.9 487.5,388.9 487.5,389 493.9,387.4 493.8,387.4 493.1,386.2 
					"/>
		<polygon opacity="3.000000e-02" fill="#FFFFFF" points="483.1,382.9 484,384 484.5,383.8 490.1,382 490,382 489.3,380.9 		"/>
		<polygon opacity="3.000000e-02" fill="#FFFFFF" points="479.5,378 480.2,379.1 486.3,376.8 486.3,376.8 485.4,375.7 		"/>
		<polygon opacity="3.000000e-02" fill="#FFFFFF" points="527.3,393.8 526.5,392.3 526.5,392.3 523.8,392.7 520.4,393.4 
			521.4,394.7 521.5,394.7 660.5,612.1 662.2,612.1 527.3,393.9 		"/>
		<polygon opacity="3.000000e-02" fill="#FFFFFF" points="516.5,387.2 517.3,388.5 517.4,388.5 523.4,387.3 523.3,387.2 
			522.5,385.8 		"/>
		<polygon opacity="3.000000e-02" fill="#FFFFFF" points="512.6,380.9 513.4,382.3 513.4,382.3 519.3,380.8 519.3,380.8 
			518.4,379.3 		"/>
		<polygon opacity="3.000000e-02" fill="#FFFFFF" points="512.7,373.3 508.5,374.6 508.6,374.6 509.4,375.8 509.4,375.9 
			515.2,374.2 515.2,374.2 514.3,372.8 		"/>
		<polygon opacity="3.000000e-02" fill="#FFFFFF" points="504.5,368.4 505.3,369.7 505.3,369.8 511.2,367.6 511.2,367.5 
			510.3,366.2 		"/>
		<polygon opacity="3.000000e-02" fill="#FFFFFF" points="529.6,358.8 530.5,360.5 530.5,360.5 536.2,358.4 536.2,358.3 
			535.3,356.6 		"/>
		<polygon opacity="3.000000e-02" fill="#FFFFFF" points="539.6,364.5 539,364.7 533.7,366.3 534.6,368.1 534.7,368.2 540.5,366.3 
			540.5,366.3 539.6,364.5 		"/>
		<polygon opacity="3.000000e-02" fill="#FFFFFF" points="538.1,373.9 537.9,374 537.9,374 538.7,375.7 538.7,375.7 544.6,374.2 
			544.6,374.2 543.7,372.3 		"/>
		<polygon opacity="3.000000e-02" fill="#FFFFFF" points="541.9,381.5 542.8,383.2 542.8,383.3 548.6,381.9 548.5,381.8 
			547.7,380.2 		"/>
		<polygon opacity="3.000000e-02" fill="#FFFFFF" points="552.8,389.6 551.7,388 551.7,387.9 550,388.2 545.9,388.9 547,390.6 
			547,390.6 667.6,612.1 669.4,612.1 552.8,389.7 		"/>
		<polygon opacity="3.000000e-02" fill="#FFFFFF" points="554.4,349.3 555.4,351.2 555.5,351.3 561.4,349.1 561.3,349.1 
			560.4,346.9 		"/>
		<polygon opacity="3.000000e-02" fill="#FFFFFF" points="564.5,356.3 564,356.5 558.5,358.3 559.6,360.3 559.6,360.4 565.5,358.5 
			565.5,358.5 564.5,356.3 		"/>
		<polygon opacity="3.000000e-02" fill="#FFFFFF" points="562.6,367.3 563.6,369.2 563.6,369.3 569.4,367.6 569.4,367.5 
			568.6,365.5 		"/>
		<polygon opacity="3.000000e-02" fill="#FFFFFF" points="566.6,376 567.6,378 567.6,378 573.4,376.7 573.3,376.6 572.5,374.7 		"/>
		<polygon opacity="3.000000e-02" fill="#FFFFFF" points="577.3,385.7 576.4,383.7 576.4,383.6 571.6,384.4 570.6,384.6 
			571.4,386.5 571.4,386.6 674.4,612.1 676,612.1 577.3,385.7 		"/>
		<polygon opacity="3.000000e-02" fill="#FFFFFF" points="579.5,339.7 580.4,342 580.4,342.1 586.1,340 586.1,339.8 585.4,337.3 		
			"/>
		<polygon opacity="3.000000e-02" fill="#FFFFFF" points="583.5,350.2 584.3,352.6 584.3,352.6 590.1,350.8 590,350.8 589.2,348.4 
					"/>
		<polygon opacity="3.000000e-02" fill="#FFFFFF" points="587.4,360.5 588.1,362.7 588.1,362.8 593.8,361.4 593.8,361.2 593,358.9 
					"/>
		<polygon opacity="3.000000e-02" fill="#FFFFFF" points="591,370.6 591.8,372.9 592.9,372.6 597.4,371.6 597.4,371.5 596.7,369.3 
					"/>
		<polygon opacity="3.000000e-02" fill="#FFFFFF" points="622.7,443.9 620.7,438.9 621.2,438.9 615.5,422.8 614.8,422.9 
			612.9,418.1 613.7,418 608.1,402 606.9,402.1 604.9,397.2 606.4,397.2 600.9,381.8 600.9,381.8 600.2,379.5 600.2,379.5 
			598.2,379.8 594.7,380.3 595.5,382.6 595.5,382.6 680.9,612.1 682.3,612.1 622.9,443.8 		"/>
		<polygon opacity="3.000000e-02" fill="#FFFFFF" points="604.7,330.1 605.4,332.9 606.4,332.5 611.3,330.7 611.3,330.7 
			610.3,327.8 		"/>
		<polygon opacity="3.000000e-02" fill="#FFFFFF" points="608.1,342.2 608.9,344.9 611.9,344 614.7,343.1 614.6,343.1 613.8,340.3 
					"/>
		<polygon opacity="3.000000e-02" fill="#FFFFFF" points="611.4,353.9 612.2,356.4 612.3,356.5 617.9,355 617.9,354.9 617.2,352.4 
					"/>
		<polygon opacity="3.000000e-02" fill="#FFFFFF" points="614.9,365.3 615.6,367.8 615.6,367.9 621,366.7 621,366.6 620.3,364.1 		
			"/>
		<polygon opacity="3.000000e-02" fill="#FFFFFF" points="631.2,421.5 635.7,437.1 640.2,436.6 636,421.1 		"/>
		<polygon opacity="3.000000e-02" fill="#FFFFFF" points="630.5,401.1 629.6,401.1 625.4,401.3 629.8,416.8 629.9,416.9 
			634.7,416.5 		"/>
		<polygon opacity="3.000000e-02" fill="#FFFFFF" points="666.3,541.4 668.7,540.5 664.2,524.2 661.6,525.2 		"/>
		<polygon opacity="3.000000e-02" fill="#FFFFFF" points="651.4,477.5 647.1,461.9 643.3,462.5 647.9,478.3 		"/>
		<polygon opacity="3.000000e-02" fill="#FFFFFF" points="629.2,396.5 624.2,378 624.2,378 623.5,375.4 623.5,375.3 622.1,375.6 
			618.1,376.3 618.8,378.8 618.8,378.9 623.9,396.5 626.4,396.5 		"/>
		<polygon opacity="3.000000e-02" fill="#FFFFFF" points="657.2,498.3 652.8,482.3 649.2,483.2 654,499.3 		"/>
		<polygon opacity="3.000000e-02" fill="#FFFFFF" points="673.9,567.6 687,612.1 688.3,612.1 675.9,566.8 		"/>
		<polygon opacity="3.000000e-02" fill="#FFFFFF" points="662.9,519.4 658.4,503.1 655.4,504 660.1,520.3 		"/>
		<polygon opacity="3.000000e-02" fill="#FFFFFF" points="668.2,546.1 667.7,546.3 672.5,562.8 673.8,562.1 674.6,561.9 670,545.5 
			668.2,546.1 		"/>
		<polygon opacity="3.000000e-02" fill="#FFFFFF" points="667.2,544.6 666.3,541.4 667.7,546.3 667.4,544.9 		"/>
		<polygon opacity="3.000000e-02" fill="#FFFFFF" points="645.7,456.9 641.4,441.3 637.2,441.9 641.8,457.6 		"/>
		<polygon opacity="3.000000e-02" fill="#FFFFFF" points="629.2,396.5 626.4,396.5 629.6,401.1 630.5,401.1 651,400.2 648.2,395.8 
					"/>
		<polygon opacity="3.000000e-02" fill="#FFFFFF" points="654.7,395.6 657.4,399.9 678.4,399 676,394.9 		"/>
		<polygon opacity="3.000000e-02" fill="#FFFFFF" points="682.1,394.7 684.3,398.6 704.6,397.9 702.9,394.1 		"/>
		<polygon opacity="3.000000e-02" fill="#FFFFFF" points="784.8,394.4 792,394.1 792,391.1 784.2,391.4 		"/>
		<polygon opacity="3.000000e-02" fill="#FFFFFF" points="708.9,393.9 710.7,397.7 730.2,396.8 728.9,393.2 		"/>
		<polygon opacity="3.000000e-02" fill="#FFFFFF" points="734.8,393.1 736,396.5 755,395.7 754,392.3 		"/>
		<polygon opacity="3.000000e-02" fill="#FFFFFF" points="759.9,392.2 760.8,395.4 779.3,394.6 778.8,391.6 		"/>
		<polygon opacity="3.000000e-02" fill="#FFFFFF" points="606.9,402.1 608.1,402 606.4,397.2 604.9,397.2 		"/>
		<polygon opacity="3.000000e-02" fill="#FFFFFF" points="781.7,405 763.9,406.4 758.3,406.9 740.5,408.2 734.9,408.7 716.3,410.1 
			710.6,410.5 691.6,412 685.9,412.4 666.5,413.9 660.6,414.4 640.6,415.9 634.7,416.5 629.9,416.9 631.2,421.5 636,421.1 
			637.9,420.9 644,420.3 663.3,418.7 669.2,418.2 688.2,416.5 693.7,416 712.5,414.2 718,413.9 736.4,412.1 741.7,411.8 
			759.4,410.1 765,409.8 782.5,408.1 787.6,407.7 792,407.3 792,404.2 786.9,404.6 		"/>
		<polygon opacity="3.000000e-02" fill="#FFFFFF" points="614.8,422.9 615.5,422.8 613.7,418 612.9,418.1 		"/>
		<polygon opacity="3.000000e-02" fill="#FFFFFF" points="640.2,436.6 635.7,437.1 637.2,441.9 641.4,441.3 792,420.9 792,417.8 		
			"/>
		<polygon opacity="3.000000e-02" fill="#FFFFFF" points="622.7,443.9 622.9,443.8 621.2,438.9 620.7,438.9 		"/>
		<polygon opacity="3.000000e-02" fill="#FFFFFF" points="641.8,457.6 643.3,462.5 647.1,461.9 792,435.3 792,431.7 645.7,456.9 		
			"/>
		<polygon opacity="3.000000e-02" fill="#FFFFFF" points="647.9,478.3 649.2,483.2 652.8,482.3 792,449.8 792,446.3 651.4,477.5 		
			"/>
		<polygon opacity="3.000000e-02" fill="#FFFFFF" points="654,499.3 655.4,504 658.4,503.1 792,465.1 792,461.5 657.2,498.3 		"/>
		<polygon opacity="3.000000e-02" fill="#FFFFFF" points="701.4,507.5 703.3,510.9 722.8,504.4 722.5,504 721.2,501.7 727.4,500.6 
			728.4,502.5 792,480.9 792,477.2 701.1,506.9 		"/>
		<polygon opacity="3.000000e-02" fill="#FFFFFF" points="697.7,512.8 695.4,508.7 676.1,515.1 678.7,519.2 		"/>
		<polygon opacity="3.000000e-02" fill="#FFFFFF" points="661.6,525.2 664.2,524.2 673.1,521.2 670.4,516.9 662.9,519.4 
			660.1,520.3 		"/>
		<polygon opacity="3.000000e-02" fill="#FFFFFF" points="784.1,500.4 792,497.2 792,493.4 783,496.8 		"/>
		<polygon opacity="3.000000e-02" fill="#FFFFFF" points="778.1,502.8 776.9,499.1 758.4,506.2 759.9,510 		"/>
		<polygon opacity="3.000000e-02" fill="#FFFFFF" points="690.4,537.4 707.8,530.6 705.4,526.5 682.3,535.2 687.7,533.2 		"/>
		<polygon opacity="3.000000e-02" fill="#FFFFFF" points="730.8,521.4 729,517.5 710.7,524.3 712.9,528.5 		"/>
		<polygon opacity="3.000000e-02" fill="#FFFFFF" points="754.3,512.1 752.8,508.3 734.3,515.3 736,519.3 		"/>
		<polygon opacity="3.000000e-02" fill="#FFFFFF" points="667.2,544.6 667.4,544.9 668.2,546.1 670,545.5 685.2,539.4 682.3,535.2 
			668.7,540.5 666.3,541.4 		"/>
		<polygon opacity="3.000000e-02" fill="#FFFFFF" points="697.1,557.2 694.3,553.2 678.5,560 681.6,564.2 		"/>
		<polygon opacity="3.000000e-02" fill="#FFFFFF" points="788.5,515.8 792,514.2 792,510.1 787.3,512.1 		"/>
		<polygon opacity="3.000000e-02" fill="#FFFFFF" points="717.6,547.9 715.3,544 699.2,551.1 701.7,555.1 		"/>
		<polygon opacity="3.000000e-02" fill="#FFFFFF" points="782.8,518.4 781.9,514.7 764.3,522.3 765.8,526 		"/>
		<polygon opacity="3.000000e-02" fill="#FFFFFF" points="738.8,538.4 736.9,534.3 720.1,541.8 722.4,545.8 		"/>
		<polygon opacity="3.000000e-02" fill="#FFFFFF" points="760.6,528.5 759.1,524.6 742,532.2 743.7,536 		"/>
		<polygon opacity="3.000000e-02" fill="#FFFFFF" points="673.9,567.6 675.9,566.8 676.9,566.3 673.8,562.1 672.5,562.8 		"/>
		<polygon opacity="3.000000e-02" fill="#FFFFFF" points="778.8,391.6 779.3,394.6 784.8,394.4 784.2,391.4 776.3,353.7 
			776.3,353.1 775.7,350.1 769.5,351.3 770.2,354.1 770.3,354.6 		"/>
		<polygon opacity="3.000000e-02" fill="#FFFFFF" points="754,392.3 755,395.7 760.8,395.4 759.9,392.2 750,357.9 749.9,357.3 
			749.2,354.8 742.9,356 743.5,358.4 743.6,358.9 		"/>
		<polygon opacity="3.000000e-02" fill="#FFFFFF" points="728.9,393.2 730.2,396.8 736,396.5 734.8,393.1 723.4,362.3 723.2,361.8 
			722.3,359.6 716.1,360.6 716.9,362.8 717.2,363.4 		"/>
		<polygon opacity="3.000000e-02" fill="#FFFFFF" points="702.9,394.1 704.6,397.9 710.7,397.7 708.9,393.9 696.5,366.7 
			696.2,366.1 695.2,364.3 689.1,365.4 690,367.2 690.3,367.7 		"/>
		<polygon opacity="3.000000e-02" fill="#FFFFFF" points="676,394.9 678.4,399 684.3,398.6 682.1,394.7 669.2,371.2 668.9,370.6 
			668.1,369 661.8,370.2 662.7,371.7 663,372.1 		"/>
		<polygon opacity="3.000000e-02" fill="#FFFFFF" points="648.2,395.8 651,400.2 657.4,399.9 654.7,395.6 642,375.6 641.6,375.1 
			640.8,373.8 634.3,374.8 635.2,376.1 635.5,376.6 		"/>
		<polygon opacity="3.000000e-02" fill="#FFFFFF" points="626.4,396.5 623.9,396.5 625.4,401.3 629.6,401.1 		"/>
		<polygon opacity="3.000000e-02" fill="#FFFFFF" points="783.9,500.4 784.1,500.4 783,496.8 776.9,499.1 778.1,502.8 		"/>
		<polygon opacity="3.000000e-02" fill="#FFFFFF" points="787.3,512.1 781.9,514.7 782.8,518.4 792,548.1 792,527.9 788.5,515.8 		
			"/>
		<polygon opacity="3.000000e-02" fill="#FFFFFF" points="759.9,510 758.4,506.2 752.8,508.3 752.8,508.3 754.3,512.1 		"/>
		<polygon opacity="3.000000e-02" fill="#FFFFFF" points="764.3,522.3 759.1,524.6 760.6,528.5 792,608.5 792,596.7 765.8,526 		"/>
		<polygon opacity="3.000000e-02" fill="#FFFFFF" points="727.4,500.6 721.2,501.7 722.5,504 722.8,504.4 728.4,502.5 		"/>
		<polygon opacity="3.000000e-02" fill="#FFFFFF" points="736,519.3 734.3,515.3 729,517.5 730.8,521.4 		"/>
		<polygon opacity="3.000000e-02" fill="#FFFFFF" points="742,532.2 736.9,534.3 738.8,538.4 773.9,612.1 778.5,612.1 743.7,536 		
			"/>
		<polygon opacity="3.000000e-02" fill="#FFFFFF" points="703.3,510.9 701.4,507.5 701.1,506.9 695.4,508.7 697.7,512.8 		"/>
		<polygon opacity="3.000000e-02" fill="#FFFFFF" points="712.9,528.5 710.7,524.3 705.4,526.5 707.8,530.6 		"/>
		<polygon opacity="3.000000e-02" fill="#FFFFFF" points="720.1,541.8 715.3,544 717.6,547.9 754,612.1 758.7,612.1 722.4,545.8 		
			"/>
		<polygon opacity="3.000000e-02" fill="#FFFFFF" points="699.2,551.1 694.3,553.2 697.1,557.2 733.3,612.1 738.2,612.1 
			701.7,555.1 		"/>
		<polygon opacity="3.000000e-02" fill="#FFFFFF" points="690.4,537.4 687.7,533.2 682.3,535.2 685.2,539.4 		"/>
		<polygon opacity="3.000000e-02" fill="#FFFFFF" points="678.7,519.2 676.1,515.1 670.4,516.9 673.1,521.2 		"/>
		<polygon opacity="3.000000e-02" fill="#FFFFFF" points="668.2,546.1 667.4,544.9 667.7,546.3 668.2,546.1 		"/>
		<polygon opacity="3.000000e-02" fill="#FFFFFF" points="678.5,560 674.6,561.9 673.8,562.1 676.9,566.3 677.1,566.2 711.8,612.1 
			716.9,612.1 681.6,564.2 		"/>
		<polygon opacity="3.000000e-02" fill="#FFFFFF" points="210.9,187.6 122.4,612.1 123.5,612.1 218.5,182.6 		"/>
		<polygon opacity="3.000000e-02" fill="#FFFFFF" points="180.3,207.3 117.6,612.1 118.8,612.1 187.2,202.8 		"/>
		<polygon opacity="3.000000e-02" fill="#FFFFFF" points="151.9,225.7 112.9,612.1 114,612.1 158.4,221.5 		"/>
		<polygon opacity="3.000000e-02" fill="#FFFFFF" points="131.6,238.7 125.6,242.6 109.3,588.9 108.8,596.3 108,612.1 109.3,612.1 
			110.2,596.5 		"/>
		<polygon opacity="3.000000e-02" fill="#FFFFFF" points="104.5,588.4 104.6,564.4 104.6,557 104.9,533.1 104.9,525.7 105,501.5 
			105,494.4 105.3,470.4 105.4,462.8 105.4,438.8 105.7,431.4 105.7,407.2 105.8,400.1 106.7,254.9 101.2,258.4 102,400.9 
			102,408.3 102.3,432.3 102.3,439.5 102.4,463.2 102.4,470.6 102.7,494.6 102.7,501.7 102.8,525.7 102.8,533.1 103.1,556.8 
			103.1,564.4 103.2,588.2 103.2,595.6 103.4,612.1 104.3,612.1 104.5,595.6 		"/>
		<polygon opacity="3.000000e-02" fill="#FFFFFF" points="98.5,587.6 97.2,564 96.9,556.4 95.9,533.1 95.9,532.9 95.4,525.9 
			94.5,502.2 94.1,495 92.8,472 92.7,464.6 91.5,441.5 91.1,434.5 90.1,411.5 89.7,404.5 83.4,269.9 78.2,273.2 86.2,405.4 
			86.6,412.3 87.9,435.2 88.3,442.2 89.7,465 90.1,472.2 91.5,495.3 91.9,502.4 93.5,525.9 93.9,532.9 95.3,556.4 95.7,563.8 
			97.1,587.3 97.1,587.6 97.5,594.7 98.7,612.1 99.5,612.1 98.9,594.9 		"/>
		<polygon opacity="3.000000e-02" fill="#FFFFFF" points="92.3,586.9 90,563.4 89.2,556 86.7,532.9 86.2,525.9 83.7,502.9 
			83.2,495.9 80.7,473.5 80.1,466.4 77.8,444.2 77.1,437.5 74.9,415.5 74.1,408.7 61.6,284 56.8,287 70.9,409.7 71.5,416.3 
			74,438.1 74.8,444.8 77.4,466.8 78,473.8 80.5,496.1 81.4,503.1 84,525.9 84.8,532.9 87.4,556 88.3,563.4 90.9,586.7 91.8,593.8 
			93.9,612.1 94.8,612.1 92.8,594.1 		"/>
		<polygon opacity="3.000000e-02" fill="#FFFFFF" points="85.9,586 82.3,563 81.4,555.5 77.8,532.9 76.7,525.9 73.2,503.5 
			72.2,496.8 68.8,475.1 67.9,468.2 64.4,446.8 63.5,440.4 60.2,419.3 59.3,413.1 41.4,297.1 36.7,300 55.8,413.9 56.9,420.3 
			60.5,441.1 61.4,447.6 65,468.6 66.1,475.4 69.8,497.1 70.9,503.8 74.6,525.9 75.8,532.9 79.6,555.5 80.7,562.6 84.5,585.8 
			85.7,592.9 89.1,612.1 90.1,612.1 87.1,593.1 		"/>
		<polygon opacity="3.000000e-02" fill="#FFFFFF" points="7.5,376.4 8.9,381.2 5.4,382 10.4,397.5 13.7,396.9 15.1,401.8 
			11.9,402.4 17,418 19.9,417.6 21.5,422.4 18.5,422.7 23.6,438.7 26.2,438.5 27.6,443.3 25.1,443.4 30.3,459.6 32.6,459.5 
			34,464.4 31.9,464.4 37.1,480.5 39,480.5 40.6,485.4 38.7,485.4 41.4,493.9 44.8,493.3 0,345.9 0,356.6 1.4,356.3 2.8,360.9 
			0,361.6 0,365.3 3.9,377.3 		"/>
		<polygon opacity="3.000000e-02" fill="#FFFFFF" points="47.1,511.7 50.1,511.3 46,497.4 42.8,498 		"/>
		<polygon opacity="3.000000e-02" fill="#FFFFFF" points="78.4,608.6 79.8,608.8 75,592.9 73.2,592.8 		"/>
		<polygon opacity="3.000000e-02" fill="#FFFFFF" points="52.9,529.9 55.7,529.6 51.5,515.4 48.5,515.9 		"/>
		<polygon opacity="3.000000e-02" fill="#FFFFFF" points="59.1,548.6 61.5,548.6 57.1,534 54.5,534.3 		"/>
		<polygon opacity="3.000000e-02" fill="#FFFFFF" points="71.6,588 73.4,588 68.8,572.8 66.8,572.7 		"/>
		<polygon opacity="3.000000e-02" fill="#FFFFFF" points="65.2,568.2 67.4,568 62.8,553.1 60.5,553.1 		"/>
		<polygon opacity="3.000000e-02" fill="#FFFFFF" points="78.4,608.6 0,601.7 0,605.7 65.7,612.1 80.8,612.1 79.8,608.8 		"/>
		<polygon opacity="3.000000e-02" fill="#FFFFFF" points="75,592.9 73.4,588 71.6,588 0,585.1 0,589 73.2,592.8 		"/>
		<polygon opacity="3.000000e-02" fill="#FFFFFF" points="68.8,572.8 67.4,568 65.2,568.2 0,568.5 0,572.3 66.8,572.7 		"/>
		<polygon opacity="3.000000e-02" fill="#FFFFFF" points="62.8,553.1 61.5,548.6 59.1,548.6 0,551.7 0,555.6 60.5,553.1 		"/>
		<polygon opacity="3.000000e-02" fill="#FFFFFF" points="57.1,534 55.7,529.6 52.9,529.9 0,535.1 0,539.1 54.5,534.3 		"/>
		<polygon opacity="3.000000e-02" fill="#FFFFFF" points="51.5,515.4 50.1,511.3 47.1,511.7 26.9,514.7 27.4,515.7 20.9,516.5 
			20.5,515.6 0,518.6 0,522.4 48.5,515.9 		"/>
		<polygon opacity="3.000000e-02" fill="#FFFFFF" points="12.1,500.2 12.2,500.2 12.2,500.2 11.8,499.6 11.7,499.6 0,501.9 0,505.8 
			13.7,503.3 		"/>
		<polygon opacity="3.000000e-02" fill="#FFFFFF" points="17.7,498.5 18.9,500.5 19.9,502.2 19.9,502.2 19.9,502.2 42.8,498 
			46,497.4 44.8,493.3 41.4,493.9 		"/>
		<polygon opacity="3.000000e-02" fill="#FFFFFF" points="1.4,480.4 7.5,480.4 7.6,480.4 7.6,480.4 0,467 0,477.8 1.4,480.4 		"/>
		<polygon opacity="3.000000e-02" fill="#FFFFFF" points="19.9,502.2 19.9,502.2 18.9,500.5 17.7,498.5 17.7,498.5 10.2,485 
			10.1,485 3.8,485 11.7,499.6 11.8,499.6 12.2,500.2 12.2,500.2 18.9,500.5 		"/>
		<polygon opacity="3.000000e-02" fill="#FFFFFF" points="20.9,516.5 27.4,515.7 26.9,514.7 20.5,515.6 		"/>
		<polygon opacity="3.000000e-02" fill="#FFFFFF" points="1.4,356.3 0,356.6 0,361.6 2.8,360.9 		"/>
		<polygon opacity="3.000000e-02" fill="#FFFFFF" points="5.4,382 8.9,381.2 7.5,376.4 3.9,377.3 3.2,377.5 0,378.2 0,383.1 
			4.7,382.1 		"/>
		<polygon opacity="3.000000e-02" fill="#FFFFFF" points="11.9,402.4 15.1,401.8 13.7,396.9 10.4,397.5 9.7,397.6 0,399.4 0,404.5 
			11.3,402.6 		"/>
		<polygon opacity="3.000000e-02" fill="#FFFFFF" points="18.5,422.7 21.5,422.4 19.9,417.6 17,418 16.3,418.1 0,420.3 0,425 
			17.7,422.8 		"/>
		<polygon opacity="3.000000e-02" fill="#FFFFFF" points="25.1,443.4 27.6,443.3 26.2,438.5 23.6,438.7 22.9,438.7 0,440.7 0,445.3 
			24.5,443.5 		"/>
		<polygon opacity="3.000000e-02" fill="#FFFFFF" points="31.9,464.4 34,464.4 32.6,459.5 30.3,459.6 29.6,459.6 0,460.8 0,465.3 
			31.2,464.4 		"/>
		<polygon opacity="3.000000e-02" fill="#FFFFFF" points="10.2,485 38,485.4 38.7,485.4 40.6,485.4 39,480.5 37.1,480.5 36.4,480.5 
			7.6,480.4 7.5,480.4 1.4,480.4 1.4,480.4 3.8,485 3.8,485 10.1,485 		"/>
		<polygon opacity="3.000000e-02" fill="#FFFFFF" points="18.9,500.5 12.2,500.2 12.1,500.2 13.7,503.3 19.9,502.2 19.9,502.2 		"/>
		<polygon opacity="3.000000e-02" fill="#FFFFFF" points="41.4,297.1 56.8,287 61.6,284 78.2,273.2 83.4,269.9 101.2,258.4 
			106.7,254.9 125.6,242.6 131.6,238.7 151.9,225.7 158.4,221.5 180.3,207.3 187.2,202.8 210.9,187.6 218.5,182.6 272.6,147.7 
			272.4,147.4 218.8,181.1 211.1,185.9 187.5,200.7 180.7,205 158.7,218.8 152.1,223 131.9,235.7 125.8,239.5 106.8,251.5 
			101.2,255 83.2,266.3 78,269.5 61.3,280.1 56.4,283.1 40.7,292.9 36,295.9 0,318.5 0,323.8 36.7,300 		"/>
		<polygon opacity="3.000000e-02" fill="#FFFFFF" points="38.8,279.9 54.9,270.6 60.1,267.6 77.3,257.7 82.6,254.6 101.1,244.1 
			106.8,240.8 126.2,229.6 132.4,226 152.9,214.3 159.6,210.5 181.8,197.7 188.7,193.8 212.4,180.2 220,175.9 271.6,146.2 
			271.4,145.9 217.9,175.7 212.8,178.5 189,191.7 182,195.6 159.9,208 153.2,211.7 132.6,223.2 126.3,226.7 106.8,237.5 
			101.1,240.8 82.5,251.1 77.1,254.1 59.7,263.8 54.5,266.7 38.1,275.8 33.2,278.6 0,297.1 0,302 33.8,282.6 		"/>
		<polygon opacity="3.000000e-02" fill="#FFFFFF" points="270.4,145 270.6,144.8 270.4,144.3 269.8,144.5 264.4,147.2 0,277.1 
			0,281.7 265,147.6 		"/>
		<polygon opacity="3.000000e-02" fill="#FFFFFF" points="220.5,164.9 214.6,167.1 214.1,166.6 214.1,166.6 0,258.1 0,262.5 
			220.5,164.9 		"/>
		<polygon opacity="3.000000e-02" fill="#FFFFFF" points="220.5,164.9 239.2,156.8 244.7,154.3 263.2,146 268.8,143.6 269.6,143.3 
			269.4,142.8 268.6,143.1 262.8,145.7 244.3,153.7 244.1,153.7 238.6,156 219.7,164 219.1,164.3 219.8,164 		"/>
		<polygon opacity="3.000000e-02" fill="#FFFFFF" points="67.3,218.6 86.6,211.4 92.5,208.9 111.7,201.8 117.6,199.4 136.7,192 
			142.5,189.9 161.6,182.5 167.5,180.3 186.6,172.9 192.6,170.8 211.5,163.4 217.3,161.2 236.6,153.9 242.3,151.7 261.5,144.3 
			267.2,142.2 268.6,141.6 268.4,141.2 267.1,141.8 267.2,142.1 261.5,144.2 261.2,144 241.9,151.1 241.9,151.1 242.3,151.6 
			236.5,153.8 236.1,153.4 236,153.4 216.7,160.3 215.4,160.8 216.8,160.3 217.3,161.2 211.6,163.3 210.9,162.6 210.9,162.6 
			191.8,169.5 192.5,170.6 186.6,172.9 185.7,171.8 185.6,171.9 166.8,178.9 167.5,180.2 161.6,182.4 160.8,181.1 160.8,181.1 
			141.6,188.1 142.4,189.8 136.7,192 135.8,190.3 135.7,190.3 116.6,197.4 117.6,199.3 111.6,201.7 110.7,199.5 110.6,199.5 
			91.6,206.6 92.5,208.9 86.7,211.3 85.9,208.8 66.7,215.7 65.1,216.3 66.7,215.7 67.3,218.5 61.7,220.8 60.8,218 60.7,218 0,240.4 
			0,244.5 61.7,220.9 		"/>
		<polygon opacity="3.000000e-02" fill="#FFFFFF" points="63.9,206.5 82.8,200.3 88.6,198.5 107.5,192.3 107.5,192.3 106.6,190.1 
			106.4,190.2 87.8,196 87.7,196 88.5,198.4 82.8,200.2 82,197.8 63.1,203.7 61.8,204.1 63.1,203.7 63.9,206.4 58.2,208.2 
			57.4,205.5 57.3,205.5 0,223.5 0,227.3 58.3,208.3 		"/>
		<polygon opacity="3.000000e-02" fill="#FFFFFF" points="134.7,183.4 138.3,182.3 157.8,175.8 160.2,175.1 157.7,175.8 
			156.9,174.5 156.8,174.5 137.4,180.4 138.3,182.3 		"/>
		<polygon opacity="3.000000e-02" fill="#FFFFFF" points="107.9,192.2 113.4,190.3 132.3,184.2 132.4,184.1 131.5,182.3 
			112.5,188.3 113.5,190.2 		"/>
		<polygon opacity="3.000000e-02" fill="#FFFFFF" points="163.6,174 182.7,167.7 189,165.7 208.3,159.5 214.3,157.6 234,151.1 
			240,149.1 259.9,142.6 265.6,140.6 267.6,140 267.6,139.7 265.4,140.3 264.4,140.7 265.5,140.3 265.6,140.6 259.8,142.6 
			259.5,142.3 259.5,142.3 239.5,148.6 240,149 233.9,151 233.5,150.6 233.4,150.6 213.6,156.6 214.3,157.5 208.3,159.4 
			207.7,158.5 207.5,158.6 188.1,164.6 188.9,165.7 182.7,167.7 182,166.6 162.7,172.8 163.4,174 		"/>
		<polygon opacity="3.000000e-02" fill="#FFFFFF" points="60.5,194.8 79,189.7 79,189.7 78.2,187.4 78.2,187.4 59.9,192.2 
			59.8,192.2 60.6,194.7 54.8,196.2 54.1,193.7 0,207.7 0,211.3 54.9,196.3 		"/>
		<polygon opacity="3.000000e-02" fill="#FFFFFF" points="79.1,189.7 84.8,188.2 103.5,183.1 109.4,181.4 128.3,176.3 134.1,174.6 
			153.6,169.4 159.4,167.7 178.9,162.5 185.2,160.8 205,155.4 210.9,153.7 231.2,148.3 237.4,146.5 257.9,141 257.9,140.9 
			257.7,140.6 257.6,140.6 237,146 237.4,146.4 231.3,148.2 230.8,147.7 230.6,147.7 210.4,152.9 211,153.6 205,155.4 204.3,154.5 
			204.2,154.5 184.5,159.7 185.2,160.7 178.9,162.4 178.2,161.2 178.1,161.2 158.6,166.3 158.6,166.3 159.4,167.7 153.6,169.3 
			152.7,167.8 152.6,167.9 133.3,172.9 134.2,174.6 128.3,176.3 127.4,174.5 127.4,174.5 108.4,179.4 108.4,179.4 109.4,181.3 
			103.5,183.1 102.6,181.1 84,185.9 83.9,185.9 84.7,188.1 		"/>
		<polygon opacity="3.000000e-02" fill="#FFFFFF" points="258.3,140.8 264,139.3 266.8,138.5 266.6,138.3 263.9,138.9 264.1,139.1 
					"/>
		<polygon opacity="3.000000e-02" fill="#FFFFFF" points="207.8,149.9 228.6,145.4 235,143.9 256.1,139.1 262.5,137.7 265.8,137 
			265.6,136.8 262.2,137.4 261.3,137.6 262.3,137.4 262.5,137.7 256.1,139.1 255.7,138.8 255.7,138.8 234.6,143.4 234.5,143.4 
			234.9,143.8 228.6,145.3 228.1,144.8 228,144.8 206.9,148.9 205.1,149.4 207,148.9 		"/>
		<polygon opacity="3.000000e-02" fill="#FFFFFF" points="81,178 76.5,179 81,178 99.5,174 105.5,172.6 124.4,168.5 130.1,167.1 
			149.6,162.9 155.6,161.6 175.1,157.2 181.5,155.7 201.6,151.2 207,150 201.5,151.2 200.8,150.3 180.7,154.6 180.7,154.6 
			181.5,155.6 175.2,157.1 174.5,156 174.3,156 154.7,160.1 155.5,161.5 149.6,162.8 148.7,161.4 148.6,161.4 129.2,165.4 
			130.1,167.1 124.3,168.4 123.5,166.8 123.4,166.8 104.5,170.6 104.4,170.6 105.5,172.6 99.5,174 98.7,172 80.2,175.7 78.8,176 
			80.2,175.7 		"/>
		<polygon opacity="3.000000e-02" fill="#FFFFFF" points="57.1,183.4 75.4,179.2 74.6,177.1 74.6,177.1 56.4,180.8 57.2,183.4 
			51.7,184.6 51,182 50.9,182 0,192.7 0,196.1 51.7,184.6 		"/>
		<polygon opacity="3.000000e-02" fill="#FFFFFF" points="170.5,150.5 150.7,153.9 150.6,153.9 150.6,153.9 151.6,155.2 
			148.8,155.7 151.6,155.3 171.3,151.7 170.5,150.5 		"/>
		<polygon opacity="3.000000e-02" fill="#FFFFFF" points="144.6,154.8 125.2,158 125.1,158 126.1,159.7 121.3,160.5 126.2,159.7 
			145.4,156.3 145.5,156.3 144.7,154.8 		"/>
		<polygon opacity="3.000000e-02" fill="#FFFFFF" points="253.9,137 253.8,137 231.8,140.5 231.7,140.5 231.7,140.5 232.3,141.1 
			232.4,141.1 254.1,137.3 255,137.1 254,137.3 		"/>
		<polygon opacity="3.000000e-02" fill="#FFFFFF" points="197.5,146.2 197.4,146.2 176.9,149.6 176.8,149.6 177.7,150.6 
			198.2,147.1 198.3,147.1 197.5,146.2 		"/>
		<polygon opacity="3.000000e-02" fill="#FFFFFF" points="71.1,166.8 71,166.8 53.3,169.7 53.2,169.7 53.3,169.8 53.9,172.3 
			49.1,173.1 53.9,172.3 71.9,169.1 71.9,169.1 71.1,166.9 		"/>
		<polygon opacity="3.000000e-02" fill="#FFFFFF" points="119.2,158.9 119.2,158.9 100.7,162 100.6,162 100.6,162.1 101.4,164 
			100.4,164.2 101.5,164 120.3,160.7 119.2,159 		"/>
		<polygon opacity="3.000000e-02" fill="#FFFFFF" points="225.1,141.6 225.1,141.6 204,145.1 203.9,145.1 203.9,145.1 204.5,146 
			201.5,146.6 204.5,146 225.8,142.3 231.4,141.3 225.8,142.3 		"/>
		<polygon opacity="3.000000e-02" fill="#FFFFFF" points="48.6,173.2 47.8,170.6 47.8,170.6 47.8,170.6 36.8,172.5 37.7,173.8 
			31.2,174.8 30.4,173.5 30.3,173.6 9.3,176.9 10.2,178.4 3.9,179.6 3.1,178 0,178.5 0,181.7 48.5,173.2 		"/>
		<polygon opacity="3.000000e-02" fill="#FFFFFF" points="94.7,162.9 76.6,166 76.6,166 77.3,168.3 73.4,168.9 77.2,168.3 
			95.5,164.9 95.6,164.9 94.7,162.9 		"/>
		<polygon opacity="3.000000e-02" fill="#FFFFFF" points="260.8,136 264.8,135.4 264.6,135.1 260.7,135.9 260.8,136.1 		"/>
		<polygon opacity="3.000000e-02" fill="#FFFFFF" points="253.9,137 254,137.3 255,137.1 260.8,136.1 260.8,136.1 260.7,135.9 
			260.6,135.8 113.7,0 109.6,0 253.8,137 		"/>
		<polygon opacity="3.000000e-02" fill="#FFFFFF" points="262.5,137.7 262.3,137.4 261.3,137.6 255.6,138.7 255.7,138.8 
			256.1,139.1 		"/>
		<polygon opacity="3.000000e-02" fill="#FFFFFF" points="257.9,141 258.3,140.8 264.1,139.1 263.9,138.9 263.9,138.9 257.6,140.6 
			257.7,140.6 257.9,140.9 		"/>
		<polygon opacity="3.000000e-02" fill="#FFFFFF" points="265.6,140.6 265.5,140.3 264.4,140.7 259.4,142.3 259.5,142.3 
			259.8,142.6 		"/>
		<polygon opacity="3.000000e-02" fill="#FFFFFF" points="267.2,142.1 267.1,141.8 267.1,141.8 261.1,144 261.2,144 261.5,144.2 		
			"/>
		<polygon opacity="3.000000e-02" fill="#FFFFFF" points="225.1,141.6 225.8,142.3 231.4,141.3 232.4,141.1 232.3,141.1 
			231.7,140.5 231.7,140.5 96.8,0 92.9,0 225.1,141.6 		"/>
		<polygon opacity="3.000000e-02" fill="#FFFFFF" points="234.9,143.8 234.5,143.4 234.4,143.3 227.9,144.7 228.1,144.8 
			228.6,145.3 		"/>
		<polygon opacity="3.000000e-02" fill="#FFFFFF" points="237.4,146.4 237,146 236.9,145.9 230.7,147.6 230.8,147.7 231.3,148.2 		
			"/>
		<polygon opacity="3.000000e-02" fill="#FFFFFF" points="240,149 239.5,148.6 239.5,148.6 233.4,150.5 233.5,150.6 233.9,151 		"/>
		<polygon opacity="3.000000e-02" fill="#FFFFFF" points="242.3,151.6 241.9,151.1 241.9,151 236,153.3 236.1,153.4 236.5,153.8 		
			"/>
		<polygon opacity="3.000000e-02" fill="#FFFFFF" points="197.5,146.2 198.3,147.1 198.3,147.1 201.5,146.6 204.5,146 203.9,145.1 
			203.9,145.1 81,0 77.4,0 197.5,146.2 		"/>
		<polygon opacity="3.000000e-02" fill="#FFFFFF" points="207,150 207.8,149.9 207.8,149.9 207,148.9 205.1,149.4 200.7,150.3 
			200.8,150.3 201.5,151.2 		"/>
		<polygon opacity="3.000000e-02" fill="#FFFFFF" points="211,153.6 210.4,152.9 210.3,152.8 204.2,154.4 204.3,154.5 205,155.4 		
			"/>
		<polygon opacity="3.000000e-02" fill="#FFFFFF" points="214.3,157.5 213.6,156.6 213.5,156.6 207.6,158.5 207.7,158.5 
			208.3,159.4 		"/>
		<polygon opacity="3.000000e-02" fill="#FFFFFF" points="217.3,161.2 216.8,160.3 215.4,160.8 210.9,162.6 210.9,162.6 
			211.6,163.3 		"/>
		<polygon opacity="3.000000e-02" fill="#FFFFFF" points="220.5,164.9 220.5,164.9 220.5,164.9 219.8,164 219.1,164.3 214,166.5 
			214.1,166.6 214.6,167.1 		"/>
		<polygon opacity="3.000000e-02" fill="#FFFFFF" points="170.5,150.5 171.3,151.7 171.3,151.7 177.8,150.7 177.7,150.6 
			176.8,149.6 176.8,149.5 66.1,0 62.7,0 170.5,150.5 		"/>
		<polygon opacity="3.000000e-02" fill="#FFFFFF" points="181.5,155.6 180.7,154.6 180.6,154.6 174.4,155.9 174.5,156 175.2,157.1 
					"/>
		<polygon opacity="3.000000e-02" fill="#FFFFFF" points="185.2,160.7 184.5,159.7 184.5,159.6 178.1,161.2 178.2,161.2 
			178.9,162.4 		"/>
		<polygon opacity="3.000000e-02" fill="#FFFFFF" points="188.9,165.7 188.1,164.6 188.1,164.6 182,166.6 182,166.6 182.7,167.7 		
			"/>
		<polygon opacity="3.000000e-02" fill="#FFFFFF" points="192.5,170.6 191.8,169.5 185.7,171.8 185.7,171.8 186.6,172.9 		"/>
		<polygon opacity="3.000000e-02" fill="#FFFFFF" points="144.7,154.8 145.5,156.3 145.5,156.4 148.8,155.7 151.6,155.2 
			150.6,153.9 150.6,153.9 52.2,0 49,0 144.7,154.8 		"/>
		<polygon opacity="3.000000e-02" fill="#FFFFFF" points="155.5,161.5 154.7,160.1 154.7,160.1 148.6,161.3 148.7,161.4 
			149.6,162.8 		"/>
		<polygon opacity="3.000000e-02" fill="#FFFFFF" points="159.4,167.7 158.6,166.3 158.6,166.3 152.7,167.8 152.7,167.8 
			153.6,169.3 		"/>
		<polygon opacity="3.000000e-02" fill="#FFFFFF" points="160.2,175.1 163.5,174 163.4,174 162.7,172.8 162.6,172.7 156.9,174.4 
			156.9,174.5 157.7,175.8 		"/>
		<polygon opacity="3.000000e-02" fill="#FFFFFF" points="167.5,180.2 166.8,178.9 166.7,178.8 160.8,181 160.8,181.1 161.6,182.4 
					"/>
		<polygon opacity="3.000000e-02" fill="#FFFFFF" points="142.4,189.8 141.6,188.1 141.5,188.1 135.8,190.2 135.8,190.3 136.7,192 
					"/>
		<polygon opacity="3.000000e-02" fill="#FFFFFF" points="132.4,184.1 134.7,183.4 138.3,182.3 137.4,180.4 137.4,180.4 
			131.5,182.3 131.5,182.3 132.4,184.1 		"/>
		<polygon opacity="3.000000e-02" fill="#FFFFFF" points="134.2,174.6 133.3,172.9 133.3,172.9 127.4,174.4 127.4,174.5 
			128.3,176.3 		"/>
		<polygon opacity="3.000000e-02" fill="#FFFFFF" points="130.1,167.1 129.2,165.4 129.2,165.3 123.4,166.7 123.5,166.8 
			124.3,168.4 		"/>
		<polygon opacity="3.000000e-02" fill="#FFFFFF" points="119.2,159 120.3,160.7 120.3,160.7 121.3,160.5 126.1,159.7 125.1,158 
			125.1,158 39,0 35.9,0 119.2,158.9 		"/>
		<polygon opacity="3.000000e-02" fill="#FFFFFF" points="117.6,199.3 116.6,197.4 116.6,197.3 110.7,199.5 110.7,199.5 
			111.6,201.7 		"/>
		<polygon opacity="3.000000e-02" fill="#FFFFFF" points="107.5,192.3 107.9,192.2 113.5,190.2 112.5,188.3 112.4,188.2 
			106.5,190.1 106.6,190.1 107.5,192.3 		"/>
		<polygon opacity="3.000000e-02" fill="#FFFFFF" points="109.4,181.3 108.4,179.4 108.4,179.3 102.6,181 102.6,181.1 103.5,183.1 
					"/>
		<polygon opacity="3.000000e-02" fill="#FFFFFF" points="105.5,172.6 104.4,170.6 104.4,170.6 98.6,171.9 98.7,172 99.5,174 		"/>
		<polygon opacity="3.000000e-02" fill="#FFFFFF" points="94.7,162.9 95.6,164.9 95.6,165 100.4,164.2 101.4,164 100.6,162.1 
			100.6,162 26.6,0 23.7,0 94.7,162.9 		"/>
		<polygon opacity="3.000000e-02" fill="#FFFFFF" points="92.5,208.9 91.6,206.6 91.6,206.5 85.9,208.7 85.9,208.8 86.7,211.3 		"/>
		<polygon opacity="3.000000e-02" fill="#FFFFFF" points="88.5,198.4 87.7,196 87.7,196 82,197.8 82,197.8 82.8,200.2 		"/>
		<polygon opacity="3.000000e-02" fill="#FFFFFF" points="79,189.7 79.1,189.7 84.7,188.1 83.9,185.9 83.9,185.8 78.2,187.3 
			78.2,187.4 79,189.7 		"/>
		<polygon opacity="3.000000e-02" fill="#FFFFFF" points="75.4,179.3 76.5,179 81,178 80.2,175.7 78.8,176 74.6,177 74.6,177.1 
			75.4,179.2 		"/>
		<polygon opacity="3.000000e-02" fill="#FFFFFF" points="49.3,104.8 51.3,109.7 50.9,109.7 56.6,125.8 57.2,125.7 59.1,130.5 
			58.3,130.6 63.9,146.6 65.2,146.5 67.1,151.4 65.6,151.5 71.1,166.8 71.1,166.9 71.9,169.1 71.9,169.1 73.4,168.9 77.3,168.3 
			76.6,166 76.5,166 14.7,0 12.1,0 49.2,104.8 		"/>
		<polygon opacity="3.000000e-02" fill="#FFFFFF" points="67.3,218.5 66.7,215.7 65.1,216.3 60.8,217.9 60.8,218 61.7,220.8 		"/>
		<polygon opacity="3.000000e-02" fill="#FFFFFF" points="63.9,206.4 63.1,203.7 61.8,204.1 57.4,205.5 57.4,205.5 58.2,208.2 		"/>
		<polygon opacity="3.000000e-02" fill="#FFFFFF" points="60.6,194.7 59.8,192.2 59.8,192.1 54.1,193.6 54.1,193.7 54.8,196.2 		"/>
		<polygon opacity="3.000000e-02" fill="#FFFFFF" points="57.2,183.4 56.4,180.8 56.4,180.7 51,181.9 51,182 51.7,184.6 		"/>
		<polygon opacity="3.000000e-02" fill="#FFFFFF" points="31.8,112 36,127.5 40.8,127.1 36.3,111.5 		"/>
		<polygon opacity="3.000000e-02" fill="#FFFFFF" points="20.6,71.1 24.9,86.7 28.8,86.1 24.1,70.3 		"/>
		<polygon opacity="3.000000e-02" fill="#FFFFFF" points="26.3,91.7 30.6,107.3 34.9,106.7 30.3,91 		"/>
		<polygon opacity="3.000000e-02" fill="#FFFFFF" points="9.1,29.2 13.6,45.5 16.6,44.6 11.9,28.3 		"/>
		<polygon opacity="3.000000e-02" fill="#FFFFFF" points="4.3,2.3 3.7,0 1.1,0 2,3.2 		"/>
		<polygon opacity="3.000000e-02" fill="#FFFFFF" points="3.4,8.1 7.9,24.4 10.4,23.4 5.7,7.2 		"/>
		<polygon opacity="3.000000e-02" fill="#FFFFFF" points="46.6,147.3 42.2,131.9 42.2,131.7 37.4,132.2 41.5,147.5 42.4,147.5 		"/>
		<polygon opacity="3.000000e-02" fill="#FFFFFF" points="4.6,3.7 4.8,4 5.7,7.2 4.3,2.3 		"/>
		<polygon opacity="3.000000e-02" fill="#FFFFFF" points="14.9,50.3 19.2,66.3 22.8,65.5 18,49.3 		"/>
		<polygon opacity="3.000000e-02" fill="#FFFFFF" points="53.3,169.8 53.2,169.7 48.1,152.1 45.7,152.1 42.8,152.2 47.8,170.6 
			47.8,170.6 48.6,173.2 48.6,173.2 49.1,173.1 53.9,172.3 		"/>
		<polygon opacity="3.000000e-02" fill="#FFFFFF" points="42.8,152.2 45.7,152.1 42.4,147.5 41.5,147.5 21,148.4 23.8,152.8 		"/>
		<polygon opacity="3.000000e-02" fill="#FFFFFF" points="14.6,148.7 0,149.3 0,153.5 17.3,153 		"/>
		<polygon opacity="3.000000e-02" fill="#FFFFFF" points="65.2,146.5 63.9,146.6 65.6,151.5 67.1,151.4 		"/>
		<polygon opacity="3.000000e-02" fill="#FFFFFF" points="11.4,134.2 31.5,132.7 37.4,132.2 42.2,131.7 40.8,127.1 36,127.5 
			34.1,127.7 28.1,128.3 8.7,129.9 2.8,130.4 0,130.7 0,135.1 5.5,134.7 		"/>
		<polygon opacity="3.000000e-02" fill="#FFFFFF" points="57.2,125.7 56.6,125.8 58.3,130.6 59.1,130.5 		"/>
		<polygon opacity="3.000000e-02" fill="#FFFFFF" points="36.3,111.5 34.9,106.7 30.6,107.3 0,111.5 0,115.9 31.8,112 		"/>
		<polygon opacity="3.000000e-02" fill="#FFFFFF" points="49.3,104.8 49.2,104.8 50.9,109.7 51.3,109.7 		"/>
		<polygon opacity="3.000000e-02" fill="#FFFFFF" points="30.3,91 28.8,86.1 24.9,86.7 0,91.3 0,96.2 26.3,91.7 		"/>
		<polygon opacity="3.000000e-02" fill="#FFFFFF" points="24.1,70.3 22.8,65.5 19.2,66.3 0,70.8 0,75.6 20.6,71.1 		"/>
		<polygon opacity="3.000000e-02" fill="#FFFFFF" points="18,49.3 16.6,44.6 13.6,45.5 0,49.4 0,54.4 14.9,50.3 		"/>
		<polygon opacity="3.000000e-02" fill="#FFFFFF" points="9.1,29.2 11.9,28.3 10.4,23.4 7.9,24.4 0,27 0,29.1 1.6,31.7 		"/>
		<polygon opacity="3.000000e-02" fill="#FFFFFF" points="5.7,7.2 4.8,4 4.6,3.7 3.8,2.5 4.3,2.3 2,3.2 0,4 0,9.4 3.4,8.1 		"/>
		<polygon opacity="3.000000e-02" fill="#FFFFFF" points="3.1,178 3.9,179.6 10.2,178.4 9.3,176.9 9,176.5 0,160.6 0,172.3 
			2.8,177.5 		"/>
		<polygon opacity="3.000000e-02" fill="#FFFFFF" points="23.8,152.8 21,148.4 14.6,148.7 17.3,153 30.1,173 30.4,173.5 31.2,174.8 
			37.7,173.8 36.8,172.5 36.5,172 		"/>
		<polygon opacity="3.000000e-02" fill="#FFFFFF" points="45.7,152.1 48.1,152.1 46.6,147.3 42.4,147.5 		"/>
		<polygon opacity="3.000000e-02" fill="#FFFFFF" points="0,29.1 0,32.2 1.6,31.7 		"/>
		<polygon fill="#FFFFFF" points="3.8,2.5 4.6,3.7 4.3,2.3 		"/>
	</g>
</g>
<g>
	<defs>
		<rect id="SVGID_37_" width="792" height="612"/>
	</defs>
	<use xlink:href="#SVGID_37_"  overflow="visible" fill="#00ADEE"/>
	<clipPath id="SVGID_10_">
		<use xlink:href="#SVGID_37_"  overflow="visible"/>
	</clipPath>
	<path opacity="0.74" clip-path="url(#SVGID_10_)" fill="#FFFFFF" d="M748.9,89c-6,0-11.8-1.1-17-3.2V62.6h-24.3
		c-1.8-4.5-2.8-9.3-2.8-14.4H83.4c0,5.1-1,9.9-2.8,14.4H56.3V90c-5.2,2-10.6,4.4-17,6.7v415.2l17-0.1l0,29.8l26.2,0.4l2,9.3L704,552
		l2.1-11.7l25.8-0.1l0.9-29.7l15.2-8.2L748.9,89z"/>
	<g clip-path="url(#SVGID_10_)">
		<path fill="none" stroke="#000000" stroke-width="3.1849" stroke-miterlimit="10" d="M39.3,511.9V96.6
			C63.6,89,83.4,70.7,83.4,48.1h621.3c0,22.6,19.8,40.9,44.2,40.9v414.5"/>
		<path fill="none" stroke="#000000" stroke-width="3.1849" stroke-miterlimit="10" d="M748.5,100.3l0.5,403.2
			c-24.4,7.6-44.2,25.9-44.2,48.4H83.5c0-22.6-19.8-40.9-44.2-40.9V106.4"/>
		<polygon fill="none" stroke="#000000" stroke-width="3.1849" stroke-miterlimit="10" points="56.3,541.6 56.3,62.6 731.9,62.6 
			731.9,540.8 		"/>
	</g>
</g>
<text transform="matrix(1 0 0 1 157.9596 133.2744)" fill="#00ADEE" font-family="'Georgia-Bold'" font-size="32.818px">THE Langhofer FAMILY</text>
<g>
	<g>
		<g>
			<path d="M152.2,279.1l-5.5,19.6H144l-4-14.3c-0.2-0.6-0.3-1.3-0.3-2h-0.1c-0.1,0.7-0.2,1.3-0.4,2l-4.1,14.4h-2.7l-5.7-19.6h2.5
				l4.2,15c0.2,0.6,0.3,1.3,0.3,2h0.1c0-0.5,0.2-1.1,0.4-2l4.3-15h2.2l4.2,15.1c0.1,0.5,0.3,1.1,0.3,1.8h0.1c0-0.5,0.2-1.1,0.4-1.9
				l4-15.1H152.2z"/>
			<path d="M166.1,292.2h-9.9c0,1.6,0.5,2.8,1.3,3.6s1.9,1.3,3.3,1.3c1.6,0,3-0.5,4.3-1.6v2.1c-1.2,0.9-2.9,1.3-4.9,1.3
				c-2,0-3.5-0.6-4.7-1.9s-1.7-3.1-1.7-5.4c0-2.2,0.6-4,1.9-5.3c1.2-1.4,2.8-2.1,4.6-2.1s3.2,0.6,4.3,1.8c1,1.2,1.5,2.8,1.5,4.9
				V292.2z M163.8,290.3c0-1.3-0.3-2.3-0.9-3c-0.6-0.7-1.5-1.1-2.6-1.1c-1.1,0-2,0.4-2.7,1.1c-0.7,0.8-1.2,1.7-1.4,3H163.8z"/>
			<path d="M186.7,298c-1.1,0.6-2.4,1-3.8,1c-2,0-3.6-0.6-4.8-1.9s-1.8-3-1.8-5.1c0-2.3,0.7-4.2,2-5.6c1.3-1.4,3.1-2.1,5.3-2.1
				c1.2,0,2.3,0.2,3.3,0.7v2.3c-1-0.7-2.2-1.1-3.3-1.1c-1.4,0-2.6,0.5-3.5,1.5s-1.4,2.4-1.4,4c0,1.6,0.4,2.9,1.3,3.9
				c0.9,0.9,2,1.4,3.5,1.4c1.2,0,2.4-0.4,3.4-1.2V298z"/>
			<path d="M201.7,298.7h-2.2v-8.1c0-2.9-1.1-4.4-3.3-4.4c-1.1,0-2,0.4-2.8,1.3c-0.7,0.8-1.1,1.9-1.1,3.2v7.9h-2.2V278h2.2v9.1h0.1
				c1.1-1.8,2.6-2.7,4.6-2.7c3.2,0,4.7,1.9,4.7,5.7V298.7z"/>
			<path d="M211.8,299c-2.1,0-3.7-0.7-5-2c-1.2-1.3-1.9-3-1.9-5.2c0-2.4,0.6-4.2,1.9-5.5c1.3-1.3,3-2,5.2-2c2.1,0,3.7,0.6,4.9,1.9
				s1.8,3.1,1.8,5.3c0,2.2-0.6,4-1.9,5.4C215.6,298.3,213.9,299,211.8,299z M211.9,286.2c-1.4,0-2.6,0.5-3.4,1.5
				c-0.8,1-1.3,2.3-1.3,4.1c0,1.7,0.4,3,1.3,3.9s2,1.4,3.4,1.4c1.4,0,2.6-0.5,3.3-1.4c0.8-0.9,1.2-2.3,1.2-4c0-1.8-0.4-3.1-1.2-4
				C214.5,286.7,213.4,286.2,211.9,286.2z"/>
			<path d="M228.2,299c-2.1,0-3.7-0.7-5-2c-1.2-1.3-1.9-3-1.9-5.2c0-2.4,0.6-4.2,1.9-5.5c1.3-1.3,3-2,5.2-2c2.1,0,3.7,0.6,4.9,1.9
				s1.8,3.1,1.8,5.3c0,2.2-0.6,4-1.9,5.4C232,298.3,230.3,299,228.2,299z M228.3,286.2c-1.4,0-2.6,0.5-3.4,1.5
				c-0.8,1-1.3,2.3-1.3,4.1c0,1.7,0.4,3,1.3,3.9s2,1.4,3.4,1.4c1.4,0,2.6-0.5,3.3-1.4c0.8-0.9,1.2-2.3,1.2-4c0-1.8-0.4-3.1-1.2-4
				C230.9,286.7,229.8,286.2,228.3,286.2z"/>
			<path d="M237.9,298.2v-2.4c1.2,0.9,2.6,1.4,4,1.4c2,0,3-0.7,3-2c0-0.4-0.1-0.7-0.3-0.9s-0.4-0.5-0.7-0.7c-0.3-0.2-0.6-0.4-1-0.5
				c-0.4-0.2-0.8-0.3-1.3-0.5c-0.6-0.2-1.2-0.5-1.6-0.7c-0.5-0.3-0.9-0.5-1.2-0.8s-0.6-0.7-0.7-1.1c-0.2-0.4-0.2-0.9-0.2-1.4
				c0-0.7,0.2-1.2,0.5-1.7s0.7-0.9,1.2-1.3s1.1-0.6,1.7-0.8c0.6-0.2,1.3-0.3,2-0.3c1.2,0,2.3,0.2,3.3,0.6v2.3c-1-0.7-2.2-1-3.6-1
				c-0.4,0-0.8,0-1.1,0.1s-0.6,0.2-0.9,0.4c-0.2,0.2-0.4,0.4-0.6,0.6c-0.1,0.2-0.2,0.5-0.2,0.8c0,0.4,0.1,0.7,0.2,0.9
				s0.3,0.5,0.6,0.7s0.6,0.4,0.9,0.5c0.4,0.2,0.8,0.3,1.2,0.5c0.6,0.2,1.2,0.5,1.7,0.7c0.5,0.2,0.9,0.5,1.3,0.8s0.6,0.7,0.8,1.1
				s0.3,0.9,0.3,1.5c0,0.7-0.2,1.3-0.5,1.8c-0.3,0.5-0.7,0.9-1.2,1.3c-0.5,0.3-1.1,0.6-1.8,0.8s-1.4,0.2-2.1,0.2
				C240.2,299,238.9,298.7,237.9,298.2z"/>
			<path d="M261.8,292.2H252c0,1.6,0.5,2.8,1.3,3.6s1.9,1.3,3.3,1.3c1.6,0,3-0.5,4.3-1.6v2.1c-1.2,0.9-2.9,1.3-4.9,1.3
				c-2,0-3.5-0.6-4.7-1.9s-1.7-3.1-1.7-5.4c0-2.2,0.6-4,1.9-5.3c1.2-1.4,2.8-2.1,4.6-2.1s3.2,0.6,4.3,1.8c1,1.2,1.5,2.8,1.5,4.9
				V292.2z M259.6,290.3c0-1.3-0.3-2.3-0.9-3c-0.6-0.7-1.5-1.1-2.6-1.1c-1.1,0-2,0.4-2.7,1.1c-0.7,0.8-1.2,1.7-1.4,3H259.6z"/>
			<path d="M284.9,298.7h-2.2v-2.4h-0.1c-1,1.8-2.6,2.7-4.8,2.7c-1.8,0-3.2-0.6-4.2-1.9c-1.1-1.3-1.6-3-1.6-5.1
				c0-2.3,0.6-4.2,1.8-5.6s2.7-2.1,4.7-2.1c1.9,0,3.3,0.8,4.2,2.3h0.1V278h2.2V298.7z M282.6,292.4v-2.1c0-1.1-0.4-2.1-1.1-2.9
				c-0.7-0.8-1.7-1.2-2.8-1.2c-1.4,0-2.4,0.5-3.2,1.5c-0.8,1-1.2,2.4-1.2,4.2c0,1.6,0.4,2.9,1.1,3.8c0.8,0.9,1.8,1.4,3,1.4
				c1.2,0,2.3-0.5,3-1.4S282.6,293.7,282.6,292.4z"/>
			<path d="M299.4,298.7h-2.2v-2.2h-0.1c-1,1.7-2.4,2.5-4.3,2.5c-1.4,0-2.5-0.4-3.3-1.1s-1.2-1.7-1.2-2.9c0-2.6,1.5-4.1,4.6-4.6
				l4.2-0.6c0-2.4-1-3.6-2.9-3.6c-1.7,0-3.2,0.6-4.6,1.7v-2.3c1.4-0.9,3-1.3,4.8-1.3c3.3,0,4.9,1.7,4.9,5.2V298.7z M297.2,291.6
				l-3.4,0.5c-1,0.1-1.8,0.4-2.4,0.8s-0.8,1-0.8,2c0,0.7,0.2,1.2,0.7,1.7c0.5,0.4,1.1,0.6,1.9,0.6c1.1,0,2-0.4,2.8-1.2
				s1.1-1.8,1.1-3V291.6z"/>
			<path d="M304.8,281.1c-0.4,0-0.7-0.1-1-0.4s-0.4-0.6-0.4-1c0-0.4,0.1-0.8,0.4-1c0.3-0.3,0.6-0.4,1-0.4c0.4,0,0.8,0.1,1,0.4
				c0.3,0.3,0.4,0.6,0.4,1c0,0.4-0.1,0.7-0.4,1C305.6,281,305.2,281.1,304.8,281.1z M305.9,298.7h-2.2v-14h2.2V298.7z"/>
			<path d="M312.7,298.7h-2.2V278h2.2V298.7z"/>
			<path d="M328.3,284.7l-6.4,16.2c-1.1,2.9-2.8,4.3-4.8,4.3c-0.6,0-1.1-0.1-1.5-0.2v-2c0.5,0.2,0.9,0.2,1.3,0.2c1.1,0,2-0.7,2.5-2
				l1.1-2.7l-5.5-14h2.5l3.8,10.8c0,0.1,0.1,0.5,0.3,1.1h0.1c0-0.2,0.1-0.6,0.3-1l4-10.8H328.3z"/>
			<path d="M344.9,298.6c-0.5,0.3-1.2,0.4-2.1,0.4c-2.5,0-3.7-1.4-3.7-4.1v-8.3h-2.4v-1.9h2.4v-3.4l2.2-0.7v4.1h3.5v1.9h-3.5v7.9
				c0,0.9,0.2,1.6,0.5,2c0.3,0.4,0.8,0.6,1.6,0.6c0.6,0,1.1-0.2,1.5-0.5V298.6z"/>
			<path d="M353.8,299c-2.1,0-3.7-0.7-5-2c-1.2-1.3-1.9-3-1.9-5.2c0-2.4,0.6-4.2,1.9-5.5c1.3-1.3,3-2,5.2-2c2.1,0,3.7,0.6,4.9,1.9
				s1.8,3.1,1.8,5.3c0,2.2-0.6,4-1.9,5.4C357.6,298.3,355.9,299,353.8,299z M353.9,286.2c-1.4,0-2.6,0.5-3.4,1.5
				c-0.8,1-1.3,2.3-1.3,4.1c0,1.7,0.4,3,1.3,3.9s2,1.4,3.4,1.4c1.4,0,2.6-0.5,3.3-1.4c0.8-0.9,1.2-2.3,1.2-4c0-1.8-0.4-3.1-1.2-4
				C356.5,286.7,355.4,286.2,353.9,286.2z"/>
			<path d="M374.3,296.7L374.3,296.7l-0.1,2H372V278h2.2v9.2h0.1c1.1-1.9,2.7-2.8,4.8-2.8c1.8,0,3.2,0.6,4.2,1.9
				c1,1.3,1.5,2.9,1.5,5c0,2.3-0.6,4.2-1.7,5.6s-2.7,2.1-4.7,2.1C376.6,299,375.2,298.2,374.3,296.7z M374.2,291v2
				c0,1.2,0.4,2.1,1.1,2.9s1.7,1.2,2.9,1.2c1.4,0,2.4-0.5,3.2-1.6s1.2-2.5,1.2-4.3c0-1.6-0.4-2.8-1.1-3.7c-0.7-0.9-1.7-1.3-2.9-1.3
				c-1.3,0-2.4,0.5-3.1,1.4C374.6,288.5,374.2,289.7,374.2,291z"/>
			<path d="M399.7,292.2h-9.9c0,1.6,0.5,2.8,1.3,3.6s1.9,1.3,3.3,1.3c1.6,0,3-0.5,4.3-1.6v2.1c-1.2,0.9-2.9,1.3-4.9,1.3
				c-2,0-3.5-0.6-4.7-1.9s-1.7-3.1-1.7-5.4c0-2.2,0.6-4,1.9-5.3c1.2-1.4,2.8-2.1,4.6-2.1s3.2,0.6,4.3,1.8c1,1.2,1.5,2.8,1.5,4.9
				V292.2z M397.4,290.3c0-1.3-0.3-2.3-0.9-3c-0.6-0.7-1.5-1.1-2.6-1.1c-1.1,0-2,0.4-2.7,1.1c-0.7,0.8-1.2,1.7-1.4,3H397.4z"/>
			<path d="M418.1,287c-0.4-0.3-1-0.5-1.7-0.5c-1,0-1.8,0.5-2.4,1.4s-1,2.1-1,3.7v7.1h-2.2v-14h2.2v2.9h0.1c0.3-1,0.8-1.8,1.5-2.3
				c0.7-0.6,1.4-0.8,2.2-0.8c0.6,0,1,0.1,1.3,0.2V287z"/>
			<path d="M431.7,292.2h-9.9c0,1.6,0.5,2.8,1.3,3.6s1.9,1.3,3.3,1.3c1.6,0,3-0.5,4.3-1.6v2.1c-1.2,0.9-2.9,1.3-4.9,1.3
				c-2,0-3.5-0.6-4.7-1.9s-1.7-3.1-1.7-5.4c0-2.2,0.6-4,1.9-5.3c1.2-1.4,2.8-2.1,4.6-2.1s3.2,0.6,4.3,1.8c1,1.2,1.5,2.8,1.5,4.9
				V292.2z M429.5,290.3c0-1.3-0.3-2.3-0.9-3c-0.6-0.7-1.5-1.1-2.6-1.1c-1.1,0-2,0.4-2.7,1.1c-0.7,0.8-1.2,1.7-1.4,3H429.5z"/>
			<path d="M434.3,298.2v-2.4c1.2,0.9,2.6,1.4,4,1.4c2,0,3-0.7,3-2c0-0.4-0.1-0.7-0.3-0.9s-0.4-0.5-0.7-0.7c-0.3-0.2-0.6-0.4-1-0.5
				c-0.4-0.2-0.8-0.3-1.3-0.5c-0.6-0.2-1.2-0.5-1.6-0.7c-0.5-0.3-0.9-0.5-1.2-0.8s-0.6-0.7-0.7-1.1c-0.2-0.4-0.2-0.9-0.2-1.4
				c0-0.7,0.2-1.2,0.5-1.7s0.7-0.9,1.2-1.3s1.1-0.6,1.7-0.8c0.6-0.2,1.3-0.3,2-0.3c1.2,0,2.3,0.2,3.3,0.6v2.3c-1-0.7-2.2-1-3.6-1
				c-0.4,0-0.8,0-1.1,0.1s-0.6,0.2-0.9,0.4c-0.2,0.2-0.4,0.4-0.6,0.6c-0.1,0.2-0.2,0.5-0.2,0.8c0,0.4,0.1,0.7,0.2,0.9
				s0.3,0.5,0.6,0.7s0.6,0.4,0.9,0.5c0.4,0.2,0.8,0.3,1.2,0.5c0.6,0.2,1.2,0.5,1.7,0.7c0.5,0.2,0.9,0.5,1.3,0.8s0.6,0.7,0.8,1.1
				s0.3,0.9,0.3,1.5c0,0.7-0.2,1.3-0.5,1.8c-0.3,0.5-0.7,0.9-1.2,1.3c-0.5,0.3-1.1,0.6-1.8,0.8s-1.4,0.2-2.1,0.2
				C436.6,299,435.3,298.7,434.3,298.2z"/>
			<path d="M449.3,296.7L449.3,296.7l-0.1,8.5H447v-20.4h2.2v2.5h0.1c1.1-1.9,2.7-2.8,4.8-2.8c1.8,0,3.2,0.6,4.2,1.9
				c1,1.3,1.5,2.9,1.5,5c0,2.3-0.6,4.2-1.7,5.6s-2.7,2.1-4.7,2.1C451.7,299,450.3,298.2,449.3,296.7z M449.3,291v2
				c0,1.2,0.4,2.1,1.1,2.9s1.7,1.2,2.9,1.2c1.4,0,2.4-0.5,3.2-1.6s1.2-2.5,1.2-4.3c0-1.6-0.4-2.8-1.1-3.7c-0.7-0.9-1.7-1.3-2.9-1.3
				c-1.3,0-2.4,0.5-3.1,1.4C449.7,288.5,449.3,289.7,449.3,291z"/>
			<path d="M474.7,292.2h-9.9c0,1.6,0.5,2.8,1.3,3.6s1.9,1.3,3.3,1.3c1.6,0,3-0.5,4.3-1.6v2.1c-1.2,0.9-2.9,1.3-4.9,1.3
				c-2,0-3.5-0.6-4.7-1.9s-1.7-3.1-1.7-5.4c0-2.2,0.6-4,1.9-5.3c1.2-1.4,2.8-2.1,4.6-2.1s3.2,0.6,4.3,1.8c1,1.2,1.5,2.8,1.5,4.9
				V292.2z M472.4,290.3c0-1.3-0.3-2.3-0.9-3c-0.6-0.7-1.5-1.1-2.6-1.1c-1.1,0-2,0.4-2.7,1.1c-0.7,0.8-1.2,1.7-1.4,3H472.4z"/>
			<path d="M487.7,298c-1.1,0.6-2.4,1-3.8,1c-2,0-3.6-0.6-4.8-1.9s-1.8-3-1.8-5.1c0-2.3,0.7-4.2,2-5.6c1.3-1.4,3.1-2.1,5.3-2.1
				c1.2,0,2.3,0.2,3.3,0.7v2.3c-1-0.7-2.2-1.1-3.3-1.1c-1.4,0-2.6,0.5-3.5,1.5s-1.4,2.4-1.4,4c0,1.6,0.4,2.9,1.3,3.9
				c0.9,0.9,2,1.4,3.5,1.4c1.2,0,2.4-0.4,3.4-1.2V298z"/>
			<path d="M497.6,298.6c-0.5,0.3-1.2,0.4-2.1,0.4c-2.5,0-3.7-1.4-3.7-4.1v-8.3h-2.4v-1.9h2.4v-3.4l2.2-0.7v4.1h3.5v1.9H494v7.9
				c0,0.9,0.2,1.6,0.5,2c0.3,0.4,0.8,0.6,1.6,0.6c0.6,0,1.1-0.2,1.5-0.5V298.6z"/>
			<path d="M507.5,279.9c-0.4-0.2-0.9-0.4-1.5-0.4c-1.6,0-2.4,1-2.4,3v2.2h3.3v1.9h-3.3v12.1h-2.2v-12.1H499v-1.9h2.4v-2.3
				c0-1.5,0.4-2.6,1.3-3.5c0.8-0.9,1.9-1.3,3.2-1.3c0.7,0,1.2,0.1,1.6,0.2V279.9z"/>
			<path d="M520.6,298.7h-2.2v-2.2h-0.1c-0.9,1.7-2.4,2.5-4.3,2.5c-3.3,0-5-2-5-6v-8.4h2.2v8c0,3,1.1,4.4,3.4,4.4
				c1.1,0,2-0.4,2.7-1.2s1.1-1.9,1.1-3.2v-8.1h2.2V298.7z"/>
			<path d="M527.4,298.7h-2.2V278h2.2V298.7z"/>
			<path d="M546.1,298.6c-0.5,0.3-1.2,0.4-2.1,0.4c-2.5,0-3.7-1.4-3.7-4.1v-8.3h-2.4v-1.9h2.4v-3.4l2.2-0.7v4.1h3.5v1.9h-3.5v7.9
				c0,0.9,0.2,1.6,0.5,2c0.3,0.4,0.8,0.6,1.6,0.6c0.6,0,1.1-0.2,1.5-0.5V298.6z"/>
			<path d="M554.9,299c-2.1,0-3.7-0.7-5-2c-1.2-1.3-1.9-3-1.9-5.2c0-2.4,0.6-4.2,1.9-5.5c1.3-1.3,3-2,5.2-2c2.1,0,3.7,0.6,4.9,1.9
				s1.8,3.1,1.8,5.3c0,2.2-0.6,4-1.9,5.4C558.8,298.3,557.1,299,554.9,299z M555.1,286.2c-1.4,0-2.6,0.5-3.4,1.5
				c-0.8,1-1.3,2.3-1.3,4.1c0,1.7,0.4,3,1.3,3.9s2,1.4,3.4,1.4c1.4,0,2.6-0.5,3.3-1.4c0.8-0.9,1.2-2.3,1.2-4c0-1.8-0.4-3.1-1.2-4
				C557.7,286.7,556.6,286.2,555.1,286.2z"/>
			<path d="M579,299c-2.1,0-3.7-0.7-5-2c-1.2-1.3-1.9-3-1.9-5.2c0-2.4,0.6-4.2,1.9-5.5c1.3-1.3,3-2,5.2-2c2.1,0,3.7,0.6,4.9,1.9
				s1.8,3.1,1.8,5.3c0,2.2-0.6,4-1.9,5.4C582.8,298.3,581.1,299,579,299z M579.2,286.2c-1.4,0-2.6,0.5-3.4,1.5
				c-0.8,1-1.3,2.3-1.3,4.1c0,1.7,0.4,3,1.3,3.9s2,1.4,3.4,1.4c1.4,0,2.6-0.5,3.3-1.4c0.8-0.9,1.2-2.3,1.2-4c0-1.8-0.4-3.1-1.2-4
				C581.8,286.7,580.6,286.2,579.2,286.2z"/>
			<path d="M596.1,298.6c-0.5,0.3-1.2,0.4-2.1,0.4c-2.5,0-3.7-1.4-3.7-4.1v-8.3h-2.4v-1.9h2.4v-3.4l2.2-0.7v4.1h3.5v1.9h-3.5v7.9
				c0,0.9,0.2,1.6,0.5,2c0.3,0.4,0.8,0.6,1.6,0.6c0.6,0,1.1-0.2,1.5-0.5V298.6z"/>
			<path d="M610.7,298.7h-2.2v-8.1c0-2.9-1.1-4.4-3.3-4.4c-1.1,0-2,0.4-2.8,1.3c-0.7,0.8-1.1,1.9-1.1,3.2v7.9h-2.2V278h2.2v9.1h0.1
				c1.1-1.8,2.6-2.7,4.6-2.7c3.2,0,4.7,1.9,4.7,5.7V298.7z"/>
			<path d="M626.2,292.2h-9.9c0,1.6,0.5,2.8,1.3,3.6s1.9,1.3,3.3,1.3c1.6,0,3-0.5,4.3-1.6v2.1c-1.2,0.9-2.9,1.3-4.9,1.3
				c-2,0-3.5-0.6-4.7-1.9s-1.7-3.1-1.7-5.4c0-2.2,0.6-4,1.9-5.3c1.2-1.4,2.8-2.1,4.6-2.1s3.2,0.6,4.3,1.8c1,1.2,1.5,2.8,1.5,4.9
				V292.2z M623.9,290.3c0-1.3-0.3-2.3-0.9-3c-0.6-0.7-1.5-1.1-2.6-1.1c-1.1,0-2,0.4-2.7,1.1c-0.7,0.8-1.2,1.7-1.4,3H623.9z"/>
			<path d="M636.9,287c-0.4-0.3-1-0.5-1.7-0.5c-1,0-1.8,0.5-2.4,1.4s-1,2.1-1,3.7v7.1h-2.2v-14h2.2v2.9h0.1c0.3-1,0.8-1.8,1.5-2.3
				c0.7-0.6,1.4-0.8,2.2-0.8c0.6,0,1,0.1,1.3,0.2V287z"/>
			<path d="M638.4,298.2v-2.4c1.2,0.9,2.6,1.4,4,1.4c2,0,3-0.7,3-2c0-0.4-0.1-0.7-0.3-0.9s-0.4-0.5-0.7-0.7c-0.3-0.2-0.6-0.4-1-0.5
				c-0.4-0.2-0.8-0.3-1.3-0.5c-0.6-0.2-1.2-0.5-1.6-0.7c-0.5-0.3-0.9-0.5-1.2-0.8s-0.6-0.7-0.7-1.1c-0.2-0.4-0.2-0.9-0.2-1.4
				c0-0.7,0.2-1.2,0.5-1.7s0.7-0.9,1.2-1.3s1.1-0.6,1.7-0.8c0.6-0.2,1.3-0.3,2-0.3c1.2,0,2.3,0.2,3.3,0.6v2.3c-1-0.7-2.2-1-3.6-1
				c-0.4,0-0.8,0-1.1,0.1s-0.6,0.2-0.9,0.4c-0.2,0.2-0.4,0.4-0.6,0.6c-0.1,0.2-0.2,0.5-0.2,0.8c0,0.4,0.1,0.7,0.2,0.9
				s0.3,0.5,0.6,0.7s0.6,0.4,0.9,0.5c0.4,0.2,0.8,0.3,1.2,0.5c0.6,0.2,1.2,0.5,1.7,0.7c0.5,0.2,0.9,0.5,1.3,0.8s0.6,0.7,0.8,1.1
				s0.3,0.9,0.3,1.5c0,0.7-0.2,1.3-0.5,1.8c-0.3,0.5-0.7,0.9-1.2,1.3c-0.5,0.3-1.1,0.6-1.8,0.8s-1.4,0.2-2.1,0.2
				C640.7,299,639.5,298.7,638.4,298.2z"/>
			<path d="M653.2,295.6l-2.2,6.7h-1.6l1.6-6.7H653.2z"/>
			<path d="M182.6,332.2c-0.5,0.3-1.2,0.4-2.1,0.4c-2.5,0-3.7-1.4-3.7-4.1v-8.3h-2.4v-1.9h2.4v-3.4l2.2-0.7v4.1h3.5v1.9h-3.5v7.9
				c0,0.9,0.2,1.6,0.5,2c0.3,0.4,0.8,0.6,1.6,0.6c0.6,0,1.1-0.2,1.5-0.5V332.2z"/>
			<path d="M191.5,332.6c-2.1,0-3.7-0.7-5-2c-1.2-1.3-1.9-3-1.9-5.2c0-2.4,0.6-4.2,1.9-5.5c1.3-1.3,3-2,5.2-2c2.1,0,3.7,0.6,4.9,1.9
				s1.8,3.1,1.8,5.3c0,2.2-0.6,4-1.9,5.4C195.3,331.9,193.6,332.6,191.5,332.6z M191.6,319.8c-1.4,0-2.6,0.5-3.4,1.5
				c-0.8,1-1.3,2.3-1.3,4.1c0,1.7,0.4,3,1.3,3.9s2,1.4,3.4,1.4c1.4,0,2.6-0.5,3.3-1.4c0.8-0.9,1.2-2.3,1.2-4c0-1.8-0.4-3.1-1.2-4
				C194.2,320.3,193.1,319.8,191.6,319.8z"/>
			<path d="M221.3,332.3h-2.2v-8c0-3-1.1-4.5-3.3-4.5c-1.1,0-2,0.4-2.8,1.3c-0.7,0.8-1.1,1.9-1.1,3.2v8h-2.2v-14h2.2v2.3h0.1
				c1.1-1.8,2.6-2.7,4.6-2.7c1.5,0,2.7,0.5,3.5,1.5c0.8,1,1.2,2.4,1.2,4.3V332.3z"/>
			<path d="M236.8,332.3h-2.2v-2.2h-0.1c-0.9,1.7-2.4,2.5-4.3,2.5c-3.3,0-5-2-5-6v-8.4h2.2v8c0,3,1.1,4.4,3.4,4.4
				c1.1,0,2-0.4,2.7-1.2s1.1-1.9,1.1-3.2v-8.1h2.2V332.3z"/>
			<path d="M248.7,320.6c-0.4-0.3-1-0.5-1.7-0.5c-1,0-1.8,0.5-2.4,1.4s-1,2.1-1,3.7v7.1h-2.2v-14h2.2v2.9h0.1c0.3-1,0.8-1.8,1.5-2.3
				c0.7-0.6,1.4-0.8,2.2-0.8c0.6,0,1,0.1,1.3,0.2V320.6z"/>
			<path d="M257.6,332.2c-0.5,0.3-1.2,0.4-2.1,0.4c-2.5,0-3.7-1.4-3.7-4.1v-8.3h-2.4v-1.9h2.4v-3.4l2.2-0.7v4.1h3.5v1.9h-3.5v7.9
				c0,0.9,0.2,1.6,0.5,2c0.3,0.4,0.8,0.6,1.6,0.6c0.6,0,1.1-0.2,1.5-0.5V332.2z"/>
			<path d="M271.9,332.3h-2.2v-2.2h-0.1c-0.9,1.7-2.4,2.5-4.3,2.5c-3.3,0-5-2-5-6v-8.4h2.2v8c0,3,1.1,4.4,3.4,4.4
				c1.1,0,2-0.4,2.7-1.2s1.1-1.9,1.1-3.2v-8.1h2.2V332.3z"/>
			<path d="M283.7,320.6c-0.4-0.3-1-0.5-1.7-0.5c-1,0-1.8,0.5-2.4,1.4s-1,2.1-1,3.7v7.1h-2.2v-14h2.2v2.9h0.1c0.3-1,0.8-1.8,1.5-2.3
				c0.7-0.6,1.4-0.8,2.2-0.8c0.6,0,1,0.1,1.3,0.2V320.6z"/>
			<path d="M297.4,325.8h-9.9c0,1.6,0.5,2.8,1.3,3.6s1.9,1.3,3.3,1.3c1.6,0,3-0.5,4.3-1.6v2.1c-1.2,0.9-2.9,1.3-4.9,1.3
				c-2,0-3.5-0.6-4.7-1.9s-1.7-3.1-1.7-5.4c0-2.2,0.6-4,1.9-5.3c1.2-1.4,2.8-2.1,4.6-2.1s3.2,0.6,4.3,1.8c1,1.2,1.5,2.8,1.5,4.9
				V325.8z M295.1,323.9c0-1.3-0.3-2.3-0.9-3c-0.6-0.7-1.5-1.1-2.6-1.1c-1.1,0-2,0.4-2.7,1.1c-0.7,0.8-1.2,1.7-1.4,3H295.1z"/>
			<path d="M315.8,320.6c-0.4-0.3-1-0.5-1.7-0.5c-1,0-1.8,0.5-2.4,1.4s-1,2.1-1,3.7v7.1h-2.2v-14h2.2v2.9h0.1c0.3-1,0.8-1.8,1.5-2.3
				c0.7-0.6,1.4-0.8,2.2-0.8c0.6,0,1,0.1,1.3,0.2V320.6z"/>
			<path d="M329.5,325.8h-9.9c0,1.6,0.5,2.8,1.3,3.6s1.9,1.3,3.3,1.3c1.6,0,3-0.5,4.3-1.6v2.1c-1.2,0.9-2.9,1.3-4.9,1.3
				c-2,0-3.5-0.6-4.7-1.9s-1.7-3.1-1.7-5.4c0-2.2,0.6-4,1.9-5.3c1.2-1.4,2.8-2.1,4.6-2.1s3.2,0.6,4.3,1.8c1,1.2,1.5,2.8,1.5,4.9
				V325.8z M327.2,323.9c0-1.3-0.3-2.3-0.9-3c-0.6-0.7-1.5-1.1-2.6-1.1c-1.1,0-2,0.4-2.7,1.1c-0.7,0.8-1.2,1.7-1.4,3H327.2z"/>
			<path d="M335.1,332.3h-2.2v-20.7h2.2V332.3z"/>
			<path d="M349.7,332.3h-2.2v-2.2h-0.1c-1,1.7-2.4,2.5-4.3,2.5c-1.4,0-2.5-0.4-3.3-1.1s-1.2-1.7-1.2-2.9c0-2.6,1.5-4.1,4.6-4.6
				l4.2-0.6c0-2.4-1-3.6-2.9-3.6c-1.7,0-3.2,0.6-4.6,1.7v-2.3c1.4-0.9,3-1.3,4.8-1.3c3.3,0,4.9,1.7,4.9,5.2V332.3z M347.4,325.2
				l-3.4,0.5c-1,0.1-1.8,0.4-2.4,0.8s-0.8,1-0.8,2c0,0.7,0.2,1.2,0.7,1.7c0.5,0.4,1.1,0.6,1.9,0.6c1.1,0,2-0.4,2.8-1.2
				s1.1-1.8,1.1-3V325.2z"/>
			<path d="M360.4,332.2c-0.5,0.3-1.2,0.4-2.1,0.4c-2.5,0-3.7-1.4-3.7-4.1v-8.3h-2.4v-1.9h2.4v-3.4l2.2-0.7v4.1h3.5v1.9h-3.5v7.9
				c0,0.9,0.2,1.6,0.5,2c0.3,0.4,0.8,0.6,1.6,0.6c0.6,0,1.1-0.2,1.5-0.5V332.2z"/>
			<path d="M364.5,314.7c-0.4,0-0.7-0.1-1-0.4s-0.4-0.6-0.4-1c0-0.4,0.1-0.8,0.4-1c0.3-0.3,0.6-0.4,1-0.4c0.4,0,0.8,0.1,1,0.4
				c0.3,0.3,0.4,0.6,0.4,1c0,0.4-0.1,0.7-0.4,1C365.3,314.6,364.9,314.7,364.5,314.7z M365.6,332.3h-2.2v-14h2.2V332.3z"/>
			<path d="M376,332.6c-2.1,0-3.7-0.7-5-2c-1.2-1.3-1.9-3-1.9-5.2c0-2.4,0.6-4.2,1.9-5.5c1.3-1.3,3-2,5.2-2c2.1,0,3.7,0.6,4.9,1.9
				s1.8,3.1,1.8,5.3c0,2.2-0.6,4-1.9,5.4C379.8,331.9,378.1,332.6,376,332.6z M376.2,319.8c-1.4,0-2.6,0.5-3.4,1.5
				c-0.8,1-1.3,2.3-1.3,4.1c0,1.7,0.4,3,1.3,3.9s2,1.4,3.4,1.4c1.4,0,2.6-0.5,3.3-1.4c0.8-0.9,1.2-2.3,1.2-4c0-1.8-0.4-3.1-1.2-4
				C378.7,320.3,377.6,319.8,376.2,319.8z"/>
			<path d="M398.2,332.3h-2.2v-8c0-3-1.1-4.5-3.3-4.5c-1.1,0-2,0.4-2.8,1.3c-0.7,0.8-1.1,1.9-1.1,3.2v8h-2.2v-14h2.2v2.3h0.1
				c1.1-1.8,2.6-2.7,4.6-2.7c1.5,0,2.7,0.5,3.5,1.5c0.8,1,1.2,2.4,1.2,4.3V332.3z"/>
			<path d="M401.6,331.8v-2.4c1.2,0.9,2.6,1.4,4,1.4c2,0,3-0.7,3-2c0-0.4-0.1-0.7-0.3-0.9s-0.4-0.5-0.7-0.7c-0.3-0.2-0.6-0.4-1-0.5
				c-0.4-0.2-0.8-0.3-1.3-0.5c-0.6-0.2-1.2-0.5-1.6-0.7c-0.5-0.3-0.9-0.5-1.2-0.8s-0.6-0.7-0.7-1.1c-0.2-0.4-0.2-0.9-0.2-1.4
				c0-0.7,0.2-1.2,0.5-1.7s0.7-0.9,1.2-1.3s1.1-0.6,1.7-0.8c0.6-0.2,1.3-0.3,2-0.3c1.2,0,2.3,0.2,3.3,0.6v2.3c-1-0.7-2.2-1-3.6-1
				c-0.4,0-0.8,0-1.1,0.1s-0.6,0.2-0.9,0.4c-0.2,0.2-0.4,0.4-0.6,0.6c-0.1,0.2-0.2,0.5-0.2,0.8c0,0.4,0.1,0.7,0.2,0.9
				s0.3,0.5,0.6,0.7s0.6,0.4,0.9,0.5c0.4,0.2,0.8,0.3,1.2,0.5c0.6,0.2,1.2,0.5,1.7,0.7c0.5,0.2,0.9,0.5,1.3,0.8s0.6,0.7,0.8,1.1
				s0.3,0.9,0.3,1.5c0,0.7-0.2,1.3-0.5,1.8c-0.3,0.5-0.7,0.9-1.2,1.3c-0.5,0.3-1.1,0.6-1.8,0.8s-1.4,0.2-2.1,0.2
				C403.9,332.6,402.6,332.3,401.6,331.8z"/>
			<path d="M425.9,332.3h-2.2v-8.1c0-2.9-1.1-4.4-3.3-4.4c-1.1,0-2,0.4-2.8,1.3c-0.7,0.8-1.1,1.9-1.1,3.2v7.9h-2.2v-20.7h2.2v9.1
				h0.1c1.1-1.8,2.6-2.7,4.6-2.7c3.2,0,4.7,1.9,4.7,5.7V332.3z"/>
			<path d="M431.3,314.7c-0.4,0-0.7-0.1-1-0.4s-0.4-0.6-0.4-1c0-0.4,0.1-0.8,0.4-1c0.3-0.3,0.6-0.4,1-0.4c0.4,0,0.8,0.1,1,0.4
				c0.3,0.3,0.4,0.6,0.4,1c0,0.4-0.1,0.7-0.4,1C432,314.6,431.7,314.7,431.3,314.7z M432.4,332.3h-2.2v-14h2.2V332.3z"/>
			<path d="M439.2,330.3L439.2,330.3l-0.1,8.5h-2.2v-20.4h2.2v2.5h0.1c1.1-1.9,2.7-2.8,4.8-2.8c1.8,0,3.2,0.6,4.2,1.9
				c1,1.3,1.5,2.9,1.5,5c0,2.3-0.6,4.2-1.7,5.6s-2.7,2.1-4.7,2.1C441.6,332.6,440.2,331.8,439.2,330.3z M439.2,324.6v2
				c0,1.2,0.4,2.1,1.1,2.9s1.7,1.2,2.9,1.2c1.4,0,2.4-0.5,3.2-1.6s1.2-2.5,1.2-4.3c0-1.6-0.4-2.8-1.1-3.7c-0.7-0.9-1.7-1.3-2.9-1.3
				c-1.3,0-2.4,0.5-3.1,1.4C439.6,322.1,439.2,323.3,439.2,324.6z"/>
			<path d="M452.5,331.8v-2.4c1.2,0.9,2.6,1.4,4,1.4c2,0,3-0.7,3-2c0-0.4-0.1-0.7-0.3-0.9s-0.4-0.5-0.7-0.7c-0.3-0.2-0.6-0.4-1-0.5
				c-0.4-0.2-0.8-0.3-1.3-0.5c-0.6-0.2-1.2-0.5-1.6-0.7c-0.5-0.3-0.9-0.5-1.2-0.8s-0.6-0.7-0.7-1.1c-0.2-0.4-0.2-0.9-0.2-1.4
				c0-0.7,0.2-1.2,0.5-1.7s0.7-0.9,1.2-1.3s1.1-0.6,1.7-0.8c0.6-0.2,1.3-0.3,2-0.3c1.2,0,2.3,0.2,3.3,0.6v2.3c-1-0.7-2.2-1-3.6-1
				c-0.4,0-0.8,0-1.1,0.1s-0.6,0.2-0.9,0.4c-0.2,0.2-0.4,0.4-0.6,0.6c-0.1,0.2-0.2,0.5-0.2,0.8c0,0.4,0.1,0.7,0.2,0.9
				s0.3,0.5,0.6,0.7s0.6,0.4,0.9,0.5c0.4,0.2,0.8,0.3,1.2,0.5c0.6,0.2,1.2,0.5,1.7,0.7c0.5,0.2,0.9,0.5,1.3,0.8s0.6,0.7,0.8,1.1
				s0.3,0.9,0.3,1.5c0,0.7-0.2,1.3-0.5,1.8c-0.3,0.5-0.7,0.9-1.2,1.3c-0.5,0.3-1.1,0.6-1.8,0.8s-1.4,0.2-2.1,0.2
				C454.8,332.6,453.6,332.3,452.5,331.8z"/>
			<path d="M467.3,329.2l-2.2,6.7h-1.6l1.6-6.7H467.3z"/>
			<path d="M485.5,332.2c-0.5,0.3-1.2,0.4-2.1,0.4c-2.5,0-3.7-1.4-3.7-4.1v-8.3h-2.4v-1.9h2.4v-3.4l2.2-0.7v4.1h3.5v1.9H482v7.9
				c0,0.9,0.2,1.6,0.5,2c0.3,0.4,0.8,0.6,1.6,0.6c0.6,0,1.1-0.2,1.5-0.5V332.2z"/>
			<path d="M494.3,332.6c-2.1,0-3.7-0.7-5-2c-1.2-1.3-1.9-3-1.9-5.2c0-2.4,0.6-4.2,1.9-5.5c1.3-1.3,3-2,5.2-2c2.1,0,3.7,0.6,4.9,1.9
				s1.8,3.1,1.8,5.3c0,2.2-0.6,4-1.9,5.4C498.2,331.9,496.5,332.6,494.3,332.6z M494.5,319.8c-1.4,0-2.6,0.5-3.4,1.5
				c-0.8,1-1.3,2.3-1.3,4.1c0,1.7,0.4,3,1.3,3.9s2,1.4,3.4,1.4c1.4,0,2.6-0.5,3.3-1.4c0.8-0.9,1.2-2.3,1.2-4c0-1.8-0.4-3.1-1.2-4
				C497.1,320.3,496,319.8,494.5,319.8z"/>
			<path d="M514.9,330.3L514.9,330.3l-0.1,8.5h-2.2v-20.4h2.2v2.5h0.1c1.1-1.9,2.7-2.8,4.8-2.8c1.8,0,3.2,0.6,4.2,1.9
				c1,1.3,1.5,2.9,1.5,5c0,2.3-0.6,4.2-1.7,5.6s-2.7,2.1-4.7,2.1C517.2,332.6,515.8,331.8,514.9,330.3z M514.8,324.6v2
				c0,1.2,0.4,2.1,1.1,2.9s1.7,1.2,2.9,1.2c1.4,0,2.4-0.5,3.2-1.6s1.2-2.5,1.2-4.3c0-1.6-0.4-2.8-1.1-3.7c-0.7-0.9-1.7-1.3-2.9-1.3
				c-1.3,0-2.4,0.5-3.1,1.4C515.2,322.1,514.8,323.3,514.8,324.6z"/>
			<path d="M536.3,320.6c-0.4-0.3-1-0.5-1.7-0.5c-1,0-1.8,0.5-2.4,1.4s-1,2.1-1,3.7v7.1H529v-14h2.2v2.9h0.1c0.3-1,0.8-1.8,1.5-2.3
				c0.7-0.6,1.4-0.8,2.2-0.8c0.6,0,1,0.1,1.3,0.2V320.6z"/>
			<path d="M548.8,332.3h-2.2v-2.2h-0.1c-1,1.7-2.4,2.5-4.3,2.5c-1.4,0-2.5-0.4-3.3-1.1s-1.2-1.7-1.2-2.9c0-2.6,1.5-4.1,4.6-4.6
				l4.2-0.6c0-2.4-1-3.6-2.9-3.6c-1.7,0-3.2,0.6-4.6,1.7v-2.3c1.4-0.9,3-1.3,4.8-1.3c3.3,0,4.9,1.7,4.9,5.2V332.3z M546.5,325.2
				l-3.4,0.5c-1,0.1-1.8,0.4-2.4,0.8s-0.8,1-0.8,2c0,0.7,0.2,1.2,0.7,1.7c0.5,0.4,1.1,0.6,1.9,0.6c1.1,0,2-0.4,2.8-1.2
				s1.1-1.8,1.1-3V325.2z"/>
			<path d="M562.5,331.6c-1.1,0.6-2.4,1-3.8,1c-2,0-3.6-0.6-4.8-1.9s-1.8-3-1.8-5.1c0-2.3,0.7-4.2,2-5.6c1.3-1.4,3.1-2.1,5.3-2.1
				c1.2,0,2.3,0.2,3.3,0.7v2.3c-1-0.7-2.2-1.1-3.3-1.1c-1.4,0-2.6,0.5-3.5,1.5s-1.4,2.4-1.4,4c0,1.6,0.4,2.9,1.3,3.9
				c0.9,0.9,2,1.4,3.5,1.4c1.2,0,2.4-0.4,3.4-1.2V331.6z"/>
			<path d="M572.4,332.2c-0.5,0.3-1.2,0.4-2.1,0.4c-2.5,0-3.7-1.4-3.7-4.1v-8.3h-2.4v-1.9h2.4v-3.4l2.2-0.7v4.1h3.5v1.9h-3.5v7.9
				c0,0.9,0.2,1.6,0.5,2c0.3,0.4,0.8,0.6,1.6,0.6c0.6,0,1.1-0.2,1.5-0.5V332.2z"/>
			<path d="M576.6,314.7c-0.4,0-0.7-0.1-1-0.4s-0.4-0.6-0.4-1c0-0.4,0.1-0.8,0.4-1c0.3-0.3,0.6-0.4,1-0.4c0.4,0,0.8,0.1,1,0.4
				c0.3,0.3,0.4,0.6,0.4,1c0,0.4-0.1,0.7-0.4,1C577.3,314.6,577,314.7,576.6,314.7z M577.7,332.3h-2.2v-14h2.2V332.3z"/>
			<path d="M591.8,331.6c-1.1,0.6-2.4,1-3.8,1c-2,0-3.6-0.6-4.8-1.9s-1.8-3-1.8-5.1c0-2.3,0.7-4.2,2-5.6c1.3-1.4,3.1-2.1,5.3-2.1
				c1.2,0,2.3,0.2,3.3,0.7v2.3c-1-0.7-2.2-1.1-3.3-1.1c-1.4,0-2.6,0.5-3.5,1.5s-1.4,2.4-1.4,4c0,1.6,0.4,2.9,1.3,3.9
				c0.9,0.9,2,1.4,3.5,1.4c1.2,0,2.4-0.4,3.4-1.2V331.6z"/>
			<path d="M606.4,325.8h-9.9c0,1.6,0.5,2.8,1.3,3.6s1.9,1.3,3.3,1.3c1.6,0,3-0.5,4.3-1.6v2.1c-1.2,0.9-2.9,1.3-4.9,1.3
				c-2,0-3.5-0.6-4.7-1.9s-1.7-3.1-1.7-5.4c0-2.2,0.6-4,1.9-5.3c1.2-1.4,2.8-2.1,4.6-2.1s3.2,0.6,4.3,1.8c1,1.2,1.5,2.8,1.5,4.9
				V325.8z M604.1,323.9c0-1.3-0.3-2.3-0.9-3c-0.6-0.7-1.5-1.1-2.6-1.1c-1.1,0-2,0.4-2.7,1.1c-0.7,0.8-1.2,1.7-1.4,3H604.1z"/>
			<path d="M153.2,364.8c0,5.1-2.5,7.7-7.4,7.7c-1.7,0-3.2-0.3-4.5-1v-2.2c1.6,0.9,3.1,1.3,4.5,1.3c3.4,0,5.2-1.8,5.2-5.5v-1.5h-0.1
				c-1.1,1.8-2.7,2.7-4.8,2.7c-1.7,0-3.1-0.6-4.2-1.9s-1.6-2.9-1.6-5c0-2.4,0.6-4.3,1.7-5.7c1.1-1.4,2.7-2.1,4.7-2.1
				c1.9,0,3.3,0.8,4.2,2.3h0.1v-1.9h2.2V364.8z M151,359.6v-2.1c0-1.1-0.4-2.1-1.1-2.9s-1.7-1.2-2.8-1.2c-1.4,0-2.5,0.5-3.3,1.5
				c-0.8,1-1.2,2.4-1.2,4.2c0,1.6,0.4,2.8,1.1,3.7c0.8,0.9,1.7,1.4,3,1.4c1.3,0,2.3-0.4,3.1-1.3C150.6,362.1,151,361,151,359.6z"/>
			<path d="M165.1,354.2c-0.4-0.3-1-0.5-1.7-0.5c-1,0-1.8,0.5-2.4,1.4s-1,2.1-1,3.7v7.1h-2.2v-14h2.2v2.9h0.1c0.3-1,0.8-1.8,1.5-2.3
				c0.7-0.6,1.4-0.8,2.2-0.8c0.6,0,1,0.1,1.3,0.2V354.2z"/>
			<path d="M177.5,365.9h-2.2v-2.2h-0.1c-1,1.7-2.4,2.5-4.3,2.5c-1.4,0-2.5-0.4-3.3-1.1s-1.2-1.7-1.2-2.9c0-2.6,1.5-4.1,4.6-4.6
				l4.2-0.6c0-2.4-1-3.6-2.9-3.6c-1.7,0-3.2,0.6-4.6,1.7v-2.3c1.4-0.9,3-1.3,4.8-1.3c3.3,0,4.9,1.7,4.9,5.2V365.9z M175.3,358.8
				l-3.4,0.5c-1,0.1-1.8,0.4-2.4,0.8s-0.8,1-0.8,2c0,0.7,0.2,1.2,0.7,1.7c0.5,0.4,1.1,0.7,1.9,0.7c1.1,0,2-0.4,2.8-1.2
				s1.1-1.8,1.1-3V358.8z"/>
			<path d="M188.2,365.8c-0.5,0.3-1.2,0.4-2.1,0.4c-2.5,0-3.7-1.4-3.7-4.1v-8.3H180v-1.9h2.4v-3.4l2.2-0.7v4.1h3.5v1.9h-3.5v7.9
				c0,0.9,0.2,1.6,0.5,2c0.3,0.4,0.8,0.6,1.6,0.6c0.6,0,1.1-0.2,1.5-0.5V365.8z"/>
			<path d="M202.5,359.4h-9.9c0,1.6,0.5,2.8,1.3,3.6s1.9,1.3,3.3,1.3c1.6,0,3-0.5,4.3-1.6v2.1c-1.2,0.9-2.9,1.3-4.9,1.3
				c-2,0-3.5-0.6-4.7-1.9s-1.7-3.1-1.7-5.4c0-2.2,0.6-4,1.9-5.3c1.2-1.4,2.8-2.1,4.6-2.1s3.2,0.6,4.3,1.8c1,1.2,1.5,2.8,1.5,4.9
				V359.4z M200.2,357.5c0-1.3-0.3-2.3-0.9-3c-0.6-0.7-1.5-1.1-2.6-1.1c-1.1,0-2,0.4-2.7,1.1c-0.7,0.8-1.2,1.7-1.4,3H200.2z"/>
			<path d="M212.8,347.1c-0.4-0.2-0.9-0.4-1.5-0.4c-1.6,0-2.4,1-2.4,3v2.2h3.3v1.9h-3.3v12.1h-2.2v-12.1h-2.4v-1.9h2.4v-2.3
				c0-1.5,0.4-2.6,1.3-3.5c0.8-0.9,1.9-1.3,3.2-1.3c0.7,0,1.2,0.1,1.6,0.2V347.1z"/>
			<path d="M225.9,365.9h-2.2v-2.2h-0.1c-0.9,1.7-2.4,2.5-4.3,2.5c-3.3,0-5-2-5-6v-8.4h2.2v8c0,3,1.1,4.4,3.4,4.4
				c1.1,0,2-0.4,2.7-1.2s1.1-1.9,1.1-3.2v-8.1h2.2V365.9z"/>
			<path d="M232.7,365.9h-2.2v-20.7h2.2V365.9z"/>
			<path d="M248.9,365.9h-2.2v-8c0-3-1.1-4.5-3.3-4.5c-1.1,0-2,0.4-2.8,1.3c-0.7,0.8-1.1,1.9-1.1,3.2v8h-2.2v-14h2.2v2.3h0.1
				c1.1-1.8,2.6-2.7,4.6-2.7c1.5,0,2.7,0.5,3.5,1.5c0.8,1,1.2,2.4,1.2,4.3V365.9z"/>
			<path d="M264.4,359.4h-9.9c0,1.6,0.5,2.8,1.3,3.6s1.9,1.3,3.3,1.3c1.6,0,3-0.5,4.3-1.6v2.1c-1.2,0.9-2.9,1.3-4.9,1.3
				c-2,0-3.5-0.6-4.7-1.9s-1.7-3.1-1.7-5.4c0-2.2,0.6-4,1.9-5.3c1.2-1.4,2.8-2.1,4.6-2.1s3.2,0.6,4.3,1.8c1,1.2,1.5,2.8,1.5,4.9
				V359.4z M262.1,357.5c0-1.3-0.3-2.3-0.9-3c-0.6-0.7-1.5-1.1-2.6-1.1c-1.1,0-2,0.4-2.7,1.1c-0.7,0.8-1.2,1.7-1.4,3H262.1z"/>
			<path d="M266.9,365.4V363c1.2,0.9,2.6,1.4,4,1.4c2,0,3-0.7,3-2c0-0.4-0.1-0.7-0.3-1s-0.4-0.5-0.7-0.7c-0.3-0.2-0.6-0.4-1-0.5
				c-0.4-0.2-0.8-0.3-1.3-0.5c-0.6-0.2-1.2-0.5-1.6-0.7c-0.5-0.2-0.9-0.5-1.2-0.8s-0.6-0.7-0.7-1.1c-0.2-0.4-0.2-0.9-0.2-1.4
				c0-0.7,0.2-1.2,0.5-1.7s0.7-0.9,1.2-1.3s1.1-0.6,1.7-0.8c0.6-0.2,1.3-0.3,2-0.3c1.2,0,2.3,0.2,3.3,0.6v2.3c-1-0.7-2.2-1-3.6-1
				c-0.4,0-0.8,0-1.1,0.1s-0.6,0.2-0.9,0.4c-0.2,0.2-0.4,0.4-0.6,0.6c-0.1,0.2-0.2,0.5-0.2,0.8c0,0.4,0.1,0.7,0.2,0.9
				s0.3,0.5,0.6,0.7s0.6,0.4,0.9,0.5c0.4,0.2,0.8,0.3,1.2,0.5c0.6,0.2,1.2,0.5,1.7,0.7c0.5,0.3,0.9,0.5,1.3,0.8s0.6,0.7,0.8,1.1
				s0.3,0.9,0.3,1.5c0,0.7-0.2,1.3-0.5,1.8c-0.3,0.5-0.7,0.9-1.2,1.3c-0.5,0.3-1.1,0.6-1.8,0.8s-1.4,0.2-2.1,0.2
				C269.2,366.2,268,365.9,266.9,365.4z"/>
			<path d="M278.8,365.4V363c1.2,0.9,2.6,1.4,4,1.4c2,0,3-0.7,3-2c0-0.4-0.1-0.7-0.3-1s-0.4-0.5-0.7-0.7c-0.3-0.2-0.6-0.4-1-0.5
				c-0.4-0.2-0.8-0.3-1.3-0.5c-0.6-0.2-1.2-0.5-1.6-0.7c-0.5-0.2-0.9-0.5-1.2-0.8s-0.6-0.7-0.7-1.1c-0.2-0.4-0.2-0.9-0.2-1.4
				c0-0.7,0.2-1.2,0.5-1.7s0.7-0.9,1.2-1.3s1.1-0.6,1.7-0.8c0.6-0.2,1.3-0.3,2-0.3c1.2,0,2.3,0.2,3.3,0.6v2.3c-1-0.7-2.2-1-3.6-1
				c-0.4,0-0.8,0-1.1,0.1s-0.6,0.2-0.9,0.4c-0.2,0.2-0.4,0.4-0.6,0.6c-0.1,0.2-0.2,0.5-0.2,0.8c0,0.4,0.1,0.7,0.2,0.9
				s0.3,0.5,0.6,0.7s0.6,0.4,0.9,0.5c0.4,0.2,0.8,0.3,1.2,0.5c0.6,0.2,1.2,0.5,1.7,0.7c0.5,0.3,0.9,0.5,1.3,0.8s0.6,0.7,0.8,1.1
				s0.3,0.9,0.3,1.5c0,0.7-0.2,1.3-0.5,1.8c-0.3,0.5-0.7,0.9-1.2,1.3c-0.5,0.3-1.1,0.6-1.8,0.8s-1.4,0.2-2.1,0.2
				C281.1,366.2,279.8,365.9,278.8,365.4z"/>
			<path d="M309.2,365.9H307v-2.2h-0.1c-1,1.7-2.4,2.5-4.3,2.5c-1.4,0-2.5-0.4-3.3-1.1s-1.2-1.7-1.2-2.9c0-2.6,1.5-4.1,4.6-4.6
				l4.2-0.6c0-2.4-1-3.6-2.9-3.6c-1.7,0-3.2,0.6-4.6,1.7v-2.3c1.4-0.9,3-1.3,4.8-1.3c3.3,0,4.9,1.7,4.9,5.2V365.9z M307,358.8
				l-3.4,0.5c-1,0.1-1.8,0.4-2.4,0.8s-0.8,1-0.8,2c0,0.7,0.2,1.2,0.7,1.7c0.5,0.4,1.1,0.7,1.9,0.7c1.1,0,2-0.4,2.8-1.2
				s1.1-1.8,1.1-3V358.8z"/>
			<path d="M325,365.9h-2.2v-8c0-3-1.1-4.5-3.3-4.5c-1.1,0-2,0.4-2.8,1.3c-0.7,0.8-1.1,1.9-1.1,3.2v8h-2.2v-14h2.2v2.3h0.1
				c1.1-1.8,2.6-2.7,4.6-2.7c1.5,0,2.7,0.5,3.5,1.5c0.8,1,1.2,2.4,1.2,4.3V365.9z"/>
			<path d="M341.2,365.9H339v-2.4h-0.1c-1,1.8-2.6,2.7-4.8,2.7c-1.8,0-3.2-0.6-4.2-1.9c-1.1-1.3-1.6-3-1.6-5.1
				c0-2.3,0.6-4.2,1.8-5.6s2.7-2.1,4.7-2.1c1.9,0,3.3,0.8,4.2,2.3h0.1v-8.7h2.2V365.9z M339,359.6v-2.1c0-1.1-0.4-2.1-1.1-2.9
				c-0.7-0.8-1.7-1.2-2.8-1.2c-1.4,0-2.4,0.5-3.2,1.5c-0.8,1-1.2,2.4-1.2,4.2c0,1.6,0.4,2.9,1.1,3.8c0.8,0.9,1.8,1.4,3,1.4
				c1.2,0,2.3-0.5,3-1.4S339,360.9,339,359.6z"/>
			<path d="M359.9,365.8c-0.5,0.3-1.2,0.4-2.1,0.4c-2.5,0-3.7-1.4-3.7-4.1v-8.3h-2.4v-1.9h2.4v-3.4l2.2-0.7v4.1h3.5v1.9h-3.5v7.9
				c0,0.9,0.2,1.6,0.5,2c0.3,0.4,0.8,0.6,1.6,0.6c0.6,0,1.1-0.2,1.5-0.5V365.8z"/>
			<path d="M368.8,366.2c-2.1,0-3.7-0.7-5-2c-1.2-1.3-1.9-3-1.9-5.2c0-2.4,0.6-4.2,1.9-5.5c1.3-1.3,3-2,5.2-2c2.1,0,3.7,0.6,4.9,1.9
				s1.8,3.1,1.8,5.3c0,2.2-0.6,4-1.9,5.4C372.6,365.5,370.9,366.2,368.8,366.2z M368.9,353.4c-1.4,0-2.6,0.5-3.4,1.5
				c-0.8,1-1.3,2.3-1.3,4.1c0,1.7,0.4,3,1.3,3.9s2,1.4,3.4,1.4c1.4,0,2.6-0.5,3.3-1.4c0.8-0.9,1.2-2.3,1.2-4c0-1.8-0.4-3.1-1.2-4
				C371.5,353.9,370.4,353.4,368.9,353.4z"/>
			<path d="M386.1,365.4V363c1.2,0.9,2.6,1.4,4,1.4c2,0,3-0.7,3-2c0-0.4-0.1-0.7-0.3-1s-0.4-0.5-0.7-0.7c-0.3-0.2-0.6-0.4-1-0.5
				c-0.4-0.2-0.8-0.3-1.3-0.5c-0.6-0.2-1.2-0.5-1.6-0.7c-0.5-0.2-0.9-0.5-1.2-0.8s-0.6-0.7-0.7-1.1c-0.2-0.4-0.2-0.9-0.2-1.4
				c0-0.7,0.2-1.2,0.5-1.7s0.7-0.9,1.2-1.3s1.1-0.6,1.7-0.8c0.6-0.2,1.3-0.3,2-0.3c1.2,0,2.3,0.2,3.3,0.6v2.3c-1-0.7-2.2-1-3.6-1
				c-0.4,0-0.8,0-1.1,0.1s-0.6,0.2-0.9,0.4c-0.2,0.2-0.4,0.4-0.6,0.6c-0.1,0.2-0.2,0.5-0.2,0.8c0,0.4,0.1,0.7,0.2,0.9
				s0.3,0.5,0.6,0.7s0.6,0.4,0.9,0.5c0.4,0.2,0.8,0.3,1.2,0.5c0.6,0.2,1.2,0.5,1.7,0.7c0.5,0.3,0.9,0.5,1.3,0.8s0.6,0.7,0.8,1.1
				s0.3,0.9,0.3,1.5c0,0.7-0.2,1.3-0.5,1.8c-0.3,0.5-0.7,0.9-1.2,1.3c-0.5,0.3-1.1,0.6-1.8,0.8s-1.4,0.2-2.1,0.2
				C388.4,366.2,387.2,365.9,386.1,365.4z"/>
			<path d="M410.1,359.4h-9.9c0,1.6,0.5,2.8,1.3,3.6s1.9,1.3,3.3,1.3c1.6,0,3-0.5,4.3-1.6v2.1c-1.2,0.9-2.9,1.3-4.9,1.3
				c-2,0-3.5-0.6-4.7-1.9s-1.7-3.1-1.7-5.4c0-2.2,0.6-4,1.9-5.3c1.2-1.4,2.8-2.1,4.6-2.1s3.2,0.6,4.3,1.8c1,1.2,1.5,2.8,1.5,4.9
				V359.4z M407.8,357.5c0-1.3-0.3-2.3-0.9-3c-0.6-0.7-1.5-1.1-2.6-1.1c-1.1,0-2,0.4-2.7,1.1c-0.7,0.8-1.2,1.7-1.4,3H407.8z"/>
			<path d="M420.8,354.2c-0.4-0.3-1-0.5-1.7-0.5c-1,0-1.8,0.5-2.4,1.4s-1,2.1-1,3.7v7.1h-2.2v-14h2.2v2.9h0.1c0.3-1,0.8-1.8,1.5-2.3
				c0.7-0.6,1.4-0.8,2.2-0.8c0.6,0,1,0.1,1.3,0.2V354.2z"/>
			<path d="M434.3,351.9l-5.6,14h-2.2l-5.3-14h2.5l3.6,10.2c0.3,0.7,0.4,1.4,0.5,2h0.1c0.1-0.7,0.2-1.3,0.4-1.9l3.7-10.2H434.3z"/>
			<path d="M447.9,359.4H438c0,1.6,0.5,2.8,1.3,3.6s1.9,1.3,3.3,1.3c1.6,0,3-0.5,4.3-1.6v2.1c-1.2,0.9-2.9,1.3-4.9,1.3
				c-2,0-3.5-0.6-4.7-1.9s-1.7-3.1-1.7-5.4c0-2.2,0.6-4,1.9-5.3c1.2-1.4,2.8-2.1,4.6-2.1s3.2,0.6,4.3,1.8c1,1.2,1.5,2.8,1.5,4.9
				V359.4z M445.6,357.5c0-1.3-0.3-2.3-0.9-3c-0.6-0.7-1.5-1.1-2.6-1.1c-1.1,0-2,0.4-2.7,1.1c-0.7,0.8-1.2,1.7-1.4,3H445.6z"/>
			<path d="M469,365.9h-2.2v-2.2h-0.1c-1,1.7-2.4,2.5-4.3,2.5c-1.4,0-2.5-0.4-3.3-1.1s-1.2-1.7-1.2-2.9c0-2.6,1.5-4.1,4.6-4.6
				l4.2-0.6c0-2.4-1-3.6-2.9-3.6c-1.7,0-3.2,0.6-4.6,1.7v-2.3c1.4-0.9,3-1.3,4.8-1.3c3.3,0,4.9,1.7,4.9,5.2V365.9z M466.7,358.8
				l-3.4,0.5c-1,0.1-1.8,0.4-2.4,0.8s-0.8,1-0.8,2c0,0.7,0.2,1.2,0.7,1.7c0.5,0.4,1.1,0.7,1.9,0.7c1.1,0,2-0.4,2.8-1.2
				s1.1-1.8,1.1-3V358.8z"/>
			<path d="M484.8,365.9h-2.2v-8c0-3-1.1-4.5-3.3-4.5c-1.1,0-2,0.4-2.8,1.3c-0.7,0.8-1.1,1.9-1.1,3.2v8h-2.2v-14h2.2v2.3h0.1
				c1.1-1.8,2.6-2.7,4.6-2.7c1.5,0,2.7,0.5,3.5,1.5c0.8,1,1.2,2.4,1.2,4.3V365.9z"/>
			<path d="M501,365.9h-2.2v-2.4h-0.1c-1,1.8-2.6,2.7-4.8,2.7c-1.8,0-3.2-0.6-4.2-1.9c-1.1-1.3-1.6-3-1.6-5.1c0-2.3,0.6-4.2,1.8-5.6
				s2.7-2.1,4.7-2.1c1.9,0,3.3,0.8,4.2,2.3h0.1v-8.7h2.2V365.9z M498.8,359.6v-2.1c0-1.1-0.4-2.1-1.1-2.9c-0.7-0.8-1.7-1.2-2.8-1.2
				c-1.4,0-2.4,0.5-3.2,1.5c-0.8,1-1.2,2.4-1.2,4.2c0,1.6,0.4,2.9,1.1,3.8c0.8,0.9,1.8,1.4,3,1.4c1.2,0,2.3-0.5,3-1.4
				S498.8,360.9,498.8,359.6z"/>
			<path d="M515.1,365.2c-1.1,0.6-2.4,1-3.8,1c-2,0-3.6-0.7-4.8-1.9s-1.8-3-1.8-5.1c0-2.3,0.7-4.2,2-5.6c1.3-1.4,3.1-2.1,5.3-2.1
				c1.2,0,2.3,0.2,3.3,0.7v2.3c-1-0.7-2.2-1.1-3.3-1.1c-1.4,0-2.6,0.5-3.5,1.5s-1.4,2.4-1.4,4c0,1.6,0.4,2.9,1.3,3.9
				c0.9,0.9,2,1.4,3.5,1.4c1.2,0,2.4-0.4,3.4-1.2V365.2z"/>
			<path d="M524.3,366.2c-2.1,0-3.7-0.7-5-2c-1.2-1.3-1.9-3-1.9-5.2c0-2.4,0.6-4.2,1.9-5.5c1.3-1.3,3-2,5.2-2c2.1,0,3.7,0.6,4.9,1.9
				s1.8,3.1,1.8,5.3c0,2.2-0.6,4-1.9,5.4C528.2,365.5,526.5,366.2,524.3,366.2z M524.5,353.4c-1.4,0-2.6,0.5-3.4,1.5
				c-0.8,1-1.3,2.3-1.3,4.1c0,1.7,0.4,3,1.3,3.9s2,1.4,3.4,1.4c1.4,0,2.6-0.5,3.3-1.4c0.8-0.9,1.2-2.3,1.2-4c0-1.8-0.4-3.1-1.2-4
				C527.1,353.9,525.9,353.4,524.5,353.4z"/>
			<path d="M554.8,365.9h-2.2v-8c0-1.6-0.2-2.7-0.7-3.4c-0.5-0.7-1.3-1-2.4-1c-1,0-1.8,0.4-2.4,1.3s-1,1.9-1,3.1v8h-2.2v-8.3
				c0-2.8-1.1-4.1-3.2-4.1c-1,0-1.8,0.4-2.4,1.2c-0.6,0.8-1,1.9-1,3.2v8h-2.2v-14h2.2v2.2h0.1c1-1.7,2.4-2.5,4.3-2.5
				c1,0,1.8,0.3,2.5,0.8s1.2,1.2,1.5,2.1c1-1.9,2.6-2.9,4.6-2.9c3.1,0,4.6,1.9,4.6,5.7V365.9z"/>
			<path d="M578.9,365.9h-2.2v-8c0-1.6-0.2-2.7-0.7-3.4c-0.5-0.7-1.3-1-2.4-1c-1,0-1.8,0.4-2.4,1.3s-1,1.9-1,3.1v8h-2.2v-8.3
				c0-2.8-1.1-4.1-3.2-4.1c-1,0-1.8,0.4-2.4,1.2c-0.6,0.8-1,1.9-1,3.2v8H559v-14h2.2v2.2h0.1c1-1.7,2.4-2.5,4.3-2.5
				c1,0,1.8,0.3,2.5,0.8s1.2,1.2,1.5,2.1c1-1.9,2.6-2.9,4.6-2.9c3.1,0,4.6,1.9,4.6,5.7V365.9z"/>
			<path d="M594.4,365.9h-2.2v-2.2h-0.1c-0.9,1.7-2.4,2.5-4.3,2.5c-3.3,0-5-2-5-6v-8.4h2.2v8c0,3,1.1,4.4,3.4,4.4
				c1.1,0,2-0.4,2.7-1.2s1.1-1.9,1.1-3.2v-8.1h2.2V365.9z"/>
			<path d="M610.6,365.9h-2.2v-8c0-3-1.1-4.5-3.3-4.5c-1.1,0-2,0.4-2.8,1.3c-0.7,0.8-1.1,1.9-1.1,3.2v8H599v-14h2.2v2.3h0.1
				c1.1-1.8,2.6-2.7,4.6-2.7c1.5,0,2.7,0.5,3.5,1.5c0.8,1,1.2,2.4,1.2,4.3V365.9z"/>
			<path d="M616,348.3c-0.4,0-0.7-0.1-1-0.4s-0.4-0.6-0.4-1c0-0.4,0.1-0.8,0.4-1c0.3-0.3,0.6-0.4,1-0.4c0.4,0,0.8,0.1,1,0.4
				c0.3,0.3,0.4,0.6,0.4,1c0,0.4-0.1,0.7-0.4,1C616.7,348.2,616.4,348.3,616,348.3z M617.1,365.9h-2.2v-14h2.2V365.9z"/>
			<path d="M628.1,365.8c-0.5,0.3-1.2,0.4-2.1,0.4c-2.5,0-3.7-1.4-3.7-4.1v-8.3h-2.4v-1.9h2.4v-3.4l2.2-0.7v4.1h3.5v1.9h-3.5v7.9
				c0,0.9,0.2,1.6,0.5,2c0.3,0.4,0.8,0.6,1.6,0.6c0.6,0,1.1-0.2,1.5-0.5V365.8z"/>
			<path d="M642.2,351.9l-6.4,16.2c-1.1,2.9-2.8,4.3-4.8,4.3c-0.6,0-1.1-0.1-1.5-0.2v-2c0.5,0.2,0.9,0.2,1.3,0.2c1.1,0,2-0.7,2.5-2
				l1.1-2.7l-5.5-14h2.5l3.8,10.8c0,0.1,0.1,0.5,0.3,1.1h0.1c0-0.2,0.1-0.6,0.3-1l4-10.8H642.2z"/>
			<path d="M240.3,385.5l-4.2,14h-2.3l-2.9-10c-0.1-0.4-0.2-0.8-0.2-1.3h-0.1c0,0.3-0.1,0.8-0.3,1.3l-3.1,10H225l-4.2-14h2.4
				L226,396c0.1,0.3,0.2,0.7,0.2,1.3h0.1c0-0.4,0.1-0.8,0.2-1.3l3.2-10.5h2.1l2.9,10.6c0.1,0.3,0.2,0.8,0.2,1.3h0.1
				c0-0.4,0.1-0.8,0.2-1.3l2.8-10.6H240.3z"/>
			<path d="M244,381.9c-0.4,0-0.7-0.1-1-0.4s-0.4-0.6-0.4-1c0-0.4,0.1-0.8,0.4-1c0.3-0.3,0.6-0.4,1-0.4c0.4,0,0.8,0.1,1,0.4
				c0.3,0.3,0.4,0.6,0.4,1c0,0.4-0.1,0.7-0.4,1C244.8,381.8,244.5,381.9,244,381.9z M245.1,399.5h-2.2v-14h2.2V399.5z"/>
			<path d="M256.2,399.4c-0.5,0.3-1.2,0.4-2.1,0.4c-2.5,0-3.7-1.4-3.7-4.1v-8.3H248v-1.9h2.4v-3.4l2.2-0.7v4.1h3.5v1.9h-3.5v7.9
				c0,0.9,0.2,1.6,0.5,2c0.3,0.4,0.8,0.6,1.6,0.6c0.6,0,1.1-0.2,1.5-0.5V399.4z"/>
			<path d="M270.8,399.5h-2.2v-8.1c0-2.9-1.1-4.4-3.3-4.4c-1.1,0-2,0.4-2.8,1.3c-0.7,0.8-1.1,1.9-1.1,3.2v7.9h-2.2v-20.7h2.2v9.1
				h0.1c1.1-1.8,2.6-2.7,4.6-2.7c3.2,0,4.7,1.9,4.7,5.7V399.5z"/>
			<path d="M285,397.5L285,397.5l-0.1,8.5h-2.2v-20.4h2.2v2.5h0.1c1.1-1.9,2.7-2.8,4.8-2.8c1.8,0,3.2,0.6,4.2,1.9
				c1,1.3,1.5,2.9,1.5,5c0,2.3-0.6,4.2-1.7,5.6s-2.7,2.1-4.7,2.1C287.4,399.8,286,399,285,397.5z M284.9,391.8v2
				c0,1.2,0.4,2.1,1.1,2.9s1.7,1.2,2.9,1.2c1.4,0,2.4-0.5,3.2-1.6s1.2-2.5,1.2-4.3c0-1.6-0.4-2.8-1.1-3.7c-0.7-0.9-1.7-1.3-2.9-1.3
				c-1.3,0-2.4,0.5-3.1,1.4C285.3,389.3,284.9,390.5,284.9,391.8z"/>
			<path d="M310.5,399.5h-2.2v-2.2h-0.1c-0.9,1.7-2.4,2.5-4.3,2.5c-3.3,0-5-2-5-6v-8.4h2.2v8c0,3,1.1,4.4,3.4,4.4
				c1.1,0,2-0.4,2.7-1.2s1.1-1.9,1.1-3.2v-8.1h2.2V399.5z"/>
			<path d="M322.3,387.8c-0.4-0.3-1-0.5-1.7-0.5c-1,0-1.8,0.5-2.4,1.4s-1,2.1-1,3.7v7.1H315v-14h2.2v2.9h0.1c0.3-1,0.8-1.8,1.5-2.3
				c0.7-0.6,1.4-0.8,2.2-0.8c0.6,0,1,0.1,1.3,0.2V387.8z"/>
			<path d="M327,397.5L327,397.5l-0.1,8.5h-2.2v-20.4h2.2v2.5h0.1c1.1-1.9,2.7-2.8,4.8-2.8c1.8,0,3.2,0.6,4.2,1.9
				c1,1.3,1.5,2.9,1.5,5c0,2.3-0.6,4.2-1.7,5.6s-2.7,2.1-4.7,2.1C329.4,399.8,328,399,327,397.5z M327,391.8v2
				c0,1.2,0.4,2.1,1.1,2.9s1.7,1.2,2.9,1.2c1.4,0,2.4-0.5,3.2-1.6s1.2-2.5,1.2-4.3c0-1.6-0.4-2.8-1.1-3.7c-0.7-0.9-1.7-1.3-2.9-1.3
				c-1.3,0-2.4,0.5-3.1,1.4C327.4,389.3,327,390.5,327,391.8z"/>
			<path d="M347,399.8c-2.1,0-3.7-0.7-5-2c-1.2-1.3-1.9-3-1.9-5.2c0-2.4,0.6-4.2,1.9-5.5c1.3-1.3,3-2,5.2-2c2.1,0,3.7,0.6,4.9,1.9
				s1.8,3.1,1.8,5.3c0,2.2-0.6,4-1.9,5.4C350.9,399.1,349.2,399.8,347,399.8z M347.2,387c-1.4,0-2.6,0.5-3.4,1.5
				c-0.8,1-1.3,2.3-1.3,4.1c0,1.7,0.4,3,1.3,3.9s2,1.4,3.4,1.4c1.4,0,2.6-0.5,3.3-1.4c0.8-0.9,1.2-2.3,1.2-4c0-1.8-0.4-3.1-1.2-4
				C349.8,387.5,348.7,387,347.2,387z"/>
			<path d="M356.7,399v-2.4c1.2,0.9,2.6,1.4,4,1.4c2,0,3-0.7,3-2c0-0.4-0.1-0.7-0.3-1s-0.4-0.5-0.7-0.7c-0.3-0.2-0.6-0.4-1-0.5
				c-0.4-0.2-0.8-0.3-1.3-0.5c-0.6-0.2-1.2-0.5-1.6-0.7c-0.5-0.2-0.9-0.5-1.2-0.8s-0.6-0.7-0.7-1.1c-0.2-0.4-0.2-0.9-0.2-1.4
				c0-0.7,0.2-1.2,0.5-1.7s0.7-0.9,1.2-1.3s1.1-0.6,1.7-0.8c0.6-0.2,1.3-0.3,2-0.3c1.2,0,2.3,0.2,3.3,0.6v2.3c-1-0.7-2.2-1-3.6-1
				c-0.4,0-0.8,0-1.1,0.1s-0.6,0.2-0.9,0.4c-0.2,0.2-0.4,0.4-0.6,0.6c-0.1,0.2-0.2,0.5-0.2,0.8c0,0.4,0.1,0.7,0.2,0.9
				s0.3,0.5,0.6,0.7s0.6,0.4,0.9,0.5c0.4,0.2,0.8,0.3,1.2,0.5c0.6,0.2,1.2,0.5,1.7,0.7c0.5,0.3,0.9,0.5,1.3,0.8s0.6,0.7,0.8,1.1
				s0.3,0.9,0.3,1.5c0,0.7-0.2,1.3-0.5,1.8c-0.3,0.5-0.7,0.9-1.2,1.3c-0.5,0.3-1.1,0.6-1.8,0.8s-1.4,0.2-2.1,0.2
				C359.1,399.8,357.8,399.5,356.7,399z"/>
			<path d="M380.7,393h-9.9c0,1.6,0.5,2.8,1.3,3.6s1.9,1.3,3.3,1.3c1.6,0,3-0.5,4.3-1.6v2.1c-1.2,0.9-2.9,1.3-4.9,1.3
				c-2,0-3.5-0.6-4.7-1.9s-1.7-3.1-1.7-5.4c0-2.2,0.6-4,1.9-5.3c1.2-1.4,2.8-2.1,4.6-2.1s3.2,0.6,4.3,1.8c1,1.2,1.5,2.8,1.5,4.9V393
				z M378.4,391.1c0-1.3-0.3-2.3-0.9-3c-0.6-0.7-1.5-1.1-2.6-1.1c-1.1,0-2,0.4-2.7,1.1c-0.7,0.8-1.2,1.7-1.4,3H378.4z"/>
			<path d="M401.8,399.5h-2.2v-2.2h-0.1c-1,1.7-2.4,2.5-4.3,2.5c-1.4,0-2.5-0.4-3.3-1.1s-1.2-1.7-1.2-2.9c0-2.6,1.5-4.1,4.6-4.6
				l4.2-0.6c0-2.4-1-3.6-2.9-3.6c-1.7,0-3.2,0.6-4.6,1.7v-2.3c1.4-0.9,3-1.3,4.8-1.3c3.3,0,4.9,1.7,4.9,5.2V399.5z M399.6,392.4
				l-3.4,0.5c-1,0.1-1.8,0.4-2.4,0.8s-0.8,1-0.8,2c0,0.7,0.2,1.2,0.7,1.7c0.5,0.4,1.1,0.7,1.9,0.7c1.1,0,2-0.4,2.8-1.2
				s1.1-1.8,1.1-3V392.4z"/>
			<path d="M417.7,399.5h-2.2v-8c0-3-1.1-4.5-3.3-4.5c-1.1,0-2,0.4-2.8,1.3c-0.7,0.8-1.1,1.9-1.1,3.2v8H406v-14h2.2v2.3h0.1
				c1.1-1.8,2.6-2.7,4.6-2.7c1.5,0,2.7,0.5,3.5,1.5c0.8,1,1.2,2.4,1.2,4.3V399.5z"/>
			<path d="M433.8,399.5h-2.2v-2.4h-0.1c-1,1.8-2.6,2.7-4.8,2.7c-1.8,0-3.2-0.6-4.2-1.9c-1.1-1.3-1.6-3-1.6-5.1
				c0-2.3,0.6-4.2,1.8-5.6s2.7-2.1,4.7-2.1c1.9,0,3.3,0.8,4.2,2.3h0.1v-8.7h2.2V399.5z M431.6,393.2v-2.1c0-1.1-0.4-2.1-1.1-2.9
				c-0.7-0.8-1.7-1.2-2.8-1.2c-1.4,0-2.4,0.5-3.2,1.5c-0.8,1-1.2,2.4-1.2,4.2c0,1.6,0.4,2.9,1.1,3.8c0.8,0.9,1.8,1.4,3,1.4
				c1.2,0,2.3-0.5,3-1.4S431.6,394.5,431.6,393.2z"/>
			<path d="M447.2,381.9c-0.4,0-0.7-0.1-1-0.4s-0.4-0.6-0.4-1c0-0.4,0.1-0.8,0.4-1c0.3-0.3,0.6-0.4,1-0.4c0.4,0,0.8,0.1,1,0.4
				c0.3,0.3,0.4,0.6,0.4,1c0,0.4-0.1,0.7-0.4,1C447.9,381.8,447.6,381.9,447.2,381.9z M448.3,399.5H446v-14h2.2V399.5z"/>
			<path d="M464.4,399.5h-2.2v-8c0-3-1.1-4.5-3.3-4.5c-1.1,0-2,0.4-2.8,1.3c-0.7,0.8-1.1,1.9-1.1,3.2v8h-2.2v-14h2.2v2.3h0.1
				c1.1-1.8,2.6-2.7,4.6-2.7c1.5,0,2.7,0.5,3.5,1.5c0.8,1,1.2,2.4,1.2,4.3V399.5z"/>
			<path d="M475.2,399.4c-0.5,0.3-1.2,0.4-2.1,0.4c-2.5,0-3.7-1.4-3.7-4.1v-8.3H467v-1.9h2.4v-3.4l2.2-0.7v4.1h3.5v1.9h-3.5v7.9
				c0,0.9,0.2,1.6,0.5,2c0.3,0.4,0.8,0.6,1.6,0.6c0.6,0,1.1-0.2,1.5-0.5V399.4z"/>
			<path d="M489.4,393h-9.9c0,1.6,0.5,2.8,1.3,3.6s1.9,1.3,3.3,1.3c1.6,0,3-0.5,4.3-1.6v2.1c-1.2,0.9-2.9,1.3-4.9,1.3
				c-2,0-3.5-0.6-4.7-1.9s-1.7-3.1-1.7-5.4c0-2.2,0.6-4,1.9-5.3c1.2-1.4,2.8-2.1,4.6-2.1s3.2,0.6,4.3,1.8c1,1.2,1.5,2.8,1.5,4.9V393
				z M487.1,391.1c0-1.3-0.3-2.3-0.9-3c-0.6-0.7-1.5-1.1-2.6-1.1c-1.1,0-2,0.4-2.7,1.1c-0.7,0.8-1.2,1.7-1.4,3H487.1z"/>
			<path d="M504.4,399.5h-2.2v-8c0-3-1.1-4.5-3.3-4.5c-1.1,0-2,0.4-2.8,1.3c-0.7,0.8-1.1,1.9-1.1,3.2v8h-2.2v-14h2.2v2.3h0.1
				c1.1-1.8,2.6-2.7,4.6-2.7c1.5,0,2.7,0.5,3.5,1.5c0.8,1,1.2,2.4,1.2,4.3V399.5z"/>
			<path d="M515.1,399.4c-0.5,0.3-1.2,0.4-2.1,0.4c-2.5,0-3.7-1.4-3.7-4.1v-8.3H507v-1.9h2.4v-3.4l2.2-0.7v4.1h3.5v1.9h-3.5v7.9
				c0,0.9,0.2,1.6,0.5,2c0.3,0.4,0.8,0.6,1.6,0.6c0.6,0,1.1-0.2,1.5-0.5V399.4z"/>
			<path d="M519.3,381.9c-0.4,0-0.7-0.1-1-0.4s-0.4-0.6-0.4-1c0-0.4,0.1-0.8,0.4-1c0.3-0.3,0.6-0.4,1-0.4c0.4,0,0.8,0.1,1,0.4
				c0.3,0.3,0.4,0.6,0.4,1c0,0.4-0.1,0.7-0.4,1C520,381.8,519.7,381.9,519.3,381.9z M520.4,399.5h-2.2v-14h2.2V399.5z"/>
			<path d="M530.8,399.8c-2.1,0-3.7-0.7-5-2c-1.2-1.3-1.9-3-1.9-5.2c0-2.4,0.6-4.2,1.9-5.5c1.3-1.3,3-2,5.2-2c2.1,0,3.7,0.6,4.9,1.9
				s1.8,3.1,1.8,5.3c0,2.2-0.6,4-1.9,5.4C534.6,399.1,532.9,399.8,530.8,399.8z M530.9,387c-1.4,0-2.6,0.5-3.4,1.5
				c-0.8,1-1.3,2.3-1.3,4.1c0,1.7,0.4,3,1.3,3.9s2,1.4,3.4,1.4c1.4,0,2.6-0.5,3.3-1.4c0.8-0.9,1.2-2.3,1.2-4c0-1.8-0.4-3.1-1.2-4
				C533.5,387.5,532.4,387,530.9,387z"/>
			<path d="M552.9,399.5h-2.2v-8c0-3-1.1-4.5-3.3-4.5c-1.1,0-2,0.4-2.8,1.3c-0.7,0.8-1.1,1.9-1.1,3.2v8h-2.2v-14h2.2v2.3h0.1
				c1.1-1.8,2.6-2.7,4.6-2.7c1.5,0,2.7,0.5,3.5,1.5c0.8,1,1.2,2.4,1.2,4.3V399.5z"/>
			<path d="M557.9,399.8c-0.4,0-0.8-0.2-1.1-0.5s-0.4-0.7-0.4-1.1c0-0.4,0.1-0.8,0.4-1.1c0.3-0.3,0.7-0.5,1.1-0.5
				c0.4,0,0.8,0.2,1.1,0.5c0.3,0.3,0.5,0.7,0.5,1.1c0,0.4-0.2,0.8-0.5,1.1S558.4,399.8,557.9,399.8z"/>
		</g>
	</g>
</g>
<rect x="57.5" y="168.6" width="675" height="56"/>
<text transform="matrix(1 0 0 1 235.8271 207.0423)" opacity="0.87" fill="#FFFFFF" font-family="'Georgia'" font-size="31px">Vision Statement</text>
</svg>
