<?xml version="1.0" encoding="utf-8"?>
<!-- Generator: Adobe Illustrator 25.2.1, SVG Export Plug-In . SVG Version: 6.00 Build 0)  -->
<svg version="1.1" id="_x30_1" xmlns="http://www.w3.org/2000/svg" xmlns:xlink="http://www.w3.org/1999/xlink" x="0px" y="0px"
	 viewBox="0 0 612 792" style="enable-background:new 0 0 612 792;" xml:space="preserve">
<style type="text/css">
	.st0{opacity:0.25;}
	.st1{clip-path:url(#SVGID_10_);fill:#FFFFFF;}
	.st2{opacity:0.57;clip-path:url(#SVGID_10_);fill:#D0D2D3;}
	.st3{clip-path:url(#SVGID_10_);fill:#00ADEE;}
	.st4{clip-path:url(#SVGID_12_);}
	.st5{font-family:'Georgia-Bold';}
	.st6{font-size:35.3347px;}
	.st7{fill:#00ADEE;}
	.st8{font-size:42.7148px;}
	.st9{display:none;}
	.st10{display:inline;}
	.st11{display:inline;clip-path:url(#SVGID_14_);fill:#36363A;}
	.st12{display:inline;clip-path:url(#SVGID_14_);}
	.st13{display:inline;clip-path:url(#SVGID_14_);fill:#00ADEE;}
	.st14{fill:#36363A;}
	.st15{font-family:'Colaborate-Bold';}
	.st16{font-size:20px;}
	.st17{clip-path:url(#SVGID_18_);fill:#00ADEE;}
	.st18{clip-path:url(#SVGID_26_);fill:#00ADEE;}
	.st19{opacity:0.38;}
	.st20{opacity:0.87;fill:#FFFFFF;}
	.st21{fill:#1E1B1B;}
	.st22{opacity:0.15;fill:#FFFFFF;}
	.st23{fill:#FFFFFF;}
	.st24{opacity:0.3;}
	.st25{opacity:3.000000e-02;fill:#FFFFFF;}
	.st26{opacity:0.74;clip-path:url(#SVGID_34_);fill:#FFFFFF;}
	.st27{clip-path:url(#SVGID_34_);}
	.st28{fill:none;stroke:#000000;stroke-width:3.1849;stroke-miterlimit:10;}
	.st29{opacity:0.74;clip-path:url(#SVGID_38_);fill:#FFFFFF;}
	.st30{clip-path:url(#SVGID_38_);}
	.st31{clip-path:url(#SVGID_40_);fill:#36363A;}
	.st32{fill-rule:evenodd;clip-rule:evenodd;fill:#FFFFFF;}
	.st33{fill:url(#SVGID_43_);}
	.st34{fill:url(#SVGID_44_);}
	.st35{fill:url(#SVGID_45_);}
	.st36{fill:url(#SVGID_46_);}
	.st37{fill:url(#SVGID_47_);}
	.st38{fill-rule:evenodd;clip-rule:evenodd;fill:#36363A;}
	.st39{fill:none;stroke:#36363A;stroke-linecap:round;stroke-miterlimit:10;}
	.st40{clip-path:url(#SVGID_49_);fill:#00ADEE;}
	.st41{clip-path:url(#SVGID_49_);fill:#D0D2D3;}
</style>
<g id="_x32_">
	<defs>
		<rect id="SVGID_9_" x="632.7" y="-0.3" width="611.3" height="792.3"/>
	</defs>
	<clipPath id="SVGID_2_">
		<use xlink:href="#SVGID_9_"  style="overflow:visible;"/>
	</clipPath>
	<ellipse style="opacity:0.57;clip-path:url(#SVGID_2_);fill:#D0D2D3;" cx="632.7" cy="2" rx="206.2" ry="203.3"/>
</g>
<g>
	<defs>
		<rect id="SVGID_11_" y="-0.4" width="612" height="792"/>
	</defs>
	<clipPath id="SVGID_4_">
		<use xlink:href="#SVGID_11_"  style="overflow:visible;"/>
	</clipPath>
	<g style="clip-path:url(#SVGID_4_);">
		
			<image style="overflow:visible;" width="1380" height="920" xlink:href="782E25FB.jpg"  transform="matrix(0 -0.663 0.663 0 0 872.5714)">
		</image>
	</g>
	<g style="clip-path:url(#SVGID_4_);">
		<text transform="matrix(0.9615 0 0 1 61.3301 78.3458)" class="st5 st6">THE Langhofer FAMILY</text>
	</g>
	<g style="clip-path:url(#SVGID_4_);">
		<text transform="matrix(1 0 0 1 64.1045 125.3458)" class="st7 st5 st8">FAMILY HANDBOOK</text>
	</g>
</g>
<g>
	<defs>
		<circle id="SVGID_15_" cx="307" cy="349.9" r="189.2"/>
	</defs>
	<clipPath id="SVGID_6_">
		<use xlink:href="#SVGID_15_"  style="overflow:visible;"/>
	</clipPath>
	<g style="clip-path:url(#SVGID_6_);">
		
			<image style="overflow:visible;" width="5540" height="3693" xlink:href="782E25FE.jpg"  transform="matrix(0.1114 0 0 0.1114 3.0186 140.9932)">
		</image>
	</g>
	<use xlink:href="#SVGID_15_"  style="overflow:visible;fill:none;stroke:#00ADEE;stroke-width:5;stroke-miterlimit:10;"/>
</g>
<rect x="155.4" y="688.3" class="st7" width="301.9" height="2"/>
<g>
	<g>
		<path class="st14" d="M122,595h-4.1v12.8h-1.7V595H112v-1.5h10V595z"/>
		<path class="st14" d="M132.5,607.8h-1.6v-5.9c0-2.1-0.8-3.2-2.4-3.2c-0.8,0-1.5,0.3-2,0.9c-0.5,0.6-0.8,1.4-0.8,2.4v5.8H124v-15.2
			h1.6v6.6h0c0.8-1.3,1.9-1.9,3.4-1.9c2.3,0,3.5,1.4,3.5,4.2V607.8z"/>
		<path class="st14" d="M143.8,603.1h-7.2c0,1.1,0.3,2,0.9,2.6c0.6,0.6,1.4,0.9,2.4,0.9c1.2,0,2.2-0.4,3.2-1.1v1.5
			c-0.9,0.7-2.1,1-3.6,1c-1.4,0-2.6-0.5-3.4-1.4c-0.8-0.9-1.2-2.2-1.2-3.9c0-1.6,0.5-2.9,1.4-3.9c0.9-1,2-1.5,3.4-1.5
			c1.3,0,2.4,0.4,3.1,1.3s1.1,2.1,1.1,3.6V603.1z M142.2,601.7c0-0.9-0.2-1.7-0.7-2.2c-0.5-0.5-1.1-0.8-1.9-0.8
			c-0.8,0-1.4,0.3-2,0.8c-0.5,0.6-0.9,1.3-1,2.2H142.2z"/>
		<path class="st14" d="M166.8,607.8h-1.7v-9.6c0-0.8,0-1.7,0.1-2.8h0c-0.2,0.6-0.3,1.1-0.4,1.4l-4.9,11h-0.8l-4.9-10.9
			c-0.1-0.3-0.3-0.8-0.4-1.5h0c0.1,0.6,0.1,1.5,0.1,2.8v9.6h-1.6v-14.3h2.2l4.4,10c0.3,0.8,0.6,1.3,0.7,1.7h0.1
			c0.3-0.8,0.5-1.4,0.7-1.8l4.5-10h2.1V607.8z"/>
		<path class="st14" d="M174.6,608.1c-1.5,0-2.7-0.5-3.6-1.4c-0.9-1-1.4-2.2-1.4-3.8c0-1.7,0.5-3.1,1.4-4s2.2-1.5,3.8-1.5
			c1.5,0,2.7,0.5,3.6,1.4c0.9,0.9,1.3,2.2,1.3,3.9c0,1.6-0.5,2.9-1.4,3.9S176.2,608.1,174.6,608.1z M174.7,598.7
			c-1.1,0-1.9,0.4-2.5,1.1s-0.9,1.7-0.9,3c0,1.2,0.3,2.2,0.9,2.9s1.5,1,2.5,1c1.1,0,1.9-0.3,2.4-1c0.6-0.7,0.9-1.7,0.9-2.9
			c0-1.3-0.3-2.3-0.9-3C176.6,599.1,175.8,598.7,174.7,598.7z"/>
		<path class="st14" d="M181.7,607.5v-1.8c0.9,0.7,1.9,1,3,1c1.4,0,2.2-0.5,2.2-1.4c0-0.3-0.1-0.5-0.2-0.7c-0.1-0.2-0.3-0.4-0.5-0.5
			s-0.5-0.3-0.7-0.4c-0.3-0.1-0.6-0.2-0.9-0.4c-0.5-0.2-0.9-0.4-1.2-0.5c-0.3-0.2-0.6-0.4-0.9-0.6c-0.2-0.2-0.4-0.5-0.5-0.8
			c-0.1-0.3-0.2-0.6-0.2-1c0-0.5,0.1-0.9,0.3-1.3c0.2-0.4,0.5-0.7,0.9-0.9s0.8-0.4,1.3-0.6c0.5-0.1,1-0.2,1.5-0.2
			c0.9,0,1.7,0.2,2.4,0.5v1.7c-0.8-0.5-1.6-0.7-2.6-0.7c-0.3,0-0.6,0-0.8,0.1c-0.2,0.1-0.5,0.2-0.6,0.3s-0.3,0.3-0.4,0.5
			s-0.1,0.4-0.1,0.6c0,0.3,0,0.5,0.1,0.7c0.1,0.2,0.2,0.3,0.4,0.5c0.2,0.1,0.4,0.3,0.7,0.4c0.3,0.1,0.6,0.2,0.9,0.4
			c0.5,0.2,0.9,0.4,1.2,0.5c0.4,0.2,0.7,0.4,0.9,0.6c0.3,0.2,0.4,0.5,0.6,0.8s0.2,0.7,0.2,1.1c0,0.5-0.1,0.9-0.3,1.3
			c-0.2,0.4-0.5,0.7-0.9,0.9c-0.4,0.2-0.8,0.4-1.3,0.5c-0.5,0.1-1,0.2-1.5,0.2C183.4,608.1,182.5,607.9,181.7,607.5z"/>
		<path class="st14" d="M195.8,607.7c-0.4,0.2-0.9,0.3-1.5,0.3c-1.8,0-2.7-1-2.7-3V599h-1.8v-1.4h1.8v-2.5l1.6-0.5v3h2.6v1.4h-2.6
			v5.8c0,0.7,0.1,1.2,0.4,1.5c0.2,0.3,0.6,0.4,1.2,0.4c0.4,0,0.8-0.1,1.1-0.3V607.7z"/>
		<path class="st14" d="M205.5,607.8h-1.7v-14.3h1.7V607.8z"/>
		<path class="st14" d="M223.6,607.8h-1.6V602c0-1.1-0.2-2-0.5-2.5c-0.3-0.5-0.9-0.8-1.8-0.8c-0.7,0-1.3,0.3-1.8,1
			c-0.5,0.6-0.7,1.4-0.7,2.3v5.8h-1.6v-6.1c0-2-0.8-3-2.3-3c-0.7,0-1.3,0.3-1.8,0.9s-0.7,1.4-0.7,2.4v5.8H209v-10.2h1.6v1.6h0
			c0.7-1.2,1.8-1.9,3.2-1.9c0.7,0,1.3,0.2,1.8,0.6c0.5,0.4,0.9,0.9,1.1,1.5c0.8-1.4,1.9-2.1,3.4-2.1c2.3,0,3.4,1.4,3.4,4.2V607.8z"
			/>
		<path class="st14" d="M228.4,606.4L228.4,606.4l0,6.2h-1.6v-15h1.6v1.8h0c0.8-1.4,2-2,3.5-2c1.3,0,2.4,0.5,3.1,1.4
			s1.1,2.1,1.1,3.7c0,1.7-0.4,3.1-1.3,4.1s-2,1.5-3.4,1.5C230.1,608.1,229.1,607.5,228.4,606.4z M228.3,602.2v1.4
			c0,0.8,0.3,1.6,0.8,2.2c0.5,0.6,1.2,0.9,2.1,0.9c1,0,1.8-0.4,2.3-1.1c0.6-0.8,0.8-1.8,0.8-3.2c0-1.1-0.3-2-0.8-2.7
			c-0.5-0.6-1.2-1-2.1-1c-1,0-1.7,0.3-2.3,1C228.6,600.4,228.3,601.2,228.3,602.2z"/>
		<path class="st14" d="M243,608.1c-1.5,0-2.7-0.5-3.6-1.4c-0.9-1-1.4-2.2-1.4-3.8c0-1.7,0.5-3.1,1.4-4c0.9-1,2.2-1.5,3.8-1.5
			c1.5,0,2.7,0.5,3.6,1.4c0.9,0.9,1.3,2.2,1.3,3.9c0,1.6-0.5,2.9-1.4,3.9S244.6,608.1,243,608.1z M243.1,598.7
			c-1.1,0-1.9,0.4-2.5,1.1c-0.6,0.7-0.9,1.7-0.9,3c0,1.2,0.3,2.2,0.9,2.9s1.5,1,2.5,1c1.1,0,1.9-0.3,2.4-1c0.6-0.7,0.9-1.7,0.9-2.9
			c0-1.3-0.3-2.3-0.9-3C245,599.1,244.2,598.7,243.1,598.7z"/>
		<path class="st14" d="M256.1,599.3c-0.3-0.2-0.7-0.3-1.2-0.3c-0.7,0-1.3,0.3-1.8,1c-0.5,0.7-0.7,1.6-0.7,2.7v5.2h-1.6v-10.2h1.6
			v2.1h0c0.2-0.7,0.6-1.3,1.1-1.7c0.5-0.4,1-0.6,1.6-0.6c0.4,0,0.8,0,1,0.1V599.3z"/>
		<path class="st14" d="M265.2,607.8h-1.6v-1.6h0c-0.7,1.2-1.8,1.8-3.2,1.8c-1,0-1.8-0.3-2.4-0.8c-0.6-0.5-0.9-1.3-0.9-2.2
			c0-1.9,1.1-3,3.4-3.3l3.1-0.4c0-1.7-0.7-2.6-2.1-2.6c-1.2,0-2.3,0.4-3.3,1.3v-1.7c1-0.6,2.2-1,3.5-1c2.4,0,3.6,1.3,3.6,3.8V607.8z
			 M263.6,602.7l-2.5,0.3c-0.8,0.1-1.3,0.3-1.7,0.6c-0.4,0.3-0.6,0.7-0.6,1.4c0,0.5,0.2,0.9,0.5,1.2c0.4,0.3,0.8,0.5,1.4,0.5
			c0.8,0,1.5-0.3,2-0.9s0.8-1.3,0.8-2.2V602.7z"/>
		<path class="st14" d="M276.8,607.8h-1.6V602c0-2.2-0.8-3.3-2.4-3.3c-0.8,0-1.5,0.3-2,0.9c-0.5,0.6-0.8,1.4-0.8,2.3v5.8h-1.6v-10.2
			h1.6v1.7h0c0.8-1.3,1.9-1.9,3.4-1.9c1.1,0,2,0.4,2.6,1.1s0.9,1.8,0.9,3.1V607.8z"/>
		<path class="st14" d="M284.6,607.7c-0.4,0.2-0.9,0.3-1.5,0.3c-1.8,0-2.7-1-2.7-3V599h-1.8v-1.4h1.8v-2.5l1.6-0.5v3h2.6v1.4H282
			v5.8c0,0.7,0.1,1.2,0.4,1.5c0.2,0.3,0.6,0.4,1.2,0.4c0.4,0,0.8-0.1,1.1-0.3V607.7z"/>
		<path class="st14" d="M294.2,607.8h-1.6v-1.6h0c-0.7,1.2-1.8,1.8-3.2,1.8c-1,0-1.8-0.3-2.4-0.8c-0.6-0.5-0.9-1.3-0.9-2.2
			c0-1.9,1.1-3,3.4-3.3l3.1-0.4c0-1.7-0.7-2.6-2.1-2.6c-1.2,0-2.3,0.4-3.3,1.3v-1.7c1-0.6,2.2-1,3.5-1c2.4,0,3.6,1.3,3.6,3.8V607.8z
			 M292.5,602.7L290,603c-0.8,0.1-1.3,0.3-1.7,0.6c-0.4,0.3-0.6,0.7-0.6,1.4c0,0.5,0.2,0.9,0.5,1.2c0.4,0.3,0.8,0.5,1.4,0.5
			c0.8,0,1.5-0.3,2-0.9s0.8-1.3,0.8-2.2V602.7z"/>
		<path class="st14" d="M305.7,607.8h-1.6V602c0-2.2-0.8-3.3-2.4-3.3c-0.8,0-1.5,0.3-2,0.9c-0.5,0.6-0.8,1.4-0.8,2.3v5.8h-1.6v-10.2
			h1.6v1.7h0c0.8-1.3,1.9-1.9,3.4-1.9c1.1,0,2,0.4,2.6,1.1s0.9,1.8,0.9,3.1V607.8z"/>
		<path class="st14" d="M313.6,607.7c-0.4,0.2-0.9,0.3-1.5,0.3c-1.8,0-2.7-1-2.7-3V599h-1.8v-1.4h1.8v-2.5l1.6-0.5v3h2.6v1.4H311
			v5.8c0,0.7,0.1,1.2,0.3,1.5c0.2,0.3,0.6,0.4,1.2,0.4c0.4,0,0.8-0.1,1.1-0.3V607.7z"/>
		<path class="st14" d="M330.1,595H326v12.8h-1.7V595h-4.1v-1.5h10V595z"/>
		<path class="st14" d="M340.6,607.8H339v-5.9c0-2.1-0.8-3.2-2.4-3.2c-0.8,0-1.5,0.3-2,0.9c-0.5,0.6-0.8,1.4-0.8,2.4v5.8h-1.6v-15.2
			h1.6v6.6h0c0.8-1.3,1.9-1.9,3.4-1.9c2.3,0,3.5,1.4,3.5,4.2V607.8z"/>
		<path class="st14" d="M344.6,595c-0.3,0-0.5-0.1-0.8-0.3c-0.2-0.2-0.3-0.5-0.3-0.8s0.1-0.6,0.3-0.8c0.2-0.2,0.5-0.3,0.8-0.3
			c0.3,0,0.6,0.1,0.8,0.3c0.2,0.2,0.3,0.5,0.3,0.8c0,0.3-0.1,0.5-0.3,0.8C345.1,594.9,344.9,595,344.6,595z M345.4,607.8h-1.6v-10.2
			h1.6V607.8z"/>
		<path class="st14" d="M357.2,607.8h-1.6V602c0-2.2-0.8-3.3-2.4-3.3c-0.8,0-1.5,0.3-2,0.9c-0.5,0.6-0.8,1.4-0.8,2.3v5.8h-1.6v-10.2
			h1.6v1.7h0c0.8-1.3,1.9-1.9,3.4-1.9c1.1,0,2,0.4,2.6,1.1s0.9,1.8,0.9,3.1V607.8z"/>
		<path class="st14" d="M369,607c0,3.8-1.8,5.6-5.4,5.6c-1.3,0-2.4-0.2-3.3-0.7v-1.6c1.2,0.6,2.3,1,3.3,1c2.5,0,3.8-1.3,3.8-4v-1.1
			h0c-0.8,1.3-2,2-3.5,2c-1.3,0-2.3-0.5-3.1-1.4c-0.8-0.9-1.2-2.1-1.2-3.7c0-1.7,0.4-3.1,1.3-4.2s2-1.5,3.4-1.5
			c1.4,0,2.4,0.6,3.1,1.7h0v-1.4h1.6V607z M367.4,603.2v-1.5c0-0.8-0.3-1.5-0.8-2.1c-0.6-0.6-1.2-0.9-2.1-0.9c-1,0-1.8,0.4-2.4,1.1
			c-0.6,0.7-0.9,1.8-0.9,3.1c0,1.1,0.3,2.1,0.8,2.7c0.5,0.7,1.3,1,2.2,1c0.9,0,1.7-0.3,2.2-1C367.1,605.1,367.4,604.2,367.4,603.2z"
			/>
		<path class="st14" d="M371.7,607.5v-1.8c0.9,0.7,1.9,1,3,1c1.4,0,2.2-0.5,2.2-1.4c0-0.3-0.1-0.5-0.2-0.7c-0.1-0.2-0.3-0.4-0.5-0.5
			c-0.2-0.1-0.5-0.3-0.7-0.4c-0.3-0.1-0.6-0.2-0.9-0.4c-0.5-0.2-0.9-0.4-1.2-0.5s-0.6-0.4-0.9-0.6c-0.2-0.2-0.4-0.5-0.5-0.8
			c-0.1-0.3-0.2-0.6-0.2-1c0-0.5,0.1-0.9,0.3-1.3c0.2-0.4,0.5-0.7,0.9-0.9c0.4-0.2,0.8-0.4,1.3-0.6c0.5-0.1,1-0.2,1.5-0.2
			c0.9,0,1.7,0.2,2.4,0.5v1.7c-0.8-0.5-1.6-0.7-2.6-0.7c-0.3,0-0.6,0-0.8,0.1c-0.2,0.1-0.5,0.2-0.6,0.3c-0.2,0.1-0.3,0.3-0.4,0.5
			s-0.1,0.4-0.1,0.6c0,0.3,0,0.5,0.1,0.7c0.1,0.2,0.2,0.3,0.4,0.5c0.2,0.1,0.4,0.3,0.7,0.4c0.3,0.1,0.6,0.2,0.9,0.4
			c0.5,0.2,0.9,0.4,1.2,0.5c0.4,0.2,0.7,0.4,0.9,0.6c0.3,0.2,0.4,0.5,0.6,0.8s0.2,0.7,0.2,1.1c0,0.5-0.1,0.9-0.3,1.3
			c-0.2,0.4-0.5,0.7-0.9,0.9c-0.4,0.2-0.8,0.4-1.3,0.5c-0.5,0.1-1,0.2-1.5,0.2C373.4,608.1,372.5,607.9,371.7,607.5z"/>
		<path class="st14" d="M398,607.8h-1.9l-1.5-4h-6.1l-1.4,4h-1.9l5.5-14.3h1.7L398,607.8z M394,602.3l-2.3-6.1
			c-0.1-0.2-0.1-0.5-0.2-1h0c-0.1,0.4-0.1,0.7-0.2,1l-2.2,6.1H394z"/>
		<path class="st14" d="M413.1,607.8h-7.4v-14.3h1.7v12.8h5.8V607.8z"/>
		<path class="st14" d="M422.5,607.8h-1.6v-1.6h0c-0.7,1.2-1.8,1.8-3.2,1.8c-1,0-1.8-0.3-2.4-0.8c-0.6-0.5-0.9-1.3-0.9-2.2
			c0-1.9,1.1-3,3.4-3.3l3.1-0.4c0-1.7-0.7-2.6-2.1-2.6c-1.2,0-2.3,0.4-3.3,1.3v-1.7c1-0.6,2.2-1,3.5-1c2.4,0,3.6,1.3,3.6,3.8V607.8z
			 M420.8,602.7l-2.5,0.3c-0.8,0.1-1.3,0.3-1.7,0.6c-0.4,0.3-0.6,0.7-0.6,1.4c0,0.5,0.2,0.9,0.5,1.2c0.4,0.3,0.8,0.5,1.4,0.5
			c0.8,0,1.5-0.3,2-0.9s0.8-1.3,0.8-2.2V602.7z"/>
		<path class="st14" d="M434,607.8h-1.6V602c0-2.2-0.8-3.3-2.4-3.3c-0.8,0-1.5,0.3-2,0.9c-0.5,0.6-0.8,1.4-0.8,2.3v5.8h-1.6v-10.2
			h1.6v1.7h0c0.8-1.3,1.9-1.9,3.4-1.9c1.1,0,2,0.4,2.6,1.1s0.9,1.8,0.9,3.1V607.8z"/>
		<path class="st14" d="M445.9,607c0,3.8-1.8,5.6-5.4,5.6c-1.3,0-2.4-0.2-3.3-0.7v-1.6c1.2,0.6,2.3,1,3.3,1c2.5,0,3.8-1.3,3.8-4
			v-1.1h0c-0.8,1.3-2,2-3.5,2c-1.3,0-2.3-0.5-3.1-1.4c-0.8-0.9-1.2-2.1-1.2-3.7c0-1.7,0.4-3.1,1.3-4.2s2-1.5,3.4-1.5
			c1.4,0,2.4,0.6,3.1,1.7h0v-1.4h1.6V607z M444.2,603.2v-1.5c0-0.8-0.3-1.5-0.8-2.1c-0.6-0.6-1.2-0.9-2.1-0.9c-1,0-1.8,0.4-2.4,1.1
			c-0.6,0.7-0.9,1.8-0.9,3.1c0,1.1,0.3,2.1,0.8,2.7c0.5,0.7,1.3,1,2.2,1c0.9,0,1.7-0.3,2.2-1C444,605.1,444.2,604.2,444.2,603.2z"/>
		<path class="st14" d="M457.7,607.8h-1.6v-5.9c0-2.1-0.8-3.2-2.4-3.2c-0.8,0-1.5,0.3-2,0.9c-0.5,0.6-0.8,1.4-0.8,2.4v5.8h-1.6
			v-15.2h1.6v6.6h0c0.8-1.3,1.9-1.9,3.4-1.9c2.3,0,3.5,1.4,3.5,4.2V607.8z"/>
		<path class="st14" d="M465.1,608.1c-1.5,0-2.7-0.5-3.6-1.4c-0.9-1-1.4-2.2-1.4-3.8c0-1.7,0.5-3.1,1.4-4c0.9-1,2.2-1.5,3.8-1.5
			c1.5,0,2.7,0.5,3.6,1.4c0.9,0.9,1.3,2.2,1.3,3.9c0,1.6-0.5,2.9-1.4,3.9S466.6,608.1,465.1,608.1z M465.2,598.7
			c-1.1,0-1.9,0.4-2.5,1.1c-0.6,0.7-0.9,1.7-0.9,3c0,1.2,0.3,2.2,0.9,2.9s1.5,1,2.5,1c1.1,0,1.9-0.3,2.4-1c0.6-0.7,0.9-1.7,0.9-2.9
			c0-1.3-0.3-2.3-0.9-3C467.1,599.1,466.3,598.7,465.2,598.7z"/>
		<path class="st14" d="M477.9,594.1c-0.3-0.2-0.7-0.3-1.1-0.3c-1.1,0-1.7,0.7-1.7,2.2v1.6h2.4v1.4h-2.4v8.8h-1.6V599h-1.8v-1.4h1.8
			v-1.7c0-1.1,0.3-1.9,0.9-2.5c0.6-0.6,1.4-0.9,2.3-0.9c0.5,0,0.9,0.1,1.2,0.2V594.1z"/>
		<path class="st14" d="M487.4,603.1h-7.2c0,1.1,0.3,2,0.9,2.6c0.6,0.6,1.4,0.9,2.4,0.9c1.2,0,2.2-0.4,3.2-1.1v1.5
			c-0.9,0.7-2.1,1-3.6,1c-1.4,0-2.6-0.5-3.4-1.4c-0.8-0.9-1.2-2.2-1.2-3.9c0-1.6,0.5-2.9,1.4-3.9c0.9-1,2-1.5,3.4-1.5
			c1.3,0,2.4,0.4,3.1,1.3s1.1,2.1,1.1,3.6V603.1z M485.8,601.7c0-0.9-0.2-1.7-0.7-2.2c-0.5-0.5-1.1-0.8-1.9-0.8
			c-0.8,0-1.4,0.3-2,0.8c-0.5,0.6-0.9,1.3-1,2.2H485.8z"/>
		<path class="st14" d="M495.3,599.3c-0.3-0.2-0.7-0.3-1.2-0.3c-0.7,0-1.3,0.3-1.8,1c-0.5,0.7-0.7,1.6-0.7,2.7v5.2h-1.6v-10.2h1.6
			v2.1h0c0.2-0.7,0.6-1.3,1.1-1.7c0.5-0.4,1-0.6,1.6-0.6c0.4,0,0.8,0,1,0.1V599.3z"/>
	</g>
</g>
<g>
	<g>
		<path class="st14" d="M169,632.2h-1.7v-6.5h-7.4v6.5h-1.7v-14.3h1.7v6.3h7.4v-6.3h1.7V632.2z"/>
		<path class="st14" d="M179.9,632.2h-1.6v-1.6h0c-0.7,1.2-1.8,1.8-3.2,1.8c-1,0-1.8-0.3-2.4-0.8c-0.6-0.5-0.9-1.3-0.9-2.2
			c0-1.9,1.1-3,3.4-3.3l3.1-0.4c0-1.7-0.7-2.6-2.1-2.6c-1.2,0-2.3,0.4-3.3,1.3v-1.7c1-0.6,2.2-1,3.5-1c2.4,0,3.6,1.3,3.6,3.8V632.2z
			 M178.3,627l-2.5,0.3c-0.8,0.1-1.3,0.3-1.7,0.6c-0.4,0.3-0.6,0.7-0.6,1.4c0,0.5,0.2,0.9,0.5,1.2c0.4,0.3,0.8,0.5,1.4,0.5
			c0.8,0,1.5-0.3,2-0.9s0.8-1.3,0.8-2.2V627z"/>
		<path class="st14" d="M191.5,632.2h-1.6v-5.8c0-2.2-0.8-3.3-2.4-3.3c-0.8,0-1.5,0.3-2,0.9c-0.5,0.6-0.8,1.4-0.8,2.3v5.8H183V622
			h1.6v1.7h0c0.8-1.3,1.9-1.9,3.4-1.9c1.1,0,2,0.4,2.6,1.1s0.9,1.8,0.9,3.1V632.2z"/>
		<path class="st14" d="M203.3,632.2h-1.6v-1.7h0c-0.8,1.3-1.9,2-3.5,2c-1.3,0-2.3-0.5-3.1-1.4s-1.2-2.2-1.2-3.7
			c0-1.7,0.4-3.1,1.3-4.1s2-1.5,3.4-1.5c1.4,0,2.4,0.6,3.1,1.7h0V617h1.6V632.2z M201.7,627.6v-1.5c0-0.8-0.3-1.5-0.8-2.1
			s-1.2-0.9-2.1-0.9c-1,0-1.8,0.4-2.4,1.1c-0.6,0.7-0.9,1.7-0.9,3c0,1.2,0.3,2.1,0.8,2.8c0.5,0.7,1.3,1,2.2,1c0.9,0,1.7-0.3,2.2-1
			S201.7,628.6,201.7,627.6z"/>
		<path class="st14" d="M208.4,630.7L208.4,630.7l0,1.5h-1.6V617h1.6v6.7h0c0.8-1.4,2-2,3.5-2c1.3,0,2.3,0.5,3.1,1.4
			c0.7,0.9,1.1,2.1,1.1,3.7c0,1.7-0.4,3.1-1.3,4.1s-2,1.5-3.4,1.5C210.1,632.4,209,631.9,208.4,630.7z M208.3,626.6v1.4
			c0,0.8,0.3,1.6,0.8,2.2c0.5,0.6,1.2,0.9,2.1,0.9c1,0,1.8-0.4,2.3-1.1c0.6-0.8,0.8-1.8,0.8-3.2c0-1.1-0.3-2-0.8-2.7
			c-0.5-0.6-1.2-1-2.1-1c-1,0-1.7,0.3-2.3,1C208.6,624.8,208.3,625.6,208.3,626.6z"/>
		<path class="st14" d="M223,632.4c-1.5,0-2.7-0.5-3.6-1.4c-0.9-1-1.4-2.2-1.4-3.8c0-1.7,0.5-3.1,1.4-4s2.2-1.5,3.8-1.5
			c1.5,0,2.7,0.5,3.6,1.4c0.9,0.9,1.3,2.2,1.3,3.9c0,1.6-0.5,2.9-1.4,3.9S224.5,632.4,223,632.4z M223.1,623.1
			c-1.1,0-1.9,0.4-2.5,1.1s-0.9,1.7-0.9,3c0,1.2,0.3,2.2,0.9,2.9s1.5,1,2.5,1c1.1,0,1.9-0.3,2.4-1c0.6-0.7,0.9-1.7,0.9-2.9
			c0-1.3-0.3-2.3-0.9-3C225,623.4,224.2,623.1,223.1,623.1z"/>
		<path class="st14" d="M235,632.4c-1.5,0-2.7-0.5-3.6-1.4c-0.9-1-1.4-2.2-1.4-3.8c0-1.7,0.5-3.1,1.4-4c0.9-1,2.2-1.5,3.8-1.5
			c1.5,0,2.7,0.5,3.6,1.4c0.9,0.9,1.3,2.2,1.3,3.9c0,1.6-0.5,2.9-1.4,3.9S236.6,632.4,235,632.4z M235.1,623.1
			c-1.1,0-1.9,0.4-2.5,1.1c-0.6,0.7-0.9,1.7-0.9,3c0,1.2,0.3,2.2,0.9,2.9s1.5,1,2.5,1c1.1,0,1.9-0.3,2.4-1c0.6-0.7,0.9-1.7,0.9-2.9
			c0-1.3-0.3-2.3-0.9-3C237,623.4,236.2,623.1,235.1,623.1z"/>
		<path class="st14" d="M251.2,632.2h-2.3l-4.5-4.9h0v4.9h-1.6V617h1.6v9.6h0l4.3-4.7h2.2l-4.8,4.9L251.2,632.2z"/>
		<path class="st14" d="M270.3,632.2h-2.1l-7.4-11.4c-0.2-0.3-0.3-0.6-0.5-0.9h-0.1c0.1,0.3,0.1,1,0.1,2v10.4h-1.7v-14.3h2.2
			l7.2,11.3c0.3,0.5,0.5,0.8,0.6,1h0c-0.1-0.4-0.1-1.1-0.1-2.1v-10.1h1.7V632.2z"/>
		<path class="st14" d="M282.1,627.5h-7.2c0,1.1,0.3,2,0.9,2.6c0.6,0.6,1.4,0.9,2.4,0.9c1.2,0,2.2-0.4,3.2-1.1v1.5
			c-0.9,0.7-2.1,1-3.6,1c-1.4,0-2.6-0.5-3.4-1.4s-1.2-2.2-1.2-3.9c0-1.6,0.5-2.9,1.4-3.9c0.9-1,2-1.5,3.4-1.5c1.3,0,2.4,0.4,3.1,1.3
			c0.7,0.9,1.1,2.1,1.1,3.6V627.5z M280.4,626.1c0-0.9-0.2-1.7-0.7-2.2c-0.5-0.5-1.1-0.8-1.9-0.8c-0.8,0-1.4,0.3-2,0.8
			c-0.5,0.6-0.9,1.3-1,2.2H280.4z"/>
		<path class="st14" d="M292.8,627.5h-7.2c0,1.1,0.3,2,0.9,2.6c0.6,0.6,1.4,0.9,2.4,0.9c1.2,0,2.2-0.4,3.2-1.1v1.5
			c-0.9,0.7-2.1,1-3.6,1c-1.4,0-2.6-0.5-3.4-1.4s-1.2-2.2-1.2-3.9c0-1.6,0.5-2.9,1.4-3.9c0.9-1,2-1.5,3.4-1.5c1.3,0,2.4,0.4,3.1,1.3
			c0.7,0.9,1.1,2.1,1.1,3.6V627.5z M291.1,626.1c0-0.9-0.2-1.7-0.7-2.2c-0.5-0.5-1.1-0.8-1.9-0.8c-0.8,0-1.4,0.3-2,0.8
			c-0.5,0.6-0.9,1.3-1,2.2H291.1z"/>
		<path class="st14" d="M304,632.2h-1.6v-1.7h0c-0.8,1.3-1.9,2-3.5,2c-1.3,0-2.3-0.5-3.1-1.4c-0.8-0.9-1.2-2.2-1.2-3.7
			c0-1.7,0.4-3.1,1.3-4.1s2-1.5,3.4-1.5c1.4,0,2.4,0.6,3.1,1.7h0V617h1.6V632.2z M302.4,627.6v-1.5c0-0.8-0.3-1.5-0.8-2.1
			s-1.2-0.9-2.1-0.9c-1,0-1.8,0.4-2.4,1.1s-0.9,1.7-0.9,3c0,1.2,0.3,2.1,0.8,2.8c0.6,0.7,1.3,1,2.2,1c0.9,0,1.7-0.3,2.2-1
			C302.1,629.4,302.4,628.6,302.4,627.6z"/>
		<path class="st14" d="M306.7,631.8v-1.8c0.9,0.7,1.9,1,3,1c1.4,0,2.2-0.5,2.2-1.4c0-0.3-0.1-0.5-0.2-0.7c-0.1-0.2-0.3-0.4-0.5-0.5
			s-0.5-0.3-0.7-0.4c-0.3-0.1-0.6-0.2-0.9-0.4c-0.5-0.2-0.9-0.4-1.2-0.5c-0.3-0.2-0.6-0.4-0.9-0.6c-0.2-0.2-0.4-0.5-0.5-0.8
			c-0.1-0.3-0.2-0.6-0.2-1c0-0.5,0.1-0.9,0.3-1.3c0.2-0.4,0.5-0.7,0.9-0.9s0.8-0.4,1.3-0.6c0.5-0.1,1-0.2,1.5-0.2
			c0.9,0,1.7,0.2,2.4,0.5v1.7c-0.8-0.5-1.6-0.7-2.6-0.7c-0.3,0-0.6,0-0.8,0.1c-0.2,0.1-0.5,0.2-0.6,0.3s-0.3,0.3-0.4,0.5
			s-0.1,0.4-0.1,0.6c0,0.3,0,0.5,0.1,0.7c0.1,0.2,0.2,0.3,0.4,0.5c0.2,0.1,0.4,0.3,0.7,0.4c0.3,0.1,0.6,0.2,0.9,0.4
			c0.5,0.2,0.9,0.4,1.2,0.5c0.4,0.2,0.7,0.4,0.9,0.6c0.3,0.2,0.4,0.5,0.6,0.8s0.2,0.7,0.2,1.1c0,0.5-0.1,0.9-0.3,1.3
			c-0.2,0.4-0.5,0.7-0.9,0.9c-0.4,0.2-0.8,0.4-1.3,0.5c-0.5,0.1-1,0.2-1.5,0.2C308.4,632.4,307.5,632.2,306.7,631.8z"/>
		<path class="st14" d="M326.4,632.1c-0.4,0.2-0.9,0.3-1.5,0.3c-1.8,0-2.7-1-2.7-3v-6.1h-1.8V622h1.8v-2.5l1.6-0.5v3h2.6v1.4h-2.6
			v5.8c0,0.7,0.1,1.2,0.4,1.5c0.2,0.3,0.6,0.4,1.2,0.4c0.4,0,0.8-0.1,1.1-0.3V632.1z"/>
		<path class="st14" d="M332.9,632.4c-1.5,0-2.7-0.5-3.6-1.4c-0.9-1-1.4-2.2-1.4-3.8c0-1.7,0.5-3.1,1.4-4c0.9-1,2.2-1.5,3.8-1.5
			c1.5,0,2.7,0.5,3.6,1.4c0.9,0.9,1.3,2.2,1.3,3.9c0,1.6-0.5,2.9-1.4,3.9S334.4,632.4,332.9,632.4z M333,623.1
			c-1.1,0-1.9,0.4-2.5,1.1c-0.6,0.7-0.9,1.7-0.9,3c0,1.2,0.3,2.2,0.9,2.9s1.5,1,2.5,1c1.1,0,1.9-0.3,2.4-1c0.6-0.7,0.9-1.7,0.9-2.9
			c0-1.3-0.3-2.3-0.9-3C334.9,623.4,334,623.1,333,623.1z"/>
		<path class="st14" d="M356.4,632.2h-2.3l-5.5-6.6c-0.2-0.2-0.3-0.4-0.4-0.5h0v7.1h-1.7v-14.3h1.7v6.7h0c0.1-0.1,0.2-0.3,0.4-0.5
			l5.4-6.3h2.1l-6.2,6.9L356.4,632.2z"/>
		<path class="st14" d="M366.6,632.2H365v-5.8c0-2.2-0.8-3.3-2.4-3.3c-0.8,0-1.5,0.3-2,0.9c-0.5,0.6-0.8,1.4-0.8,2.3v5.8h-1.6V622
			h1.6v1.7h0c0.8-1.3,1.9-1.9,3.4-1.9c1.1,0,2,0.4,2.6,1.1s0.9,1.8,0.9,3.1V632.2z"/>
		<path class="st14" d="M374,632.4c-1.5,0-2.7-0.5-3.6-1.4c-0.9-1-1.4-2.2-1.4-3.8c0-1.7,0.5-3.1,1.4-4c0.9-1,2.2-1.5,3.8-1.5
			c1.5,0,2.7,0.5,3.6,1.4c0.9,0.9,1.3,2.2,1.3,3.9c0,1.6-0.5,2.9-1.4,3.9S375.5,632.4,374,632.4z M374.1,623.1
			c-1.1,0-1.9,0.4-2.5,1.1c-0.6,0.7-0.9,1.7-0.9,3c0,1.2,0.3,2.2,0.9,2.9s1.5,1,2.5,1c1.1,0,1.9-0.3,2.4-1c0.6-0.7,0.9-1.7,0.9-2.9
			c0-1.3-0.3-2.3-0.9-3C376,623.4,375.1,623.1,374.1,623.1z"/>
		<path class="st14" d="M394.6,622l-3.1,10.2h-1.7l-2.1-7.3c-0.1-0.3-0.1-0.6-0.2-1h0c0,0.2-0.1,0.5-0.2,0.9l-2.3,7.4h-1.6
			l-3.1-10.2h1.7l2.1,7.7c0.1,0.2,0.1,0.5,0.1,0.9h0.1c0-0.3,0.1-0.6,0.2-0.9l2.4-7.7h1.5l2.1,7.7c0.1,0.2,0.1,0.6,0.2,0.9h0.1
			c0-0.3,0.1-0.6,0.2-0.9l2.1-7.7H394.6z"/>
		<path class="st14" d="M413.4,632.2h-1.9l-1.5-4H404l-1.4,4h-1.9l5.5-14.3h1.7L413.4,632.2z M409.5,626.7l-2.3-6.1
			c-0.1-0.2-0.1-0.5-0.2-1h0c-0.1,0.4-0.1,0.7-0.2,1l-2.2,6.1H409.5z"/>
		<path class="st14" d="M417,630.7L417,630.7l0,1.5h-1.6V617h1.6v6.7h0c0.8-1.4,2-2,3.5-2c1.3,0,2.3,0.5,3.1,1.4
			c0.7,0.9,1.1,2.1,1.1,3.7c0,1.7-0.4,3.1-1.2,4.1c-0.8,1-2,1.5-3.4,1.5C418.7,632.4,417.7,631.9,417,630.7z M417,626.6v1.4
			c0,0.8,0.3,1.6,0.8,2.2c0.6,0.6,1.2,0.9,2.1,0.9c1,0,1.8-0.4,2.3-1.1c0.6-0.8,0.8-1.8,0.8-3.2c0-1.1-0.3-2-0.8-2.7
			c-0.5-0.6-1.2-1-2.1-1c-1,0-1.7,0.3-2.3,1C417.2,624.8,417,625.6,417,626.6z"/>
		<path class="st14" d="M431.6,632.4c-1.5,0-2.7-0.5-3.6-1.4c-0.9-1-1.4-2.2-1.4-3.8c0-1.7,0.5-3.1,1.4-4s2.2-1.5,3.8-1.5
			c1.5,0,2.7,0.5,3.6,1.4c0.9,0.9,1.3,2.2,1.3,3.9c0,1.6-0.5,2.9-1.4,3.9S433.2,632.4,431.6,632.4z M431.8,623.1
			c-1.1,0-1.9,0.4-2.5,1.1s-0.9,1.7-0.9,3c0,1.2,0.3,2.2,0.9,2.9s1.5,1,2.5,1c1.1,0,1.9-0.3,2.4-1c0.6-0.7,0.9-1.7,0.9-2.9
			c0-1.3-0.3-2.3-0.9-3C433.6,623.4,432.8,623.1,431.8,623.1z"/>
		<path class="st14" d="M447.7,632.2H446v-1.6h0c-0.7,1.2-1.7,1.9-3.2,1.9c-2.4,0-3.7-1.5-3.7-4.4V622h1.6v5.9
			c0,2.2,0.8,3.2,2.5,3.2c0.8,0,1.5-0.3,2-0.9c0.5-0.6,0.8-1.4,0.8-2.3V622h1.6V632.2z"/>
		<path class="st14" d="M455.7,632.1c-0.4,0.2-0.9,0.3-1.5,0.3c-1.8,0-2.7-1-2.7-3v-6.1h-1.8V622h1.8v-2.5l1.6-0.5v3h2.6v1.4h-2.6
			v5.8c0,0.7,0.1,1.2,0.4,1.5c0.2,0.3,0.6,0.4,1.2,0.4c0.4,0,0.8-0.1,1.1-0.3V632.1z"/>
	</g>
</g>
<g>
	<g>
		<path class="st14" d="M174.4,656.6v-14.3h4.1c1.2,0,2.2,0.3,3,0.9c0.7,0.6,1.1,1.4,1.1,2.4c0,0.8-0.2,1.5-0.7,2.1
			c-0.4,0.6-1,1-1.8,1.3v0c1,0.1,1.7,0.5,2.3,1.1s0.9,1.4,0.9,2.4c0,1.2-0.4,2.2-1.3,3c-0.9,0.8-2,1.1-3.3,1.1H174.4z M176.1,643.8
			v4.6h1.7c0.9,0,1.6-0.2,2.2-0.7s0.8-1.1,0.8-1.9c0-1.4-0.9-2.1-2.8-2.1H176.1z M176.1,649.9v5.2h2.3c1,0,1.8-0.2,2.3-0.7
			c0.5-0.5,0.8-1.1,0.8-1.9c0-1.7-1.2-2.5-3.5-2.5H176.1z"/>
		<path class="st14" d="M194.2,651.9h-7.2c0,1.1,0.3,2,0.9,2.6c0.6,0.6,1.4,0.9,2.4,0.9c1.2,0,2.2-0.4,3.2-1.1v1.5
			c-0.9,0.7-2.1,1-3.6,1c-1.4,0-2.6-0.5-3.4-1.4c-0.8-0.9-1.2-2.2-1.2-3.9c0-1.6,0.5-2.9,1.4-3.9s2-1.5,3.4-1.5s2.4,0.4,3.1,1.3
			c0.7,0.9,1.1,2.1,1.1,3.6V651.9z M192.5,650.5c0-0.9-0.2-1.7-0.7-2.2c-0.5-0.5-1.1-0.8-1.9-0.8c-0.8,0-1.4,0.3-2,0.8
			c-0.5,0.6-0.9,1.3-1,2.2H192.5z"/>
		<path class="st14" d="M197.5,643.7c-0.3,0-0.5-0.1-0.8-0.3c-0.2-0.2-0.3-0.5-0.3-0.8s0.1-0.6,0.3-0.8c0.2-0.2,0.5-0.3,0.8-0.3
			c0.3,0,0.6,0.1,0.8,0.3c0.2,0.2,0.3,0.5,0.3,0.8c0,0.3-0.1,0.5-0.3,0.8C198,643.6,197.8,643.7,197.5,643.7z M198.3,656.6h-1.6
			v-10.2h1.6V656.6z"/>
		<path class="st14" d="M210.1,656.6h-1.6v-5.8c0-2.2-0.8-3.3-2.4-3.3c-0.8,0-1.5,0.3-2,0.9c-0.5,0.6-0.8,1.4-0.8,2.3v5.8h-1.6
			v-10.2h1.6v1.7h0c0.8-1.3,1.9-1.9,3.4-1.9c1.1,0,2,0.4,2.6,1.1s0.9,1.8,0.9,3.1V656.6z"/>
		<path class="st14" d="M221.9,655.8c0,3.8-1.8,5.6-5.4,5.6c-1.3,0-2.4-0.2-3.3-0.7V659c1.2,0.6,2.3,1,3.3,1c2.5,0,3.8-1.3,3.8-4
			v-1.1h0c-0.8,1.3-2,2-3.5,2c-1.3,0-2.3-0.5-3.1-1.4c-0.8-0.9-1.2-2.1-1.2-3.7c0-1.7,0.4-3.1,1.3-4.2s2-1.5,3.4-1.5
			c1.4,0,2.4,0.6,3.1,1.7h0v-1.4h1.6V655.8z M220.3,651.9v-1.5c0-0.8-0.3-1.5-0.8-2.1s-1.2-0.9-2.1-0.9c-1,0-1.8,0.4-2.4,1.1
			c-0.6,0.7-0.9,1.8-0.9,3.1c0,1.1,0.3,2.1,0.8,2.7s1.3,1,2.2,1c0.9,0,1.7-0.3,2.2-1C220,653.8,220.3,653,220.3,651.9z"/>
		<path class="st14" d="M242.2,656.6h-1.9l-1.5-4h-6.1l-1.4,4h-1.9l5.5-14.3h1.7L242.2,656.6z M238.3,651l-2.3-6.1
			c-0.1-0.2-0.1-0.5-0.2-1h0c-0.1,0.4-0.1,0.7-0.2,1l-2.2,6.1H238.3z"/>
		<path class="st14" d="M257.4,656.6h-7.4v-14.3h1.7v12.8h5.8V656.6z"/>
		<path class="st14" d="M266.7,656.6H265V655h0c-0.7,1.2-1.8,1.8-3.2,1.8c-1,0-1.8-0.3-2.4-0.8s-0.9-1.3-0.9-2.2
			c0-1.9,1.1-3,3.4-3.3l3.1-0.4c0-1.7-0.7-2.6-2.1-2.6c-1.2,0-2.3,0.4-3.3,1.3v-1.7c1-0.6,2.2-1,3.5-1c2.4,0,3.6,1.3,3.6,3.8V656.6z
			 M265,651.4l-2.5,0.3c-0.8,0.1-1.3,0.3-1.7,0.6c-0.4,0.3-0.6,0.7-0.6,1.4c0,0.5,0.2,0.9,0.5,1.2c0.4,0.3,0.8,0.5,1.4,0.5
			c0.8,0,1.5-0.3,2-0.9s0.8-1.3,0.8-2.2V651.4z"/>
		<path class="st14" d="M278.3,656.6h-1.6v-5.8c0-2.2-0.8-3.3-2.4-3.3c-0.8,0-1.5,0.3-2,0.9c-0.5,0.6-0.8,1.4-0.8,2.3v5.8h-1.6
			v-10.2h1.6v1.7h0c0.8-1.3,1.9-1.9,3.4-1.9c1.1,0,2,0.4,2.6,1.1s0.9,1.8,0.9,3.1V656.6z"/>
		<path class="st14" d="M290.1,655.8c0,3.8-1.8,5.6-5.4,5.6c-1.3,0-2.4-0.2-3.3-0.7V659c1.2,0.6,2.3,1,3.3,1c2.5,0,3.8-1.3,3.8-4
			v-1.1h0c-0.8,1.3-2,2-3.5,2c-1.3,0-2.3-0.5-3.1-1.4c-0.8-0.9-1.2-2.1-1.2-3.7c0-1.7,0.4-3.1,1.3-4.2s2-1.5,3.4-1.5
			c1.4,0,2.4,0.6,3.1,1.7h0v-1.4h1.6V655.8z M288.5,651.9v-1.5c0-0.8-0.3-1.5-0.8-2.1s-1.2-0.9-2.1-0.9c-1,0-1.8,0.4-2.4,1.1
			c-0.6,0.7-0.9,1.8-0.9,3.1c0,1.1,0.3,2.1,0.8,2.7s1.3,1,2.2,1c0.9,0,1.7-0.3,2.2-1C288.2,653.8,288.5,653,288.5,651.9z"/>
		<path class="st14" d="M301.9,656.6h-1.6v-5.9c0-2.1-0.8-3.2-2.4-3.2c-0.8,0-1.5,0.3-2,0.9c-0.5,0.6-0.8,1.4-0.8,2.4v5.8h-1.6
			v-15.2h1.6v6.6h0c0.8-1.3,1.9-1.9,3.4-1.9c2.3,0,3.5,1.4,3.5,4.2V656.6z"/>
		<path class="st14" d="M309.3,656.8c-1.5,0-2.7-0.5-3.6-1.4c-0.9-1-1.4-2.2-1.4-3.8c0-1.7,0.5-3.1,1.4-4s2.2-1.5,3.8-1.5
			c1.5,0,2.7,0.5,3.6,1.4s1.3,2.2,1.3,3.9c0,1.6-0.5,2.9-1.4,3.9S310.9,656.8,309.3,656.8z M309.4,647.5c-1.1,0-1.9,0.4-2.5,1.1
			s-0.9,1.7-0.9,3c0,1.2,0.3,2.2,0.9,2.9s1.5,1,2.5,1c1.1,0,1.9-0.3,2.4-1c0.6-0.7,0.9-1.7,0.9-2.9c0-1.3-0.3-2.3-0.9-3
			C311.3,647.8,310.5,647.5,309.4,647.5z"/>
		<path class="st14" d="M322.1,642.9c-0.3-0.2-0.7-0.3-1.1-0.3c-1.1,0-1.7,0.7-1.7,2.2v1.6h2.4v1.4h-2.4v8.8h-1.6v-8.8h-1.8v-1.4
			h1.8v-1.7c0-1.1,0.3-1.9,0.9-2.5c0.6-0.6,1.4-0.9,2.3-0.9c0.5,0,0.9,0.1,1.2,0.2V642.9z"/>
		<path class="st14" d="M331.7,651.9h-7.2c0,1.1,0.3,2,0.9,2.6c0.6,0.6,1.4,0.9,2.4,0.9c1.2,0,2.2-0.4,3.2-1.1v1.5
			c-0.9,0.7-2.1,1-3.6,1c-1.4,0-2.6-0.5-3.4-1.4c-0.8-0.9-1.2-2.2-1.2-3.9c0-1.6,0.5-2.9,1.4-3.9c0.9-1,2-1.5,3.4-1.5
			c1.3,0,2.4,0.4,3.1,1.3c0.7,0.9,1.1,2.1,1.1,3.6V651.9z M330,650.5c0-0.9-0.2-1.7-0.7-2.2c-0.4-0.5-1.1-0.8-1.9-0.8
			c-0.8,0-1.4,0.3-2,0.8c-0.5,0.6-0.9,1.3-1,2.2H330z"/>
		<path class="st14" d="M339.5,648c-0.3-0.2-0.7-0.3-1.2-0.3c-0.7,0-1.3,0.3-1.8,1s-0.7,1.6-0.7,2.7v5.2h-1.6v-10.2h1.6v2.1h0
			c0.2-0.7,0.6-1.3,1.1-1.7c0.5-0.4,1-0.6,1.6-0.6c0.4,0,0.8,0,1,0.1V648z"/>
		<path class="st14" d="M357.9,656.6h-1.7V650h-7.4v6.5h-1.7v-14.3h1.7v6.3h7.4v-6.3h1.7V656.6z"/>
		<path class="st14" d="M368.8,656.6h-1.6V655h0c-0.7,1.2-1.8,1.8-3.2,1.8c-1,0-1.8-0.3-2.4-0.8c-0.6-0.5-0.9-1.3-0.9-2.2
			c0-1.9,1.1-3,3.4-3.3l3.1-0.4c0-1.7-0.7-2.6-2.1-2.6c-1.2,0-2.3,0.4-3.3,1.3v-1.7c1-0.6,2.2-1,3.5-1c2.4,0,3.6,1.3,3.6,3.8V656.6z
			 M367.1,651.4l-2.5,0.3c-0.8,0.1-1.3,0.3-1.7,0.6c-0.4,0.3-0.6,0.7-0.6,1.4c0,0.5,0.2,0.9,0.5,1.2c0.4,0.3,0.8,0.5,1.4,0.5
			c0.8,0,1.5-0.3,2-0.9c0.5-0.6,0.8-1.3,0.8-2.2V651.4z"/>
		<path class="st14" d="M380.4,656.6h-1.6v-5.8c0-2.2-0.8-3.3-2.4-3.3c-0.8,0-1.5,0.3-2,0.9c-0.5,0.6-0.8,1.4-0.8,2.3v5.8h-1.6
			v-10.2h1.6v1.7h0c0.8-1.3,1.9-1.9,3.4-1.9c1.1,0,2,0.4,2.6,1.1s0.9,1.8,0.9,3.1V656.6z"/>
		<path class="st14" d="M392.2,656.6h-1.6v-1.7h0c-0.8,1.3-1.9,2-3.5,2c-1.3,0-2.3-0.5-3.1-1.4c-0.8-0.9-1.2-2.2-1.2-3.7
			c0-1.7,0.4-3.1,1.3-4.1s2-1.5,3.4-1.5c1.4,0,2.4,0.6,3.1,1.7h0v-6.3h1.6V656.6z M390.6,651.9v-1.5c0-0.8-0.3-1.5-0.8-2.1
			s-1.2-0.9-2.1-0.9c-1,0-1.8,0.4-2.4,1.1s-0.9,1.7-0.9,3c0,1.2,0.3,2.1,0.8,2.8s1.3,1,2.2,1c0.9,0,1.7-0.3,2.2-1
			C390.3,653.8,390.6,653,390.6,651.9z"/>
		<path class="st14" d="M397.2,655.1L397.2,655.1l0,1.5h-1.6v-15.2h1.6v6.7h0c0.8-1.4,2-2,3.5-2c1.3,0,2.3,0.5,3.1,1.4
			c0.7,0.9,1.1,2.1,1.1,3.7c0,1.7-0.4,3.1-1.2,4.1c-0.8,1-2,1.5-3.4,1.5C398.9,656.8,397.9,656.2,397.2,655.1z M397.2,651v1.4
			c0,0.8,0.3,1.6,0.8,2.2c0.5,0.6,1.2,0.9,2.1,0.9c1,0,1.8-0.4,2.3-1.1c0.6-0.8,0.8-1.8,0.8-3.2c0-1.1-0.3-2-0.8-2.7
			c-0.5-0.6-1.2-1-2.1-1c-1,0-1.7,0.3-2.3,1C397.5,649.1,397.2,650,397.2,651z"/>
		<path class="st14" d="M411.8,656.8c-1.5,0-2.7-0.5-3.6-1.4c-0.9-1-1.4-2.2-1.4-3.8c0-1.7,0.5-3.1,1.4-4s2.2-1.5,3.8-1.5
			c1.5,0,2.7,0.5,3.6,1.4s1.3,2.2,1.3,3.9c0,1.6-0.5,2.9-1.4,3.9S413.4,656.8,411.8,656.8z M412,647.5c-1.1,0-1.9,0.4-2.5,1.1
			s-0.9,1.7-0.9,3c0,1.2,0.3,2.2,0.9,2.9s1.5,1,2.5,1c1.1,0,1.9-0.3,2.4-1c0.6-0.7,0.9-1.7,0.9-2.9c0-1.3-0.3-2.3-0.9-3
			C413.8,647.8,413,647.5,412,647.5z"/>
		<path class="st14" d="M423.9,656.8c-1.5,0-2.7-0.5-3.6-1.4c-0.9-1-1.4-2.2-1.4-3.8c0-1.7,0.5-3.1,1.4-4c0.9-1,2.2-1.5,3.8-1.5
			c1.5,0,2.7,0.5,3.6,1.4s1.3,2.2,1.3,3.9c0,1.6-0.5,2.9-1.4,3.9S425.4,656.8,423.9,656.8z M424,647.5c-1.1,0-1.9,0.4-2.5,1.1
			c-0.6,0.7-0.9,1.7-0.9,3c0,1.2,0.3,2.2,0.9,2.9s1.5,1,2.5,1c1.1,0,1.9-0.3,2.4-1c0.6-0.7,0.9-1.7,0.9-2.9c0-1.3-0.3-2.3-0.9-3
			C425.8,647.8,425,647.5,424,647.5z"/>
		<path class="st14" d="M440.1,656.6h-2.3l-4.5-4.9h0v4.9h-1.6v-15.2h1.6v9.6h0l4.3-4.7h2.2l-4.8,4.9L440.1,656.6z"/>
	</g>
</g>
<text transform="matrix(1 0 0 1 109.5347 729.8898)" class="st14 st15 st16">&quot;THINGS WE MUST ALWAYS REMEMBER&quot;</text>
<g class="st24">
	<defs>
		<rect id="SVGID_35_" x="436" y="947.4" class="st24" width="792" height="612"/>
	</defs>
	<clipPath id="SVGID_8_">
		<use xlink:href="#SVGID_35_"  style="overflow:visible;"/>
	</clipPath>
	<g style="clip-path:url(#SVGID_8_);">
		
			<image style="overflow:visible;" width="3901" height="2600" xlink:href="782E25FD.jpg"  transform="matrix(0.4396 0 0 0.4396 -119.7933 704.5714)">
		</image>
	</g>
</g>
</svg>
