<?xml version="1.0" encoding="utf-8"?>
<!-- Generator: Adobe Illustrator 25.2.1, SVG Export Plug-In . SVG Version: 6.00 Build 0)  -->
<svg version="1.1" id="_x30_1" xmlns="http://www.w3.org/2000/svg" xmlns:xlink="http://www.w3.org/1999/xlink" x="0px" y="0px"
	 viewBox="0 0 612 792" style="enable-background:new 0 0 612 792;" xml:space="preserve">
<style type="text/css">
	.st0{opacity:0.25;}
	.st1{clip-path:url(#SVGID_10_);fill:#FFFFFF;}
	.st2{opacity:0.57;clip-path:url(#SVGID_10_);fill:#D0D2D3;}
	.st3{clip-path:url(#SVGID_10_);fill:#00ADEE;}
	.st4{clip-path:url(#SVGID_12_);}
	.st5{display:none;}
	.st6{display:inline;}
	.st7{display:inline;clip-path:url(#SVGID_14_);fill:#36363A;}
	.st8{display:inline;clip-path:url(#SVGID_14_);}
	.st9{fill:#00ADEE;}
	.st10{display:inline;clip-path:url(#SVGID_14_);fill:#00ADEE;}
	.st11{fill:#36363A;}
	.st12{clip-path:url(#SVGID_18_);fill:#00ADEE;}
	.st13{clip-path:url(#SVGID_26_);fill:#00ADEE;}
	.st14{opacity:0.38;}
	.st15{opacity:0.87;fill:#FFFFFF;}
	.st16{fill:#1E1B1B;}
	.st17{opacity:0.3;}
	.st18{opacity:3.000000e-02;fill:#FFFFFF;}
	.st19{fill:#FFFFFF;}
	.st20{opacity:0.74;clip-path:url(#SVGID_34_);fill:#FFFFFF;}
	.st21{clip-path:url(#SVGID_34_);}
	.st22{fill:none;stroke:#000000;stroke-width:3.1849;stroke-miterlimit:10;}
	.st23{opacity:0.74;clip-path:url(#SVGID_38_);fill:#FFFFFF;}
	.st24{clip-path:url(#SVGID_38_);}
	.st25{clip-path:url(#SVGID_40_);fill:#36363A;}
	.st26{fill-rule:evenodd;clip-rule:evenodd;fill:#FFFFFF;}
	.st27{fill:url(#SVGID_43_);}
	.st28{fill:url(#SVGID_44_);}
	.st29{fill:url(#SVGID_45_);}
	.st30{fill:url(#SVGID_46_);}
	.st31{fill:url(#SVGID_47_);}
	.st32{fill-rule:evenodd;clip-rule:evenodd;fill:#36363A;}
	.st33{font-family:'AbhayaLibre-Bold';}
	.st34{font-size:25.359px;}
	.st35{letter-spacing:5;}
	.st36{fill:#404041;}
	.st37{font-family:'Georgia-Bold';}
	.st38{font-size:42.5977px;}
	.st39{fill:none;stroke:#36363A;stroke-linecap:round;stroke-miterlimit:10;}
	.st40{font-family:'Poppins-Italic';}
	.st41{font-size:11.1132px;}
	.st42{fill:#E3E3E3;}
	.st43{font-family:'Poppins-SemiBold';}
	.st44{font-size:14px;}
	.st45{font-family:'Poppins-Regular';}
	.st46{font-size:15.6257px;}
	.st47{clip-path:url(#SVGID_49_);fill:#00ADEE;}
	.st48{clip-path:url(#SVGID_49_);fill:#D0D2D3;}
</style>
<g class="st0">
	<defs>
		<rect id="SVGID_3_" y="-0.4" class="st0" width="612" height="792"/>
	</defs>
	<clipPath id="SVGID_2_">
		<use xlink:href="#SVGID_3_"  style="overflow:visible;"/>
	</clipPath>
	<g style="clip-path:url(#SVGID_2_);">
		
			<image style="overflow:visible;" width="1380" height="920" xlink:href="8E9273F9.jpg"  transform="matrix(0 -0.663 0.663 0 0 872.5714)">
		</image>
	</g>
</g>
<g id="_x38_">
	<g>
		<path class="st11" d="M456.3,133.1c-0.3-3.8-3.4-6.8-7.3-7c-0.7,0-1-0.3-1-0.8c0-0.5,0.3-0.8,1-0.8c0.1,0,0.2,0,0.3,0
			c8.8,0,17.7,0,26.5,0c0.2,0,0.5,0,0.7,0c-0.7-2.6-1.4-5.1-1.9-7.6c-0.5-2.5-0.9-5.1-1.3-7.6c-1.1,0.7-2.1,1.4-3.2,2.1
			c-0.5,0.3-1,0.2-1.2-0.2c-0.2-0.4-0.1-0.8,0.4-1.1c2.1-1.2,3.9-2.7,5.7-4.3c0.2-0.1,0.4-0.2,0.5-0.3c-0.8-0.4-1.5-0.6-2.2-0.8
			c-0.4-0.1-0.8-0.3-0.9-0.7c-0.1-0.5,0.2-0.7,0.5-0.9c2.4-1.8,4.5-3.8,6.3-6.2c0.9-1.3,1.8-2.6,2.7-4c-1.3-0.4-2.4-0.7-3.5-1.1
			c-0.3-0.1-0.6-0.4-0.7-0.7c-0.1-0.2,0.2-0.6,0.4-0.8c3.9-3.1,7.2-6.8,10.2-10.7c0.1-0.1,0.1-0.2,0.2-0.3c-0.3,0-0.5,0-0.6,0
			c-0.8,0-1.6,0.1-2.4,0.1c-0.3,0-0.7-0.2-0.9-0.5c-0.3-0.3,0-0.7,0.2-1c0.2-0.2,0.3-0.3,0.5-0.5c2.7-3,4-6.6,4.2-10.7
			c0.1-1.1,0-2.2,0-3.4c-2.3,0.9-4.4,1.9-6.3,3.1c-3.7,2.3-7,5-9,9c-0.1,0.2-0.5,0.5-0.8,0.4c-0.3,0-0.6-0.4-0.7-0.6
			c-0.2-0.5-0.2-1-0.3-1.6c-0.1,0.1-0.2,0.2-0.3,0.3c-1.6,2.1-2.9,4.4-3.7,6.9c-0.7,2-1.2,4.1-1,6.3c0,0.4,0,0.8-0.4,1.1
			c-0.5,0.2-0.8,0-1.1-0.3c-0.4-0.4-0.8-0.8-1.4-1.3c-0.2,1.4-0.4,2.6-0.5,3.8c-0.2,2.8,0,5.6,1.4,8.2c0.3,0.7,0,1.2-0.7,1.2
			c-0.6,0-1.3,0-1.9,0c0.1,0.2,0.1,0.4,0.2,0.6c0.7,2,1.4,4.1,2,6.1c0.2,0.6,0,1-0.5,1.2c-0.5,0.1-0.8-0.1-1-0.7c0,0,0-0.1,0-0.1
			c-0.1-0.6-0.4-0.7-0.9-0.7c-9.4,0-18.8,0-28.2,0c-0.2,0-0.4,0-0.6,0c-0.5,0-0.9-0.3-0.9-0.8c0-0.5,0.4-0.8,0.9-0.8
			c0.2,0,0.4,0,0.6,0c9.2,0,18.4,0,27.6,0c0.2,0,0.4,0,0.7,0c-0.1-0.2-0.1-0.4-0.2-0.6c-0.4-1.1-0.8-2.2-1.1-3.3
			c-0.2-0.5-0.4-0.7-0.9-0.7c-8.8,0-17.5,0-26.3,0c-0.2,0-0.4,0-0.6,0c-0.4-0.1-0.6-0.4-0.6-0.8c0-0.4,0.3-0.7,0.7-0.8
			c0.1,0,0.3,0,0.5,0c9.8-0.1,19.5,0.3,29.3-0.3c0,0,0.1,0,0.1,0c-0.3-1.4-0.6-2.8-1-4.3c-0.1,0-0.3,0-0.5,0c-9.3,0-18.5,0-27.8,0
			c-0.2,0-0.4,0.1-0.6,0c-0.3-0.2-0.6-0.4-0.6-0.7c0-0.2,0.3-0.6,0.5-0.8c0.2-0.1,0.5-0.1,0.8-0.1c9.1,0,18.3,0,27.4,0
			c0.3,0,0.5,0,0.8,0c0.1-1.6,0.3-3.1,0.4-4.6c-0.2,0-0.4,0-0.6,0c-9.6,0-19.2,0-28.8,0c-0.2,0-0.3,0-0.5,0c-0.4,0-0.7-0.3-0.7-0.7
			c0-0.5,0.2-0.8,0.7-0.8c0.2,0,0.4,0,0.6,0c9.7,0,19.3,0,29,0c0.2,0,0.5,0,0.7,0c0.1-0.3,0.2-0.7,0.3-1c0.2-0.8,0.8-1,1.5-0.4
			c0.3,0.3,0.6,0.6,0.9,0.8c0.3-1.4,0.5-2.7,0.7-4.1c-0.2,0-0.4,0-0.7,0c-10.7,0-21.4,0-32.2,0c-0.3,0-0.7,0-1,0
			c-0.4-0.1-0.6-0.4-0.6-0.8c0-0.4,0.3-0.7,0.7-0.8c0.2,0,0.4,0,0.6,0c7.2,0,14.4,0,21.6,0c3.9,0,7.8,0,11.7,0c0.3,0,0.5,0,0.7-0.4
			c1.1-2.9,2.8-5.5,4.8-8c0.2-0.2,0.3-0.6,0.2-0.9c-0.2-1.2-0.4-2.4-0.6-3.5c-0.8-3.9-2-7.8-4.1-11.3c-1.3-2.3-2.9-4.3-5.2-5.7
			c-1.2-0.7-2.4-1.2-3.8-1.2c-13.9,0-27.8,0-41.6,0c-0.2,0-0.3,0-0.6,0c1.9,1.3,3.3,2.9,4.5,4.7c2.3,3.4,3.7,7.2,4.8,11.2
			c1.9,7.2,2.6,14.5,2.7,21.8c0.1,4.4-0.1,8.9-0.1,13.4c0,6.9,0.4,13.8,2,20.6c1,4.3,2.5,8.5,5,12.2c2.4,3.6,5.4,6.4,9.5,7.8
			c1.8,0.6,3.6,1.1,5.5,0.7C454.1,140.7,456.6,137.3,456.3,133.1z M428,57.7c-0.2,0-0.5,0-0.7,0c-0.5,0-0.7-0.3-0.7-0.8
			c0-0.4,0.2-0.7,0.7-0.8c0.1,0,0.2,0,0.3,0c11.4,0,22.8,0,34.2,0c0.2,0,0.5,0,0.7,0.1c0.2,0.2,0.4,0.5,0.3,0.8
			c0,0.2-0.3,0.5-0.6,0.6c-0.2,0.1-0.4,0-0.7,0c-5.6,0-11.2,0-16.9,0C439.2,57.7,433.6,57.7,428,57.7z M430,63.1c-0.7,0-1-0.3-1-0.8
			c0-0.5,0.3-0.8,1-0.8c5.7,0,11.4,0,17.1,0c5.5,0,11.1,0,16.6,0c0.2,0,0.3,0,0.5,0c0.6,0,1,0.3,1,0.8c0,0.5-0.4,0.8-1,0.8
			C452.8,63.1,441.4,63.1,430,63.1z M430.5,68.6c0-0.2,0.3-0.6,0.5-0.8c0.1-0.1,0.4-0.1,0.6-0.1c11.3,0,22.6,0,33.9,0
			c0.2,0,0.4,0,0.6,0.1c0.4,0.1,0.7,0.4,0.5,0.8c-0.1,0.3-0.4,0.5-0.7,0.7c-0.1,0.1-0.3,0-0.5,0c-5.6,0-11.3,0-16.9,0
			c-5.6,0-11.3,0-16.9,0c-0.2,0-0.4,0.1-0.6,0C430.9,69.1,430.6,68.8,430.5,68.6z M431.3,74.7c0-0.4,0.3-0.7,0.7-0.8
			c0.2,0,0.3,0,0.5,0c5.6,0,11.2,0,16.8,0c5.6,0,11.3,0,16.9,0c0.2,0,0.3,0,0.5,0c0.4,0.1,0.7,0.3,0.7,0.8c0,0.5-0.3,0.7-0.7,0.8
			c-0.2,0-0.3,0-0.5,0c-11.3,0-22.5,0-33.8,0c-0.2,0-0.3,0-0.5,0C431.5,75.4,431.3,75.1,431.3,74.7z M436.3,118.6
			c-0.1,0-0.2,0-0.3,0c-0.5,0-0.8-0.3-0.8-0.8c0-0.4,0.3-0.8,0.9-0.8c1.3,0,2.6,0,3.8,0c8.3,0,16.6,0,24.9,0c0.2,0,0.3,0,0.5,0
			c0.1-1.5,0.2-3,0.3-4.6c-0.3,0-0.5,0-0.7,0c-10,0-19.9,0-29.9,0c-0.2,0-0.3,0-0.5,0c-0.5,0-0.8-0.3-0.8-0.7c0-0.4,0.3-0.8,0.8-0.8
			c0.2,0,0.3,0,0.5,0c10.1,0,20.2,0,30.3,0c0.2,0,0.4,0,0.5,0c0.5-2.3,0.8-4.5,1.4-6.7c2.4-10,6.5-19.1,12.5-27.5
			c1.3-1.8,2.6-3.4,3.9-5.1c0.4-0.6,1.1-0.5,1.4,0c0.2,0.4,0,0.7-0.2,1.1c-1.5,1.9-3,3.7-4.3,5.7c-5.9,8.5-10,17.9-12.1,28.1
			c-0.7,3.3-1.1,6.6-1.3,9.9c0,0.2,0,0.4,0,0.7c1,0,1.9,0,2.8,0c0.3,0,0.6,0,0.9,0c0.5,0,0.8,0.3,0.7,0.8c0,0.5-0.3,0.7-0.7,0.8
			c-0.1,0-0.3,0-0.4,0C458.9,118.6,447.6,118.6,436.3,118.6z"/>
		<path class="st11" d="M496.7,133.4c-0.4-4.2-3.5-7.2-7.7-7.2c-11.5,0-23,0-34.6,0c-0.1,0-0.3,0-0.5,0c5.1,3.7,5.3,11.3-0.1,15.4
			c0.3,0,0.5,0,0.7,0c11.5,0,23,0,34.4,0c0.5,0,1,0,1.5-0.1C494.3,140.7,497.1,137.1,496.7,133.4z"/>
		<path class="st11" d="M416.9,51.7c-0.9-0.8-2-1.5-3.1-2.1c-0.6-0.3-1.4-0.6-2.1-0.6c-3.7,0.1-7.1,3.5-7.3,7.2c5.4,0,10.7,0,16.1,0
			C419.5,54.5,418.4,52.9,416.9,51.7z"/>
	</g>
	<g>
		<g>
			<g>
				<path d="M77.9,146.5l-5.5,19.6h-2.7l-4-14.3c-0.2-0.6-0.3-1.3-0.3-2h-0.1c-0.1,0.7-0.2,1.3-0.4,2l-4.1,14.4h-2.7l-5.7-19.6H55
					l4.2,15c0.2,0.6,0.3,1.3,0.3,2h0.1c0-0.5,0.2-1.1,0.4-2l4.3-15h2.2l4.2,15.1c0.1,0.5,0.3,1.1,0.3,1.8H71c0-0.5,0.2-1.1,0.4-1.9
					l4-15.1H77.9z"/>
				<path d="M91.8,159.7h-9.9c0,1.6,0.5,2.8,1.3,3.6s1.9,1.3,3.3,1.3c1.6,0,3-0.5,4.3-1.6v2.1c-1.2,0.9-2.9,1.3-4.9,1.3
					c-2,0-3.5-0.6-4.7-1.9s-1.7-3.1-1.7-5.4c0-2.2,0.6-4,1.9-5.3s2.8-2.1,4.6-2.1s3.2,0.6,4.3,1.8s1.5,2.8,1.5,4.9V159.7z
					 M89.5,157.8c0-1.3-0.3-2.3-0.9-3s-1.5-1.1-2.6-1.1c-1.1,0-2,0.4-2.7,1.1s-1.2,1.7-1.4,3H89.5z"/>
				<path d="M109.3,166c-0.5,0.3-1.2,0.4-2.1,0.4c-2.5,0-3.7-1.4-3.7-4.1V154h-2.4v-1.9h2.4v-3.4l2.2-0.7v4.1h3.5v1.9h-3.5v7.9
					c0,0.9,0.2,1.6,0.5,2s0.8,0.6,1.6,0.6c0.6,0,1.1-0.2,1.5-0.5V166z"/>
				<path d="M123.9,166.1h-2.2V158c0-2.9-1.1-4.4-3.3-4.4c-1.1,0-2,0.4-2.8,1.3s-1.1,1.9-1.1,3.2v7.9h-2.2v-20.7h2.2v9.1h0.1
					c1.1-1.8,2.6-2.7,4.6-2.7c3.2,0,4.7,1.9,4.7,5.7V166.1z"/>
				<path d="M139.4,159.7h-9.9c0,1.6,0.5,2.8,1.3,3.6s1.9,1.3,3.3,1.3c1.6,0,3-0.5,4.3-1.6v2.1c-1.2,0.9-2.9,1.3-4.9,1.3
					c-2,0-3.5-0.6-4.7-1.9c-1.1-1.3-1.7-3.1-1.7-5.4c0-2.2,0.6-4,1.9-5.3c1.2-1.4,2.8-2.1,4.6-2.1s3.2,0.6,4.3,1.8s1.5,2.8,1.5,4.9
					V159.7z M137.1,157.8c0-1.3-0.3-2.3-0.9-3s-1.5-1.1-2.6-1.1c-1.1,0-2,0.4-2.7,1.1s-1.2,1.7-1.4,3H137.1z"/>
				<path d="M170.7,166.1h-2.3V153c0-1,0.1-2.3,0.2-3.8h-0.1c-0.2,0.9-0.4,1.5-0.6,1.9l-6.7,15.1h-1.1l-6.7-15
					c-0.2-0.4-0.4-1.1-0.6-2h-0.1c0.1,0.8,0.1,2.1,0.1,3.8v13.1h-2.2v-19.6h3l6,13.7c0.5,1,0.8,1.8,0.9,2.4h0.1
					c0.4-1.1,0.7-1.9,0.9-2.4l6.1-13.6h2.9V166.1z"/>
				<path d="M186.9,159.7H177c0,1.6,0.5,2.8,1.3,3.6s1.9,1.3,3.3,1.3c1.6,0,3-0.5,4.3-1.6v2.1c-1.2,0.9-2.9,1.3-4.9,1.3
					c-2,0-3.5-0.6-4.7-1.9s-1.7-3.1-1.7-5.4c0-2.2,0.6-4,1.9-5.3s2.8-2.1,4.6-2.1s3.2,0.6,4.3,1.8s1.5,2.8,1.5,4.9V159.7z
					 M184.6,157.8c0-1.3-0.3-2.3-0.9-3s-1.5-1.1-2.6-1.1c-1.1,0-2,0.4-2.7,1.1s-1.2,1.7-1.4,3H184.6z"/>
				<path d="M210.1,166.1h-2.2v-8c0-1.5-0.2-2.7-0.7-3.4s-1.3-1-2.4-1c-1,0-1.8,0.4-2.4,1.3s-1,1.9-1,3.1v8h-2.2v-8.3
					c0-2.8-1.1-4.1-3.2-4.1c-1,0-1.8,0.4-2.4,1.2s-1,1.9-1,3.2v8h-2.2v-14h2.2v2.2h0.1c1-1.7,2.4-2.5,4.3-2.5c1,0,1.8,0.3,2.5,0.8
					s1.2,1.2,1.5,2.1c1-1.9,2.6-2.9,4.6-2.9c3.1,0,4.6,1.9,4.6,5.7V166.1z"/>
				<path d="M216.7,164.1L216.7,164.1l-0.1,2h-2.2v-20.7h2.2v9.2h0.1c1.1-1.9,2.7-2.8,4.8-2.8c1.8,0,3.2,0.6,4.2,1.9s1.5,2.9,1.5,5
					c0,2.3-0.6,4.2-1.7,5.6s-2.7,2.1-4.7,2.1C219,166.4,217.6,165.7,216.7,164.1z M216.6,158.4v2c0,1.2,0.4,2.1,1.1,2.9
					s1.7,1.2,2.9,1.2c1.4,0,2.4-0.5,3.2-1.6s1.2-2.5,1.2-4.3c0-1.6-0.4-2.8-1.1-3.7s-1.7-1.3-2.9-1.3c-1.3,0-2.4,0.5-3.1,1.4
					S216.6,157.1,216.6,158.4z"/>
				<path d="M242.1,159.7h-9.9c0,1.6,0.5,2.8,1.3,3.6s1.9,1.3,3.3,1.3c1.6,0,3-0.5,4.3-1.6v2.1c-1.2,0.9-2.9,1.3-4.9,1.3
					c-2,0-3.5-0.6-4.7-1.9s-1.7-3.1-1.7-5.4c0-2.2,0.6-4,1.9-5.3s2.8-2.1,4.6-2.1s3.2,0.6,4.3,1.8s1.5,2.8,1.5,4.9V159.7z
					 M239.8,157.8c0-1.3-0.3-2.3-0.9-3s-1.5-1.1-2.6-1.1c-1.1,0-2,0.4-2.7,1.1s-1.2,1.7-1.4,3H239.8z"/>
				<path d="M252.8,154.4c-0.4-0.3-1-0.5-1.7-0.5c-1,0-1.8,0.5-2.4,1.4s-1,2.1-1,3.7v7.1h-2.2v-14h2.2v2.9h0.1
					c0.3-1,0.8-1.8,1.5-2.3s1.4-0.8,2.2-0.8c0.6,0,1,0.1,1.3,0.2V154.4z"/>
				<path d="M254.4,165.6v-2.4c1.2,0.9,2.6,1.4,4,1.4c2,0,3-0.7,3-2c0-0.4-0.1-0.7-0.3-1s-0.4-0.5-0.7-0.7s-0.6-0.4-1-0.5
					s-0.8-0.3-1.3-0.5c-0.6-0.2-1.2-0.5-1.6-0.7s-0.9-0.5-1.2-0.8s-0.6-0.7-0.7-1.1s-0.2-0.9-0.2-1.4c0-0.7,0.2-1.2,0.5-1.7
					s0.7-0.9,1.2-1.3s1.1-0.6,1.7-0.8s1.3-0.3,2-0.3c1.2,0,2.3,0.2,3.3,0.6v2.3c-1-0.7-2.2-1-3.6-1c-0.4,0-0.8,0-1.1,0.1
					s-0.6,0.2-0.9,0.4s-0.4,0.4-0.6,0.6s-0.2,0.5-0.2,0.8c0,0.4,0.1,0.7,0.2,0.9s0.3,0.5,0.6,0.7s0.6,0.4,0.9,0.5s0.8,0.3,1.2,0.5
					c0.6,0.2,1.2,0.5,1.7,0.7s0.9,0.5,1.3,0.8s0.6,0.7,0.8,1.1s0.3,0.9,0.3,1.5c0,0.7-0.2,1.3-0.5,1.8s-0.7,0.9-1.2,1.3
					s-1.1,0.6-1.8,0.8s-1.4,0.2-2.1,0.2C256.7,166.4,255.4,166.2,254.4,165.6z"/>
				<path d="M283,166.4c-2.8,0-5-0.9-6.7-2.7s-2.5-4.2-2.5-7.2c0-3.2,0.9-5.7,2.6-7.5s4-2.8,7-2.8c2.7,0,4.9,0.9,6.5,2.7
					s2.5,4.2,2.5,7.2c0,3.2-0.8,5.7-2.5,7.6S285.8,166.4,283,166.4z M283.1,148.3c-2.1,0-3.7,0.7-5,2.2s-1.9,3.4-1.9,5.9
					s0.6,4.4,1.9,5.8s2.9,2.2,4.9,2.2c2.2,0,3.8-0.7,5.1-2.1s1.9-3.4,1.9-5.9c0-2.6-0.6-4.6-1.8-6S285.2,148.3,283.1,148.3z"/>
				<path d="M302.8,147.4c-0.4-0.2-0.9-0.4-1.5-0.4c-1.6,0-2.4,1-2.4,3v2.2h3.3v1.9h-3.3v12.1h-2.2V154h-2.4v-1.9h2.4v-2.3
					c0-1.5,0.4-2.6,1.3-3.5s1.9-1.3,3.2-1.3c0.7,0,1.2,0.1,1.6,0.2V147.4z"/>
				<path d="M324.2,148.6h-5.7v17.5h-2.3v-17.5h-5.6v-2.1h13.6V148.6z"/>
				<path d="M338.6,166.1h-2.2V158c0-2.9-1.1-4.4-3.3-4.4c-1.1,0-2,0.4-2.8,1.3s-1.1,1.9-1.1,3.2v7.9H327v-20.7h2.2v9.1h0.1
					c1.1-1.8,2.6-2.7,4.6-2.7c3.2,0,4.7,1.9,4.7,5.7V166.1z"/>
				<path d="M354.1,159.7h-9.9c0,1.6,0.5,2.8,1.3,3.6s1.9,1.3,3.3,1.3c1.6,0,3-0.5,4.3-1.6v2.1c-1.2,0.9-2.9,1.3-4.9,1.3
					c-2,0-3.5-0.6-4.7-1.9s-1.7-3.1-1.7-5.4c0-2.2,0.6-4,1.9-5.3s2.8-2.1,4.6-2.1s3.2,0.6,4.3,1.8s1.5,2.8,1.5,4.9V159.7z
					 M351.8,157.8c0-1.3-0.3-2.3-0.9-3s-1.5-1.1-2.6-1.1c-1.1,0-2,0.4-2.7,1.1s-1.2,1.7-1.4,3H351.8z"/>
				<path d="M64.8,199.7H54.6v-19.6h2.3v17.5h7.9V199.7z"/>
				<path d="M77.5,199.7h-2.2v-2.2h-0.1c-1,1.7-2.4,2.5-4.3,2.5c-1.4,0-2.5-0.4-3.3-1.1s-1.2-1.7-1.2-2.9c0-2.6,1.5-4.1,4.6-4.6
					l4.2-0.6c0-2.4-1-3.6-2.9-3.6c-1.7,0-3.2,0.6-4.6,1.7v-2.3c1.4-0.9,3-1.3,4.8-1.3c3.3,0,4.9,1.7,4.9,5.2V199.7z M75.3,192.6
					l-3.4,0.5c-1,0.1-1.8,0.4-2.4,0.8s-0.8,1-0.8,2c0,0.7,0.2,1.2,0.7,1.7s1.1,0.6,1.9,0.6c1.1,0,2-0.4,2.8-1.2s1.1-1.8,1.1-3V192.6
					z"/>
				<path d="M93.4,199.7h-2.2v-8c0-3-1.1-4.5-3.3-4.5c-1.1,0-2,0.4-2.8,1.3s-1.1,1.9-1.1,3.2v8h-2.2v-14H84v2.3h0.1
					c1.1-1.8,2.6-2.7,4.6-2.7c1.5,0,2.7,0.5,3.5,1.5s1.2,2.4,1.2,4.3V199.7z"/>
				<path d="M109.6,198.6c0,5.1-2.5,7.7-7.4,7.7c-1.7,0-3.2-0.3-4.5-1v-2.2c1.6,0.9,3.1,1.3,4.5,1.3c3.4,0,5.2-1.8,5.2-5.5v-1.5
					h-0.1c-1.1,1.8-2.7,2.7-4.8,2.7c-1.7,0-3.1-0.6-4.2-1.9s-1.6-2.9-1.6-5c0-2.4,0.6-4.3,1.7-5.7s2.7-2.1,4.7-2.1
					c1.9,0,3.3,0.8,4.2,2.3h0.1v-1.9h2.2V198.6z M107.3,193.4v-2.1c0-1.1-0.4-2.1-1.1-2.9s-1.7-1.2-2.8-1.2c-1.4,0-2.5,0.5-3.3,1.5
					S99,191.2,99,193c0,1.6,0.4,2.8,1.1,3.7s1.7,1.4,3,1.4c1.3,0,2.3-0.4,3.1-1.3S107.3,194.8,107.3,193.4z"/>
				<path d="M125.7,199.7h-2.2v-8.1c0-2.9-1.1-4.4-3.3-4.4c-1.1,0-2,0.4-2.8,1.3s-1.1,1.9-1.1,3.2v7.9h-2.2V179h2.2v9.1h0.1
					c1.1-1.8,2.6-2.7,4.6-2.7c3.2,0,4.7,1.9,4.7,5.7V199.7z"/>
				<path d="M135.8,200c-2.1,0-3.7-0.7-5-2s-1.9-3-1.9-5.2c0-2.4,0.6-4.2,1.9-5.5s3-2,5.2-2c2.1,0,3.7,0.6,4.9,1.9s1.8,3.1,1.8,5.3
					c0,2.2-0.6,4-1.9,5.4S137.9,200,135.8,200z M136,187.3c-1.4,0-2.6,0.5-3.4,1.5s-1.3,2.3-1.3,4.1c0,1.7,0.4,3,1.3,3.9
					s2,1.4,3.4,1.4c1.4,0,2.6-0.5,3.3-1.4s1.2-2.3,1.2-4c0-1.8-0.4-3.1-1.2-4S137.4,187.3,136,187.3z"/>
				<path d="M153.3,181c-0.4-0.2-0.9-0.4-1.5-0.4c-1.6,0-2.4,1-2.4,3v2.2h3.3v1.9h-3.3v12.1h-2.2v-12.1h-2.4v-1.9h2.4v-2.3
					c0-1.5,0.4-2.6,1.3-3.5s1.9-1.3,3.2-1.3c0.7,0,1.2,0.1,1.6,0.2V181z"/>
				<path d="M166.4,193.3h-9.9c0,1.6,0.5,2.8,1.3,3.6s1.9,1.3,3.3,1.3c1.6,0,3-0.5,4.3-1.6v2.1c-1.2,0.9-2.9,1.3-4.9,1.3
					c-2,0-3.5-0.6-4.7-1.9s-1.7-3.1-1.7-5.4c0-2.2,0.6-4,1.9-5.3s2.8-2.1,4.6-2.1s3.2,0.6,4.3,1.8s1.5,2.8,1.5,4.9V193.3z
					 M164.1,191.4c0-1.3-0.3-2.3-0.9-3s-1.5-1.1-2.6-1.1c-1.1,0-2,0.4-2.7,1.1s-1.2,1.7-1.4,3H164.1z"/>
				<path d="M177.1,188c-0.4-0.3-1-0.5-1.7-0.5c-1,0-1.8,0.5-2.4,1.4s-1,2.1-1,3.7v7.1h-2.2v-14h2.2v2.9h0.1c0.3-1,0.8-1.8,1.5-2.3
					s1.4-0.8,2.2-0.8c0.6,0,1,0.1,1.3,0.2V188z"/>
				<path d="M202.2,199.7h-2.3v-8.9h-10.1v8.9h-2.3v-19.6h2.3v8.6h10.1v-8.6h2.3V199.7z"/>
				<path d="M217.1,199.7h-2.2v-2.2h-0.1c-1,1.7-2.4,2.5-4.3,2.5c-1.4,0-2.5-0.4-3.3-1.1s-1.2-1.7-1.2-2.9c0-2.6,1.5-4.1,4.6-4.6
					l4.2-0.6c0-2.4-1-3.6-2.9-3.6c-1.7,0-3.2,0.6-4.6,1.7v-2.3c1.4-0.9,3-1.3,4.8-1.3c3.3,0,4.9,1.7,4.9,5.2V199.7z M214.8,192.6
					l-3.4,0.5c-1,0.1-1.8,0.4-2.4,0.8s-0.8,1-0.8,2c0,0.7,0.2,1.2,0.7,1.7s1.1,0.6,1.9,0.6c1.1,0,2-0.4,2.8-1.2s1.1-1.8,1.1-3V192.6
					z"/>
				<path d="M232.9,199.7h-2.2v-8c0-3-1.1-4.5-3.3-4.5c-1.1,0-2,0.4-2.8,1.3s-1.1,1.9-1.1,3.2v8h-2.2v-14h2.2v2.3h0.1
					c1.1-1.8,2.6-2.7,4.6-2.7c1.5,0,2.7,0.5,3.5,1.5s1.2,2.4,1.2,4.3V199.7z"/>
				<path d="M249.1,199.7h-2.2v-2.4h-0.1c-1,1.8-2.6,2.7-4.8,2.7c-1.8,0-3.2-0.6-4.2-1.9s-1.6-3-1.6-5.1c0-2.3,0.6-4.2,1.8-5.6
					s2.7-2.1,4.7-2.1c1.9,0,3.3,0.8,4.2,2.3h0.1V179h2.2V199.7z M246.8,193.4v-2.1c0-1.1-0.4-2.1-1.1-2.9s-1.7-1.2-2.8-1.2
					c-1.4,0-2.4,0.5-3.2,1.5s-1.2,2.4-1.2,4.2c0,1.6,0.4,2.9,1.1,3.8s1.8,1.4,3,1.4c1.2,0,2.3-0.5,3-1.4S246.8,194.8,246.8,193.4z"
					/>
				<path d="M255.9,197.7L255.9,197.7l-0.1,2h-2.2V179h2.2v9.2h0.1c1.1-1.9,2.7-2.8,4.8-2.8c1.8,0,3.2,0.6,4.2,1.9s1.5,2.9,1.5,5
					c0,2.3-0.6,4.2-1.7,5.6s-2.7,2.1-4.7,2.1C258.3,200,256.9,199.3,255.9,197.7z M255.9,192v2c0,1.2,0.4,2.1,1.1,2.9
					s1.7,1.2,2.9,1.2c1.4,0,2.4-0.5,3.2-1.6s1.2-2.5,1.2-4.3c0-1.6-0.4-2.8-1.1-3.7s-1.7-1.3-2.9-1.3c-1.3,0-2.4,0.5-3.1,1.4
					S255.9,190.7,255.9,192z"/>
				<path d="M275.9,200c-2.1,0-3.7-0.7-5-2s-1.9-3-1.9-5.2c0-2.4,0.6-4.2,1.9-5.5s3-2,5.2-2c2.1,0,3.7,0.6,4.9,1.9s1.8,3.1,1.8,5.3
					c0,2.2-0.6,4-1.9,5.4S278.1,200,275.9,200z M276.1,187.3c-1.4,0-2.6,0.5-3.4,1.5s-1.3,2.3-1.3,4.1c0,1.7,0.4,3,1.3,3.9
					s2,1.4,3.4,1.4c1.4,0,2.6-0.5,3.3-1.4s1.2-2.3,1.2-4c0-1.8-0.4-3.1-1.2-4S277.6,187.3,276.1,187.3z"/>
				<path d="M292.3,200c-2.1,0-3.7-0.7-5-2s-1.9-3-1.9-5.2c0-2.4,0.6-4.2,1.9-5.5s3-2,5.2-2c2.1,0,3.7,0.6,4.9,1.9s1.8,3.1,1.8,5.3
					c0,2.2-0.6,4-1.9,5.4S294.5,200,292.3,200z M292.5,187.3c-1.4,0-2.6,0.5-3.4,1.5s-1.3,2.3-1.3,4.1c0,1.7,0.4,3,1.3,3.9
					s2,1.4,3.4,1.4c1.4,0,2.6-0.5,3.3-1.4s1.2-2.3,1.2-4c0-1.8-0.4-3.1-1.2-4S294,187.3,292.5,187.3z"/>
				<path d="M314.5,199.7h-3.1l-6.2-6.7h-0.1v6.7h-2.2V179h2.2v13.1h0.1l5.9-6.4h2.9l-6.5,6.8L314.5,199.7z"/>
				<path d="M334.7,182.2h-7.7v6.8h7.1v2.1h-7.1v8.7h-2.3v-19.6h10V182.2z"/>
				<path d="M348.2,199.7h-2.2v-2.2h-0.1c-1,1.7-2.4,2.5-4.3,2.5c-1.4,0-2.5-0.4-3.3-1.1s-1.2-1.7-1.2-2.9c0-2.6,1.5-4.1,4.6-4.6
					l4.2-0.6c0-2.4-1-3.6-2.9-3.6c-1.7,0-3.2,0.6-4.6,1.7v-2.3c1.4-0.9,3-1.3,4.8-1.3c3.3,0,4.9,1.7,4.9,5.2V199.7z M345.9,192.6
					l-3.4,0.5c-1,0.1-1.8,0.4-2.4,0.8s-0.8,1-0.8,2c0,0.7,0.2,1.2,0.7,1.7s1.1,0.6,1.9,0.6c1.1,0,2-0.4,2.8-1.2s1.1-1.8,1.1-3V192.6
					z"/>
				<path d="M372.3,199.7H370v-8c0-1.5-0.2-2.7-0.7-3.4s-1.3-1-2.4-1c-1,0-1.8,0.4-2.4,1.3s-1,1.9-1,3.1v8h-2.2v-8.3
					c0-2.8-1.1-4.1-3.2-4.1c-1,0-1.8,0.4-2.4,1.2s-1,1.9-1,3.2v8h-2.2v-14h2.2v2.2h0.1c1-1.7,2.4-2.5,4.3-2.5c1,0,1.8,0.3,2.5,0.8
					s1.2,1.2,1.5,2.1c1-1.9,2.6-2.9,4.6-2.9c3.1,0,4.6,1.9,4.6,5.7V199.7z"/>
				<path d="M377.7,182.2c-0.4,0-0.7-0.1-1-0.4s-0.4-0.6-0.4-1s0.1-0.8,0.4-1s0.6-0.4,1-0.4c0.4,0,0.8,0.1,1,0.4s0.4,0.6,0.4,1
					c0,0.4-0.1,0.7-0.4,1S378.1,182.2,377.7,182.2z M378.8,199.7h-2.2v-14h2.2V199.7z"/>
				<path d="M385.5,199.7h-2.2V179h2.2V199.7z"/>
				<path d="M401.2,185.7l-6.4,16.2c-1.1,2.9-2.8,4.3-4.8,4.3c-0.6,0-1.1-0.1-1.5-0.2v-2c0.5,0.2,0.9,0.2,1.3,0.2c1.1,0,2-0.7,2.5-2
					l1.1-2.7l-5.5-14h2.5l3.8,10.8c0,0.1,0.1,0.5,0.3,1.1h0.1c0-0.2,0.1-0.6,0.3-1l4-10.8H401.2z"/>
				<path d="M405.7,196.6l-2.2,6.7h-1.6l1.6-6.7H405.7z"/>
			</g>
		</g>
	</g>
	<g>
		<text transform="matrix(1 0 0 1 165.2992 776.202)" class="st11 st33 st34 st35">Family Members:</text>
	</g>
	<g>
		<text transform="matrix(1 0 0 1 47.1637 69.4872)"><tspan x="0" y="0" class="st36 st37 st38">Family</tspan><tspan x="0" y="46.5" class="st9 st37 st38">Consitution</tspan></text>
	</g>
	<g>
		<line class="st39" x1="67" y1="742.3" x2="245.7" y2="742.3"/>
		<line class="st39" x1="366.3" y1="742.3" x2="545" y2="742.3"/>
	</g>
	<path class="st11" d="M216.6,678.3h395.7V216.4H216.6c-98.7,0-178.7,103.4-178.7,230.9v0C37.9,574.9,117.9,678.3,216.6,678.3z"/>
	<g>
		<g>
			<g>
				<text transform="matrix(1 0 0 1 183.2116 357.8075)"><tspan x="0" y="0" class="st19 st40 st41">Conduct ourselves both individually and as a family in a way that is in </tspan><tspan x="0" y="13.3" class="st19 st40 st41">line with our stated Core Values:</tspan></text>
			</g>
		</g>
		<path class="st9" d="M159.9,366.5c-0.1-0.2-0.2-0.4-0.3-0.6c-0.4-0.7-0.8-1.4-1.3-2.1c-0.5-0.6-1-1.2-1.6-1.7
			c-0.1-0.1-0.1-0.1-0.1-0.2c0-0.1,0.1-0.2,0.2-0.2c0.1,0,0.3,0,0.4,0c0.4,0.1,0.7,0.2,1.1,0.4c0.5,0.2,0.9,0.4,1.4,0.7
			c0.1,0,0.1,0,0.2,0c0.5-0.6,1-1.2,1.5-1.8c0.8-0.8,1.5-1.6,2.4-2.4c0.5-0.4,0.9-0.8,1.4-1.2c0.2-0.2,0.5-0.3,0.7-0.4
			c0.1,0,0.2,0,0.3,0c0.2,0,0.2,0.1,0.1,0.2c-0.1,0.1-0.1,0.1-0.2,0.2c-0.4,0.4-0.9,0.9-1.3,1.3c-1.2,1.3-2.3,2.7-3.1,4.2
			C161,364,160.4,365.2,159.9,366.5C159.9,366.4,159.9,366.4,159.9,366.5z"/>
		<g>
			<g>
				<text transform="matrix(1 0 0 1 183.2116 400.4657)"><tspan x="0" y="0" class="st19 st40 st41">[[core value 1]], [[core value 2]], [[core value 3]], [[core value 4]] and</tspan><tspan x="0" y="16.8" class="st19 st40 st41">[[core value5]]</tspan></text>
			</g>
		</g>
		<path class="st9" d="M159.9,409.1c-0.1-0.2-0.2-0.4-0.3-0.6c-0.4-0.7-0.8-1.4-1.3-2.1c-0.5-0.6-1-1.2-1.6-1.7
			c-0.1-0.1-0.1-0.1-0.1-0.2c0-0.1,0.1-0.2,0.2-0.2c0.1,0,0.3,0,0.4,0c0.4,0.1,0.7,0.2,1.1,0.4c0.5,0.2,0.9,0.4,1.4,0.7
			c0.1,0,0.1,0,0.2,0c0.5-0.6,1-1.2,1.5-1.8c0.8-0.8,1.5-1.6,2.4-2.4c0.5-0.4,0.9-0.8,1.4-1.2c0.2-0.2,0.5-0.3,0.7-0.4
			c0.1,0,0.2,0,0.3,0c0.2,0,0.2,0.1,0.1,0.2c-0.1,0.1-0.1,0.1-0.2,0.2c-0.4,0.4-0.9,0.9-1.3,1.3c-1.2,1.3-2.3,2.7-3.1,4.2
			C161,406.7,160.4,407.8,159.9,409.1C159.9,409,159.9,409.1,159.9,409.1z"/>
		<g>
			<g>
				<text transform="matrix(1 0 0 1 183.5691 441.2118)" class="st19 st40 st41">Accept responsibility for our written Mission Statement</text>
			</g>
		</g>
		<path class="st9" d="M159.9,442.2c-0.1-0.2-0.2-0.4-0.3-0.6c-0.4-0.7-0.8-1.4-1.3-2.1c-0.5-0.6-1-1.2-1.6-1.7
			c-0.1-0.1-0.1-0.1-0.1-0.2c0-0.1,0.1-0.2,0.2-0.2c0.1,0,0.3,0,0.4,0c0.4,0.1,0.7,0.2,1.1,0.4c0.5,0.2,0.9,0.4,1.4,0.7
			c0.1,0,0.1,0,0.2,0c0.5-0.6,1-1.2,1.5-1.8c0.8-0.8,1.5-1.6,2.4-2.4c0.5-0.4,0.9-0.8,1.4-1.2c0.2-0.2,0.5-0.3,0.7-0.4
			c0.1,0,0.2,0,0.3,0c0.2,0,0.2,0.1,0.1,0.2c-0.1,0.1-0.1,0.1-0.2,0.2c-0.4,0.4-0.9,0.9-1.3,1.3c-1.2,1.3-2.3,2.7-3.1,4.2
			C161,439.7,160.4,440.9,159.9,442.2C159.9,442.1,159.9,442.1,159.9,442.2z"/>
		<g>
			<g>
				<text transform="matrix(1 0 0 1 183.2116 469.5223)"><tspan x="0" y="0" class="st19 st40 st41">Commit to be an encouragement to each other as me move forward</tspan><tspan x="0" y="14.7" class="st19 st40 st41">in life together.</tspan></text>
			</g>
		</g>
		<path class="st9" d="M159.9,478.2c-0.1-0.2-0.2-0.4-0.3-0.6c-0.4-0.7-0.8-1.4-1.3-2.1c-0.5-0.6-1-1.2-1.6-1.7
			c-0.1-0.1-0.1-0.1-0.1-0.2c0-0.1,0.1-0.2,0.2-0.2c0.1,0,0.3,0,0.4,0c0.4,0.1,0.7,0.2,1.1,0.4c0.5,0.2,0.9,0.4,1.4,0.7
			c0.1,0,0.1,0,0.2,0c0.5-0.6,1-1.2,1.5-1.8c0.8-0.8,1.5-1.6,2.4-2.4c0.5-0.4,0.9-0.8,1.4-1.2c0.2-0.2,0.5-0.3,0.7-0.4
			c0.1,0,0.2,0,0.3,0c0.2,0,0.2,0.1,0.1,0.2c-0.1,0.1-0.1,0.1-0.2,0.2c-0.4,0.4-0.9,0.9-1.3,1.3c-1.2,1.3-2.3,2.7-3.1,4.2
			C161,475.7,160.4,476.9,159.9,478.2C159.9,478.1,159.9,478.1,159.9,478.2z"/>
		<g>
			<g>
				<text transform="matrix(1 0 0 1 183.2116 512.1786)" class="st19 st40 st41">Daily seek communion with Christ</text>
			</g>
		</g>
		<path class="st9" d="M159.9,513.1c-0.1-0.2-0.2-0.4-0.3-0.6c-0.4-0.7-0.8-1.4-1.3-2.1c-0.5-0.6-1-1.2-1.6-1.7
			c-0.1-0.1-0.1-0.1-0.1-0.2c0-0.1,0.1-0.2,0.2-0.2c0.1,0,0.3,0,0.4,0c0.4,0.1,0.7,0.2,1.1,0.4c0.5,0.2,0.9,0.4,1.4,0.7
			c0.1,0,0.1,0,0.2,0c0.5-0.6,1-1.2,1.5-1.8c0.8-0.8,1.5-1.6,2.4-2.4c0.5-0.4,0.9-0.8,1.4-1.2c0.2-0.2,0.5-0.3,0.7-0.4
			c0.1,0,0.2,0,0.3,0c0.2,0,0.2,0.1,0.1,0.2c-0.1,0.1-0.1,0.1-0.2,0.2c-0.4,0.4-0.9,0.9-1.3,1.3c-1.2,1.3-2.3,2.7-3.1,4.2
			C161,510.7,160.4,511.9,159.9,513.1C159.9,513.1,159.9,513.1,159.9,513.1z"/>
		<g>
			<g>
				<text transform="matrix(1 0 0 1 183.2116 537.62)" class="st19 st40 st41">Obey God and those in authority</text>
			</g>
		</g>
		<path class="st9" d="M159.9,538.6c-0.1-0.2-0.2-0.4-0.3-0.6c-0.4-0.7-0.8-1.4-1.3-2.1c-0.5-0.6-1-1.2-1.6-1.7
			c-0.1-0.1-0.1-0.1-0.1-0.2c0-0.1,0.1-0.2,0.2-0.2c0.1,0,0.3,0,0.4,0c0.4,0.1,0.7,0.2,1.1,0.4c0.5,0.2,0.9,0.4,1.4,0.7
			c0.1,0,0.1,0,0.2,0c0.5-0.6,1-1.2,1.5-1.8c0.8-0.8,1.5-1.6,2.4-2.4c0.5-0.4,0.9-0.8,1.4-1.2c0.2-0.2,0.5-0.3,0.7-0.4
			c0.1,0,0.2,0,0.3,0c0.2,0,0.2,0.1,0.1,0.2c-0.1,0.1-0.1,0.1-0.2,0.2c-0.4,0.4-0.9,0.9-1.3,1.3c-1.2,1.3-2.3,2.7-3.1,4.2
			C161,536.1,160.4,537.3,159.9,538.6C159.9,538.5,159.9,538.5,159.9,538.6z"/>
		<g>
			<g>
				<text transform="matrix(1 0 0 1 183.2116 563.6024)" class="st19 st40 st41">Love Unconditionally</text>
			</g>
		</g>
		<path class="st9" d="M159.9,564.6c-0.1-0.2-0.2-0.4-0.3-0.6c-0.4-0.7-0.8-1.4-1.3-2.1c-0.5-0.6-1-1.2-1.6-1.7
			c-0.1-0.1-0.1-0.1-0.1-0.2c0-0.1,0.1-0.2,0.2-0.2c0.1,0,0.3,0,0.4,0c0.4,0.1,0.7,0.2,1.1,0.4c0.5,0.2,0.9,0.4,1.4,0.7
			c0.1,0,0.1,0,0.2,0c0.5-0.6,1-1.2,1.5-1.8c0.8-0.8,1.5-1.6,2.4-2.4c0.5-0.4,0.9-0.8,1.4-1.2c0.2-0.2,0.5-0.3,0.7-0.4
			c0.1,0,0.2,0,0.3,0c0.2,0,0.2,0.1,0.1,0.2c-0.1,0.1-0.1,0.1-0.2,0.2c-0.4,0.4-0.9,0.9-1.3,1.3c-1.2,1.3-2.3,2.7-3.1,4.2
			C161,562.1,160.4,563.3,159.9,564.6C159.9,564.5,159.9,564.5,159.9,564.6z"/>
		<g>
			<g>
				<text transform="matrix(1 0 0 1 183.2116 587.0243)" class="st19 st40 st41">Respect the individuality and property of others</text>
			</g>
		</g>
		<path class="st9" d="M159.9,588c-0.1-0.2-0.2-0.4-0.3-0.6c-0.4-0.7-0.8-1.4-1.3-2.1c-0.5-0.6-1-1.2-1.6-1.7
			c-0.1-0.1-0.1-0.1-0.1-0.2c0-0.1,0.1-0.2,0.2-0.2c0.1,0,0.3,0,0.4,0c0.4,0.1,0.7,0.2,1.1,0.4c0.5,0.2,0.9,0.4,1.4,0.7
			c0.1,0,0.1,0,0.2,0c0.5-0.6,1-1.2,1.5-1.8c0.8-0.8,1.5-1.6,2.4-2.4c0.5-0.4,0.9-0.8,1.4-1.2c0.2-0.2,0.5-0.3,0.7-0.4
			c0.1,0,0.2,0,0.3,0c0.2,0,0.2,0.1,0.1,0.2c-0.1,0.1-0.1,0.1-0.2,0.2c-0.4,0.4-0.9,0.9-1.3,1.3c-1.2,1.3-2.3,2.7-3.1,4.2
			C161,585.5,160.4,586.7,159.9,588C159.9,587.9,159.9,587.9,159.9,588z"/>
		<g>
			<g>
				<text transform="matrix(1 0 0 1 183.2507 613.37)" class="st19 st40 st41">Wisely steward my personal property</text>
			</g>
		</g>
		<path class="st9" d="M159.9,614.3c-0.1-0.2-0.2-0.4-0.3-0.6c-0.4-0.7-0.8-1.4-1.3-2.1c-0.5-0.6-1-1.2-1.6-1.7
			c-0.1-0.1-0.1-0.1-0.1-0.2c0-0.1,0.1-0.2,0.2-0.2c0.1,0,0.3,0,0.4,0c0.4,0.1,0.7,0.2,1.1,0.4c0.5,0.2,0.9,0.4,1.4,0.7
			c0.1,0,0.1,0,0.2,0c0.5-0.6,1-1.2,1.5-1.8c0.8-0.8,1.5-1.6,2.4-2.4c0.5-0.4,0.9-0.8,1.4-1.2c0.2-0.2,0.5-0.3,0.7-0.4
			c0.1,0,0.2,0,0.3,0c0.2,0,0.2,0.1,0.1,0.2c-0.1,0.1-0.1,0.1-0.2,0.2c-0.4,0.4-0.9,0.9-1.3,1.3c-1.2,1.3-2.3,2.7-3.1,4.2
			C161,611.9,160.4,613,159.9,614.3C159.9,614.3,159.9,614.3,159.9,614.3z"/>
		<g>
			<g>
				<text transform="matrix(1 0 0 1 183.2116 637.8524)"><tspan x="0" y="0" class="st19 st40 st41">Honor our parents both in how we communicate and how we engage</tspan><tspan x="0" y="13.3" class="st19 st40 st41">in family activities together.</tspan></text>
			</g>
		</g>
		<path class="st9" d="M159.9,646.5c-0.1-0.2-0.2-0.4-0.3-0.6c-0.4-0.7-0.8-1.4-1.3-2.1c-0.5-0.6-1-1.2-1.6-1.7
			c-0.1-0.1-0.1-0.1-0.1-0.2c0-0.1,0.1-0.2,0.2-0.2c0.1,0,0.3,0,0.4,0c0.4,0.1,0.7,0.2,1.1,0.4c0.5,0.2,0.9,0.4,1.4,0.7
			c0.1,0,0.1,0,0.2,0c0.5-0.6,1-1.2,1.5-1.8c0.8-0.8,1.5-1.6,2.4-2.4c0.5-0.4,0.9-0.8,1.4-1.2c0.2-0.2,0.5-0.3,0.7-0.4
			c0.1,0,0.2,0,0.3,0c0.2,0,0.2,0.1,0.1,0.2c-0.1,0.1-0.1,0.1-0.2,0.2c-0.4,0.4-0.9,0.9-1.3,1.3c-1.2,1.3-2.3,2.7-3.1,4.2
			C161,644.1,160.4,645.2,159.9,646.5C159.9,646.4,159.9,646.5,159.9,646.5z"/>
	</g>
	<text transform="matrix(1 0 0 1 178.824 262.745)"><tspan x="0" y="0" class="st42 st43 st44">So that we may continue to grow together to become</tspan><tspan x="0" y="21.3" class="st42 st43 st44">all that God has created us to be</tspan></text>
	<text transform="matrix(1 0 0 1 178.8238 323.2489)" class="st42 st45 st46">We hereby pledge to do the following:</text>
</g>
<g id="_x39_">
	<g>
		<defs>
			<rect id="SVGID_48_" x="631.9" y="0.4" width="612" height="792"/>
		</defs>
		<clipPath id="SVGID_4_">
			<use xlink:href="#SVGID_48_"  style="overflow:visible;"/>
		</clipPath>
		<circle style="clip-path:url(#SVGID_4_);fill:#00ADEE;" cx="632.6" cy="790.1" r="142.9"/>
	</g>
</g>
</svg>
